<?xml version="1.0" encoding="utf-8"?>
<!-- Generator: Adobe Illustrator 26.5.0, SVG Export Plug-In . SVG Version: 6.00 Build 0)  -->
<svg version="1.1" id="Layer_1" xmlns="http://www.w3.org/2000/svg" xmlns:xlink="http://www.w3.org/1999/xlink" x="0px" y="0px"
	 viewBox="0 0 1080 1080" style="enable-background:new 0 0 1080 1080;" xml:space="preserve">
<style type="text/css">
	.st0{fill:#191919;}
	.st1{fill:#8731EA;}
	.st2{fill:#F7F6F1;}
	.st3{fill:#FFDC78;}
	.st4{fill:#D642BC;}
	.st5{fill:#FF5687;}
	.st6{fill:#FF9772;}
	.st7{fill:#FEFEFE;}
	.st8{fill:#8201FC;}
	.st9{fill:#070608;}
</style>
<g id="mhVWIy_00000162330552186590937090000013282122817276374692_">
	<g>
		<path class="st0" d="M1018.7,515.1c-0.2,1.5-1.4,2.2-2.4,3.2c-21.8,21.8-43.6,43.6-65.4,65.4C895.8,638.9,840.7,694,785.6,749.2
			c-3.5,3.5-3.5,3.5-7,0.1c-76.4-76.4-152.7-152.8-229-229.3c-2.2-2.2-3.3-2.5-5.7-0.1c-10.7,10.9-21.7,21.5-32.5,32.3
			c-36.6,36.6-73.2,73.3-109.8,110c-29.2,29.3-58.3,58.6-87.5,87.9c-2,2-3.2,2.4-5.4,0.2c-77-77.2-154.1-154.3-231.2-231.4
			c-3.8-3.8-3.8-3.8,0-7.5c76.8-76.8,153.6-153.6,230.3-230.4c3.5-3.5,3.5-3.5,7-0.1c76.4,76.4,152.7,152.8,229,229.3
			c2.2,2.2,3.3,2.4,5.6,0.1c68.5-68.7,137-137.2,205.6-205.8c7.9-7.9,15.8-15.8,23.7-23.7c3.3-3.3,3.3-3.3,6.5-0.1
			c19,19,37.9,37.9,56.8,56.9c1.5,1.5,2.9,2.1,5.2,2.1c13.8-0.4,27.7-0.5,41.6-0.6c3.4,0,3.9,0.9,2.2,4.1c-4.5,8.4-8.8,16.8-13.6,25
			c-1.5,2.6-0.9,4,1,5.9c45.9,45.9,91.8,91.8,137.7,137.8C1017.2,512.7,1018.5,513.5,1018.7,515.1z M787.2,486.6
			c-0.1-0.1-0.2-0.2-0.3-0.3c-0.2-2.3-1.1-4.2-3.1-6.6c0,2.2-0.3,3.5,0.2,4.9c-0.2,2.7,0.8,4.8,2.6,6.9c5.5,6.5,9.7,13.8,12.2,22.1
			c0.9,2.8,0.3,3.9-2.3,5.3c-7.9,4.1-12.6,12.9-8.7,20.9c1.4,2.9,3.9,4.7,6.2,6.9c-2.3,1.7-4.8,2-7.2,2c-2.5,0-3.2,1-2.8,3.2
			c-0.3,6-0.4,12,0,17.9c-0.6,2.1,0.8,2.4,2.4,2.8c13.2,3.5,26.3,7,39.5,10.5c1,0.3,2.3,0.1,3.1,1.7c-8-0.5-15.8-0.9-23.5-1.4
			c-6.4-0.4-12.7-0.8-19.1-1.2c-0.9,0-2.3-0.6-2.4,1c-0.1,1.5,1.3,1.2,2.2,1.3c0.3,0,0.7,0,1,0.1c14,0.8,28.1,1.7,42.1,2.5
			c1.1,0.1,2.2,0.2,3.3,0.3c-1.5,1.1-3,1.4-4.5,1.7c-13.7,2.7-27.4,5.3-41.1,8c-1.2,0.2-3.4-0.2-3.1,1.6c0.4,2.3,2.5,0.6,3.6,0.4
			c12.7-2.3,25.4-4.8,38.1-7.2c0.1,0.3,0.2,0.7,0.2,1c-9.8,3.6-19.7,7.1-29.5,10.7c-3.7,1.3-7.3,2.6-11,4c-0.8,0.3-1.8,0.8-1.3,1.9
			c0.4,0.9,1.3,0.5,2,0.3c1.7-0.5,3.3-1.4,5.1-1.5c4.8,4.9,10.7,8.3,15.9,12.7c1.1,0.9,2.8,1.5,2.4,3.3c-0.3,1.8-2.2,1.7-3.5,2.1
			c-6.5,2-13,3.9-19.6,5.6c-2,0.5-2.8,1.5-2.7,3.5c0.1,2.6,0,5.1,0,7.7c0,17.4,0,34.9,0,52.3c0,0.9-0.5,2.3,0.8,2.6
			c0.9,0.3,1.5-0.8,2.1-1.4c3.2-3.1,6.4-6.3,9.6-9.3c1.5-1.4,2.9-3.8,5.1-3.2c2.3,0.6,2.1,3.4,2.6,5.4c2,8.4,3.7,16.8,5.7,25.2
			c0.3,1.3,0.1,3,1.5,3.5c1.5,0.5,2.2-1.2,3.1-2.1c6.8-6.8,13.6-13.6,20.4-20.4c32-32,63.9-64.1,95.9-96c2.3-2.3,2.7-3.7,0.4-6.5
			c-12.8-15.1-21.4-32.3-25.4-51.7c10.2-3,20.6-5.6,31-7.8c3,13.9,9.3,26.1,18.5,37c1.6,1.8,2.7,2.1,4.5,0.1c2.5-2.8,5.2-5.5,8-8.1
			c1.7-1.6,1.8-2.8,0.3-4.7c-6.9-8.4-11.5-18-13.8-28.6c6.2-1.9,12.4-3.5,18.8-4.6c1.1,7.5,4,14.3,8.2,20.6c1.2,1.7,2.2,1.9,3.6,0.3
			c2-2.1,4.1-4.1,6.1-6.2c0.9-0.9,1.7-1.9,0.7-3.2c-3.2-4.4-4.7-9.5-6.3-14.6c5.2-1.7,10.5-3,15.8-3.9c0,2.3,0.9,4.3,2,6.3
			c0.8,1.4,1.7,1.6,2.9,0.4c2.6-2.6,5.1-5.2,7.8-7.8c1.2-1.2,1.3-2.2,0-3.3c-1.8-1.7-3.5-3.4-5.2-5.2c-4.3-4.3-5.2-4.1-6.9,2
			c0,0.1,0,0.2,0,0.3c-5-1.1-9.8-3.1-14.7-4.8c0.7-1.6,1.6-3.2,2.1-4.9c0.8-3,5.4-4.8,3.7-8.1c-1.4-2.7-4.4-4.6-6.6-7
			c-1.6-1.7-2.6-1.5-3.9,0.3c-3.5,4.7-6,9.9-7.9,15.3c-6.3-1.9-12.5-4-18.6-6.4c2.8-8.5,6.9-16.4,12.8-23.2c1.2-1.4,1-2.5-0.2-3.7
			c-3-2.9-6-5.9-9-9c-1.4-1.5-2.5-1.4-3.8,0.1c-7.6,8.9-13.6,18.7-16.8,30c-9.9-3-19.7-6.4-29.5-9.9c0.4-1.4,0.7-2.8,1.2-4.2
			c5.2-13.8,12.6-26.4,22.5-37.4c2-2.2,1.8-3.4-0.2-5.4c-17.9-17.8-35.7-35.7-53.6-53.5c-4.8-4.8-4.8-4.8-8.1,1.1c-2.2,4-3,4-5.5,0
			c-5.3-8.3-10.6-16.5-15.9-24.8c-3.2-5.1-5.6-10.9-9.6-15.2c-13.5-14.3-27.6-28-41.5-41.9c-0.5-0.5-1.1-1.4-1.9-1.2
			c-1,0.2-0.7,1.3-0.8,2c-0.9,7.5-1.9,15.1-2.7,22.6c-0.8,7.4-0.9,7.5-7.1,3.9c-2.1-1.2-2.5-0.4-2.4,1.6c0,3.2,0,6.5,0,9.7
			c0,8.5,0,8.3,8.3,6.6c4.9-1,9.9-1.6,14.9-2.3c0.9-0.1,1.9-0.4,2.4,0.5c0.6,1.1-0.2,1.9-0.9,2.6c-0.4,0.4-0.8,0.8-1.2,1.2
			c-7.2,7.7-14.3,15.3-21.5,23c-1.2,1.2-2.1,2.5-2.1,4.4c0.1,4.8,0.1,9.6,0,14.4c-0.1,2.1,0.8,2.7,2.8,2.7
			c5.1-0.1,10.3-0.1,15.4-0.2c4.4,0,4.9,0.7,2.9,4.6c-5,9.3-9.8,18.8-15.2,27.9c-4.1,7-6.9,14.1-5.9,22.4c0.3,2.7,0.2,5.6,0,8.4
			c-0.2,2.9,0.8,3.6,3.6,3.5c10.2-0.5,20.3-0.7,30.5-1c1.2,0,2.6-0.5,3.3,0.9c0.7,1.5-0.7,2.2-1.6,3c-9.2,8.8-18.5,17.5-27.7,26.3
			c-1.2,1.2-2.5,1.9-4.2,1.6C787.4,487,787.3,486.8,787.2,486.6l0.1-0.1L787.2,486.6z M762.7,300.6c1.2,1,2.1,0,3-0.5
			c4.1-2.2,8.1-4.6,12.3-6.6c2.4-1.2,2.9-2.7,2-5.4c-4.3,2.7-9.1,4.2-12.6,8.1C766.1,297.8,764.7,299.6,762.7,300.6
			c0,0.1,0.1,0.2,0.2,0.2c0,0,0,0.1,0,0.2C762.8,300.9,762.8,300.7,762.7,300.6z M713.5,627.6c-6.1-3.7-13.2-5-19.7-7.6
			c-1.3-0.5-2.5-1.1-3,1.1c-0.5,1.9,0.3,2.5,2,2.9c5.1,1.1,10.3,1.9,15.3,3.4C709.8,627.7,711.7,629.1,713.5,627.6
			c2,2,4.8,1.2,7.1,2C718.3,628.7,716.3,627,713.5,627.6z M673.7,410.3c-0.4,1.2-1.6,1.4-2.5,2c-6.2,4-12.4,7.9-18.6,11.8
			c-3.3,2.1-3.3,3.5-0.1,5.5c1.5,0.9,3.1,1.7,4.6,2.7c1.6,1,2.8,0.7,3.9-0.9c4-6.2,8.1-12.3,12.2-18.4
			C673.7,412.2,674.4,411.4,673.7,410.3c0.1,0.2,0.2,0.3,0.3,0.5c0,0,0.1,0,0.2-0.1C674,410.6,673.8,410.5,673.7,410.3z
			 M217.9,518.6c0.3,2.3,0.8,4.6,1,6.9c1.3,11.4,4.6,22.2,9.8,32.5c1.2,2.4,2.4,3,4.4,0.9c1.5-1.5,3.1-2.9,4.7-4.3
			c2.4-2,2.6-3.9,1.2-6.9c-9.1-20.3-9.6-41-1.5-61.8c3.2-8.2,3.3-8.2-3.5-13.9c-0.3-0.3-0.8-0.5-1.1-0.8c-1.8-2-3-1.6-4.2,0.8
			c-3.7,7.4-6.6,15.1-8.4,23.2c-1.1,4.9-1,10-2.5,14.8c-0.3-0.9-0.6-1.9-1-2.8c-3.6-10-13.5-15.9-23.8-14.1
			c-10.2,1.7-17.9,10.7-17.9,21.2c0,10.5,7.4,19.3,17.8,21.2C204.2,537.4,213.9,530.9,217.9,518.6z M515.1,485.9
			c0.1,0.1,0.1,0.2,0.2,0.2C515.2,486.1,515.1,486.1,515.1,485.9c-0.8-0.9-1.5-1.9-2.4-2.8c-7.6-7.6-15.3-15.3-22.9-22.9
			c-10.3-10.3-20.5-20.5-30.8-30.8c-47.5-47.5-95-95.1-142.6-142.6c-0.8-0.8-1.4-2.5-2.8-1.8c-1.1,0.5-0.5,2-0.5,3.1
			c0,8.4,0,16.8-0.1,25.1c0,2,0.6,3.2,2.1,4.5c13.3,11.1,26.5,22.3,39.7,33.5c32.8,27.8,65.6,55.5,98.4,83.3
			c17.4,14.7,34.6,29.5,52.1,44.1C508.5,481.2,511.1,484.5,515.1,485.9z M524.5,500.1c0.1,0.3,0.1,0.7,0.5,0.1
			C524.8,500.2,524.6,500.1,524.5,500.1c0-1.7-1.5-2.4-2.6-3.1c-4.9-3.6-9.3-7.8-14-11.8c-31.4-26.6-62.7-53.1-94.1-79.6
			c-32.5-27.5-65-54.9-97.5-82.4c-0.7-0.6-1.5-1.8-2.4-1.5c-1.3,0.5-0.7,1.9-0.7,3c0,13.6,0.1,27.3-0.1,40.9c0,3,1.1,4.6,3.5,6.1
			c63.3,39.2,126.5,78.5,189.9,117.7C512.4,493,517.9,497.3,524.5,500.1z M402.1,605.4c-1.6-0.1-2.9-1-4.2-1.8c1-0.7,2-1.4,3.1-2
			c34.7-21.5,69.4-43.1,104-64.6c1-0.6,2.6-0.9,2.5-2.7c10.4-4.9,20.9-9.6,31.4-14.1c5.6-2.4,5.8-5.6,1.1-9.2c-1.5-1.1-3.2-2-5-2.7
			c-7.5-3.2-15-6.5-22.2-10.2c-0.7-2-2.7-2.5-4.2-3.5c-49.7-30.9-99.5-61.8-149.3-92.7c-14.4-8.9-28.8-17.9-43.2-26.8
			c-1.2-0.7-2.9-2.4-2.9,0.9c0.1,15.3,0.1,30.6,0.2,45.9c-0.1,3.9-0.1,7.8-0.3,11.7c-0.1,1.6,0.5,2,2.1,2.1
			c3.8,0.3,7.6,0.6,11.3,1.3c37.6,6.9,65.6,41.5,64.4,79.5c-1.2,39.9-30.8,72.8-69.4,77.4c-2.7,0.3-6.5-0.6-7.9,1.2
			c-1.3,1.8-0.4,5.4-0.4,8.2c0,4.8,0,5,5.1,4.5c2.3-0.2,3.1,0.5,3.6,2.6c1.7,6.7,1.8,6.6-5.2,7.1c-1.1,0.1-2.9-0.5-2.8,1.7
			c0.1,2.3,1.9,1.5,3,1.5c13.9-0.8,27.7-0.5,41.5,0.9c10,1,20,2.3,29.8,4.7c4.5,1.1,7.4,4,8.3,8.7c0.7,3.6,0.1,7.1-1.5,10.4
			c-1.5,3.1-3.6,5.9-6,8.4c-1.7,1.7-1.8,3.1,0.1,4.7c1.5,1.3,3,2.8,4,4.5c1.6,2.6,2.6,2.2,3.7-0.3c1.1-0.3,1.8-1.3,2.6-2
			c35.9-35.9,71.9-71.9,107.7-107.9c3.2-3.2,6.4-6.4,9.8-9.4c1-0.9,2.4-1.6,2.2-3.3c-0.9-0.3-1.3,0.2-1.7,0.5
			c-4.1,3.6-8.1,7.2-12.3,10.8c-24.3,20.5-48.6,41-72.9,61.5c-10.6,8.9-21.2,17.8-31.8,26.7c-0.2-1.6-0.9-3.3,1-4.4
			c2.7-1.5,4.2-4.1,5.8-6.6c1.2,0.3,1.9-0.6,2.6-1.2c26.4-22.3,52.8-44.7,79.2-67c10.6-9,21.3-17.9,31.9-26.9c1.2-1,2.4-2,2.8-3.7
			c-5,2.7-9.7,5.7-14.4,8.6c-34.8,21.6-69.6,43.2-104.4,64.8C403.8,603.6,402.4,604,402.1,605.4z M615.6,573.3
			c2.5-1.8,4.6-3.5,7.2-4.4c2.7-1,5.4-1.8,7.8,0.6c2.4,2.3,2.2,5.3,1.3,8.1c-1.1,3.8-3.5,6.7-6.2,9.4c-1.2,1.1-1.3,2-0.2,3.4
			c3.2,3.9,6.5,7.7,10.8,10.5c7.2,4.7,14.7,5.3,22.2,1.1c8.2-4.6,15.9-10,22.3-17c4.5-4.9,7.5-10.5,8.6-17.1
			c1.4-8.6-2.2-15.4-8.2-21.3c-0.7-0.7-1.7-1.5-0.7-2.5c1-1.1,2-0.6,2.9,0.3c3.9,4.1,7.5,8.4,8.6,14.1c0.5,2.4,1.6,2.8,3.6,2.6
			c11.1-1,19.7-6.5,25.6-15.7c5.2-8.1,8.5-16.9,2.6-26.3c-0.5-0.7-0.5-1.6,0.2-2.1c0.7-0.5,1.6-0.3,2.1,0.4c0.6,0.7,1.2,1.4,1.4,2.2
			c1.2,3.9,4.2,4.3,7.5,3.7c7.4-1.3,12.4-5.5,14.5-12.7c2.1-7,0.5-13.7-2.7-20.1c-1.8-3.5-4.2-6.6-6.9-9.4c-0.8-0.9-1-1.8-0.1-2.6
			c0.9-0.8,1.6-0.2,2.3,0.5c8.2,9.1,13.5,19.2,10.5,32c-0.2,0.9-0.4,1.7,0.2,2.5c5.5,6.5,8.5,14.4,12.5,21.7
			c2.7,5,6.4,9.1,11.7,11.7c3.3,1.6,3.5,1.4,3.5-2.1c0-16,0-31.9,0-47.9c0-12.6,0.2-12.9-10.5-19.8c-23.7-15.3-49.4-26.2-76.1-35.3
			c-12.9-4.4-26.4-5.5-40-5.6c-14.3-0.1-25.9,6.3-36.8,14.8c-24.2,18.8-45,41.1-66.7,62.5c-1.8,1.8-0.6,2.6,0.5,3.7
			c13.1,13.1,26.4,26.1,39.2,39.4c4.4,4.6,8.9,7.8,15.5,7.5c2.9-0.1,5.8,0.6,8.7,0.9c0.9,0.1,1.8,0.2,2.6-0.3
			c8.7-4.5,16.8-3.1,24.5,2.5c1.2,0.9,2.4,1.7,4,1c-0.1-1.7-1.2-2.8-2-4.1c-1-1.5-2-3-2.9-4.5c-0.5-0.8-0.4-1.5,0.4-2
			c0.8-0.5,1.6-0.6,2,0.3c1.7,3.1,4.3,5.7,5.5,9.1c0.8,2.3,0.6,4.6-1.5,6c-2,1.3-3.5-0.3-5-1.5c-2.1-1.9-4.5-3.3-7-4.6
			c-5-2.6-10.2-2.4-15.2-0.3C617.2,567.7,615.2,569.5,615.6,573.3z M309.5,745.9c0.2-0.3,0.2-0.4,0.2-0.5c0-40.6,0-81.3,0.1-121.9
			c0-2.3-1-2.4-2.9-2.3c-13.9,1.3-27.7,3.4-41.2,6.9c-8,2-15.8,4.8-23.1,8.8c-8,4.5-14.8,10.3-19.3,18.5c-1.3,2.3-1.1,3.7,0.8,5.7
			c27.8,27.6,55.4,55.4,83.1,83.1C307.9,744.8,308.3,745.7,309.5,745.9z M173.4,459.5c-0.5,0-0.9-0.1-1.4,0
			c-17.3,2.8-33.4,8.6-48.7,17.2c-17,9.5-30.2,23.5-43.8,37.1c-1.4,1.4-0.5,2,0.4,2.9c5.3,5.3,10.6,10.6,15.9,15.8
			c16.2,15.8,35.2,27,56.8,33.6c5.4,1.7,11,2.9,16.5,4.3c0.6,0.2,1.6,0.5,2-0.6c0.2-0.8-0.4-1.2-1.1-1.5c-0.4-0.2-0.8-0.4-1.2-0.6
			c-20.6-11.9-31.8-29.7-31.5-53.5c0.3-23.9,12-41.5,33-52.9C171.4,460.9,172.8,460.8,173.4,459.5z M309,515.4
			c0.3,0.1,0.5,0.3,0.8,0.4c0,9.3,0,18.7,0.1,28c0,1.2-2.2,1.4-1.1,2.3c1.8,1.6,1,3.5,1,5.3c0.1,12,0,23.9,0,35.9
			c0,0.9,0,1.8,0.1,2.7c0.1,1,1,1.1,1.8,1.2c1,0.1,1.4-0.5,1.4-1.5c0-0.9,0-1.8,0-2.7c0-42.8,0-85.6,0-128.3c0-4.2,0-4.1,3.9-3.7
			c9.9,0.9,19,4.1,27.3,9.4c0.8,0.5,1.7,1.6,2.5,0.4c0.7-1.1,0.1-2.1-0.9-2.8c-0.6-0.4-1.3-0.9-2-1.3c-8.6-5.1-17.9-8.1-27.9-8.6
			c-2.6-0.1-3.2-1.1-3-3.4c0.2-2.7,0-5.4,0.1-8c0-1.1-0.2-2-1.6-1.9c-1.4,0-1.6,0.8-1.6,1.9c0,2.7-0.1,5.4,0.1,8
			c0.2,2.4-0.5,3.5-3.1,3.4c-3.2-0.1-6.4,0.6-9.6,1.4c-12.3,2.9-22.8,8.9-31.6,18c-0.5,0.5-1.8,1-0.9,2.1c0.5,0.6,1.2,1.2,2,0.7
			c0.7-0.4,1.2-1,1.7-1.6c10.5-10.3,23.1-16.2,37.8-17.7c2.9-0.3,3.6,0.4,3.6,3.3c-0.1,17.3,0,34.6,0,51.9c0,1.5,0,2.9,0,4.4
			c-0.3,0.1-0.6,0.2-0.9,0.2c-4.8-4.9-9.7-9.8-14.5-14.7c-8.3-8.4-17.4-15.6-27.5-21.8c-1.9-1.1-2.8-0.9-4,0.8
			c-3.1,4.4-5.8,9-7.8,14c-0.9,2.1-0.9,3.9-0.3,6.1c4.6,17.8,2,34.6-8.5,49.8c-2.4,3.5-2.5,5.9,0.1,8.9c0.2,0.2,0.4,0.5,0.6,0.8
			c1,2.3,2.4,2.4,4.7,1.4c17.3-7.8,32.3-18.9,45.5-32.5C301,523.4,305,519.4,309,515.4z M779.3,695.2c-0.1-0.4-0.1-0.8-0.2-1.1
			c-3.2-14.2-6.4-28.5-9.7-42.7c-1-4.3-2.2-4.5-5.4-1.5c-10.3,10-20.6,20.1-30.8,30.2c-2.3,2.3-2,3.3,1.1,4.3c6.8,2,13.7,4,20.5,6.1
			c7.1,2.1,14.1,4.1,21.2,6.2C777.6,697.2,779.1,697.5,779.3,695.2z M309.8,429c0-1.1-0.1-2.2,0-3.3c0.5-3.3-1.2-3.9-4.1-3.7
			c-13.1,1.2-25.7,4.4-37.4,10.6c-12.1,6.4-22.3,15-30.7,25.8c-1.5,1.9-1.5,3,1.2,3.7c2.6,0.7,5.1,1.6,7.5,2.7
			c2.1,1,3.3,0.5,4.8-1.2c13.9-15.9,31.2-25.2,52.3-27.4C311.1,435.3,309.6,436.4,309.8,429z M309.8,601.4c0-6.7,0-6.7-5.2-7.2
			c-21.5-2.1-39.5-11.3-53.6-27.7c-1.5-1.8-2.9-2-4.9-1.2c-2.4,1-4.8,1.9-7.2,2.6c-2.5,0.8-3,1.7-1.2,3.9
			c16.8,21.1,38.6,33.1,65.3,35.9C311.4,608.6,309.5,608.6,309.8,601.4z M701.1,440.5c1.4,0.7,1.8,1,2.3,1.1
			c19.8,7.4,39,16,57.6,26.1c1.5,0.8,2.4,0.5,3.4-0.7c3.3-3.7,4.7-8,4.4-12.9c-0.8-10.3-9.3-18-20.8-17.4
			C732.6,437.5,717.4,439.1,701.1,440.5z M309.8,376.7c0-4.1-0.1-8.3,0-12.4c0.1-1.9-0.6-2.8-2.3-3.5c-8.6-3.4-18.9-0.6-24.6,6.9
			c-5.7,7.5-5.7,18,0,25.6c5.7,7.5,15.9,10.4,24.6,7c1.7-0.7,2.8-1.6,2.3-3.4c-0.9-3.3,0.1-6.6,0-9.9
			C309.7,383.7,309.8,380.2,309.8,376.7z M779.6,430.8c0.5-0.4,0.7-0.4,0.7-0.5c0.1-12.9,0.1-25.9,0.2-38.8c0-1.4-0.7-1.7-1.9-1.6
			c-6.7,0.2-13.4,0.2-20.1,0.5c-2.9,0.1-3.6,1.3-2,3.9C764.1,406.4,771.8,418.5,779.6,430.8z M766.5,583.3
			c-3.6-0.2-7.1-0.4-10.7-0.7c-1.5-0.1-2.4,0-2.8,1.8c-1.3,5.8-2.8,11.5-4.3,17.2c-0.5,2-0.5,2.8,2,2.3c9.2-1.9,18.4-3.6,27.6-5.3
			c1.7-0.3,2.3-0.9,2.2-2.6c-0.1-3.2-0.1-6.5,0-9.7c0.1-1.8-0.6-2.3-2.3-2.4C774.3,583.8,770.4,583.6,766.5,583.3z M749.4,420.2
			C749.4,420.2,749.4,420.2,749.4,420.2c-5.2,0.3-10.5,0.6-15.7,0.9c-5.1,0.3-5.1,0.3-3.9-4.6c0.8-3,0.1-3.8-2.9-3
			c-5.5,1.4-11,2.8-16.5,4.2c-8.1,2.1-16.2,4.1-24.3,6.2c-1.2,0.3-3.1,0.5-2.3,2.4c1.4,3.4,3.2,6.6,4.8,9.9c0.3,0.7,1,0.9,1.6,1.1
			c0.5,0.1,1.1,0.4,1.6,0c0.5-0.5,0-1-0.2-1.5c-1-2.2-1.9-4.5-3.1-6.7c-1-1.9-0.7-2.6,1.4-3.2c11.4-2.8,22.7-5.7,34.1-8.7
			c2.3-0.6,2.8-0.1,2.1,2.1c-1.5,4.7-2.8,9.4-4.1,14.1c-0.2,0.7-0.8,1.8,0.2,1.9c1.6,0.2,3.5,0.2,4.9-0.5c1.3-0.6-0.2-1.9-0.5-2.9
			c-1.4-4.2,0.8-7.6,5.2-7.8c12.3-0.7,24.5-1.4,36.8-2.1c0.9-0.1,2.5,0.4,2.5-0.8c0-1.3-1.1-2.4-2.8-2.2c-0.7,0.1-1.3,0.1-2,0.1
			C760.6,419.6,755,419.9,749.4,420.2z M219.4,384.2c0.1,0.7,0.1,1.2,0.3,1.5c3,4.9,0.5,8.2-3.5,10.8c-6.4,4.2-13.6,5.9-21,5.5
			c-5-0.3-6.9,2.9-9.8,5.9c0.9,0.2,1.3,0.3,1.7,0.3c14.1,0.6,27.3-3,39.8-9.5c2.3-1.2,3.9-3.3,5.6-5.3c1.7-2,1.6-3.8-0.7-5.4
			C228.1,385.6,224,384.6,219.4,384.2z M748.1,367.4c-0.3-0.3-0.6-0.5-0.9-0.8c-1.1,0.9-2.2,1.7-3.3,2.6
			c-11.1,8.3-22.1,16.6-33.2,24.9c-0.9,0.7-2.6,1.1-2,2.7c1.5,4.1,3.1,8.1,4.9,12.7C725.4,395,736.7,381.2,748.1,367.4z
			 M683.7,613.9c16.6,5.9,32.6,11.5,48.6,17.1c0.1-0.2,0.2-0.5,0.4-0.7c-12.3-8.3-24.5-16.5-36.7-24.8c-0.8-0.6-1.5-0.7-2.4,0
			C690.4,608.1,687.3,610.8,683.7,613.9z M742.3,624.3c0.2-0.3,0.4-0.5,0.7-0.8c1.5,0.4,3,0.8,4.5,1.1c1.8,0.3,3.1-0.4,2.3-2.3
			c-3.4-7.9-6.9-15.7-10.4-23.6c-0.6-1.4-1.5-1.8-2.8-0.5c-4.1,4-8.2,7.9-12.3,11.9c-0.8,0.8-2.2,1.5-0.7,2.9c1.4,1.3,2-0.1,2.7-0.7
			c3.7-3.4,7.3-6.9,11.2-10.6c2.9,6.6,5.6,12.7,8.6,19.5c-6.7-1.8-12.6-3.3-19-5c3.9,6.2,10.8,4.7,15.9,7.7
			c-1.5,1.2-3.2,1.8-3.7,3.7c-0.3,1.1,0.1,1.7,0.8,2.3c0.5,0.4,1,0.7,1.3,0c1.5-2.4,2.1-0.2,2.7,0.6c4.6,6,9.1,12.2,13.7,18.2
			c0.6,0.8,0.9,2.7,2.6,1.4c1.8-1.3,0.3-2.3-0.4-3.3c-3.4-4.6-6.8-9.1-10.2-13.7C747.3,630.1,745.2,626.9,742.3,624.3z M780.5,576.4
			c0-5.3,0-5.3-5.2-6.6c-4.3-1.1-8.6-2.1-12.9-3.5c-2.1-0.7-2.7,0-3.2,1.9c-0.9,3.3-1.8,6.6-3,9.9c-0.8,2.1,0,2.4,1.9,2.5
			c5.7,0.2,11.3,0.6,17,1C780.5,581.8,780.5,581.8,780.5,576.4z M743.9,365.6c-1.5-0.5-2.4-0.1-3.4,0.4c-9.7,4.5-19.5,8.9-29.2,13.3
			c-7.5,3.4-7.4,3.3-3.9,10.7c1.1,2.3,1.8,2.4,3.8,0.9c9.6-7.3,19.3-14.5,28.9-21.7C741.3,368.1,742.5,366.9,743.9,365.6z
			 M754.1,545.8c-0.1-0.3-0.2-0.5-0.3-0.8c-9.6,1.1-19.2,2.3-28.9,3.4c-1.4,0.2-2,0.8-1.9,2.1c0.1,2.9,0.1,5.8,0.3,8.7
			c0.3,4.1,0.6,4.2,4,2.3c5.1-2.9,10.2-5.9,15.3-8.9C746.5,550.3,750.3,548.1,754.1,545.8z M732.9,626.4c-0.7-0.8-1.3-1.7-2.1-2.5
			c-7.6-7.9-15.2-15.7-22.9-23.5c-5.1-5.3-5.1-5.2-9.3,0.9c-1.3,1.9-1,2.7,0.8,3.8c9.3,6.2,18.5,12.4,27.8,18.7c1.5,1,2.9,2,4.2,3.2
			C732.2,627.6,732.5,627,732.9,626.4z M716,682c0-13.9,0-27.7,0-41.5c0-0.9-0.1-1.9-1-2.3c-1.2-0.6-2.1,0.3-3,1
			c-6.6,5.1-13.2,10.3-19.8,15.5c-0.8,0.6-2.7,1-1.2,2.7c1.3,1.5,2.2,0.2,3-0.5c5.4-4.2,10.8-8.4,16.2-12.5c0.7-0.5,1.3-1.6,2.2-1.3
			c1.1,0.5,0.6,1.8,0.6,2.7c0.2,10.5,0.4,21,0.6,31.5C713.6,679.4,714.1,681.2,716,682z M195.1,397.9c0.1,0.3,0.3,0.6,0.4,0.8
			c4.6,0.2,9.2-0.1,13.7-1.4c3.2-0.9,5.9-2.5,8.1-5.1c0.8-1,1.6-2,1.2-3.3c-1-2.7-2-5.4-3.9-7.7c-0.9-1.1-1.6-1.1-2.7-0.1
			C206.3,386.8,200.7,392.4,195.1,397.9z M252.1,491.4c2-3.7,3.8-6.8,5.5-10.1c1.1-2.1,4.1-3.9,3.4-6c-0.7-2-4-2.5-6.1-3.6
			c-6.7-3.3-7.9-2.7-10.9,4.2c-0.4,1-0.3,1.6,0.3,2.4C247.4,482.2,249.8,486.6,252.1,491.4z M726,338.4c7-0.4,13.4-0.8,19.8-1.2
			c0.8,0,1.9-0.6,2.5,0.2c0.6,0.9-0.4,1.6-0.8,2.4c-4.5,8.2-9.1,16.3-13.6,24.5c-0.4,0.7-1.3,1.3-0.6,2.3c1.9-0.5,3.5-1.3,4.5-3.1
			c4.7-8.6,9.5-17.1,14.3-25.7c1.8-3.2,1.2-4.1-2.6-3.9c-6.3,0.4-12.7,0.9-19,1.2C728.4,335.3,727.2,336.2,726,338.4z M716,579.6
			c-2.3-1.3-4.8-2.1-7.3-2.9c-2.6-0.8-5.1-1.6-7.7-2.5c-9.2-3-9.2-3-12,6.4c0,0.1-0.1,0.2-0.1,0.3c-0.7,2.3-0.2,3.4,2.5,3
			c7.4-1.1,14.8-2.1,22.2-3.2C714.6,580.6,715.5,580.6,716,579.6z M749.9,659.6c-7,0.3-13.6,0.5-20.1,1c-3.4,0.3-3.1-0.7-1.9-3.1
			c3.1-6.4,6.7-12.6,9.2-19.3c0.3-0.8,1.9-1.9,0-2.7c-1.5-0.7-2.2,0.3-2.8,1.5c-3.8,7.8-7.7,15.6-11.5,23.4
			c-1.3,2.6-0.6,3.5,2.2,3.4c6.6-0.3,13.1-0.7,19.7-1C747,662.7,748.6,662.1,749.9,659.6z M720,577.9c0.2-0.3,0.5-0.6,0.7-1
			c-4.9-4.7-9.8-9.4-14.6-14.1c-0.7-0.6-1.4-0.6-2.2-0.4c-2.4,0.8-5,1.3-7.5,1.6c-2.5,0.3-2.2,2.6-2.7,4.1c-0.7,1.9,1.4,1.7,2.3,2
			c3,1.1,6.1,2,9.2,3C710.1,574.7,715.1,576.3,720,577.9z M751.2,543c0-0.3,0.1-0.5,0.1-0.8c-6.8-2.8-13.7-5.7-20.5-8.5
			c-0.8-0.3-1.5-0.5-1.7,0.7c-0.7,4-2.6,7.7-4.4,11.8C733.8,545,742.5,544,751.2,543z M686.8,403c-1.7-0.1-2.5-1.2-3.4-1.8
			c-3.5-2.5-7.1-5.1-10.5-7.7c-0.9-0.7-1.7-0.9-2.6,0.1c-1.1,1.3,0,1.7,0.8,2.3c4.9,3.6,9.9,7.2,14.9,10.8c2,1.5,3.3,1.1,3.6-1.5
			c0.5-4,1.1-7.9,1.6-11.9c1-7.6,2-15.2,3.1-23c-3.8,1.6-3.6,4.8-4,7.7C689,386.3,687.9,394.7,686.8,403z M731.3,562
			c-2.1,1.3-3.5,1.7-4,3.5c-1.7,6.7-3.5,13.4-5.3,20c-0.6,2.1,0.2,3.1,2.3,2.8c8.3-1.2,16.5-2.6,24.8-3.8c1.4-0.2,2.1-1,1.9-2.2
			c-0.3-1.9-1.8-0.8-2.6-0.7c-6.7,1-13.5,2-20.2,3.1c-2.6,0.5-3-0.1-2.3-2.7C727.8,575.7,729.4,569.2,731.3,562z M783.8,735.3
			C783.8,735.3,783.8,735.3,783.8,735.3c0,2.7,0,5.4,0,8c0,0.7-0.3,1.7,0.7,2c0.7,0.2,1.2-0.5,1.6-0.9c4.1-4.1,8.2-8.2,12.3-12.3
			c1.6-1.5,1.2-2.5-0.7-3c-3.8-1.1-7.7-2.2-11.6-3.4c-1.9-0.6-2.4,0.2-2.3,1.9C783.8,730.1,783.8,732.7,783.8,735.3z M780.5,704
			c-0.4-0.3-0.8-0.5-1.2-0.8c-4.2,4.4-8.4,8.9-12.6,13.3c-1.3,1.4-1.6,2.8,0.6,3.5c3.8,1.2,7.7,2.3,11.5,3.4
			c1.2,0.4,1.7,0.1,1.6-1.2C780.5,716.2,780.5,710.1,780.5,704z M780.5,605.8c0-1-0.1-1.4,0-1.9c0.4-2.7-0.5-3.6-3.3-2.7
			c-2.1,0.7-4.3,0.9-6.5,1.3c-7.9,1.5-7.9,1.5-4.9,9c0.7,1.9,1.5,2.4,3.4,1.6c2.4-1.1,5-2.1,7.5-2.6
			C779.8,609.8,781.3,608.5,780.5,605.8z M656.4,622c1.2,2.3,2.4,3.2,4.4,3.2c4.6,0.1,9.1,0.4,13.7,0.6c3.9,0.1,4.3-0.5,2.7-4.3
			c-2.7-6.3-5.5-12.7-8.3-18.9c-0.4-0.9-0.2-2.8-2.2-2.1c-1.9,0.7-1.1,2.1-0.5,3.3c2.3,5.3,4.6,10.6,7,15.9c1.2,2.5,1,3.3-2,3.1
			C666.5,622.3,661.7,622.2,656.4,622z M676.9,413c-0.2-0.1-0.5-0.2-0.7-0.4c-4.4,6.6-8.8,13.2-13.5,20.2c3.9,0.4,7,0.6,10.1,1
			c1.8,0.2,2.3-0.4,2.4-2.2C675.7,425.4,676.4,419.2,676.9,413z M757.7,360.2c-1.9,1.6-1.9,2.9-0.9,4.6c3.3,5.7,6.4,11.5,9.5,17.3
			c1.2,2.2,2.4,2.8,4.3,0.8c2.8-3,5.7-5.9,8.7-8.9c1.4-1.4,1.6-2.9,0.6-5.3c-4,3.9-7.6,7.5-11.3,11.2
			C765,373.5,761.4,367,757.7,360.2z M626.2,571c-3.2,0.8-6.7,2.1-8.6,5.3c-1.5,2.6,1.4,4.3,2.3,6.3c0.4,0.9,1.1,1.6,1.7,2.5
			c0.5,0.7,1,0.7,1.6,0.1c2.9-3,5.7-6,6.2-10.4C629.7,572.9,629.1,571.1,626.2,571z M778.9,346.3c-0.3,0.1-0.7,0.1-1,0.2
			c-8.6,1.7-17.1,4-25.8,5.2c-0.8,0.1-1.4,0.5-1.3,1.2c0.1,1.9,1.2,3.3,2.3,4.7c0.5,0.7,1.2-0.1,1.8-0.3c0.5-0.2,0.8-0.6,0.6-1
			c-1.2-2.3,0.7-2.1,1.9-2.3c4.3-0.9,8.7-1.8,13.1-2.8c2.9-0.6,5.9-1.3,8.8-1.9c1.1-0.2,1.4-1,1.3-2
			C780.4,346.2,779.8,346,778.9,346.3z M744.3,376.8c-0.2-0.2-0.4-0.4-0.6-0.5c-6.5,7.9-13,15.8-19.5,23.7c-1,1.2-0.9,2,0.5,2.5
			c1.1,0.4,2.2,2.6,3.5,0.4C733.6,394.2,739,385.5,744.3,376.8z M765.7,626.8C765.7,626.8,765.8,626.8,765.7,626.8
			c0,2.2-0.2,4.5-0.3,6.7c-0.1,2,0.6,3.1,2.7,2.6c3.6-0.7,7.2-1.6,10.8-2.3c1.2-0.3,1.7-1,1.5-2.2c-0.3-1.7-1.5-0.9-2.4-0.7
			c-2.5,0.5-5,1-7.5,1.7c-1.6,0.4-2.2,0-2.1-1.7c0.3-4.2,0.5-8.5,0.6-12.7c0-0.7,0.9-2.2-1-2.2c-1.4,0-1.9,0.8-1.9,2.1
			C766.1,621,765.9,623.9,765.7,626.8z M685.4,603.2c3.6-5.8,7.2-11.4,11-17.4c-2-0.1-3.4-0.2-4.3,1.3c-3.5,5.6-7.1,11.1-10.6,16.7
			c-0.6,0.9-0.9,1.9,0.2,2.7c2.1,1.5,8-0.4,9.4-2.9C689.3,603.3,687.5,604.1,685.4,603.2z M714.1,602.9c1.1,2.9,3.6,2.4,5.9,2.3
			c3,0,3.5-1.5,2.4-3.9c-1.4-3.1-2.9-6.2-4.4-9.4c-1.2-2.4-2.4-4.8-3.5-7.2c-0.6-1.4-1.6-2-2.9-1.3c-1.5,0.8-0.2,1.8,0.2,2.5
			c1.6,3.5,3.4,7,5,10.6c0.8,1.6,2.3,3.4,2,4.8C718.4,603.5,715.5,601.6,714.1,602.9z M208.2,603.5c-0.1-2.8-2.4-5-5.2-4.9
			c-2.7,0.1-4.8,2.4-4.8,5c0,2.8,2.3,5.1,5.1,5C206.1,608.6,208.3,606.3,208.2,603.5z M780.2,320.7c0.3-1.8,0.7-3.1-0.6-3.9
			c-6.2-4.2-12.4-8.3-18.6-12.5c-1.1-0.7-1.6,0-2.2,0.7c-0.8,0.9-0.1,1.4,0.6,1.8C766.2,311.4,773,315.9,780.2,320.7z M714.8,349.3
			c-1.4,0.8-2,1.6-1,3.2c3.4,5.5,6.7,11.1,10.1,16.6c0.6,1,1.3,1.4,2.4,0.8c1.5-0.8,0.6-1.6,0.1-2.5c-3.4-5.6-6.8-11.3-10.2-16.9
			C715.8,350.1,715.7,349.3,714.8,349.3z M173.9,439.2c5.6,0.5,4.6,5.3,6.7,8.7c1.1-3.6,2.1-6.7,6-8.1c-5.7-0.1-5.8-4.1-6.3-8.2
			C178.2,434.3,181.1,440.5,173.9,439.2z M768.4,443.4c2.1-5,4.2-9.9,6.3-14.7c0.7-1.7-0.5-2.5-1.5-3.9c-2.3,5.3-4.2,10-6.4,14.8
			C766,441.4,767.1,442.2,768.4,443.4z M756.6,564.7c-0.1-0.3-0.2-0.7-0.4-0.9c-3.7-3.1-7.4-6.1-11.1-9.1c-0.9-0.7-1.8,0.1-2.3,0.7
			c-0.9,1,0.3,1.3,0.8,1.7c3.5,2.9,7.1,5.8,10.6,8.7c0.5,0.4,1,1.2,1.7,0.7C756.3,566.1,756.3,565.3,756.6,564.7z M200.9,416.8
			c7.2,0.3,13.9-1.2,19.3-6.3C213.8,412.7,207,413.8,200.9,416.8z M225.6,625.1c-1.8,2.1-0.2,6-4.4,6.4c4.8,0.8,3.1,5,4.6,8.4
			c0.7-3.9,1.3-6.9,5.2-8C226.2,631.6,226.5,627.9,225.6,625.1z M780.2,470.6c0.4-3.8,0.5-6.5-0.9-9c-0.4-0.7-1.6-1.7,0.2-2.4
			c1.3-0.5,1.4-1.8,0.7-2.4c-1.2-1.2-2.9-0.6-4.4-0.4c-1.2,0.2-1.5,1.3-1.1,2.4C776.4,462.4,778.1,466,780.2,470.6z M683.1,587.6
			c-3.5,0.4-0.7,4.3-2.8,4.7c-2.3,0.4-4.3,0.8-5.8,2.7c-0.1,0.1,0,0.4,0,0.6c1.1,0,2.2,0,3.3,0C686,595.2,686,595.2,683.1,587.6z
			 M301.5,618.4c9.5-0.3,8.7,0.7,7.8-6.4C306.4,613.7,303.8,615.6,301.5,618.4z M250.6,497c-1.2,3.4-1.8,6.8-2.2,10.2
			c-0.1,0.9-0.6,2.2,0.9,2.4c1.1,0.2,1.6-0.7,1.8-1.6C251.8,504.5,253,500.9,250.6,497z M657.7,606.3c-5.1,0-6.8,3.8-9.3,6.5
			c-0.9,0.9-0.3,1.5,0.4,2.2c0.8,0.8,1.3,0.4,1.9-0.3C652.9,612,655.1,609.3,657.7,606.3z M268.5,338.2c-1.3,1.7-0.9,4.4-4,4.2
			c3.3,0.8,2,3.7,3.4,5.7c0-2.7,1-4.4,3.9-4.9C268.6,342.9,269.1,340.4,268.5,338.2z M221.3,406.7c-0.4-2.4-1.9-2.2-3.2-1.3
			c-1.3,1-4.8,0-3.7,2.8c0.9,2.5,3.1-0.1,4.7-0.2C219.9,408,221.3,407.9,221.3,406.7z M207.8,411.5c0.9-0.9,3.8,0.8,4.3-2.2
			c0.1-0.9-0.4-2-1.6-1.4c-1.7,0.8-4.3-0.2-5,2.2C205.1,411.2,205.9,412,207.8,411.5z M198.5,413c1.3-0.6,3.8,0.7,4.7-1.7
			c0.3-0.8-0.4-2-1.5-1.5c-1.8,0.7-4.5-0.6-5.3,2.1C196,413.1,197.2,413.1,198.5,413z M241.2,434.2c-1.3,0.2-2.2,1-2.2,2.4
			c0,1.5,1,2.5,2.6,2.4c1.6-0.1,2.4-1.2,2.3-2.7C243.7,434.9,242.7,434.1,241.2,434.2z M225.2,462.1c2.1,1.3,3.9,2.4,5.6,3.6
			c1.3,0.9,1.7-0.2,2.3-1c0.7-1.1-0.1-1.4-0.9-1.6C230,462.6,227.9,461.5,225.2,462.1z M224.5,568.1c0,0.2,0.1,0.4,0.1,0.6
			c2.4-0.6,4.7-1.1,7.1-1.7c0.6-0.2,1.5-0.3,1.6-1c0-0.6-0.5-1.2-0.9-1.7c-0.7-0.9-1.4-0.1-2,0.3C228.5,565.8,226.5,567,224.5,568.1
			z M228.6,403.1c-0.3-0.9-0.5-1.9-1.2-1.5c-1.5,0.8-3.9,0.6-4.3,2.8c-0.1,0.6,0.3,1.9,1.2,1.6C226,405.5,227.7,404.6,228.6,403.1z
			 M190.9,410.9c-1.1,0.5-3.1-0.9-3.2,1.2c-0.2,2.2,1.9,1.4,2.9,1.4c1.2,0,3.4,0.8,3.2-1.5C193.7,410,191.9,411.4,190.9,410.9z
			 M233.8,396.5c-1.6,0.3-2.1,1.5-3,2.3c-0.8,0.6-1.1,1.6-0.1,2.2c1,0.7,1.3-0.5,1.7-1C233,399,234,398.2,233.8,396.5z M351.5,494.4
			c-0.9,0.1-1.5,0.6-1.5,1.4c0,1,0.5,1.6,1.6,1.7c0.9,0,1.4-0.6,1.5-1.4C353.1,495.1,352.5,494.5,351.5,494.4z M183.7,410.3
			c-0.9,0-1.7,0.3-1.7,1.2c0,1.1,1.3,1,2.1,1.3c0.8,0.3,1.2-0.3,1.2-1.1C185.3,410.6,184.6,410.4,183.7,410.3z M308.1,341
			c-0.1-0.8-0.5-1.3-1.3-1.2c-0.8,0.1-1.2,0.6-1.1,1.4c0.1,0.6,0.5,1,1.1,1C307.5,342.3,308,341.9,308.1,341z M346.5,561.2
			c0-0.7-0.1-1.4-1-1.3c-0.8,0.1-1.1,0.7-1.2,1.4c-0.2,0.7,0.1,1.5,0.8,1.6C346,562.9,346.3,562.1,346.5,561.2z M520.1,539.2
			c0-0.1,0.1-0.2,0.1-0.3c-0.1,0.1-0.2,0.1-0.4,0.2C520,539.1,520.1,539.1,520.1,539.2z M524.9,529.3c-0.1-0.1-0.1-0.2-0.2-0.2
			c-0.1,0-0.2,0.1-0.2,0.2c0.1,0.1,0.1,0.2,0.2,0.2C524.8,529.4,524.9,529.3,524.9,529.3z"/>
		<path class="st1" d="M784,569.9c-0.4-6-0.3-12,0-17.9c10.7,0.9,17.1-3.6,19.3-14.1c2.9-13.4-0.2-25.8-6.6-37.6
			c-2.6-4.7-6.3-8.6-9.2-13.1c1.7,0.3,3-0.4,4.2-1.6c9.2-8.8,18.5-17.5,27.7-26.3c0.8-0.8,2.2-1.5,1.6-3c-0.7-1.4-2.1-1-3.3-0.9
			c-10.2,0.3-20.3,0.6-30.5,1c-2.8,0.1-3.8-0.6-3.6-3.5c0.2-2.8,0.3-5.6,0-8.4c-1-8.3,1.7-15.4,5.9-22.4
			c5.4-9.1,10.2-18.6,15.2-27.9c2.1-3.8,1.6-4.6-2.9-4.6c-5.1,0-10.3,0-15.4,0.2c-2,0.1-2.8-0.6-2.8-2.7c0.1-4.8,0.1-9.6,0-14.4
			c0-1.9,0.9-3.1,2.1-4.4c7.2-7.7,14.3-15.3,21.5-23c0.4-0.4,0.8-0.8,1.2-1.2c0.7-0.8,1.5-1.6,0.9-2.6c-0.5-0.9-1.6-0.6-2.4-0.5
			c-5,0.7-10,1.3-14.9,2.3c-8.3,1.7-8.3,1.8-8.3-6.6c0-3.2,0-6.5,0-9.7c0-1.9,0.3-2.8,2.4-1.6c6.3,3.7,6.3,3.5,7.1-3.9
			c0.8-7.5,1.8-15.1,2.7-22.6c0.1-0.7-0.2-1.8,0.8-2c0.8-0.2,1.4,0.6,1.9,1.2c13.9,13.9,28,27.6,41.5,41.9c4,4.3,6.4,10.1,9.6,15.2
			c5.2,8.3,10.6,16.6,15.9,24.8c2.6,4,3.3,4,5.5,0c3.3-5.9,3.3-5.9,8.1-1.1c17.8,17.9,35.6,35.7,53.6,53.5c2,2,2.2,3.1,0.2,5.4
			c-9.9,11-17.3,23.5-22.5,37.4c-0.5,1.4-0.8,2.8-1.2,4.2c-0.5-0.1-1.1-0.2-1.6-0.4c-17.4-5.9-34.8-11.9-52.3-17.8
			c-4.3-1.5-4.3-1.4-6.2,2.8c-0.9,2.1-1.9,4.3-2.8,6.5c-3.6,8.8-9.3,17-7,27.3c0.2,0.8-0.1,1.7-1.2,1.6c-4.3-0.6-6.2,2.6-8.1,5.4
			c-9.7,13.7-17.5,28.5-25.7,43.1c-0.5,1-1.1,2-0.3,3.1c0.9,1.1,2,0.6,3.1,0.4c8.7-1.5,17.4-3.1,26-4.6c7-1.2,7-1.3,7.2,5.7
			c0,0.3,0,0.7,0,1c0.2,3.7,0.8,4.1,4.3,3.3c7.3-1.8,14.5-3.6,21.8-5.4c13-3.2,26-6.3,39-9.5c4,19.4,12.6,36.7,25.4,51.7
			c2.3,2.7,2,4.1-0.4,6.5c-32,31.9-63.9,64-95.9,96c-6.8,6.8-13.6,13.6-20.4,20.4c-0.9,0.9-1.7,2.6-3.1,2.1
			c-1.3-0.5-1.2-2.3-1.5-3.5c-1.9-8.4-3.7-16.8-5.7-25.2c-0.5-2-0.3-4.8-2.6-5.4c-2.3-0.6-3.6,1.8-5.1,3.2c-3.3,3.1-6.4,6.2-9.6,9.3
			c-0.6,0.6-1.2,1.7-2.1,1.4c-1.2-0.4-0.8-1.7-0.8-2.6c0-17.4,0-34.9,0-52.3c0-2.6,0.1-5.1,0-7.7c-0.1-2,0.7-3,2.7-3.5
			c6.6-1.7,13.1-3.7,19.6-5.6c1.3-0.4,3.2-0.3,3.5-2.1c0.3-1.8-1.4-2.4-2.4-3.3c-5.2-4.4-11.1-7.8-15.9-12.7
			c1.2-0.5,2.4-1.2,3.7-1.6c16.3-5.9,32.7-11.9,49-17.8c1-0.4,2.5-0.4,2.3-1.9c-0.1-1.3-1.4-1.2-2.4-1.4c-8.1-2.1-16.2-4.2-24.3-6.4
			C807.7,576,795.8,572.9,784,569.9z M823.6,363.5c0,0.2,0,0.4,0,0.6c-7.1,0-14.3-0.1-21.4,0c-4.7,0.1-5.4,1.5-2.9,5.4
			c7.5,11.9,15.1,23.7,22.6,35.5c2.2,3.4,3.3,3.3,5.2-0.3c6.7-12.2,13.3-24.5,19.8-36.7c2-3.6,1.5-4.5-2.7-4.5
			C837.4,363.5,830.5,363.5,823.6,363.5z"/>
		<path class="st2" d="M615.6,573.3c-0.4-3.8,1.6-5.6,4.2-6.6c5.1-2.1,10.2-2.3,15.2,0.3c2.5,1.3,4.9,2.7,7,4.6c1.4,1.3,3,2.9,5,1.5
			c2.1-1.4,2.3-3.7,1.5-6c-1.2-3.4-3.8-6-5.5-9.1c-0.5-0.9-1.3-0.7-2-0.3c-0.8,0.5-0.9,1.3-0.4,2c0.9,1.5,1.9,3,2.9,4.5
			c0.8,1.3,2,2.4,2,4.1c-1.6,0.6-2.8-0.1-4-1c-7.7-5.6-15.8-7-24.5-2.5c-0.9,0.4-1.7,0.4-2.6,0.3c-2.9-0.3-5.8-1-8.7-0.9
			c-6.6,0.2-11.1-3-15.5-7.5c-12.9-13.4-26.1-26.3-39.2-39.4c-1.1-1.1-2.4-1.9-0.5-3.7c21.7-21.4,42.5-43.8,66.7-62.5
			c11-8.5,22.5-14.8,36.8-14.8c13.6,0.1,27,1.2,40,5.6c26.6,9.1,52.4,20,76.1,35.3c10.7,6.9,10.5,7.2,10.5,19.8c0,16,0,31.9,0,47.9
			c0,3.5-0.2,3.7-3.5,2.1c-5.2-2.5-9-6.7-11.7-11.7c-4-7.4-7-15.2-12.5-21.7c-0.7-0.8-0.4-1.6-0.2-2.5c2.9-12.8-2.3-22.9-10.5-32
			c-0.6-0.7-1.4-1.3-2.3-0.5c-1,0.8-0.7,1.7,0.1,2.6c2.7,2.9,5.1,5.9,6.9,9.4c3.3,6.4,4.9,13,2.7,20.1c-2.2,7.2-7.2,11.4-14.5,12.7
			c-3.3,0.6-6.3,0.2-7.5-3.7c-0.3-0.8-0.9-1.6-1.4-2.2c-0.5-0.7-1.4-0.8-2.1-0.4c-0.8,0.5-0.7,1.4-0.2,2.1
			c5.9,9.4,2.6,18.2-2.6,26.3c-5.9,9.2-14.5,14.7-25.6,15.7c-2,0.2-3.1-0.2-3.6-2.6c-1.1-5.7-4.7-10-8.6-14.1
			c-0.9-0.9-1.9-1.4-2.9-0.3c-1,1,0,1.8,0.7,2.5c6,5.8,9.5,12.6,8.2,21.3c-1,6.6-4.1,12.3-8.6,17.1c-6.4,7-14.1,12.4-22.3,17
			c-7.5,4.2-15,3.5-22.2-1.1c-4.3-2.8-7.6-6.5-10.8-10.5c-1.1-1.4-0.9-2.2,0.2-3.4c2.7-2.7,5.1-5.6,6.2-9.4c0.8-2.9,1.1-5.8-1.3-8.1
			c-2.4-2.3-5.1-1.5-7.8-0.6C620.2,569.8,618.1,571.4,615.6,573.3z M648.5,520.9c2.6,0,5.1-0.2,7.6-0.8c7.7-1.8,10.9-7.4,8.4-14.9
			c-0.6-1.8-1.5-3.5-2.3-5.2c-0.4-0.9-0.9-2,0.3-2.6c1-0.5,1.7,0.4,2.1,1.2c2.7,4.9,4.7,9.9,2.9,15.6c-0.3,0.8-0.8,1.6,0.2,2.4
			c3.5,2.9,13.3,2.5,16.4-0.8c4.6-4.8,5-14.4,1-19.6c-0.9-1.2-1.7-1.7-3.4-1.1c-6,2.1-11.1,0.3-15-4.4c-2.4-2.8-5.2-4.4-8.6-5.4
			c-4.9-1.3-9.8-2-14.9-2.4c-1-0.1-2.6,0-2.4-1.6c0.2-1.5,1.6-1.3,2.7-1.2c3.5,0.4,7.1,0.8,10.6,1.4c6,1.1,11.5,3,15.6,8.2
			c2.5,3.2,6.3,4,10.4,3c1.5-0.4,2-1,1.3-2.6c-2.7-6.5-6.9-11.8-13.6-14.5c-5.1-2.1-10.5-3.5-15.8-5.2c-1.4-0.4-2.8-0.7-4.3-0.8
			c-6.2-0.4-7.9,0.8-9.9,6.6c-0.5,1.6-0.8,3.3-1.5,4.8c-1.6,3.4,0.7,6.5,1,9.7c0.1,0.8,3.8-0.3,5.9-0.1c0.9,0.1,1.8,0.1,2.7,0.2
			c7.3,1,10.3,6.3,7.5,13.1c-0.5,1.1-0.8,2.7-2.4,2.1c-1.5-0.6-0.6-1.9-0.3-2.9c2-6.3-0.1-9.4-6.7-9.6c-1.4,0-2.9,0-4.3,0.2
			c-6.2,0.9-9.5,3.8-10.7,9.4c-1.2,5.8,0.9,11.2,5.8,14.3C638.9,520,643.6,520.8,648.5,520.9z M677.8,456.9
			c-2.9-4.8-13-9.3-17.8-7.9c-0.4,0.1-1,0.4-1,0.7c-0.9,5.2-5.3,4.2-8.6,5.1c-0.9,0.2-2,0.2-2.2-0.9c-0.3-1.4,0.9-1.6,1.9-1.8
			c1.9-0.4,4-0.3,5.6-1.7c-0.5-1-1.2-1.1-2-1.1c-4.4-0.2-8.4,1-11.7,4c-1.7,1.5-4.5,3.3-3.8,5.4c0.6,1.9,3.9,1.4,6.1,1.5
			c1.1,0,2.5-0.3,2.4,1.4c-0.1,1.4-1.4,1.3-2.3,1.3c-3.8,0.2-7.2-1-10.6-2.5c-6.9-3.1-12.3-1.5-16.6,4.8c-2.7,3.9-4.1,8.4-5.2,13
			c-0.2,1-0.2,2-1,2.8c-5.6,5.2-6.2,12.3-6.1,19.2c0.2,13.1,10.2,17,20.8,15.8c1.9-0.2,2.9-0.8,1.7-3c-1-1.8-1.4-3.8-1.4-5.8
			c-0.1-5.2,1.4-9.7,5.5-13.1c1.8-1.5,2.5-3.1,1.8-5.3c-0.8-2.3-2.8-1.8-4.5-1.9c-6.1,0-9.5,3-11.2,9.8c-0.3,1-0.2,2.6-1.8,2.2
			c-1.4-0.3-1.1-1.7-0.9-2.8c0.9-6,5-11.6,10.5-11.4c7.3,0.3,9.2-3.3,10.1-9.1c0.1-0.4,0.3-0.9,0.5-1.3c1.3-2.3,0-3.2-2.1-3.6
			c-3.4-0.6-6.7-0.2-10,0.6c-0.9,0.2-1.9,0.2-2.2-0.9c-0.3-1.1,0.7-1.6,1.5-1.8c4.4-1.1,8.8-1.9,13.2-0.1c1,0.4,1.9,1.1,3.1,0.2
			c2.1-1.7,4.8-1.9,7.3-1.8c1.6,0,2.3-0.4,2.9-2c2.1-6.4,6.9-9.3,13.4-9.7c4.1-0.2,8,0.6,11.9,1.7
			C675.7,457.1,676.7,457.8,677.8,456.9z M706.1,479.9c-2.4-6.8-5.5-12.8-11.3-16.9c-3.8-2.7-8-4.4-12.6-3.3c-3,0.8-5.7,0.6-8.5-0.3
			c-3.9-1.2-7.8-1.9-11.9-1.4c-4.4,0.5-7.8,2.5-9.6,6.8c-0.6,1.5-0.7,2.4,1.2,3c2.5,0.7,4.8,1.8,7.2,2.6c2.5,0.9,4.5,1.1,7-0.8
			c5-3.8,10.8-2.8,16.4-1.1c0.7,0.2,1.2,0.7,1,1.5c-0.2,0.9-1,1.2-1.8,1c-1.5-0.3-3.1-0.7-4.6-0.9c-2.6-0.4-5.1-0.4-7.6,0.7
			c-0.8,0.3-1.8,0.7-1.8,1.7c0,0.9,1.1,1,1.7,1.4c6.3,3.5,10.5,8.9,13.1,15.5c0.5,1.2,0.9,2.5,1.8,3.5c3.9,4.2,5.5,9.1,4.5,14.8
			c-0.2,1.4,0,2,1.5,2.3c9.8,1.6,17.1-2.7,21.1-11.5c2.6-5.6-2.5-17.2-10.8-15.5c-2.9,0.6-5.2,2-6.7,4.5c-0.5,0.8-1,2.1-2.2,1.3
			c-1.3-0.8-0.6-2-0.1-2.9c1.7-2.9,4.3-4.8,7.7-5.5C702.4,480.2,704,480.2,706.1,479.9z"/>
		<path class="st2" d="M396.6,662.7c-1.1,2.5-2.1,2.9-3.7,0.3c-1-1.7-2.5-3.2-4-4.5c-1.9-1.7-1.8-3-0.1-4.7c2.4-2.5,4.5-5.3,6-8.4
			c1.6-3.3,2.3-6.8,1.5-10.4c-0.9-4.6-3.8-7.5-8.3-8.7c-9.8-2.4-19.8-3.7-29.8-4.7c-13.8-1.3-27.6-1.6-41.5-0.9
			c-1.1,0.1-2.9,0.8-3-1.5c-0.1-2.3,1.7-1.7,2.8-1.7c7-0.4,6.9-0.4,5.2-7.1c-0.5-2.1-1.3-2.9-3.6-2.6c-5.1,0.5-5.1,0.4-5.1-4.5
			c0-2.8-0.9-6.3,0.4-8.2c1.4-1.9,5.2-0.9,7.9-1.2c38.6-4.6,68.2-37.4,69.4-77.4c1.2-38-26.8-72.7-64.4-79.5
			c-3.7-0.7-7.5-1-11.3-1.3c-1.6-0.1-2.2-0.5-2.1-2.1c0.2-3.9,0.2-7.8,0.3-11.7c12.5,0.8,25.2,1.9,36.7,6.8
			c52.8,22.3,105.4,45.2,158,67.9c1.5,0.6,2.9,1.8,4.7,1.5c7.3,3.7,14.7,7,22.2,10.2c1.7,0.7,3.5,1.6,5,2.7c4.7,3.6,4.5,6.8-1.1,9.2
			c-10.6,4.5-21.1,9.2-31.4,14.1c-1.1-0.2-1.9,0.4-2.9,0.8c-45.1,19.4-90.3,38.9-135.4,58.3c-1,0.4-2.3,0.7-3.2,2.2
			c11.3,1,21.7,3.9,31.9,8c1.3,0.8,2.6,1.6,4.2,1.8c6,4.6,7.1,10.9,5.9,17.9c-0.3,1.7-1.2,3.4-0.9,5.2c-1.7,2.5-3.1,5.1-5.8,6.6
			c-2,1.1-1.2,2.8-1,4.4c-1,3.6-2.1,7.2-4.1,10.4c-1.4,2.2-4.5,3.9-4.1,6.4C392.5,658.6,395,660.5,396.6,662.7z M368.8,440.4
			c-0.1,0.3-0.3,0.6-0.4,0.9c0.1,0.2,0.1,0.4,0.3,0.5c12.8,10,22.3,22.5,28.5,37.4c0.7,1.7,1.8,2.3,3.4,2.7
			c41.4,9.1,82.9,18.2,124.3,27.3c1,0.2,2,0.7,3.7-0.2C475,486,422,462.9,368.8,440.4z M368.7,589.9
			c54.3-23.4,108.3-46.7,163.2-70.4c-1.3,0.1-1.8,0.1-2.2,0.2c-43.3,9.9-86.6,19.9-129.9,29.8c-1.8,0.4-2.6,1.4-3.2,2.9
			c-6,13.7-14.8,25.1-26.3,34.7C369.6,587.7,368.4,587.9,368.7,589.9z M399,546.6c42.8-9.8,84.9-19.5,127-29.1
			c0-0.2-0.1-0.5-0.1-0.7c-1.8,0-3.6,0-5.3,0c-37.5,0-75,0-112.5,0c-0.7,0-1.3,0-2,0c-1.1-0.1-1.6,0.3-1.6,1.5
			C404,527.7,402.2,537,399,546.6z M527.2,513.7c0-0.3,0.1-0.5,0.1-0.8c-42.4-9.4-84.8-18.7-127.3-28.1c-0.5,1.7,0.3,2.8,0.6,3.9
			c2.1,7.1,3.4,14.4,3.6,21.7c0.1,2.9,1.1,3.3,3.7,3.3c38.7-0.1,77.3-0.1,116,0C525,513.7,526.1,513.7,527.2,513.7z M341.2,607.1
			c0.6,2.6,1.3,4.9,1.6,7.2c0.3,2.5,1.5,3.1,3.9,3.2c13.8,0.5,27.4,2.4,40.8,5c4.6,0.9,8.5,3,10.5,7.4c1.2,2.6,2.2,1.8,3.4,0.3
			c3.4-3.9,4.5-13.5,2.1-18.2c-0.5-1-1.1-1.9-2.3-2.4c-0.7,2.1-1.4,4.2-2.3,6.2c-2,4.5-4.8,6.1-8.9,5.3c-2.9-0.6-5.2-4.1-5.2-8.1
			c-0.1-2.8-0.1-5.6,0.2-8.4c0.1-1.7-0.5-2.4-2-2.8c-5.3-1.3-10.7-2.3-16.1-3c-5.7-0.7-11-0.4-16.2,2.2c-6.6,3.4-14,4.5-21.3,5.5
			c-5.6,0.8-5.5,0.6-4.2,6.1c0.6,2.7,1.6,2.5,3.5,1.3C332.8,611.7,336.9,609.5,341.2,607.1z M388.2,609.4c0.1,2.3-0.3,4.7,1.1,6.8
			c1.1,1.9,2.8,2.2,4.3,1.2c3-2,3.8-5.4,4.1-8.8c0.2-2.4-2.4-2.2-3.9-2.9C388.3,603.4,388.3,603.5,388.2,609.4z M529.5,509.8
			c-0.1-0.1-0.2-0.2-0.3-0.2c-0.2,0-0.4,0.1-0.6,0.1c0.1,0.1,0.2,0.2,0.2,0.2C529.1,509.9,529.3,509.9,529.5,509.8z M368.1,589.5
			c-0.1-0.1-0.2-0.2-0.2-0.2c-0.1,0.1-0.2,0.3-0.2,0.4c0,0.1,0.1,0.1,0.2,0.2C368,589.8,368.1,589.6,368.1,589.5z"/>
		<path class="st3" d="M309.5,745.9c-1.2-0.2-1.6-1-2.2-1.6c-27.7-27.7-55.4-55.4-83.1-83.1c-2-2-2.1-3.4-0.8-5.7
			c4.5-8.2,11.3-14,19.3-18.5c7.3-4,15-6.8,23.1-8.8c13.6-3.4,27.3-5.6,41.2-6.9c1.9-0.2,2.9-0.1,2.9,2.3
			c-0.1,40.6-0.1,81.3-0.1,121.9C309.7,745.5,309.6,745.6,309.5,745.9z"/>
		<path class="st4" d="M524.5,500.1c-6.5-2.7-12.1-7-18-10.7c-63.3-39.2-126.6-78.5-189.9-117.7c-2.4-1.5-3.6-3-3.5-6.1
			c0.2-13.6,0.1-27.3,0.1-40.9c0-1-0.6-2.5,0.7-3c0.9-0.3,1.7,0.9,2.4,1.5c32.5,27.4,65,54.9,97.5,82.4c31.4,26.5,62.8,53,94.1,79.6
			c4.7,3.9,9,8.2,14,11.8C522.9,497.7,524.5,498.4,524.5,500.1L524.5,500.1z"/>
		<path class="st5" d="M512.7,498.1c-1.8,0.3-3.2-0.9-4.7-1.5c-52.7-22.7-105.2-45.6-158-67.9c-11.5-4.9-24.2-6-36.7-6.8
			c-0.1-15.3-0.1-30.6-0.2-45.9c0-3.3,1.7-1.7,2.9-0.9c14.4,8.9,28.8,17.9,43.2,26.8c49.8,30.9,99.5,61.8,149.3,92.7
			C510,495.5,512,496.1,512.7,498.1z"/>
		<path class="st5" d="M173.4,459.5c-0.6,1.3-2,1.4-3,2c-21,11.4-32.7,29-33,52.9c-0.3,23.7,10.9,41.6,31.5,53.5
			c0.4,0.2,0.8,0.4,1.2,0.6c0.6,0.3,1.3,0.7,1.1,1.5c-0.3,1.1-1.3,0.7-2,0.6c-5.5-1.4-11-2.6-16.5-4.3
			c-21.6-6.6-40.6-17.7-56.8-33.6c-5.3-5.2-10.6-10.6-15.9-15.8c-0.9-0.9-1.8-1.5-0.4-2.9c13.5-13.6,26.7-27.6,43.8-37.1
			c15.3-8.5,31.4-14.4,48.7-17.2C172.4,459.4,172.9,459.5,173.4,459.5z"/>
		<path class="st2" d="M309,515.4c-4,4-8.1,8-12,12.1c-13.2,13.6-28.2,24.7-45.5,32.5c-2.3,1-3.7,0.9-4.7-1.4
			c-0.1-0.3-0.3-0.6-0.6-0.8c-2.6-3-2.5-5.4-0.1-8.9c10.5-15.2,13.1-31.9,8.5-49.8c-0.6-2.2-0.5-4.1,0.3-6.1c2.1-5,4.7-9.6,7.8-14
			c1.2-1.7,2.2-2,4-0.8c10,6.2,19.2,13.4,27.5,21.8c4.8,4.9,9.7,9.8,14.5,14.7c0.3-0.1,0.6-0.2,0.9-0.2c0-1.5,0-2.9,0-4.4
			c0-17.3-0.1-34.6,0-51.9c0-2.8-0.7-3.6-3.6-3.3c-14.7,1.5-27.3,7.4-37.8,17.7c-0.6,0.5-1.1,1.2-1.7,1.6c-0.8,0.5-1.6-0.1-2-0.7
			c-0.9-1.1,0.4-1.6,0.9-2.1c8.8-9.1,19.3-15.1,31.6-18c3.2-0.7,6.3-1.4,9.6-1.4c2.6,0,3.2-1,3.1-3.4c-0.2-2.7,0-5.4-0.1-8
			c0-1.2,0.2-1.9,1.6-1.9c1.4,0,1.6,0.8,1.6,1.9c0,2.7,0.1,5.4-0.1,8c-0.2,2.4,0.4,3.3,3,3.4c10,0.5,19.3,3.5,27.9,8.6
			c0.7,0.4,1.3,0.8,2,1.3c1,0.7,1.7,1.8,0.9,2.8c-0.8,1.2-1.8,0.1-2.5-0.4c-8.4-5.3-17.4-8.4-27.3-9.4c-3.9-0.4-3.9-0.4-3.9,3.7
			c0,42.8,0,85.6,0,128.3c0,0.9,0,1.8,0,2.7c0,0.9-0.4,1.5-1.4,1.5c-0.8-0.1-1.7-0.2-1.8-1.2c-0.1-0.9-0.1-1.8-0.1-2.7
			c0-12,0-23.9,0-35.9c0-1.7,0.8-3.7-1-5.3c-1-0.9,1.1-1.1,1.1-2.3c-0.1-9.3-0.1-18.7-0.1-28C309.5,515.6,309.3,515.5,309,515.4z"/>
		<path class="st1" d="M515.1,485.9c-4-1.5-6.6-4.7-9.7-7.3c-17.5-14.6-34.7-29.4-52.1-44.1c-32.8-27.8-65.6-55.5-98.4-83.3
			c-13.2-11.2-26.4-22.4-39.7-33.5c-1.5-1.3-2.2-2.6-2.1-4.5c0.1-8.4,0-16.7,0.1-25.1c0-1.1-0.6-2.6,0.5-3.1c1.4-0.7,2,1,2.8,1.8
			c47.5,47.5,95.1,95.1,142.6,142.6c10.3,10.3,20.5,20.5,30.8,30.8c7.6,7.6,15.3,15.2,22.9,22.9C513.6,484,514.3,485,515.1,485.9
			L515.1,485.9z"/>
		<path class="st2" d="M905.6,541.5c-13,3.2-26,6.3-39,9.5c-7.3,1.8-14.5,3.6-21.8,5.4c-3.5,0.9-4.1,0.4-4.3-3.3c0-0.3,0-0.7,0-1
			c-0.2-7-0.2-7-7.2-5.7c-8.7,1.5-17.4,3.1-26,4.6c-1.1,0.2-2.2,0.7-3.1-0.4c-0.8-1.1-0.3-2.1,0.3-3.1c8.1-14.6,16-29.4,25.7-43.1
			c2-2.8,3.8-6,8.1-5.4c1.1,0.1,1.3-0.7,1.2-1.6c-2.2-10.3,3.4-18.5,7-27.3c0.9-2.2,1.8-4.3,2.8-6.5c1.9-4.2,1.9-4.2,6.2-2.8
			c17.4,5.9,34.8,11.9,52.3,17.8c0.5,0.2,1.1,0.3,1.6,0.4c9.8,3.5,19.5,6.9,29.5,9.9c5.6,2.2,11.2,4.2,17,5.7
			c6.1,2.5,12.3,4.6,18.6,6.4c4.2,1.5,8.4,2.9,12.6,4.4c4.9,1.7,9.7,3.7,14.7,4.8c1.7,1.2,3.7,1.4,5.6,2.1c0.9,0.4,1.6,0.9,1.5,1.9
			c-0.1,0.9-0.7,1.3-1.5,1.5c-2,0.5-4,1.1-6.1,1.7c-5.4,1-10.7,2.3-15.8,3.9c-4.2,0.7-8.3,1.6-12.3,3.1c-6.4,1.1-12.6,2.7-18.8,4.6
			c-5.9,1.1-11.7,2.5-17.5,4.3C926.2,536,915.8,538.6,905.6,541.5z M991.4,515.6c0-0.3,0-0.5,0-0.8c-5.2-0.5-10.4-0.9-15.7-1.3
			c-44.9-3.6-89.7-7.1-134.6-10.8c-4.2-0.3-6.6,0.8-8.9,4.1c-8.4,12.3-15.7,25.2-22.8,38.3c-0.3,0.6-1,1.3-0.3,2.4
			C869.9,536.7,930.7,526.2,991.4,515.6z M982.4,508.1c-0.4-1-1.4-1-2.2-1.3c-41.6-14.1-83.2-28.2-124.8-42.4
			c-2.1-0.7-2.9-0.2-3.7,1.7c-2.3,5.6-4.7,11.1-7.3,16.5c-1.2,2.6-0.9,3.4,2.1,3.9c44.4,7.1,88.7,14.4,133.1,21.6
			C980.5,508.3,981.5,509,982.4,508.1z M958.7,508.9c0-0.2,0.1-0.4,0.1-0.6c-1.5-0.3-3-0.7-4.5-0.9c-35.3-5.8-70.5-11.5-105.8-17.2
			c-6.1-1-5.9-1-6.1,5.2c-0.1,3.2,0.7,4.3,4.1,4.5c26.4,2,52.7,4.2,79.1,6.3C936.7,507.2,947.7,508,958.7,508.9z M953.8,526
			c0-0.2-0.1-0.4-0.1-0.6c-7.1,1.2-14.2,2.4-21.3,3.6c-27.9,4.9-55.8,9.8-83.7,14.7c-5.1,0.9-4.9,0.9-5,6.1c0,2.8,0.6,3.3,3.4,2.6
			c25-6.3,50-12.5,75-18.7C932.7,531.2,943.3,528.6,953.8,526z M983.5,508.4c-0.1-0.1-0.1-0.2-0.2-0.2c-0.1,0-0.1,0.1-0.2,0.2
			c0.1,0.1,0.2,0.1,0.3,0.2C983.5,508.5,983.5,508.4,983.5,508.4z"/>
		<path class="st3" d="M407.1,628.4c-0.3-1.8,0.6-3.5,0.9-5.2c1.1-7,0.1-13.2-5.9-17.9c0.4-1.4,1.7-1.7,2.7-2.4
			c34.8-21.6,69.6-43.2,104.4-64.8c4.7-2.9,9.5-5.9,14.4-8.6c-0.3,1.7-1.6,2.7-2.8,3.7c-10.6,9-21.3,17.9-31.9,26.9
			c-26.4,22.3-52.8,44.7-79.2,67C408.9,627.9,408.3,628.8,407.1,628.4z"/>
		<path class="st6" d="M397.8,603.6c-10.2-4-20.6-7-31.9-8c0.9-1.5,2.2-1.8,3.2-2.2c45.1-19.5,90.2-38.9,135.4-58.3
			c0.9-0.4,1.8-1,2.9-0.8c0.2,1.8-1.5,2-2.5,2.7c-34.7,21.6-69.3,43.1-104,64.6C399.9,602.2,398.9,602.9,397.8,603.6z"/>
		<path class="st3" d="M396.6,662.7c-1.6-2.1-4.1-4.1-4.5-6.4c-0.5-2.5,2.7-4.2,4.1-6.4c2-3.2,3.1-6.8,4.1-10.4
			c10.6-8.9,21.2-17.8,31.8-26.7c24.3-20.5,48.6-41,72.9-61.5c4.2-3.5,8.2-7.2,12.3-10.8c0.4-0.4,0.8-0.8,1.7-0.5
			c0.2,1.7-1.2,2.5-2.2,3.3c-3.4,3-6.6,6.2-9.8,9.4c-35.9,36-71.8,71.9-107.7,107.9C398.4,661.4,397.7,662.3,396.6,662.7z"/>
		<path class="st5" d="M218,509.9c1.6-4.8,1.4-9.9,2.5-14.8c1.9-8.1,4.7-15.8,8.4-23.2c1.2-2.4,2.3-2.7,4.2-0.8
			c0.3,0.3,0.7,0.5,1.1,0.8c6.8,5.8,6.7,5.7,3.5,13.9c-8,20.8-7.6,41.5,1.5,61.8c1.3,3,1.2,4.9-1.2,6.9c-1.6,1.3-3.2,2.8-4.7,4.3
			c-2,2.1-3.2,1.5-4.4-0.9c-5.2-10.3-8.6-21-9.8-32.5c-0.3-2.3-0.7-4.6-1-6.9C217.9,515.7,217.9,512.8,218,509.9z"/>
		<path class="st3" d="M779.3,695.2c-0.2,2.3-1.7,2-3.3,1.5c-7-2.1-14.1-4.2-21.2-6.2c-6.8-2-13.7-4-20.5-6.1
			c-3.2-0.9-3.5-2-1.1-4.3c10.2-10.1,20.5-20.2,30.8-30.2c3.2-3.1,4.4-2.8,5.4,1.5c3.4,14.2,6.5,28.5,9.7,42.7
			C779.2,694.4,779.2,694.7,779.3,695.2z"/>
		<path class="st5" d="M309.8,429c-0.2,7.4,1.3,6.3-6.5,7.1c-21.1,2.2-38.4,11.5-52.3,27.4c-1.5,1.7-2.6,2.3-4.8,1.2
			c-2.4-1.2-5-2-7.5-2.7c-2.6-0.7-2.7-1.7-1.2-3.7c8.4-10.8,18.6-19.4,30.7-25.8c11.7-6.2,24.3-9.4,37.4-10.6
			c2.9-0.3,4.6,0.3,4.1,3.7C309.6,426.7,309.8,427.9,309.8,429z"/>
		<path class="st6" d="M309.8,601.4c-0.2,7.2,1.7,7.2-6.8,6.3c-26.8-2.7-48.5-14.8-65.3-35.9c-1.8-2.2-1.3-3.2,1.2-3.9
			c2.4-0.7,4.9-1.6,7.2-2.6c2-0.9,3.4-0.6,4.9,1.2c14.1,16.4,32.1,25.6,53.6,27.7C309.8,594.7,309.8,594.7,309.8,601.4z"/>
		<path class="st2" d="M701.1,440.5c16.3-1.4,31.6-3,46.9-3.8c11.5-0.6,20,7.1,20.8,17.4c0.4,4.9-1.1,9.2-4.4,12.9
			c-1,1.1-1.9,1.5-3.4,0.7c-18.5-10.1-37.8-18.7-57.6-26.1C702.9,441.4,702.4,441.2,701.1,440.5z"/>
		<path class="st2" d="M309.8,376.7c0,3.5,0,6.9,0,10.4c0,3.3-1,6.6,0,9.9c0.5,1.8-0.6,2.7-2.3,3.4c-8.7,3.4-18.9,0.6-24.6-7
			c-5.7-7.6-5.7-18.1,0-25.6c5.7-7.5,16-10.4,24.6-6.9c1.7,0.7,2.4,1.6,2.3,3.5C309.7,368.5,309.8,372.6,309.8,376.7z M290.7,396.8
			c1.9,0.1,3-0.4,3.8-1.4c1.6-2.2,1.2-4.4,0-6.6c-1.4-2.7-4.2-3.5-6.8-4.4c-0.2-0.1-0.6,0.3-0.8,0.5c-1.6,2.1-2.7,4.4-1.6,7.1
			C286.4,394.8,288.2,396.6,290.7,396.8z M300.9,395.5c-0.2,0.1-1,0.2-1.7,0.5c-0.9,0.4-2,1.1-1.6,2.2c0.6,1.4,1.6,0.4,2.5,0
			c1.3-0.7,2.3-0.2,3.4,0.5c0.6,0.4,1.2,0.8,1.8,0.1c0.6-0.8,0.1-1.5-0.5-2C303.8,396,302.7,395.4,300.9,395.5z"/>
		<path class="st4" d="M936.6,533.8c5.7-1.8,11.6-3.2,17.5-4.3c2.3,10.6,6.9,20.2,13.8,28.6c1.6,1.9,1.5,3.1-0.3,4.7
			c-2.8,2.6-5.5,5.2-8,8.1c-1.8,2-2.9,1.7-4.5-0.1C945.9,559.9,939.6,547.7,936.6,533.8z"/>
		<path class="st4" d="M955.8,494.9c-5.8-1.6-11.4-3.5-17-5.7c3.2-11.3,9.3-21.1,16.8-30c1.3-1.5,2.4-1.6,3.8-0.1c2.9,3.1,5.9,6,9,9
			c1.3,1.2,1.5,2.3,0.2,3.7C962.7,478.5,958.6,486.3,955.8,494.9z"/>
		<path class="st2" d="M784,569.9c11.9,3.1,23.7,6.1,35.6,9.2c8.1,2.1,16.2,4.2,24.3,6.4c1,0.2,2.2,0.2,2.4,1.4
			c0.2,1.5-1.3,1.6-2.3,1.9c-16.3,5.9-32.7,11.9-49,17.8c-1.2,0.5-2.4,1.1-3.7,1.6c-1.8,0.1-3.4,1-5.1,1.5c-0.7,0.2-1.6,0.7-2-0.3
			c-0.5-1.1,0.5-1.6,1.3-1.9c3.7-1.3,7.3-2.7,11-4c9.8-3.6,19.7-7.1,29.5-10.7c1.1-0.2,2.1-0.5,3.3-1.7c-1.5,0.3-2.5,0.5-3.5,0.7
			c-12.7,2.4-25.4,4.9-38.1,7.2c-1.1,0.2-3.1,1.9-3.6-0.4c-0.3-1.9,1.9-1.4,3.1-1.6c13.7-2.7,27.4-5.3,41.1-8c1.5-0.3,3-0.6,4.5-1.7
			c-1.1-0.1-2.2-0.2-3.3-0.3c-14-0.9-28.1-1.7-42.1-2.5c-0.3,0-0.7,0-1-0.1c-0.9-0.1-2.3,0.2-2.2-1.3c0.1-1.6,1.5-1,2.4-1
			c6.4,0.4,12.7,0.8,19.1,1.2c7.8,0.5,15.5,0.9,23.5,1.4c-0.8-1.5-2.1-1.4-3.1-1.7c-13.2-3.5-26.3-7-39.5-10.5
			C784.8,572.2,783.4,572,784,569.9z"/>
		<path class="st6" d="M779.6,430.8c-7.8-12.3-15.5-24.4-23.1-36.6c-1.6-2.5-0.9-3.7,2-3.9c6.7-0.3,13.4-0.3,20.1-0.5
			c1.2,0,1.9,0.3,1.9,1.6c-0.1,12.9-0.1,25.9-0.2,38.8C780.3,430.3,780.1,430.4,779.6,430.8z"/>
		<path class="st2" d="M766.5,583.3c3.9,0.2,7.8,0.5,11.7,0.7c1.7,0.1,2.4,0.7,2.3,2.4c-0.1,3.2-0.1,6.5,0,9.7
			c0,1.7-0.6,2.3-2.2,2.6c-9.2,1.7-18.4,3.4-27.6,5.3c-2.5,0.5-2.5-0.3-2-2.3c1.5-5.7,3-11.4,4.3-17.2c0.4-1.8,1.3-2,2.8-1.8
			C759.4,582.9,762.9,583.1,766.5,583.3z"/>
		<path class="st2" d="M787.5,487.2c2.9,4.4,6.6,8.3,9.2,13.1c6.4,11.8,9.5,24.2,6.6,37.6c-2.3,10.5-8.7,15-19.3,14.1
			c-0.4-2.2,0.2-3.2,2.8-3.2c2.4,0,4.9-0.3,7.2-2c-2.2-2.2-4.8-4.1-6.2-6.9c-3.9-8,0.8-16.8,8.7-20.9c2.7-1.4,3.2-2.5,2.3-5.3
			c-2.5-8.3-6.7-15.6-12.2-22.1c-1.8-2.1-2.8-4.2-2.6-6.9c1,0.5,1.9,1.1,2.9,1.6c0.1,0.1,0.2,0.2,0.3,0.3c0,0,0,0,0,0
			C787.3,486.8,787.4,487,787.5,487.2z M800.8,528.2c-0.4-1.9,1-5.8-1.1-6.5c-2.5-0.9-4.8,2.1-6.7,4.2c-0.4,0.4-0.8,0.8-1.1,1.3
			c-3.8,4.9-2.8,11.6,2.3,15.3c2,1.5,3.2,1.5,4.2-1C800.2,537.3,800.8,533.1,800.8,528.2z"/>
		<path class="st2" d="M749.4,420.2c5.6-0.3,11.1-0.7,16.7-1c0.7,0,1.3,0,2-0.1c1.7-0.2,2.8,0.9,2.8,2.2c0,1.3-1.6,0.8-2.5,0.8
			c-12.3,0.7-24.5,1.4-36.8,2.1c-4.4,0.2-6.6,3.7-5.2,7.8c0.3,0.9,1.8,2.2,0.5,2.9c-1.4,0.7-3.3,0.7-4.9,0.5
			c-1.1-0.1-0.4-1.3-0.2-1.9c1.3-4.7,2.7-9.4,4.1-14.1c0.7-2.2,0.3-2.7-2.1-2.1c-11.3,3-22.7,5.9-34.1,8.7c-2.2,0.5-2.5,1.3-1.4,3.2
			c1.2,2.1,2.1,4.4,3.1,6.7c0.2,0.5,0.7,1,0.2,1.5c-0.5,0.5-1.1,0.2-1.6,0c-0.6-0.2-1.3-0.4-1.6-1.1c-1.6-3.3-3.4-6.5-4.8-9.9
			c-0.8-1.9,1.1-2.1,2.3-2.4c8.1-2.1,16.2-4.2,24.3-6.2c5.5-1.4,11-2.8,16.5-4.2c3-0.7,3.6,0,2.9,3c-1.2,4.8-1.2,4.9,3.9,4.6
			C738.9,420.8,744.2,420.5,749.4,420.2C749.4,420.2,749.4,420.2,749.4,420.2z"/>
		<path class="st7" d="M218,509.9c0,2.9,0,5.8,0,8.7c-4,12.3-13.7,18.8-24.9,16.7c-10.4-1.9-17.8-10.8-17.8-21.2
			c0-10.4,7.7-19.4,17.9-21.2c10.3-1.7,20.2,4.1,23.8,14.1C217.3,508,217.6,508.9,218,509.9z M196.8,495.4
			c-10.4,0-18.8,8.4-18.8,18.7c0,10.2,8.3,18.6,18.5,18.7c10.4,0.1,18.8-8.2,18.9-18.6C215.5,503.8,207.2,495.5,196.8,495.4z"/>
		<path class="st5" d="M219.4,384.2c4.6,0.4,8.7,1.4,12.4,4c2.2,1.6,2.3,3.3,0.7,5.4c-1.6,2-3.3,4.1-5.6,5.3
			c-12.4,6.5-25.6,10.1-39.8,9.5c-0.4,0-0.8-0.2-1.7-0.3c2.9-3,4.8-6.2,9.8-5.9c7.4,0.4,14.6-1.3,21-5.5c4-2.7,6.5-6,3.5-10.8
			C219.5,385.5,219.5,385,219.4,384.2z"/>
		<path class="st4" d="M748.1,367.4c-11.3,13.8-22.7,27.6-34.5,42c-1.8-4.6-3.4-8.6-4.9-12.7c-0.6-1.6,1.1-2,2-2.7
			c11-8.3,22.1-16.6,33.2-24.9c1.1-0.8,2.2-1.7,3.3-2.6C747.5,366.8,747.8,367.1,748.1,367.4z"/>
		<path class="st2" d="M683.7,613.9c3.6-3.1,6.7-5.8,9.8-8.5c0.9-0.8,1.5-0.6,2.4,0c12.2,8.3,24.5,16.6,36.7,24.8
			c-0.1,0.2-0.2,0.5-0.4,0.7C716.3,625.4,700.3,619.8,683.7,613.9z"/>
		<path class="st2" d="M742.3,624.3c2.9,2.6,5,5.7,7.3,8.8c3.4,4.6,6.8,9.1,10.2,13.7c0.7,1,2.2,2,0.4,3.3c-1.7,1.3-2-0.6-2.6-1.4
			c-4.6-6-9.1-12.2-13.7-18.2c-0.6-0.8-1.2-3.1-2.7-0.6c-0.4,0.6-0.9,0.4-1.3,0c-0.7-0.6-1.1-1.3-0.8-2.3c0.5-1.9,2.3-2.5,3.7-3.7
			c-5.1-2.9-11.9-1.4-15.9-7.7c6.4,1.7,12.3,3.2,19,5c-3-6.8-5.7-12.9-8.6-19.5c-3.9,3.7-7.6,7.2-11.2,10.6c-0.7,0.7-1.3,2-2.7,0.7
			c-1.5-1.4-0.1-2.1,0.7-2.9c4.1-4,8.2-7.9,12.3-11.9c1.3-1.3,2.2-0.9,2.8,0.5c3.5,7.8,7,15.7,10.4,23.6c0.8,2-0.5,2.7-2.3,2.3
			c-1.5-0.3-3-0.7-4.5-1.1C742.8,623.8,742.5,624.1,742.3,624.3z"/>
		<path class="st2" d="M780.5,576.4c0,5.4,0,5.4-5.5,5.1c-5.7-0.3-11.3-0.7-17-1c-1.9-0.1-2.6-0.4-1.9-2.5c1.2-3.2,2.1-6.6,3-9.9
			c0.5-1.8,1.1-2.5,3.2-1.9c4.2,1.3,8.6,2.3,12.9,3.5C780.5,571.1,780.5,571.1,780.5,576.4z"/>
		<path class="st5" d="M972.9,524.8c4-1.4,8.1-2.4,12.3-3.1c1.6,5.1,3.1,10.2,6.3,14.6c0.9,1.3,0.2,2.3-0.7,3.2
			c-2.1,2-4.2,4-6.1,6.2c-1.4,1.6-2.5,1.5-3.6-0.3C976.8,539.2,973.9,532.4,972.9,524.8z"/>
		<path class="st4" d="M743.9,365.6c-1.4,1.3-2.5,2.5-3.8,3.4c-9.6,7.3-19.3,14.4-28.9,21.7c-1.9,1.5-2.7,1.4-3.8-0.9
			c-3.5-7.4-3.6-7.3,3.9-10.7c9.7-4.4,19.5-8.8,29.2-13.3C741.5,365.5,742.4,365.1,743.9,365.6z"/>
		<path class="st2" d="M754.1,545.8c-3.8,2.2-7.6,4.5-11.4,6.7c-5.1,3-10.2,6-15.3,8.9c-3.4,2-3.7,1.9-4-2.3
			c-0.2-2.9-0.2-5.8-0.3-8.7c-0.1-1.4,0.5-2,1.9-2.1c9.6-1.1,19.2-2.2,28.9-3.4C753.9,545.3,754,545.6,754.1,545.8z"/>
		<path class="st2" d="M732.9,626.4c-0.4,0.6-0.7,1.2-1.5,0.5c-1.3-1.1-2.8-2.2-4.2-3.2c-9.2-6.3-18.5-12.5-27.8-18.7
			c-1.8-1.2-2.1-2-0.8-3.8c4.3-6.1,4.2-6.1,9.3-0.9c7.6,7.8,15.2,15.7,22.9,23.5C731.5,624.6,732.2,625.5,732.9,626.4z"/>
		<path class="st5" d="M986.9,505.7c-4.2-1.5-8.4-2.9-12.6-4.4c1.9-5.5,4.4-10.7,7.9-15.3c1.3-1.8,2.3-2,3.9-0.3
			c2.2,2.4,5.3,4.2,6.6,7c1.7,3.4-2.9,5.2-3.7,8.1C988.5,502.5,987.6,504.1,986.9,505.7z"/>
		<path class="st2" d="M716,682c-1.8-0.9-2.3-2.6-2.4-4.8c-0.1-10.5-0.3-21-0.6-31.5c0-0.9,0.5-2.2-0.6-2.7
			c-0.9-0.4-1.5,0.7-2.2,1.3c-5.4,4.2-10.8,8.4-16.2,12.5c-0.9,0.7-1.7,2-3,0.5c-1.5-1.7,0.4-2.1,1.2-2.7
			c6.6-5.2,13.2-10.3,19.8-15.5c0.9-0.7,1.7-1.6,3-1c0.9,0.5,1,1.4,1,2.3C716,654.3,716,668.2,716,682z"/>
		<path class="st1" d="M195.1,397.9c5.6-5.6,11.2-11.1,16.8-16.7c1.1-1.1,1.8-1,2.7,0.1c1.9,2.3,2.9,5,3.9,7.7
			c0.5,1.3-0.4,2.3-1.2,3.3c-2.2,2.6-4.9,4.1-8.1,5.1c-4.5,1.3-9.1,1.6-13.7,1.4C195.4,398.5,195.2,398.2,195.1,397.9z"/>
		<path class="st7" d="M252.1,491.4c-2.3-4.8-4.7-9.1-7.8-13.1c-0.6-0.8-0.7-1.4-0.3-2.4c3-6.9,4.2-7.4,10.9-4.2
			c2.2,1.1,5.5,1.6,6.1,3.6c0.7,2-2.3,3.9-3.4,6C255.9,484.5,254.1,487.7,252.1,491.4z"/>
		<path class="st2" d="M726,338.4c1.2-2.2,2.4-3.2,4.4-3.3c6.3-0.3,12.7-0.9,19-1.2c3.8-0.2,4.4,0.7,2.6,3.9
			c-4.7,8.6-9.6,17.1-14.3,25.7c-1,1.9-2.6,2.6-4.5,3.1c-0.7-1,0.3-1.7,0.6-2.3c4.5-8.2,9.1-16.3,13.6-24.5c0.4-0.7,1.4-1.5,0.8-2.4
			c-0.6-0.9-1.6-0.3-2.5-0.2C739.4,337.6,733,338,726,338.4z"/>
		<path class="st6" d="M716,579.6c-0.5,1-1.4,1-2.3,1.1c-7.4,1-14.8,2-22.2,3.2c-2.7,0.4-3.3-0.6-2.5-3c0-0.1,0.1-0.2,0.1-0.3
			c2.8-9.3,2.8-9.3,12-6.4c2.5,0.8,5.1,1.6,7.7,2.5C711.2,577.5,713.7,578.3,716,579.6z"/>
		<path class="st7" d="M673.6,410.3c0.8,1.1,0.1,1.9-0.5,2.7c-4.1,6.1-8.2,12.2-12.2,18.4c-1.1,1.7-2.2,2-3.9,0.9
			c-1.5-0.9-3.1-1.7-4.6-2.7c-3.3-2-3.3-3.4,0.1-5.5c6.2-4,12.4-7.9,18.6-11.8C672,411.8,673.2,411.5,673.6,410.3L673.6,410.3z"/>
		<path class="st2" d="M749.9,659.6c-1.4,2.5-2.9,3.1-5,3.2c-6.6,0.3-13.1,0.7-19.7,1c-2.8,0.1-3.5-0.8-2.2-3.4
			c3.8-7.8,7.7-15.6,11.5-23.4c0.6-1.2,1.3-2.2,2.8-1.5c1.9,0.8,0.3,1.9,0,2.7c-2.5,6.7-6.1,12.9-9.2,19.3c-1.2,2.4-1.5,3.4,1.9,3.1
			C736.4,660.1,742.9,659.9,749.9,659.6z"/>
		<path class="st6" d="M720,577.9c-4.9-1.6-9.9-3.2-14.8-4.8c-3.1-1-6.2-1.9-9.2-3c-1-0.3-3-0.1-2.3-2c0.5-1.5,0.3-3.8,2.7-4.1
			c2.6-0.3,5.1-0.7,7.5-1.6c0.8-0.3,1.5-0.3,2.2,0.4c4.9,4.7,9.8,9.4,14.6,14.1C720.5,577.3,720.2,577.6,720,577.9z"/>
		<path class="st7" d="M751.2,543c-8.7,1-17.4,2.1-26.5,3.1c1.8-4.1,3.7-7.7,4.4-11.8c0.2-1.2,1-1,1.7-0.7
			c6.8,2.8,13.7,5.7,20.5,8.5C751.2,542.5,751.2,542.7,751.2,543z"/>
		<path class="st2" d="M686.8,403c1.1-8.4,2.2-16.7,3.4-25.1c0.4-2.9,0.3-6.1,4-7.7c-1,7.8-2.1,15.4-3.1,23c-0.5,4-1.1,7.9-1.6,11.9
			c-0.3,2.6-1.6,3-3.6,1.5c-5-3.6-9.9-7.2-14.9-10.8c-0.8-0.6-1.9-1-0.8-2.3c0.9-1,1.6-0.8,2.6-0.1c3.5,2.6,7,5.2,10.5,7.7
			C684.3,401.9,685.1,402.9,686.8,403z"/>
		<path class="st2" d="M731.3,562c-1.9,7.2-3.5,13.7-5.3,20.1c-0.7,2.5-0.3,3.1,2.3,2.7c6.7-1.2,13.4-2.2,20.2-3.1
			c0.9-0.1,2.4-1.3,2.6,0.7c0.2,1.2-0.6,2-1.9,2.2c-8.3,1.2-16.5,2.6-24.8,3.8c-2.1,0.3-2.9-0.7-2.3-2.8c1.8-6.7,3.6-13.3,5.3-20
			C727.7,563.7,729.2,563.3,731.3,562z"/>
		<path class="st8" d="M783.8,735.3c0-2.6,0-5.1,0-7.7c0-1.7,0.4-2.5,2.3-1.9c3.8,1.2,7.7,2.2,11.6,3.4c1.9,0.6,2.3,1.5,0.7,3
			c-4.1,4.1-8.2,8.2-12.3,12.3c-0.5,0.5-0.9,1.2-1.6,0.9c-1-0.3-0.7-1.3-0.7-2C783.7,740.6,783.8,737.9,783.8,735.3
			C783.8,735.3,783.8,735.3,783.8,735.3z"/>
		<path class="st2" d="M780.5,704c0,6.1,0,12.2,0,18.3c0,1.2-0.5,1.5-1.6,1.2c-3.8-1.2-7.7-2.2-11.5-3.4c-2.3-0.7-2-2.1-0.6-3.5
			c4.2-4.4,8.4-8.9,12.6-13.3C779.7,703.5,780.1,703.7,780.5,704z"/>
		<path class="st7" d="M780.5,605.8c0.8,2.7-0.7,4-3.7,4.7c-2.6,0.6-5.1,1.6-7.5,2.6c-1.9,0.8-2.7,0.3-3.4-1.6c-2.9-7.5-3-7.5,4.9-9
			c2.2-0.4,4.4-0.7,6.5-1.3c2.7-0.9,3.6,0,3.3,2.7C780.4,604.3,780.5,604.8,780.5,605.8z"/>
		<path class="st6" d="M656.4,622c5.3,0.2,10.1,0.3,14.8,0.7c3,0.2,3.2-0.6,2-3.1c-2.5-5.2-4.7-10.6-7-15.9
			c-0.5-1.2-1.4-2.6,0.5-3.3c1.9-0.7,1.8,1.2,2.2,2.1c2.8,6.3,5.6,12.6,8.3,18.9c1.6,3.7,1.2,4.4-2.7,4.3c-4.6-0.2-9.1-0.5-13.7-0.6
			C658.8,625.2,657.6,624.2,656.4,622z"/>
		<path class="st7" d="M676.9,413c-0.6,6.2-1.2,12.4-1.6,18.6c-0.1,1.7-0.6,2.4-2.4,2.2c-3.1-0.4-6.2-0.6-10.1-1
			c4.6-6.9,9.1-13.6,13.5-20.2C676.5,412.7,676.7,412.9,676.9,413z"/>
		<path class="st3" d="M1001,517.8c2-0.6,4-1.1,6.1-1.7c0.8-0.2,1.4-0.7,1.5-1.5c0.1-1.1-0.5-1.6-1.5-1.9c-1.8-0.7-3.9-0.9-5.6-2.1
			c0-0.1,0-0.2,0-0.3c1.7-6,2.6-6.3,6.9-2c1.7,1.7,3.4,3.5,5.2,5.2c1.2,1.2,1.2,2.2,0,3.3c-2.6,2.5-5.2,5.2-7.8,7.8
			c-1.2,1.2-2.1,1-2.9-0.4C1001.9,522.1,1001,520.1,1001,517.8z"/>
		<path class="st2" d="M757.7,360.2c3.7,6.7,7.3,13.3,10.9,19.8c3.7-3.7,7.3-7.3,11.3-11.2c0.9,2.3,0.8,3.8-0.6,5.3
			c-2.9,2.9-5.8,5.9-8.7,8.9c-1.9,2-3.1,1.4-4.3-0.8c-3.1-5.8-6.2-11.6-9.5-17.3C755.8,363.1,755.7,361.8,757.7,360.2z"/>
		<path class="st2" d="M626.2,571c2.9,0.1,3.5,1.8,3.2,3.9c-0.5,4.3-3.3,7.4-6.2,10.4c-0.6,0.6-1.1,0.6-1.6-0.1
			c-0.6-0.8-1.3-1.6-1.7-2.5c-0.9-2.1-3.8-3.8-2.3-6.3C619.5,573.1,623,571.9,626.2,571z"/>
		<path class="st2" d="M778.9,346.3c0.9-0.2,1.5-0.1,1.6,1c0.1,1-0.2,1.7-1.3,2c-2.9,0.6-5.9,1.3-8.8,1.9c-4.4,0.9-8.7,1.8-13.1,2.8
			c-1.2,0.3-3,0-1.9,2.3c0.2,0.4-0.1,0.9-0.6,1c-0.6,0.2-1.3,1-1.8,0.3c-1.1-1.4-2.2-2.8-2.3-4.7c0-0.7,0.6-1.1,1.3-1.2
			c8.7-1.2,17.2-3.5,25.8-5.2C778.2,346.4,778.5,346.3,778.9,346.3z"/>
		<path class="st4" d="M744.3,376.8c-5.3,8.7-10.7,17.4-16,26.1c-1.4,2.2-2.4,0-3.5-0.4c-1.4-0.5-1.5-1.3-0.5-2.5
			c6.5-7.9,13-15.8,19.5-23.7C743.9,376.4,744.1,376.6,744.3,376.8z"/>
		<path class="st2" d="M765.7,626.8c0.2-2.9,0.4-5.8,0.5-8.7c0-1.3,0.5-2.1,1.9-2.1c1.9,0,1,1.4,1,2.2c-0.1,4.2-0.3,8.5-0.6,12.7
			c-0.1,1.7,0.4,2.2,2.1,1.7c2.5-0.6,5-1.2,7.5-1.7c0.8-0.2,2.1-1,2.4,0.7c0.2,1.2-0.3,1.9-1.5,2.2c-3.6,0.7-7.2,1.6-10.8,2.3
			c-2.1,0.4-2.8-0.7-2.7-2.6C765.5,631.2,765.7,629,765.7,626.8C765.8,626.8,765.7,626.8,765.7,626.8z"/>
		<path class="st2" d="M685.4,603.2c2.1,0.9,3.9,0,5.6,0.4c-1.3,2.5-7.2,4.3-9.4,2.9c-1.1-0.8-0.8-1.8-0.2-2.7
			c3.5-5.6,7.1-11.1,10.6-16.7c0.9-1.5,2.3-1.4,4.3-1.3C692.6,591.8,689,597.5,685.4,603.2z"/>
		<path class="st2" d="M714.1,602.9c1.4-1.3,4.3,0.6,4.7-1.6c0.3-1.4-1.3-3.2-2-4.8c-1.7-3.5-3.4-7-5-10.6c-0.3-0.7-1.7-1.7-0.2-2.5
			c1.3-0.7,2.3-0.1,2.9,1.3c1.1,2.4,2.3,4.8,3.5,7.2c1.5,3.1,3,6.2,4.4,9.4c1.1,2.4,0.6,3.8-2.4,3.9
			C717.7,605.3,715.2,605.8,714.1,602.9z"/>
		<path class="st2" d="M208.2,603.5c0.1,2.9-2.1,5.1-4.9,5.2c-2.8,0-5.1-2.2-5.1-5c0-2.7,2.1-4.9,4.8-5
			C205.8,598.5,208.1,600.7,208.2,603.5z"/>
		<path class="st4" d="M780.2,320.7c-7.2-4.8-14-9.4-20.8-13.9c-0.7-0.4-1.4-0.9-0.6-1.8c0.6-0.7,1.2-1.4,2.2-0.7
			c6.2,4.2,12.4,8.3,18.6,12.5C780.9,317.7,780.5,318.9,780.2,320.7z"/>
		<path class="st2" d="M714.8,349.3c0.9,0,1,0.8,1.3,1.3c3.4,5.6,6.8,11.3,10.2,16.9c0.5,0.8,1.4,1.7-0.1,2.5
			c-1.1,0.6-1.8,0.2-2.4-0.8c-3.3-5.6-6.7-11.1-10.1-16.6C712.8,350.9,713.4,350,714.8,349.3z"/>
		<path class="st2" d="M713.5,627.6c-1.8,1.5-3.8,0.1-5.3-0.3c-5-1.5-10.2-2.3-15.3-3.4c-1.8-0.4-2.5-0.9-2-2.9
			c0.5-2.1,1.6-1.6,3-1.1C700.4,622.6,707.4,623.9,713.5,627.6C713.5,627.6,713.5,627.6,713.5,627.6z"/>
		<path class="st2" d="M173.9,439.2c7.2,1.3,4.3-4.8,6.5-7.6c0.4,4.1,0.5,8.1,6.3,8.2c-4,1.3-4.9,4.4-6,8.1
			C178.5,444.5,179.5,439.6,173.9,439.2z"/>
		<path class="st4" d="M762.7,300.6c2-1,3.4-2.8,4.8-4.4c3.4-3.9,8.3-5.3,12.6-8.1c0.9,2.7,0.4,4.3-2,5.4c-4.2,2-8.2,4.4-12.3,6.6
			C764.8,300.6,763.9,301.6,762.7,300.6L762.7,300.6z"/>
		<path class="st2" d="M768.4,443.4c-1.3-1.2-2.4-2-1.6-3.8c2.1-4.7,4.1-9.5,6.4-14.8c1.1,1.4,2.3,2.2,1.5,3.9
			C772.7,433.5,770.6,438.4,768.4,443.4z"/>
		<path class="st2" d="M756.6,564.7c-0.3,0.6-0.3,1.4-0.8,1.8c-0.7,0.5-1.2-0.3-1.7-0.7c-3.6-2.9-7.1-5.8-10.6-8.7
			c-0.5-0.4-1.7-0.8-0.8-1.7c0.6-0.6,1.4-1.4,2.3-0.7c3.8,3,7.5,6.1,11.1,9.1C756.5,564,756.5,564.4,756.6,564.7z"/>
		<path class="st2" d="M200.9,416.8c6.1-3.1,12.9-4.1,19.3-6.3C214.8,415.7,208.1,417.2,200.9,416.8z"/>
		<path class="st2" d="M225.6,625.1c1,2.8,0.7,6.5,5.4,6.8c-3.9,1.1-4.5,4.1-5.2,8c-1.5-3.4,0.2-7.5-4.6-8.4
			C225.3,631,223.7,627.2,225.6,625.1z"/>
		<path class="st2" d="M780.2,470.6c-2.1-4.5-3.8-8.2-5.5-11.9c-0.5-1-0.2-2.1,1.1-2.4c1.5-0.3,3.2-0.8,4.4,0.4
			c0.6,0.6,0.6,1.9-0.7,2.4c-1.7,0.7-0.5,1.7-0.2,2.4C780.7,464.1,780.6,466.8,780.2,470.6z"/>
		<path class="st2" d="M683.1,587.6c2.9,7.6,2.9,7.6-5.3,7.9c-1.1,0-2.2,0-3.3,0c0-0.2-0.1-0.5,0-0.6c1.5-1.9,3.5-2.3,5.8-2.7
			C682.4,591.9,679.6,588,683.1,587.6z"/>
		<path class="st2" d="M301.5,618.4c2.3-2.7,4.9-4.6,7.8-6.4C310.2,619,310.9,618.1,301.5,618.4z"/>
		<path class="st7" d="M250.6,497c2.5,3.8,1.3,7.4,0.5,11c-0.2,0.9-0.7,1.8-1.8,1.6c-1.6-0.2-1.1-1.5-0.9-2.4
			C248.8,503.8,249.3,500.4,250.6,497z"/>
		<path class="st6" d="M657.7,606.3c-2.5,3-4.8,5.7-7.1,8.4c-0.6,0.7-1.1,1.1-1.9,0.3c-0.7-0.7-1.2-1.3-0.4-2.2
			C650.9,610,652.5,606.3,657.7,606.3z"/>
		<path class="st2" d="M268.5,338.2c0.6,2.2,0.1,4.8,3.3,5.1c-2.9,0.4-4,2.1-3.9,4.9c-1.4-2,0-4.9-3.4-5.7
			C267.6,342.6,267.2,339.9,268.5,338.2z"/>
		<path class="st3" d="M221.3,406.7c-0.1,1.2-1.4,1.3-2.2,1.3c-1.6,0.1-3.8,2.7-4.7,0.2c-1-2.8,2.4-1.8,3.7-2.8
			C219.5,404.5,220.9,404.3,221.3,406.7z"/>
		<path class="st3" d="M207.8,411.5c-2,0.5-2.7-0.3-2.4-1.4c0.8-2.4,3.4-1.4,5-2.2c1.2-0.6,1.8,0.5,1.6,1.4
			C211.6,412.2,208.7,410.5,207.8,411.5z"/>
		<path class="st3" d="M198.5,413c-1.2,0.1-2.5,0.2-2.1-1.1c0.8-2.8,3.5-1.4,5.3-2.1c1.1-0.5,1.8,0.7,1.5,1.5
			C202.3,413.7,199.8,412.4,198.5,413z"/>
		<path class="st2" d="M241.2,434.2c1.6,0,2.5,0.7,2.6,2.1c0.2,1.5-0.7,2.6-2.3,2.7c-1.6,0.1-2.5-0.9-2.6-2.4
			C239,435.1,239.9,434.3,241.2,434.2z"/>
		<path class="st7" d="M225.2,462.1c2.6-0.6,4.8,0.5,7,1c0.8,0.2,1.6,0.5,0.9,1.6c-0.5,0.8-0.9,1.9-2.3,1
			C229.1,464.5,227.3,463.4,225.2,462.1z"/>
		<path class="st7" d="M224.5,568.1c2-1.2,4-2.3,6-3.5c0.6-0.4,1.2-1.2,2-0.3c0.4,0.5,0.9,1.2,0.9,1.7c-0.1,0.7-1,0.8-1.6,1
			c-2.4,0.6-4.7,1.1-7.1,1.7C224.6,568.5,224.6,568.3,224.5,568.1z"/>
		<path class="st3" d="M228.6,403.1c-0.9,1.6-2.6,2.4-4.3,2.9c-0.9,0.3-1.3-1.1-1.2-1.6c0.4-2.3,2.8-2,4.3-2.8
			C228.2,401.2,228.4,402.2,228.6,403.1z"/>
		<path class="st3" d="M190.9,410.9c1,0.5,2.8-0.9,2.9,1c0.1,2.3-2,1.5-3.2,1.5c-1.1,0-3.1,0.8-2.9-1.4
			C187.8,409.9,189.8,411.4,190.9,410.9z"/>
		<path class="st3" d="M233.8,396.5c0.3,1.7-0.8,2.5-1.5,3.4c-0.4,0.5-0.7,1.7-1.7,1c-1-0.6-0.7-1.6,0.1-2.2
			C231.6,398,232.2,396.8,233.8,396.5z"/>
		<path class="st8" d="M786.9,486.3c-1-0.5-1.9-1.1-2.9-1.6c-0.5-1.4-0.2-2.8-0.2-4.9C785.7,482.1,786.7,484,786.9,486.3z"/>
		<path class="st7" d="M351.5,494.4c1,0.1,1.6,0.7,1.6,1.7c0,0.9-0.6,1.4-1.5,1.4c-1.1,0-1.6-0.6-1.6-1.7
			C350,495,350.6,494.6,351.5,494.4z"/>
		<path class="st2" d="M713.5,627.6C713.5,627.6,713.5,627.6,713.5,627.6c2.7-0.6,4.8,1.1,7.1,2
			C718.3,628.8,715.5,629.6,713.5,627.6z"/>
		<path class="st3" d="M183.7,410.3c0.8,0,1.6,0.2,1.5,1.3c0,0.8-0.3,1.4-1.2,1.1c-0.8-0.3-2-0.1-2.1-1.3
			C182,410.7,182.9,410.3,183.7,410.3z"/>
		<path class="st2" d="M308.1,341.1c-0.1,0.8-0.5,1.2-1.3,1.2c-0.6,0-1-0.4-1.1-1c-0.1-0.8,0.3-1.3,1.1-1.4
			C307.6,339.8,308,340.3,308.1,341.1z"/>
		<path class="st7" d="M346.5,561.2c-0.2,0.8-0.5,1.7-1.4,1.6c-0.8-0.1-1-0.8-0.8-1.6c0.1-0.7,0.4-1.3,1.2-1.4
			C346.4,559.8,346.5,560.5,346.5,561.2z"/>
		<path class="st8" d="M825.6,591.9c1-0.2,2.1-0.4,3.5-0.7c-1.2,1.1-2.3,1.4-3.3,1.7C825.8,592.6,825.7,592.2,825.6,591.9z"/>
		<path class="st8" d="M520.1,539.2c-0.1,0-0.2-0.1-0.2-0.1c0.1-0.1,0.2-0.1,0.4-0.2C520.2,539,520.2,539.1,520.1,539.2z"/>
		<path class="st7" d="M673.7,410.3c0.2,0.2,0.3,0.3,0.5,0.5c-0.1,0-0.2,0.1-0.2,0.1C673.8,410.7,673.7,410.5,673.7,410.3
			C673.6,410.3,673.7,410.3,673.7,410.3z"/>
		<path class="st8" d="M524.9,529.3c-0.1,0.1-0.2,0.2-0.2,0.2c-0.1,0-0.1-0.1-0.2-0.2c0.1-0.1,0.2-0.2,0.2-0.2
			C524.8,529.1,524.9,529.2,524.9,529.3z"/>
		<path class="st8" d="M515,486c0.1,0.1,0.2,0.1,0.3,0.2C515.2,486.1,515.2,486,515,486C515.1,485.9,515,486,515,486z"/>
		<path class="st7" d="M762.7,300.6c0.1,0.1,0.1,0.3,0.2,0.4c0-0.1,0-0.1,0-0.2C762.8,300.7,762.7,300.7,762.7,300.6
			C762.7,300.6,762.7,300.6,762.7,300.6z"/>
		<path class="st8" d="M524.4,500.1c0.2,0,0.4,0.1,0.5,0.1C524.6,500.8,524.5,500.4,524.4,500.1
			C524.5,500.1,524.4,500.1,524.4,500.1z"/>
		<polygon class="st8" points="787.2,486.6 787.2,486.6 787.3,486.5 		"/>
		<path class="st9" d="M823.6,363.5c6.9,0,13.8,0,20.7,0c4.1,0,4.6,0.8,2.7,4.5c-6.6,12.3-13.2,24.5-19.8,36.7
			c-2,3.7-3.1,3.7-5.2,0.3c-7.6-11.8-15.1-23.7-22.6-35.5c-2.5-4-1.8-5.3,2.9-5.4c7.1-0.2,14.3,0,21.4,0
			C823.6,363.9,823.6,363.7,823.6,363.5z"/>
		<path class="st5" d="M648.5,520.9c-4.9,0-9.6-0.9-13.8-3.5c-4.8-3.1-7-8.4-5.8-14.3c1.2-5.6,4.4-8.5,10.7-9.4
			c1.4-0.2,2.9-0.3,4.3-0.2c6.6,0.2,8.8,3.4,6.7,9.6c-0.3,1-1.2,2.3,0.3,2.9c1.6,0.6,2-1,2.4-2.1c2.8-6.8-0.2-12.1-7.5-13.1
			c-0.9-0.1-1.8-0.1-2.7-0.2c-2.1-0.2-5.8,0.9-5.9,0.1c-0.3-3.2-2.6-6.2-1-9.7c0.7-1.5,1-3.2,1.5-4.8c2-5.8,3.8-7,9.9-6.6
			c1.4,0.1,2.9,0.3,4.3,0.8c5.3,1.6,10.7,3.1,15.8,5.2c6.7,2.7,10.8,8,13.6,14.5c0.7,1.6,0.2,2.2-1.3,2.6c-4,1-7.9,0.3-10.4-3
			c-4-5.2-9.6-7.1-15.6-8.2c-3.5-0.6-7.1-1-10.6-1.4c-1.1-0.1-2.5-0.3-2.7,1.2c-0.2,1.6,1.3,1.5,2.4,1.6c5,0.4,10,1,14.9,2.4
			c3.4,0.9,6.3,2.5,8.6,5.4c3.9,4.7,9,6.5,15,4.4c1.6-0.6,2.4-0.1,3.4,1.1c4.1,5.3,3.6,14.9-1,19.6c-3.1,3.2-13,3.7-16.4,0.8
			c-1-0.8-0.5-1.6-0.2-2.4c1.8-5.7-0.2-10.7-2.9-15.6c-0.4-0.8-1-1.7-2.1-1.2c-1.3,0.6-0.8,1.6-0.3,2.6c0.8,1.7,1.7,3.4,2.3,5.2
			c2.5,7.5-0.7,13.1-8.4,14.9C653.6,520.7,651,520.9,648.5,520.9z"/>
		<path class="st5" d="M677.8,456.9c-1.1,0.8-2.1,0.1-3.1-0.1c-3.9-1.1-7.8-1.9-11.9-1.7c-6.5,0.4-11.3,3.3-13.4,9.7
			c-0.5,1.6-1.3,2-2.9,2c-2.6,0-5.2,0.2-7.3,1.8c-1.2,0.9-2.1,0.2-3.1-0.2c-4.4-1.8-8.8-1-13.2,0.1c-0.9,0.2-1.8,0.7-1.5,1.8
			c0.3,1.1,1.3,1.1,2.2,0.9c3.3-0.8,6.6-1.3,10-0.6c2.1,0.4,3.4,1.3,2.1,3.6c-0.2,0.4-0.4,0.8-0.5,1.3c-0.9,5.8-2.8,9.4-10.1,9.1
			c-5.5-0.3-9.7,5.4-10.5,11.4c-0.2,1.1-0.5,2.5,0.9,2.8c1.6,0.4,1.5-1.2,1.8-2.2c1.7-6.8,5.1-9.8,11.2-9.8c1.7,0,3.8-0.5,4.5,1.9
			c0.7,2.2,0,3.8-1.8,5.3c-4.1,3.4-5.5,8-5.5,13.1c0,2,0.4,4.1,1.4,5.8c1.2,2.2,0.1,2.8-1.7,3c-10.5,1.2-20.5-2.8-20.8-15.8
			c-0.1-6.9,0.5-13.9,6.1-19.2c0.8-0.8,0.8-1.8,1-2.8c1.1-4.6,2.6-9,5.2-13c4.2-6.3,9.7-7.9,16.6-4.8c3.4,1.5,6.8,2.8,10.6,2.5
			c1-0.1,2.3,0,2.3-1.3c0.1-1.7-1.3-1.4-2.4-1.4c-2.2-0.1-5.5,0.4-6.1-1.5c-0.7-2.1,2.1-3.9,3.8-5.4c3.3-3,7.3-4.3,11.7-4
			c0.8,0,1.5,0.1,2,1.1c-1.6,1.5-3.7,1.3-5.6,1.7c-1,0.2-2.2,0.4-1.9,1.8c0.2,1.1,1.3,1.2,2.2,0.9c3.3-0.9,7.8,0.1,8.6-5.1
			c0-0.3,0.6-0.6,1-0.7C664.8,447.7,674.9,452.2,677.8,456.9z"/>
		<path class="st5" d="M706.1,479.9c-2.1,0.2-3.6,0.3-5.2,0.6c-3.4,0.6-5.9,2.5-7.7,5.5c-0.6,1-1.3,2.1,0.1,2.9
			c1.2,0.7,1.7-0.5,2.2-1.3c1.6-2.5,3.8-3.9,6.7-4.5c8.3-1.7,13.4,9.9,10.8,15.5c-4,8.8-11.4,13.1-21.1,11.5
			c-1.5-0.3-1.7-0.9-1.5-2.3c0.9-5.7-0.7-10.6-4.5-14.8c-1-1-1.3-2.3-1.8-3.5c-2.6-6.7-6.8-12-13.1-15.5c-0.6-0.4-1.7-0.4-1.7-1.4
			c0-1,1-1.4,1.8-1.7c2.4-1,5-1,7.6-0.7c1.5,0.2,3.1,0.6,4.6,0.9c0.9,0.2,1.6-0.1,1.8-1c0.2-0.8-0.4-1.3-1-1.5
			c-5.6-1.6-11.4-2.7-16.4,1.1c-2.5,1.9-4.6,1.7-7,0.8c-2.4-0.9-4.8-1.9-7.2-2.6c-1.9-0.5-1.8-1.5-1.2-3c1.8-4.3,5.1-6.3,9.6-6.8
			c4.1-0.4,8,0.3,11.9,1.4c2.8,0.9,5.5,1,8.5,0.3c4.6-1.2,8.8,0.6,12.6,3.3C700.6,467.2,703.7,473.2,706.1,479.9z M687.4,479.9
			c3.6-0.4,7.1-0.7,10.1-2.5c1.2-0.7,2.2-1.5,2.7-2.8c0.3-0.9,0.4-1.8-0.5-2.4c-1-0.7-1.7,0-2,0.9c-0.6,1.7-2.1,2.2-3.6,2.7
			c-3,0.9-6,1.6-9.2,0.8c-0.9-0.2-1.9-0.5-2.3,0.6c-0.4,1.3,0.6,1.8,1.6,2.1C685.4,479.6,686.5,479.7,687.4,479.9z"/>
		<path class="st9" d="M368.8,440.4C422,462.9,475,486,528.6,509.1c-1.7,0.9-2.7,0.4-3.7,0.2c-41.4-9.1-82.9-18.2-124.3-27.3
			c-1.7-0.4-2.7-1-3.4-2.7c-6.2-14.9-15.7-27.4-28.5-37.4c-0.1-0.1-0.2-0.4-0.3-0.5C368.6,441,368.7,440.7,368.8,440.4z"/>
		<path class="st9" d="M368.7,589.9c-0.3-2,0.9-2.2,1.6-2.8c11.4-9.5,20.3-21,26.3-34.7c0.7-1.5,1.4-2.5,3.2-2.9
			c43.3-9.9,86.6-19.8,129.9-29.8c0.4-0.1,0.9-0.1,2.2-0.2C477,543.2,422.9,566.5,368.7,589.9z"/>
		<path class="st9" d="M399,546.6c3.2-9.6,5-18.9,5.4-28.4c0-1.2,0.5-1.6,1.6-1.5c0.7,0,1.3,0,2,0c37.5,0,75,0,112.5,0
			c1.8,0,3.6,0,5.3,0c0,0.2,0.1,0.5,0.1,0.7C483.9,527.1,441.8,536.8,399,546.6z M449.3,523.3c-2.6,2.5-0.1,4.5,0.5,7
			c0.5-2,1.7-3.1,3-4.7C450.7,525.8,450,524.5,449.3,523.3z"/>
		<path class="st9" d="M527.2,513.7c-1.1,0-2.2,0-3.3,0c-38.7,0-77.3,0-116,0c-2.6,0-3.6-0.4-3.7-3.3c-0.2-7.4-1.5-14.6-3.6-21.7
			c-0.3-1.1-1.1-2.2-0.6-3.9c42.5,9.4,84.9,18.7,127.3,28.1C527.3,513.1,527.2,513.4,527.2,513.7z M423.8,500.8
			c-4.7,0-2.5-4.1-4.5-6.3c-0.3,3.1-1.5,5.3-5.2,6.8c5.5,0,3.7,4,5,6.6C420.3,505.2,420,502,423.8,500.8z"/>
		<path class="st9" d="M341.2,607.1c-4.3,2.4-8.4,4.6-12.4,7c-1.9,1.2-2.9,1.3-3.5-1.3c-1.3-5.5-1.4-5.3,4.2-6.1
			c7.3-1,14.7-2.1,21.3-5.5c5.3-2.7,10.6-2.9,16.2-2.2c5.4,0.7,10.8,1.6,16.1,3c1.6,0.4,2.2,1,2,2.8c-0.2,2.8-0.2,5.6-0.2,8.4
			c0.1,4.1,2.4,7.5,5.2,8.1c4.1,0.8,6.9-0.8,8.9-5.3c0.9-2,1.5-4.1,2.3-6.2c1.2,0.5,1.8,1.4,2.3,2.4c2.4,4.7,1.3,14.2-2.1,18.2
			c-1.3,1.5-2.2,2.3-3.4-0.3c-2-4.4-5.9-6.5-10.5-7.4c-13.5-2.6-27.1-4.5-40.8-5c-2.5-0.1-3.6-0.8-3.9-3.2
			C342.5,612,341.8,609.7,341.2,607.1z"/>
		<path class="st9" d="M388.2,609.4c0.1-5.9,0.1-6,5.5-3.5c1.5,0.6,4.1,0.5,3.9,2.9c-0.3,3.3-1.1,6.7-4.1,8.8
			c-1.4,1-3.1,0.6-4.3-1.2C387.9,614,388.3,611.7,388.2,609.4z"/>
		<path class="st9" d="M529.5,509.8c-0.2,0.1-0.4,0.1-0.6,0.1c-0.1,0-0.2-0.1-0.2-0.2c0.2-0.1,0.4-0.1,0.6-0.1
			C529.3,509.6,529.4,509.7,529.5,509.8z"/>
		<path class="st9" d="M368.1,589.5c-0.1,0.1-0.2,0.3-0.2,0.4c-0.1-0.1-0.2-0.2-0.2-0.2c0-0.2,0.1-0.3,0.2-0.4
			C368,589.3,368.1,589.4,368.1,589.5z"/>
		<path class="st9" d="M991.4,515.6c-60.8,10.6-121.5,21.2-182.2,31.7c-0.7-1.1,0-1.8,0.3-2.4c7.1-13,14.3-26,22.8-38.3
			c2.3-3.3,4.7-4.4,8.9-4.1c44.8,3.8,89.7,7.2,134.6,10.8c5.2,0.4,10.4,0.9,15.7,1.3C991.4,515.1,991.4,515.3,991.4,515.6z"/>
		<path class="st9" d="M982.4,508.1c-0.9,0.9-1.9,0.2-2.8,0.1c-44.4-7.2-88.7-14.5-133.1-21.6c-3-0.5-3.3-1.3-2.1-3.9
			c2.6-5.4,5-11,7.3-16.5c0.8-1.9,1.5-2.5,3.7-1.7c41.6,14.2,83.2,28.3,124.8,42.4C981,507.1,982,507.1,982.4,508.1z"/>
		<path class="st9" d="M958.7,508.9c-11-0.9-22-1.7-33-2.6c-26.4-2.1-52.7-4.4-79.1-6.3c-3.4-0.3-4.2-1.3-4.1-4.5
			c0.2-6.2,0-6.2,6.1-5.2c35.3,5.8,70.5,11.5,105.8,17.2c1.5,0.2,3,0.6,4.5,0.9C958.8,508.5,958.7,508.7,958.7,508.9z"/>
		<path class="st9" d="M953.8,526c-10.5,2.6-21.1,5.2-31.6,7.8c-25,6.2-50.1,12.3-75,18.7c-2.8,0.7-3.4,0.2-3.4-2.6
			c0-5.3-0.1-5.2,5-6.1c27.9-4.9,55.8-9.8,83.7-14.7c7.1-1.2,14.2-2.4,21.3-3.6C953.7,525.6,953.8,525.8,953.8,526z"/>
		<path class="st9" d="M983.5,508.4c0,0.1-0.1,0.1-0.1,0.2c-0.1-0.1-0.2-0.1-0.3-0.2c0.1-0.1,0.1-0.2,0.2-0.2
			C983.4,508.2,983.5,508.3,983.5,508.4z"/>
		<path class="st9" d="M290.7,396.8c-2.5-0.3-4.3-2.1-5.4-4.7c-1.1-2.7,0-5,1.6-7.1c0.2-0.2,0.6-0.6,0.8-0.5
			c2.6,0.9,5.3,1.6,6.8,4.4c1.1,2.2,1.5,4.4,0,6.6C293.7,396.5,292.5,396.9,290.7,396.8z M291.4,394.6c1.4-0.3,1.9-1.3,1.7-2.6
			c-0.4-2.2-1.5-4-3.9-4.3c-1.5-0.2-2.1,1-2,2.4C287.2,392.1,289.6,394.7,291.4,394.6z"/>
		<path class="st9" d="M300.9,395.5c1.8-0.1,2.9,0.5,3.8,1.3c0.6,0.5,1.1,1.2,0.5,2c-0.5,0.7-1.2,0.3-1.8-0.1
			c-1-0.8-2.1-1.2-3.4-0.5c-0.8,0.5-1.8,1.5-2.5,0c-0.5-1.1,0.7-1.7,1.6-2.2C299.9,395.7,300.6,395.5,300.9,395.5z"/>
		<path class="st9" d="M800.8,528.2c-0.1,4.9-0.6,9.2-2.3,13.3c-1,2.5-2.2,2.5-4.2,1c-5-3.7-6.1-10.4-2.3-15.3
			c0.3-0.4,0.7-0.8,1.1-1.3c1.9-2.1,4.2-5.1,6.7-4.2C801.8,522.4,800.4,526.2,800.8,528.2z"/>
		<path class="st0" d="M196.8,495.4c10.4,0,18.7,8.4,18.7,18.8c0,10.4-8.5,18.7-18.9,18.6c-10.2-0.1-18.5-8.5-18.5-18.7
			C178,503.8,186.4,495.4,196.8,495.4z"/>
		<path class="st7" d="M687.4,479.9c-0.9-0.2-2-0.3-3.1-0.6c-1-0.3-2-0.8-1.6-2.1c0.4-1.1,1.4-0.9,2.3-0.6c3.1,0.8,6.2,0.2,9.2-0.8
			c1.5-0.5,3-1,3.6-2.7c0.3-0.9,1-1.6,2-0.9c0.9,0.6,0.8,1.5,0.5,2.4c-0.5,1.3-1.6,2.1-2.7,2.8C694.5,479.2,691,479.5,687.4,479.9z"
			/>
		<path class="st7" d="M449.3,523.3c0.7,1.2,1.4,2.5,3.5,2.3c-1.3,1.6-2.5,2.8-3,4.7C449.2,527.7,446.8,525.8,449.3,523.3z"/>
		<path class="st3" d="M423.8,500.8c-3.8,1.2-3.5,4.4-4.7,7.2c-1.3-2.6,0.4-6.7-5-6.6c3.6-1.5,4.9-3.7,5.2-6.8
			C421.3,496.7,419.1,500.8,423.8,500.8z"/>
		<path class="st7" d="M291.4,394.6c-1.9,0.1-4.2-2.4-4.3-4.5c0-1.4,0.5-2.6,2-2.4c2.4,0.3,3.6,2.1,3.9,4.3
			C293.3,393.3,292.8,394.3,291.4,394.6z"/>
	</g>
</g>
<path class="st0" d="M1015.8,502.9l-0.1-0.2c-1.4-2.4-3-4.9-4.7-7.2c-3.2-4.4-6.8-8.9-10.9-13.3c-7.7-8.3-16.1-15.6-24.8-23
	l-2.6-2.2c-8.5-7.2-17.2-14.6-25-22.6c-0.8-0.9-1.8-1.5-2.9-1.8c-10.5-11.3-21.5-22.1-32.8-32.3c-5.6-5-11.2-9.8-18-15.5
	c-1.9-1.6-4-3.4-4.9-5.3c-0.5-1.2,0.1-3.3,0.9-5.5c0.2-0.5,0.3-0.9,0.4-1.4l8.5-27.2c1.1-3.5-0.8-7.2-4.3-8.5
	c-4.8-1.8-10.1-2.7-15.3-2.4c-0.1,0-0.2,0-0.3,0l-29.7,0.1c-1.1,0-2.2,0-2.5-0.2c-1.1-0.8-2.2-1.9-3.3-3c-0.4-0.4-0.8-0.7-1.1-1.1
	c-3.1-3-6.2-6.2-9.1-9.4c-3.4-3.8-6.6-7.6-9.6-11.5c-0.1-0.1-0.1-0.2-0.2-0.2c-0.5-0.7-1.2-1.4-1.9-1.9c-6.5-4.2-12.2-9.5-16.9-15.6
	l-1-1.3c-4.9-6.5-11.1-14.7-21.7-15.2c-4.7-0.2-9.4,1.5-14.1,5.2c-2.8,2.2-5.2,4.7-7.6,7c-0.8,0.8-1.6,1.6-2.4,2.4l-6.1,6
	c-4.7,4.6-9.3,9.1-14,13.7c-7,6.9-14.3,14.4-20.9,22.8c-0.3,0.3-0.5,0.7-0.7,1c-11.2,7-20.3,16.1-27.8,24.1
	c-2.6,2.8-5.2,5.6-7.7,8.4c-6.2,6.8-12.6,13.8-19.4,20c-5.4,4.8-11.3,8.9-17.5,13.3c-5.4,3.8-11,7.7-16.2,12.1
	c-5.4,4.6-10.4,10.1-15.7,17.5c-2.1,2.9-4.2,5.9-6.2,8.7c-2.4,3.4-4.9,6.9-7.4,10.3c-9.1,12.4-18.9,24.6-29.1,36.3
	c-0.8,0.9-1.5,1.8-2.3,2.6c-0.7,0.3-1.3,0.8-1.8,1.3l-12.3,12.9c-0.4,0.4-0.7,0.9-1,1.4c-1.4,1.4-2.5,2.9-3.5,4.3
	c-0.5-0.3-0.9-0.6-1.4-0.9c-0.5-0.3-0.9-0.6-1.4-0.9c-1.5-0.9-2.8-1.7-3.6-2.6c-0.5-0.6-1.1-1-1.7-1.4
	c-10.6-14.9-23.4-28.1-38.1-39.1c-4.1-3.1-8.4-6.1-12.9-8.8c-10.8-11.6-21.5-23.2-32.3-34.7c-12.5-13.4-22.9-24.5-32.9-35.1
	c-11.8-12.5-22.6-23.9-32.9-34.7c-11.7-12.2-22.7-23.5-33.5-34.6c-11.5-11.7-22.9-23.2-33.8-34c-1.4-1.4-2.9-2.8-4.3-4.2
	c-2.6-2.5-6.5-2.7-9.2-0.3c-1.1,0.9-1.8,2.1-2.2,3.3c-16.5,10.6-33.4,21.7-49.2,34.8c-8.6,7.1-15.9,14.2-22.4,21.5
	c-7,7.9-13.2,16.4-19.2,24.6l-0.2,0.2c-5.9,8.1-12.1,16.5-18.9,24.1c-7,7.8-15.1,14.9-23,21.7l-0.3,0.2
	c-15.9,13.8-31.5,28.8-47.6,45.6c-15.4,16.1-30.3,32.8-44.3,48.5l-5.3,6c-0.4,0.4-0.7,0.9-1,1.4c-1.9,1.7-3,3.9-3.3,6.3
	c-0.8,6,3.9,11.8,6.7,15.2l0.3,0.4c4.8,5.8,9.9,11.5,15.2,16.8c3,3,6.2,6.1,9.5,9c0.7,0.7,1.6,1.2,2.5,1.4l89.5,95
	c10.4,11,19.8,20.8,30.2,30.1c11.1,9.9,23.1,19.1,33.9,27.3c0.2,1.2,0.8,2.4,1.7,3.4l25.9,29c0.6,0.7,1.2,1.3,1.8,2
	c1.4,1.6,2.8,3.2,4.4,4.8c2.9,3,6,4.7,9.5,5.2c0.8,0.1,1.5,0.2,2.3,0.2c6.7,0,12.2-4.3,16.3-7.5l0.1-0.1
	c17.1-13.4,36.4-28.5,51.8-47c1.9-2.3,3.8-4.7,5.6-7.1c5.3-6.9,10.3-13.4,17.1-17.3c1.6-0.9,2.7-2.4,3.2-4
	c17.8-18,35.5-35.8,52.5-53.1c17.9-18.2,36.2-36.8,54.2-55.2c8.9-9.1,17.7-18.1,26.6-27.2c2-0.1,4-1.2,5.3-3c1.4-2.1,4-3.6,6.8-5.2
	c1.1-0.6,2.2-1.2,3.2-1.9c0.8,0.7,1.6,1.3,2.3,2c0.3,1.2,0.9,2.4,1.9,3.3c15.1,15.2,30.3,30.7,45.1,45.9
	c14.9,15.3,29.8,31,44.4,46.4c14.7,15.6,29.5,31.4,44,47.2c14.3,15.6,28.8,31.5,43,47.4c1.2,1.4,2.4,2.7,3.6,4.1
	c11.2,12.7,22.8,25.7,39,33.1c2.1,1,4.4,1.8,6.6,2.6c1.2,0.8,2.5,1.2,3.9,1.2c1.6,0,3.1-0.5,4.5-1.6c13.6-11.3,27-23,39.9-34.8
	c12.9-11.9,25.8-24.3,38.1-36.8c12.3-12.5,24.4-25.5,36-38.6c11.7-13.2,23.2-26.8,34.1-40.5c1.5-1.9,3-3.8,4.4-5.6
	c3.4-4.3,6.9-8.8,10.6-13c5.7-6.5,10.6-10.6,15.9-13.3c1.1-0.6,2.3-1.1,3.6-1.6c4.6-1.1,8.8-3.8,13.1-8.1c3.5-3.5,6.6-7.4,9.5-11.1
	c1.1-1.3,2.1-2.7,3.2-4l13.3-16.3c0.5-0.6,1.1-1.3,1.6-1.9c1.6-2,3.4-4,4.9-6.2c2.6-3.8,3.9-7.6,3.7-11.2
	C1019.4,508.9,1017.4,505.6,1015.8,502.9z M975.8,551.6c-2.4,2.8-5,5.5-7.8,6.6c-0.4,0.1-0.9,0.2-1.3,0.3c-0.1,0-0.2,0.1-0.3,0.1
	c-0.2,0-0.5,0.1-0.7,0.1c-2,0.1-3.8,1-5,2.4C948,567.5,939,579,931,589.1l-0.8,1c-10.8,13.8-22.2,27.5-33.8,40.7
	c-11.5,13.2-23.5,26.2-35.7,38.8c-12.2,12.6-24.9,25.1-37.8,37c-12.8,11.9-26.1,23.7-39.5,34.9c-0.5,0.4-1,0.8-1.4,1.2
	c-14.9-5.5-26.1-18-36.9-30.1l-0.6-0.7c-14.2-15.9-28.6-31.8-42.9-47.3c-14.4-15.7-29.1-31.5-43.7-47c-14.5-15.4-29.4-31-44.1-46.3
	c-14.8-15.3-29.9-30.7-44.9-45.9c-0.4-0.4-0.8-0.8-1.2-1.2c-0.2-1.4-0.9-2.7-2-3.8c-2.1-2.1-4.3-4.1-6.7-6.1
	c1.1-1.5,2.1-2.8,3.3-3.8c0.9-0.7,1.6-1.7,2-2.8l8.6-8.9c0.8-0.4,1.6-1,2.3-1.7c10.4-11.7,20.5-24.1,30-36.7
	c4.4-5.8,8.9-12,13.7-18.9c3.9-5.6,13.3-8.8,18.5-13.9c5.6-5.5,7.1-13,13.9-17.7c4.9-3.4,10-6.9,14.8-10.9
	c8.9-7.4,16.7-15.9,24.2-24.2c1.3-1.4,2.5-2.8,3.8-4.2c8.3-9.1,17.3-18.5,27.8-25.3c1.3-0.8,2.6-1.6,3.9-2.4
	c1.9-1.1,3.1-2.9,3.4-4.9c8.3-10,17.9-19.3,27.2-28.3c2.3-2.2,4.6-4.4,6.8-6.6l3.2-3.1c2.2-2.1,4.3-4.3,6.5-6.4
	c2.2-2.1,4.4-4.3,6.8-4.9c4.1-1,7.9,3.5,12.1,9.2l0.7,0.9c5.7,7.5,12.4,14,20.1,19.1c5.9,7.6,12.3,14.8,18.9,21.2
	c0.4,0.4,0.9,0.9,1.3,1.3c3.1,3.1,6.9,7,12.7,7.7c2.1,0.2,4.1,0.2,6,0.1c0.6,0,1.3,0,1.9,0l24.6-0.1c0.3,0,0.7,0,1,0
	c1.4-0.1,2.9,0,4.3,0.1l-5.6,17.9c-0.2,0.7-0.5,1.4-0.7,2.1c-1.2,3.5-2.5,7.4-2,11.7c0.5,4.1,2.5,8,6.1,11.7c2,2.1,4.3,3.9,6.4,5.6
	c0.8,0.6,1.6,1.3,2.4,2c3.1,2.6,6.2,5.3,9.2,8c6,5.3,11.9,10.9,17.7,16.5c6.5,6.3,12.9,13,19.2,19.7c0.9,0.9,1.9,1.6,3.1,1.9
	c7.6,7.7,16,14.8,24,21.6c7.5,6.4,15.3,13,22.3,20c8.1,8.1,14.2,15.7,18.7,23.6c1,1.7,1.6,2.8,1.4,3.5c-0.4,1.5-1.8,3.2-3.2,4.9
	l-13.1,16c-1.4,1.7-2.8,3.5-4.3,5.3C982.1,544.1,979,548,975.8,551.6z M345.7,708.9c-8.4,7.7-17.2,14.8-25.5,21.3
	c-2.2,1.8-4.4,3.5-6.7,5.2c-1.7,1.4-3.6,2.8-5.4,3.5c-1.6,0.6-2.1,0.3-2.2,0.1c-1.1-0.7-2.2-2.1-3.3-3.4c-0.5-0.6-0.9-1.1-1.4-1.6
	l-25.6-28.7c-0.1-2.1-1.1-4.1-2.9-5.4c-10.8-8.3-22.1-16.8-32.6-25.9c-10.9-9.4-20.7-19.5-29.8-29.1c-13.5-14.3-27-28.6-40.5-43
	c-6.6-7-13.1-13.9-19.7-20.9l-33.8-35.8c-0.9-1-2-1.6-3.2-1.9c-5.7-5.2-11.2-10.8-16.3-16.5c-2.7-3.1-5.4-6.2-7.9-9.4
	c-0.5-0.6-1-1.3-1.4-1.9c0.1-0.1,0.2-0.3,0.2-0.4c0,0,0.1-0.1,0.1-0.1c14.2-16,28.9-32.6,43.9-48.5c16.6-17.7,31.8-32.5,46.3-45.3
	c2.2-2,4.5-3.9,6.7-5.9c5.9-5.1,12-10.4,17.7-16.1c8.2-8.2,15.1-17,20.8-24.6c1.8-2.4,3.6-4.9,5.4-7.3c4.2-5.7,8.5-11.7,13.1-17.3
	c6.1-7.5,13-14.7,20.5-21.4c15-13.4,32.2-24.9,48.5-35.4c1.5-1,2.9-1.9,4.4-2.9c9.5,9.4,19.1,19.1,28.5,28.6
	c10.8,11,21.7,22.2,33.4,34.4c10.4,10.9,21.2,22.2,32.9,34.6c9.9,10.5,20.7,22,32.8,35c10.9,11.7,21.7,23.3,32.6,35l4.1,4.4
	c0.4,0.4,0.9,0.8,1.4,1.1c0.3,0.3,0.6,0.5,0.9,0.7c14.6,9.1,27.6,20.4,38.8,33.5c3.1,3.6,6.1,7.5,8.8,11.5c0.5,0.7,1.1,1.3,1.9,1.8
	c0.1,0.2,0.3,0.3,0.4,0.5c1.7,1.9,3.7,3.2,5.5,4.3c-1.4,0.9-2.9,1.9-4.3,3c-1.6,0.1-3.1,0.8-4.3,2c-18,18.5-36.3,37.2-54.4,55.6
	c-18,18.3-36.3,36.9-54.3,55.1c-10.3,10.4-20.6,20.8-30.9,31.2c-0.4,0.4-0.8,0.9-1.1,1.4c-7.2,5-12.5,11.8-17.6,18.4
	c-0.7,0.9-1.4,1.8-2.1,2.7C361.7,693.1,354.5,700.8,345.7,708.9z"/>
<g>
	<path class="st2" d="M34.4,702.2c-1.2,0-2.4-4.9-3.6-14.6c0.3-0.9,0.6-1.3,1-1.3h0.6c1,0,1.7,2.1,2.3,6.2H35
		c1.3-3.2,3.5-4.9,6.5-4.9c0.9,0.3,1.3,0.6,1.3,1v1.3c0,0.5-1.2,1.2-3.6,1.9c-1.3,1.4-2.3,4.7-2.9,9.7l-1,0.6H34.4z"/>
	<path class="st2" d="M51.4,697.7v0.4c0,0.5,0.6,0.9,1.7,1c1.4,0,3.7-0.7,7-2.1h0.4c0.3,0,0.7,0.3,1,1v0.3c-0.6,2.8-3.2,4.2-7.7,4.2
		h-1.1c-4.2-1-6.3-3.3-6.3-7v-2.1c0.8-4.2,2.5-6.3,5.2-6.3h0.7c4.7,0.4,7,1.9,7,4.6C57,695.7,54.3,697.7,51.4,697.7z M52.4,690.7
		c-1.6,0.6-2.4,2-2.4,4.2v0.3c4-1,5.9-2.2,5.9-3.5C54,691.1,52.9,690.7,52.4,690.7z"/>
	<path class="st2" d="M71.2,690.7v0.2c0,0.6,1,2.5,3.1,5.6v1.4c0,2.3-1.8,4-5.3,4.9h-0.6c-1.5-0.4-2.2-0.8-2.2-1.2v-1.2
		c0.1-0.5,1.3-1.2,3.6-2.1l0.3-1.2c-2-2.5-3.1-4.3-3.1-5.4v-1.2c0-2.7,2.2-4.3,6.7-4.7c1.7,0.4,2.5,1,2.5,1.9c0,0.7-1.5,1.4-4.4,2.1
		L71.2,690.7z"/>
	<path class="st2" d="M84.8,697.7v0.4c0,0.5,0.6,0.9,1.7,1c1.4,0,3.7-0.7,7-2.1h0.4c0.3,0,0.7,0.3,1,1v0.3c-0.6,2.8-3.2,4.2-7.7,4.2
		h-1.1c-4.2-1-6.3-3.3-6.3-7v-2.1c0.8-4.2,2.5-6.3,5.2-6.3h0.7c4.7,0.4,7,1.9,7,4.6C90.4,695.7,87.7,697.7,84.8,697.7z M85.8,690.7
		c-1.6,0.6-2.4,2-2.4,4.2v0.3c4-1,5.9-2.2,5.9-3.5C87.5,691.1,86.3,690.7,85.8,690.7z"/>
	<path class="st2" d="M108.6,702.2h-1.2c-5.6,0-8.3-2.9-8.3-8.7c0-4.6,3.1-7.3,9.3-8c5.4,0,8,3.9,8,11.7v2.8c0,2.5-0.4,3.7-1.2,3.7
		h-0.3c-0.6,0-1-1-1.2-3.1v-0.9h-0.3C111.5,701.3,109.9,702.2,108.6,702.2z M107.5,698.8c3.3-1.3,4.9-3,4.9-5.2
		c0-2.8-1.1-4.3-3.2-4.6h-1.4c-3.5,0.6-5.2,2-5.2,4.1c0,3.7,1.6,5.5,4.9,5.5V698.8z"/>
	<path class="st2" d="M124.3,702.2c-1.2,0-2.4-4.9-3.6-14.6c0.3-0.9,0.6-1.3,1-1.3h0.6c1,0,1.7,2.1,2.3,6.2h0.3
		c1.3-3.2,3.5-4.9,6.5-4.9c0.9,0.3,1.3,0.6,1.3,1v1.3c0,0.5-1.2,1.2-3.6,1.9c-1.3,1.4-2.3,4.7-2.9,9.7l-1,0.6H124.3z"/>
	<path class="st2" d="M145.4,698.9c1.2-0.2,2.2-0.3,3-0.3h0.7c0.3,0,0.6,0.3,1,0.9v1.2c0,0.6-1,1.1-3,1.5h-2.6
		c-3.9,0-6.3-2.9-7.3-8.8c1.1-4.4,3.1-6.6,5.9-6.6h3.6c0.3,0,0.8,0.5,1.6,1.5v0.3c0,0.7-1.9,1.3-5.6,1.8c-1.1,1.5-1.6,2.6-1.6,3.3
		C141.9,697.2,143.3,698.9,145.4,698.9z"/>
	<path class="st2" d="M156.7,702.1c-0.9-0.3-1.3-1.3-1.3-2.9v-3.9l-1-12.8c0.3-0.9,0.6-1.3,1-1.3h0.7c1.4,0,2.1,2.4,2.3,7.2
		c2.6-2,4.7-3,6.5-3h0.6c3.5,0,5.6,2.7,6.5,8.2c-0.1,1.9-0.2,3.5-0.2,4.7c-0.1,1.2-0.1,2-0.1,2.5l-1.3,1h-1.6
		c-0.9-0.4-1.3-1.1-1.3-2c0.2-2.1,0.4-3.8,0.5-5.1c0.1-1.2,0.2-2.1,0.2-2.4c-0.6-2.4-1.5-3.6-2.6-3.6c-3.7,0-5.9,2.6-6.5,7.8v4.3
		c0,0.3-0.4,0.8-1.3,1.3H156.7z"/>
</g>
<g>
	<path class="st2" d="M50.7,303.6l2.3,0.3l-0.3-1.7v-2.4c0-0.3,0.3-0.6,1-1h0.7c1.5,0,2.4,5.9,2.7,17.8c0,1.6-1.3,2.3-4,2.3
		c-0.1,0.7-1,1-2.7,1H50c-4.5,0-7.4-2.3-8.7-7v-1.7c0-4.2,2.7-6.8,8-7.7H50.7z M50.8,307c-3.7,0.6-5.6,2-5.6,4.3v1.1
		c0,2.4,1.9,3.9,5.6,4.3c1.4-0.6,2.4-1.2,3-1.8C53.8,310.2,52.8,307.6,50.8,307z"/>
	<path class="st2" d="M61.1,299.8c0.2-0.6,1-1,2.2-1h0.4c1,0.3,1.4,1.1,1.4,2.3c0,0.3-0.4,0.6-1.1,1h-1.8c-0.3,0-0.7-0.3-1.1-1
		V299.8z M62.6,304.9h0.7c1.9,0,2.9,4,2.9,11.9v0.5c0,0.3-0.5,0.6-1.4,1.1c-1.3,0-2.1-0.4-2.5-1.1c-0.5-6-0.7-10-0.7-11.9
		L62.6,304.9z"/>
	<path class="st2" d="M75.2,308.2v0.2c0,0.6,1,2.5,3.1,5.6v1.4c0,2.3-1.8,4-5.3,4.9h-0.6c-1.5-0.4-2.2-0.8-2.2-1.2V318
		c0.1-0.5,1.3-1.2,3.6-2.1l0.3-1.2c-2-2.5-3.1-4.3-3.1-5.4v-1.2c0-2.7,2.2-4.3,6.7-4.7c1.7,0.4,2.5,1,2.5,1.9c0,0.7-1.5,1.4-4.4,2.1
		L75.2,308.2z"/>
	<path class="st2" d="M93,316.4c1.2-0.2,2.2-0.3,3-0.3h0.7c0.3,0,0.6,0.3,1,0.9v1.2c0,0.6-1,1.1-3,1.5H92c-3.9,0-6.3-2.9-7.3-8.8
		c1.1-4.4,3.1-6.6,5.9-6.6h3.6c0.3,0,0.8,0.5,1.6,1.5v0.3c0,0.7-1.9,1.3-5.6,1.8c-1.1,1.5-1.6,2.6-1.6,3.3
		C89.4,314.7,90.9,316.4,93,316.4z"/>
	<path class="st2" d="M109,304.6l0.9,0.6c0.1-0.4,0.3-0.6,0.6-0.6h1.5c3.7,1,5.5,2.9,5.5,5.5v2.8c0,3.6-2.4,5.9-7.1,6.8
		c-5.5-1.3-8.3-3.7-8.3-7.4v-1.9c0-3,2.1-5,6.2-5.8H109z M109,307.7c-2.3,0.7-3.4,1.8-3.4,3.4v0.3c0,2.4,1.5,3.9,4.6,4.6h0.6
		c2,0,3.1-1.5,3.4-4.6C114.2,308.9,112.5,307.7,109,307.7z"/>
	<path class="st2" d="M132.2,317.1c-0.9,1.9-1.9,2.9-3.1,2.9c-1.5,0-4.1-5.1-7.7-15.2v-0.3c0-0.4,0.5-0.7,1.4-0.9
		c1.3,0.4,3.3,3.7,6,9.7c0.1,0.4,0.3,0.6,0.6,0.6c0-0.2,1.4-3.1,4.3-8.6c0.6-1.3,1.5-2,2.6-2c0.8,0.3,1.3,0.7,1.7,1.4v0.6
		C137.9,305.8,136,309.8,132.2,317.1z"/>
	<path class="st2" d="M146.9,315.2v0.4c0,0.5,0.6,0.9,1.7,1c1.4,0,3.7-0.7,7-2.1h0.4c0.3,0,0.7,0.3,1,1v0.3
		c-0.6,2.8-3.2,4.2-7.7,4.2h-1.1c-4.2-1-6.3-3.3-6.3-7v-2.1c0.8-4.2,2.5-6.3,5.2-6.3h0.7c4.7,0.4,7,1.9,7,4.6
		C152.5,313.3,149.8,315.2,146.9,315.2z M147.9,308.3c-1.6,0.6-2.4,2-2.4,4.2v0.3c4-1,5.9-2.2,5.9-3.5
		C149.6,308.6,148.4,308.3,147.9,308.3z"/>
	<path class="st2" d="M165.3,319.8c-1.2,0-2.4-4.9-3.6-14.6c0.3-0.9,0.6-1.3,1-1.3h0.6c1,0,1.7,2.1,2.3,6.2h0.3
		c1.3-3.2,3.5-4.9,6.5-4.9c0.9,0.3,1.3,0.6,1.3,1v1.3c0,0.5-1.2,1.2-3.6,1.9c-1.3,1.4-2.3,4.7-2.9,9.7l-1,0.6H165.3z"/>
	<path class="st2" d="M182.6,323.9c0,1.3-0.7,2.5-2.1,3.6h-1.4c-0.9-0.5-1.4-1.3-1.4-2.4c1.1-2.9,2.7-6.1,4.8-9.6v-0.4
		c-4.1-5.1-6.2-8.5-6.2-10c0-0.4,0.3-0.8,1-1.2h0.7l6.5,7.6l0.7,0.4c1.2-2.6,2.9-5,5.1-7.2h1c0.5,0.1,0.7,0.3,0.7,0.8v0.8
		C192.2,307.7,189,313.5,182.6,323.9z"/>
</g>
<g>
	<path class="st2" d="M335.8,220.2l2.3,0.3l-0.3-1.7v-2.4c0-0.3,0.3-0.6,1-1h0.7c1.5,0,2.4,5.9,2.7,17.8c0,1.6-1.3,2.3-4,2.3
		c-0.1,0.7-1,1-2.7,1h-0.3c-4.5,0-7.4-2.3-8.7-7v-1.7c0-4.2,2.7-6.8,8-7.7H335.8z M335.8,223.5c-3.7,0.6-5.6,2-5.6,4.3v1.1
		c0,2.4,1.9,3.9,5.6,4.3c1.4-0.6,2.4-1.2,3-1.8C338.8,226.8,337.8,224.2,335.8,223.5z"/>
	<path class="st2" d="M351,231.8v0.4c0,0.5,0.6,0.9,1.7,1c1.4,0,3.7-0.7,7-2.1h0.4c0.3,0,0.7,0.3,1,1v0.3c-0.6,2.8-3.2,4.2-7.7,4.2
		h-1.1c-4.2-1-6.3-3.3-6.3-7v-2.1c0.8-4.2,2.5-6.3,5.2-6.3h0.7c4.7,0.4,7,1.9,7,4.6C356.6,229.8,353.9,231.8,351,231.8z M352,224.8
		c-1.6,0.6-2.4,2-2.4,4.2v0.3c4-1,5.9-2.2,5.9-3.5C353.6,225.2,352.5,224.8,352,224.8z"/>
	<path class="st2" d="M369.4,224.5c0.2,1.1,0.3,2,0.3,2.8v2.5c0.1,0.4,0.3,0.6,0.6,0.6h7.1c0.3,0,0.6,0.3,0.9,0.9v1.6
		c0,0.3-0.3,0.6-0.9,0.9H370v5.6c0,1.1-0.5,2-1.6,2.5h-0.9c-1-0.5-1.6-1.5-1.6-3.1v-16.5c0.9-1.5,2.1-2.2,3.4-2.2
		c5.8,0,8.7,0.8,8.7,2.5v0.6c0,0.3-0.5,0.8-1.6,1.6c-3.7-0.4-6.1-0.6-7.2-0.6V224.5z"/>
	<path class="st2" d="M381.8,216.4c0.2-0.6,1-1,2.2-1h0.4c1,0.3,1.4,1.1,1.4,2.3c0,0.3-0.4,0.6-1.1,1h-1.8c-0.3,0-0.7-0.3-1.1-1
		V216.4z M383.2,221.5h0.7c1.9,0,2.9,4,2.9,11.9v0.5c0,0.3-0.5,0.6-1.4,1.1c-1.3,0-2.1-0.4-2.5-1.1c-0.5-6-0.7-10-0.7-11.9
		L383.2,221.5z"/>
	<path class="st2" d="M400.7,225h-0.4c-1.9,0-3.1,1.5-3.5,4.5c0,4.3-0.9,6.4-2.7,6.4c-1.4,0-2.5-3.6-3.1-10.9l0.8-0.4h0.8l1.2,0.8
		c1.6-2.8,4.3-4.1,8.2-4.1c3.5,0,6.5,2.9,9,8.7v1.9c0,3-1,4.5-3.1,4.5c-1-0.5-1.6-1.1-1.6-1.9c0-0.3,0-0.7,0.1-1.4s0.2-1.6,0.3-2.7
		C406.6,227.6,404.6,225.9,400.7,225z"/>
	<path class="st2" d="M420,231.8v0.4c0,0.5,0.6,0.9,1.7,1c1.4,0,3.7-0.7,7-2.1h0.4c0.3,0,0.7,0.3,1,1v0.3c-0.6,2.8-3.2,4.2-7.7,4.2
		h-1.1c-4.2-1-6.3-3.3-6.3-7v-2.1c0.8-4.2,2.5-6.3,5.2-6.3h0.7c4.7,0.4,7,1.9,7,4.6C425.6,229.8,422.9,231.8,420,231.8z M421,224.8
		c-1.6,0.6-2.4,2-2.4,4.2v0.3c4-1,5.9-2.2,5.9-3.5C422.7,225.2,421.5,224.8,421,224.8z"/>
</g>
<g>
	<path class="st2" d="M595.4,303.6l2.3,0.3l-0.3-1.7v-2.4c0-0.3,0.3-0.6,1-1h0.7c1.5,0,2.4,5.9,2.7,17.8c0,1.6-1.3,2.3-4,2.3
		c-0.1,0.7-1,1-2.7,1h-0.3c-4.5,0-7.4-2.3-8.7-7v-1.7c0-4.2,2.7-6.8,8-7.7H595.4z M595.4,307c-3.7,0.6-5.6,2-5.6,4.3v1.1
		c0,2.4,1.9,3.9,5.6,4.3c1.4-0.6,2.4-1.2,3-1.8C598.4,310.2,597.4,307.6,595.4,307z"/>
	<path class="st2" d="M610.6,315.2v0.4c0,0.5,0.6,0.9,1.7,1c1.4,0,3.7-0.7,7-2.1h0.4c0.3,0,0.7,0.3,1,1v0.3
		c-0.6,2.8-3.2,4.2-7.7,4.2h-1.1c-4.2-1-6.3-3.3-6.3-7v-2.1c0.8-4.2,2.5-6.3,5.2-6.3h0.7c4.7,0.4,7,1.9,7,4.6
		C616.2,313.3,613.5,315.2,610.6,315.2z M611.6,308.3c-1.6,0.6-2.4,2-2.4,4.2v0.3c4-1,5.9-2.2,5.9-3.5
		C613.3,308.6,612.1,308.3,611.6,308.3z"/>
	<path class="st2" d="M630.4,308.2v0.2c0,0.6,1,2.5,3.1,5.6v1.4c0,2.3-1.8,4-5.3,4.9h-0.6c-1.5-0.4-2.2-0.8-2.2-1.2V318
		c0.1-0.5,1.3-1.2,3.6-2.1l0.3-1.2c-2-2.5-3.1-4.3-3.1-5.4v-1.2c0-2.7,2.2-4.3,6.7-4.7c1.7,0.4,2.5,1,2.5,1.9c0,0.7-1.5,1.4-4.4,2.1
		L630.4,308.2z"/>
	<path class="st2" d="M639.2,299.8c0.2-0.6,1-1,2.2-1h0.4c1,0.3,1.4,1.1,1.4,2.3c0,0.3-0.4,0.6-1.1,1h-1.8c-0.3,0-0.7-0.3-1.1-1
		V299.8z M640.6,304.9h0.7c1.9,0,2.9,4,2.9,11.9v0.5c0,0.3-0.5,0.6-1.4,1.1c-1.3,0-2.1-0.4-2.5-1.1c-0.5-6-0.7-10-0.7-11.9
		L640.6,304.9z"/>
	<path class="st2" d="M653.4,325c0-0.4,1.3-1.3,3.8-2.7c1.2-1.3,1.7-3.1,1.7-5.6h-0.3c-1.4,1.2-2.8,1.8-4.3,1.8
		c-4.6-0.9-7-3.1-7-6.5v-0.9c0-2.7,2.3-5,7-7.1c1-0.2,1.6-0.3,1.7-0.3c3,0,5.1,3.5,6.1,10.4v4.1c-0.9,6.3-3.3,9.5-7.2,9.5
		c-0.9-0.4-1.4-0.8-1.5-1.2V325z M658,311.8c0-0.6-0.4-2.3-1.3-5.2c-4,1.4-6.1,3.1-6.1,5.2v0.3c0,1.9,1.4,3,4.2,3.3
		C656.6,315.4,657.6,314.2,658,311.8z"/>
	<path class="st2" d="M676.3,308.4h-0.4c-1.9,0-3.1,1.5-3.5,4.5c0,4.3-0.9,6.4-2.7,6.4c-1.4,0-2.5-3.6-3.1-10.9l0.8-0.4h0.8l1.2,0.8
		c1.6-2.8,4.3-4.1,8.2-4.1c3.5,0,6.5,2.9,9,8.7v1.9c0,3-1,4.5-3.1,4.5c-1-0.5-1.6-1.1-1.6-1.9c0-0.3,0-0.7,0.1-1.4s0.2-1.6,0.3-2.7
		C682.2,311.1,680.2,309.3,676.3,308.4z"/>
</g>
<g>
	<path class="st2" d="M810.3,233.6c-0.9,1.9-1.9,2.9-3.1,2.9c-1.5,0-4.1-5.1-7.7-15.2V221c0-0.4,0.5-0.7,1.4-0.9
		c1.3,0.4,3.3,3.7,6,9.7c0.1,0.4,0.3,0.6,0.6,0.6c0-0.2,1.4-3.1,4.3-8.6c0.6-1.3,1.5-2,2.6-2c0.8,0.3,1.3,0.7,1.7,1.4v0.6
		C816,222.4,814.1,226.3,810.3,233.6z"/>
	<path class="st2" d="M829.4,236.3h-1.2c-5.6,0-8.3-2.9-8.3-8.7c0-4.6,3.1-7.3,9.3-8c5.4,0,8,3.9,8,11.7v2.8c0,2.5-0.4,3.7-1.2,3.7
		h-0.3c-0.6,0-1-1-1.2-3.1v-0.9h-0.3C832.4,235.5,830.8,236.3,829.4,236.3z M828.4,232.9c3.3-1.3,4.9-3,4.9-5.2
		c0-2.8-1.1-4.3-3.2-4.6h-1.4c-3.5,0.6-5.2,2-5.2,4.1c0,3.7,1.6,5.5,4.9,5.5V232.9z"/>
	<path class="st2" d="M841.5,215.7l1-0.5h1c1.6,1.1,3.1,7.3,4.5,18.4c-0.4,1-0.8,1.4-1.3,1.4H845c-1.4,0-2.3-4.8-2.9-14.3
		C841.9,220.7,841.7,219,841.5,215.7z"/>
	<path class="st2" d="M852.3,216.4c0.2-0.6,1-1,2.2-1h0.4c1,0.3,1.4,1.1,1.4,2.3c0,0.3-0.4,0.6-1.1,1h-1.8c-0.3,0-0.7-0.3-1.1-1
		V216.4z M853.8,221.5h0.7c1.9,0,2.9,4,2.9,11.9v0.5c0,0.3-0.5,0.6-1.4,1.1c-1.3,0-2.1-0.4-2.5-1.1c-0.5-6-0.7-10-0.7-11.9
		L853.8,221.5z"/>
	<path class="st2" d="M870.5,220.2l2.3,0.3l-0.3-1.7v-2.4c0-0.3,0.3-0.6,1-1h0.7c1.5,0,2.4,5.9,2.7,17.8c0,1.6-1.3,2.3-4,2.3
		c-0.1,0.7-1,1-2.7,1h-0.3c-4.5,0-7.4-2.3-8.7-7v-1.7c0-4.2,2.7-6.8,8-7.7H870.5z M870.5,223.5c-3.7,0.6-5.6,2-5.6,4.3v1.1
		c0,2.4,1.9,3.9,5.6,4.3c1.4-0.6,2.4-1.2,3-1.8C873.5,226.8,872.5,224.2,870.5,223.5z"/>
	<path class="st2" d="M890.1,236.3h-1.2c-5.6,0-8.3-2.9-8.3-8.7c0-4.6,3.1-7.3,9.3-8c5.4,0,8,3.9,8,11.7v2.8c0,2.5-0.4,3.7-1.2,3.7
		h-0.3c-0.6,0-1-1-1.2-3.1v-0.9h-0.3C893,235.5,891.5,236.3,890.1,236.3z M889,232.9c3.3-1.3,4.9-3,4.9-5.2c0-2.8-1.1-4.3-3.2-4.6
		h-1.4c-3.5,0.6-5.2,2-5.2,4.1c0,3.7,1.6,5.5,4.9,5.5V232.9z"/>
	<path class="st2" d="M902,223c0-0.8,1.4-1.3,4.2-1.4v-3.6c0-0.3,0.3-0.6,0.8-0.8h0.6c1.3,0.7,1.9,2.2,1.9,4.4h3.3
		c1.8,0,2.8,0.7,2.8,2.2c0,1-0.6,1.6-1.9,1.9c-1.9-0.4-3.2-0.6-3.9-0.6v0.3c0.4,2.8,0.6,5,0.8,6.6c0.2,1.6,0.3,2.7,0.3,3.1
		c0,0.5-0.6,0.8-1.9,1.1c-1.3,0-2.3-3.7-2.8-11.1h-0.6c-2.1,0-3.3-0.5-3.6-1.4V223z"/>
	<path class="st2" d="M924.8,231.8v0.4c0,0.5,0.6,0.9,1.7,1c1.4,0,3.7-0.7,7-2.1h0.4c0.3,0,0.7,0.3,1,1v0.3
		c-0.6,2.8-3.2,4.2-7.7,4.2h-1.1c-4.2-1-6.3-3.3-6.3-7v-2.1c0.8-4.2,2.5-6.3,5.2-6.3h0.7c4.7,0.4,7,1.9,7,4.6
		C930.5,229.8,927.8,231.8,924.8,231.8z M925.9,224.8c-1.6,0.6-2.4,2-2.4,4.2v0.3c4-1,5.9-2.2,5.9-3.5
		C927.5,225.2,926.4,224.8,925.9,224.8z"/>
</g>
<g>
	<path class="st2" d="M335.7,821.4h-1.2c-5.6,0-8.3-2.9-8.3-8.7c0-4.6,3.1-7.3,9.3-8c5.4,0,8,3.9,8,11.7v2.8c0,2.5-0.4,3.7-1.2,3.7
		h-0.3c-0.6,0-1-1-1.2-3.1v-0.9h-0.3C338.6,820.6,337.1,821.4,335.7,821.4z M334.6,818c3.3-1.3,4.9-3,4.9-5.2c0-2.8-1.1-4.3-3.2-4.6
		h-1.4c-3.5,0.6-5.2,2-5.2,4.1c0,3.7,1.6,5.5,4.9,5.5V818z"/>
	<path class="st2" d="M357.7,810.1h-0.4c-1.9,0-3.1,1.5-3.5,4.5c0,4.3-0.9,6.4-2.7,6.4c-1.4,0-2.5-3.6-3.1-10.9l0.8-0.4h0.8l1.2,0.8
		c1.6-2.8,4.3-4.1,8.2-4.1c3.5,0,6.5,2.9,9,8.7v1.9c0,3-1,4.5-3.1,4.5c-1-0.5-1.6-1.1-1.6-1.9c0-0.3,0-0.7,0.1-1.4s0.2-1.6,0.3-2.7
		C363.6,812.8,361.7,811,357.7,810.1z"/>
	<path class="st2" d="M381.4,821.4h-1.2c-5.6,0-8.3-2.9-8.3-8.7c0-4.6,3.1-7.3,9.3-8c5.4,0,8,3.9,8,11.7v2.8c0,2.5-0.4,3.7-1.2,3.7
		h-0.3c-0.6,0-1-1-1.2-3.1v-0.9h-0.3C384.3,820.6,382.8,821.4,381.4,821.4z M380.4,818c3.3-1.3,4.9-3,4.9-5.2c0-2.8-1.1-4.3-3.2-4.6
		h-1.4c-3.5,0.6-5.2,2-5.2,4.1c0,3.7,1.6,5.5,4.9,5.5V818z"/>
	<path class="st2" d="M393.5,800.8l1-0.5h1c1.6,1.1,3.1,7.3,4.5,18.4c-0.4,1-0.8,1.4-1.3,1.4H397c-1.4,0-2.3-4.8-2.9-14.3
		C393.9,805.8,393.7,804.2,393.5,800.8z"/>
	<path class="st2" d="M409.5,825.6c0,1.3-0.7,2.5-2.1,3.6h-1.4c-0.9-0.5-1.4-1.3-1.4-2.4c1.1-2.9,2.7-6.1,4.8-9.6v-0.4
		c-4.1-5.1-6.2-8.5-6.2-10c0-0.4,0.3-0.8,1-1.2h0.7l6.5,7.6l0.7,0.4c1.2-2.6,2.9-5,5.1-7.2h1c0.5,0.1,0.7,0.3,0.7,0.8v0.8
		C419.1,809.4,415.9,815.2,409.5,825.6z"/>
	<path class="st2" d="M427,809.9v0.2c0,0.6,1,2.5,3.1,5.6v1.4c0,2.3-1.8,4-5.3,4.9h-0.6c-1.5-0.4-2.2-0.8-2.2-1.2v-1.2
		c0.1-0.5,1.3-1.2,3.6-2.1l0.3-1.2c-2-2.5-3.1-4.3-3.1-5.4v-1.2c0-2.7,2.2-4.3,6.7-4.7c1.7,0.4,2.5,1,2.5,1.9c0,0.7-1.5,1.4-4.4,2.1
		L427,809.9z"/>
	<path class="st2" d="M435.8,801.5c0.2-0.6,1-1,2.2-1h0.4c1,0.3,1.4,1.1,1.4,2.3c0,0.3-0.4,0.6-1.1,1h-1.8c-0.3,0-0.7-0.3-1.1-1
		V801.5z M437.3,806.6h0.7c1.9,0,2.9,4,2.9,11.9v0.5c0,0.3-0.5,0.6-1.4,1.1c-1.3,0-2.1-0.4-2.5-1.1c-0.5-6-0.7-10-0.7-11.9
		L437.3,806.6z"/>
	<path class="st2" d="M449.9,809.9v0.2c0,0.6,1,2.5,3.1,5.6v1.4c0,2.3-1.8,4-5.3,4.9h-0.6c-1.5-0.4-2.2-0.8-2.2-1.2v-1.2
		c0.1-0.5,1.3-1.2,3.6-2.1l0.3-1.2c-2-2.5-3.1-4.3-3.1-5.4v-1.2c0-2.7,2.2-4.3,6.7-4.7c1.7,0.4,2.5,1,2.5,1.9c0,0.7-1.5,1.4-4.4,2.1
		L449.9,809.9z"/>
</g>
<g>
	<path class="st2" d="M586.1,747c0.2-0.6,1-1,2.2-1h0.4c1,0.3,1.4,1.1,1.4,2.3c0,0.3-0.4,0.6-1.1,1h-1.8c-0.3,0-0.7-0.3-1.1-1V747z
		 M587.5,752.1h0.7c1.9,0,2.9,4,2.9,11.9v0.5c0,0.3-0.5,0.6-1.4,1.1c-1.3,0-2.1-0.4-2.5-1.1c-0.5-6-0.7-10-0.7-11.9L587.5,752.1z"/>
	<path class="st2" d="M604.2,750.8l2.3,0.3l-0.3-1.7v-2.4c0-0.3,0.3-0.6,1-1h0.7c1.5,0,2.4,5.9,2.7,17.8c0,1.6-1.3,2.3-4,2.3
		c-0.1,0.7-1,1-2.7,1h-0.3c-4.5,0-7.4-2.3-8.7-7v-1.7c0-4.2,2.7-6.8,8-7.7H604.2z M604.2,754.1c-3.7,0.6-5.6,2-5.6,4.3v1.1
		c0,2.4,1.9,3.9,5.6,4.3c1.4-0.6,2.4-1.2,3-1.8C607.2,757.4,606.2,754.8,604.2,754.1z"/>
	<path class="st2" d="M619.4,762.4v0.4c0,0.5,0.6,0.9,1.7,1c1.4,0,3.7-0.7,7-2.1h0.4c0.3,0,0.7,0.3,1,1v0.3
		c-0.6,2.8-3.2,4.2-7.7,4.2h-1.1c-4.2-1-6.3-3.3-6.3-7v-2.1c0.8-4.2,2.5-6.3,5.2-6.3h0.7c4.7,0.4,7,1.9,7,4.6
		C625,760.4,622.4,762.4,619.4,762.4z M620.4,755.4c-1.6,0.6-2.4,2-2.4,4.2v0.3c4-1,5.9-2.2,5.9-3.5
		C622.1,755.8,620.9,755.4,620.4,755.4z"/>
	<path class="st2" d="M643.2,766.9h-1.2c-5.6,0-8.3-2.9-8.3-8.7c0-4.6,3.1-7.3,9.3-8c5.4,0,8,3.9,8,11.7v2.8c0,2.5-0.4,3.7-1.2,3.7
		h-0.3c-0.6,0-1-1-1.2-3.1v-0.9h-0.3C646.1,766.1,644.6,766.9,643.2,766.9z M642.1,763.5c3.3-1.3,4.9-3,4.9-5.2
		c0-2.8-1.1-4.3-3.2-4.6h-1.4c-3.5,0.6-5.2,2-5.2,4.1c0,3.7,1.6,5.5,4.9,5.5V763.5z"/>
	<path class="st2" d="M655.1,753.6c0-0.8,1.4-1.3,4.2-1.4v-3.6c0-0.3,0.3-0.6,0.8-0.8h0.6c1.3,0.7,1.9,2.2,1.9,4.4h3.3
		c1.8,0,2.8,0.7,2.8,2.2c0,1-0.6,1.6-1.9,1.9c-1.9-0.4-3.2-0.6-3.9-0.6v0.3c0.4,2.8,0.6,5,0.8,6.6c0.2,1.6,0.3,2.7,0.3,3.1
		c0,0.5-0.6,0.8-1.9,1.1c-1.3,0-2.3-3.7-2.8-11.1h-0.6c-2.1,0-3.3-0.5-3.6-1.4V753.6z"/>
	<path class="st2" d="M673.1,747c0.2-0.6,1-1,2.2-1h0.4c1,0.3,1.4,1.1,1.4,2.3c0,0.3-0.4,0.6-1.1,1h-1.8c-0.3,0-0.7-0.3-1.1-1V747z
		 M674.6,752.1h0.7c1.9,0,2.9,4,2.9,11.9v0.5c0,0.3-0.5,0.6-1.4,1.1c-1.3,0-2.1-0.4-2.5-1.1c-0.5-6-0.7-10-0.7-11.9L674.6,752.1z"/>
	<path class="st2" d="M688.9,751.7l0.9,0.6c0.1-0.4,0.3-0.6,0.6-0.6h1.5c3.7,1,5.5,2.9,5.5,5.5v2.8c0,3.6-2.4,5.9-7.1,6.8
		c-5.5-1.3-8.3-3.7-8.3-7.4v-1.9c0-3,2.1-5,6.2-5.8H688.9z M688.9,754.8c-2.3,0.7-3.4,1.8-3.4,3.4v0.3c0,2.4,1.5,3.9,4.6,4.6h0.6
		c2,0,3.1-1.5,3.4-4.6C694.1,756,692.3,754.8,688.9,754.8z"/>
	<path class="st2" d="M711.7,755.6h-0.4c-1.9,0-3.1,1.5-3.5,4.5c0,4.3-0.9,6.4-2.7,6.4c-1.4,0-2.5-3.6-3.1-10.9l0.8-0.4h0.8l1.2,0.8
		c1.6-2.8,4.3-4.1,8.2-4.1c3.5,0,6.5,2.9,9,8.7v1.9c0,3-1,4.5-3.1,4.5c-1-0.5-1.6-1.1-1.6-1.9c0-0.3,0-0.7,0.1-1.4s0.2-1.6,0.3-2.7
		C717.5,758.2,715.6,756.5,711.7,755.6z"/>
</g>
<g>
	<path class="st5" d="M529.7,456.8l-1,0.1c-0.3,0-0.7-0.2-1.1-0.8c-0.3-2.8,5.7-4.8,17.9-6c0.7,0.6,2,3.1,3.7,7.5
		c-0.1,6.1-2.9,9.4-8.3,9.9c-3.8,0.4-6.5-2.5-8.1-8.5l-0.1-1.2l0.2-1.5L529.7,456.8z M543.1,454.6c-4.5,1.1-6.7,2.3-6.6,3.7
		c1,3.5,2.6,5.2,4.8,5c3-0.3,4.4-2.3,4-5.8C545.2,456.5,544.4,455.5,543.1,454.6z"/>
	<path class="st5" d="M534.7,475.8c-0.1-1.2,4.6-2.8,14.1-5c0.9,0.2,1.4,0.5,1.4,0.8l0.1,0.6c0.1,1-1.9,1.9-5.9,2.9l0,0.3
		c3.4,1,5.2,3,5.5,6c-0.2,0.9-0.5,1.4-0.8,1.4l-1.3,0.1c-0.5,0.1-1.3-1.1-2.3-3.4c-1.6-1.1-4.9-1.8-10-1.9l-0.7-0.9L534.7,475.8z"/>
	<path class="st5" d="M551.7,493.3l-0.5,1c0.4,0,0.6,0.2,0.7,0.6l0.2,1.5c-0.7,3.8-2.3,5.8-5,6.1l-2.8,0.3c-3.6,0.4-6.1-1.8-7.4-6.4
		c0.7-5.6,2.9-8.7,6.5-9l1.9-0.2c3-0.3,5.1,1.5,6.4,5.5L551.7,493.3z M548.7,493.6c-0.9-2.2-2.2-3.2-3.7-3l-0.3,0
		c-2.4,0.2-3.8,1.9-4.1,5.1l0.1,0.6c0.2,2,1.8,3,4.9,2.9C548,498.9,549,497,548.7,493.6z"/>
	<path class="st5" d="M554,512.1l0.2,1.7c0.4,4.3-1.5,7.3-5.9,9l-2.3,0.2c-4.1,0.4-6.9-2.4-8.3-8.3l-0.1-0.7
		c-0.1-0.5,0.4-2.8,1.3-6.9c0.7-0.1,1-0.2,1-0.4c12.1-1.2,18.2-0.8,18.4,1.2l0.1,0.7c0,0.3-0.3,0.7-0.9,1.1l-2.3,0.2l-1.7-0.2
		L554,512.1z M541,514.4c1,3.6,2.8,5.2,5.6,5c2.6-0.3,3.9-2.6,4-7.1c-0.2-1.8-3-2.4-8.6-1.9C541.2,511.9,540.9,513.2,541,514.4z"/>
	<path class="st5" d="M560.5,526.1l0.6,0.9l0.1,1c-1,1.7-6.9,3.9-17.8,6.3c-1-0.3-1.5-0.7-1.6-1.1l-0.2-1.6c-0.1-1.4,4.5-2.8,14-4.3
		C555.6,527.1,557.2,526.7,560.5,526.1z"/>
	<path class="st5" d="M546,543.3l-0.4,0c-0.5,0.1-0.8,0.7-0.9,1.8c0.1,1.4,1.1,3.6,2.8,6.7l0,0.4c0,0.3-0.3,0.7-0.9,1.1l-0.3,0
		c-2.9-0.4-4.5-2.8-5-7.2l-0.1-1.1c0.5-4.3,2.6-6.6,6.3-7l2.1-0.2c4.3,0.4,6.5,1.9,6.8,4.6l0.1,0.7c0.1,4.7-1.2,7.1-3.8,7.4
		C548.6,548.7,546.3,546.3,546,543.3z M553.1,543.7c-0.7-1.6-2.2-2.2-4.4-2l-0.3,0c1.4,3.8,2.8,5.7,4.1,5.6
		C552.9,545.3,553.2,544.1,553.1,543.7z"/>
	<path class="st5" d="M544.5,562.4l-0.1-1c-0.1-0.6,0.6-1.1,1.8-1.5c3.3-0.9,6.5-1.5,9.7-1.9c0.3,0.3,0.4,0.5,0.4,0.7l0.1,0.8
		c0,0.2-0.4,0.9-1.4,1.9c1.8,1.4,2.8,3.1,3,5.1l0.2,1.8c0.1,0.6-0.4,1.6-1.3,2.8l0,0.1c1.8,1.4,2.8,3,3,4.8l0.1,1.1
		c0.4,3.5-1.6,6.2-5.8,8c-2.1,0.8-3.7,1.3-4.8,1.4c-0.9-0.9-1.4-1.4-1.4-1.6l0-0.3c-0.1-1.2,1.9-2.3,6.2-3.2
		c1.8-1.4,2.6-2.9,2.4-4.5c-0.2-1.8-1.6-3.1-4.3-3.8c-0.7,0.3-1.3,0.4-1.8,0.5l-1.8,0.2c-0.9,0.1-1.5-0.2-2-1l-0.1-1.4
		c-0.1-1,2.2-1.7,7-2.1c0.9-0.7,1.4-1.3,1.3-1.9l0-0.1c-0.1-0.7-0.7-1.7-1.9-3.1c-1.1-0.9-2.3-1.3-3.6-1.1l-3.7,0.4
		C545,563.2,544.6,562.9,544.5,562.4z"/>
</g>
<g>
	<path class="st2" d="M804.5,824.6v1c0,0.3-0.3,0.6-0.9,1c-2.8,0-4.2-6.1-4.2-18.4c0.7-0.6,3.3-1.6,7.8-3c6,0.8,9,3.8,9,9.2
		c0,3.8-3.1,6.2-9.3,7.2h-1.2l-1.5-0.3L804.5,824.6z M803.6,811.1c0.6,4.6,1.6,6.9,3,6.9c3.6-0.7,5.4-2.1,5.4-4.3
		c0-3.1-1.8-4.6-5.4-4.6C805.7,809.2,804.7,809.8,803.6,811.1z"/>
	<path class="st2" d="M823.9,821.5c-1.2,0-2.4-4.9-3.6-14.6c0.3-0.9,0.6-1.3,1-1.3h0.6c1,0,1.7,2.1,2.3,6.2h0.3
		c1.3-3.2,3.5-4.9,6.5-4.9c0.9,0.3,1.3,0.6,1.3,1v1.3c0,0.5-1.2,1.2-3.6,1.9c-1.3,1.4-2.3,4.7-2.9,9.7l-1,0.6H823.9z"/>
	<path class="st2" d="M843,806.3l0.9,0.6c0.1-0.4,0.3-0.6,0.6-0.6h1.5c3.7,1,5.5,2.9,5.5,5.5v2.8c0,3.6-2.4,5.9-7.1,6.8
		c-5.5-1.3-8.3-3.7-8.3-7.4v-1.9c0-3,2.1-5,6.2-5.8H843z M843,809.4c-2.3,0.7-3.4,1.8-3.4,3.4v0.3c0,2.4,1.5,3.9,4.6,4.6h0.6
		c2,0,3.1-1.5,3.4-4.6C848.2,810.6,846.5,809.4,843,809.4z"/>
	<path class="st2" d="M855.7,808.2c0-0.8,1.4-1.3,4.2-1.4v-3.6c0-0.3,0.3-0.6,0.8-0.8h0.6c1.3,0.7,1.9,2.2,1.9,4.4h3.3
		c1.8,0,2.8,0.7,2.8,2.2c0,1-0.6,1.6-1.9,1.9c-1.9-0.4-3.2-0.6-3.9-0.6v0.3c0.4,2.8,0.6,5,0.8,6.6c0.2,1.6,0.3,2.7,0.3,3.1
		c0,0.5-0.6,0.8-1.9,1.1c-1.3,0-2.3-3.7-2.8-11.1h-0.6c-2.1,0-3.3-0.5-3.6-1.4V808.2z"/>
	<path class="st2" d="M880.6,806.3l0.9,0.6c0.1-0.4,0.3-0.6,0.6-0.6h1.5c3.7,1,5.5,2.9,5.5,5.5v2.8c0,3.6-2.4,5.9-7.1,6.8
		c-5.5-1.3-8.3-3.7-8.3-7.4v-1.9c0-3,2.1-5,6.2-5.8H880.6z M880.6,809.4c-2.3,0.7-3.4,1.8-3.4,3.4v0.3c0,2.4,1.5,3.9,4.6,4.6h0.6
		c2,0,3.1-1.5,3.4-4.6C885.8,810.6,884.1,809.4,880.6,809.4z"/>
	<path class="st2" d="M893.3,808.2c0-0.8,1.4-1.3,4.2-1.4v-3.6c0-0.3,0.3-0.6,0.8-0.8h0.6c1.3,0.7,1.9,2.2,1.9,4.4h3.3
		c1.8,0,2.8,0.7,2.8,2.2c0,1-0.6,1.6-1.9,1.9c-1.9-0.4-3.2-0.6-3.9-0.6v0.3c0.4,2.8,0.6,5,0.8,6.6c0.2,1.6,0.3,2.7,0.3,3.1
		c0,0.5-0.6,0.8-1.9,1.1c-1.3,0-2.3-3.7-2.8-11.1h-0.6c-2.1,0-3.3-0.5-3.6-1.4V808.2z"/>
	<path class="st2" d="M916.5,825.6c0,1.3-0.7,2.5-2.1,3.6h-1.4c-0.9-0.5-1.4-1.3-1.4-2.4c1.1-2.9,2.7-6.1,4.8-9.6v-0.4
		c-4.1-5.1-6.2-8.5-6.2-10c0-0.4,0.3-0.8,1-1.2h0.7l6.5,7.6l0.7,0.4c1.2-2.6,2.9-5,5.1-7.2h1c0.5,0.1,0.7,0.3,0.7,0.8v0.8
		C926.1,809.4,922.9,815.2,916.5,825.6z"/>
	<path class="st2" d="M933.5,824.6v1c0,0.3-0.3,0.6-0.9,1c-2.8,0-4.2-6.1-4.2-18.4c0.7-0.6,3.3-1.6,7.8-3c6,0.8,9,3.8,9,9.2
		c0,3.8-3.1,6.2-9.3,7.2h-1.2l-1.5-0.3L933.5,824.6z M932.6,811.1c0.6,4.6,1.6,6.9,3,6.9c3.6-0.7,5.4-2.1,5.4-4.3
		c0-3.1-1.8-4.6-5.4-4.6C934.7,809.2,933.7,809.8,932.6,811.1z"/>
	<path class="st2" d="M949.1,801.5c0.2-0.6,1-1,2.2-1h0.4c1,0.3,1.4,1.1,1.4,2.3c0,0.3-0.4,0.6-1.1,1h-1.8c-0.3,0-0.7-0.3-1.1-1
		V801.5z M950.5,806.6h0.7c1.9,0,2.9,4,2.9,11.9v0.5c0,0.3-0.5,0.6-1.4,1.1c-1.3,0-2.1-0.4-2.5-1.1c-0.5-6-0.7-10-0.7-11.9
		L950.5,806.6z"/>
	<path class="st2" d="M968,810.1h-0.4c-1.9,0-3.1,1.5-3.5,4.5c0,4.3-0.9,6.4-2.7,6.4c-1.4,0-2.5-3.6-3.1-10.9l0.8-0.4h0.8l1.2,0.8
		c1.6-2.8,4.3-4.1,8.2-4.1c3.5,0,6.5,2.9,9,8.7v1.9c0,3-1,4.5-3.1,4.5c-1-0.5-1.6-1.1-1.6-1.9c0-0.3,0-0.7,0.1-1.4s0.2-1.6,0.3-2.7
		C973.9,812.8,971.9,811,968,810.1z"/>
	<path class="st2" d="M987.9,826.7c0-0.4,1.3-1.3,3.8-2.7c1.2-1.3,1.7-3.1,1.7-5.6h-0.3c-1.4,1.2-2.8,1.8-4.3,1.8
		c-4.6-0.9-7-3.1-7-6.5v-0.9c0-2.7,2.3-5,7-7.1c1-0.2,1.6-0.3,1.7-0.3c3,0,5.1,3.5,6.1,10.4v4.1c-0.9,6.3-3.3,9.5-7.2,9.5
		c-0.9-0.4-1.4-0.8-1.5-1.2V826.7z M992.5,813.5c0-0.6-0.4-2.3-1.3-5.2c-4,1.4-6.1,3.1-6.1,5.2v0.3c0,1.9,1.4,3,4.2,3.3
		C991,817.1,992.1,815.9,992.5,813.5z"/>
</g>
</svg>
