<?xml version="1.0" encoding="utf-8"?>
<!-- Generator: Adobe Illustrator 26.5.0, SVG Export Plug-In . SVG Version: 6.00 Build 0)  -->
<svg version="1.1" id="Layer_1" xmlns="http://www.w3.org/2000/svg" xmlns:xlink="http://www.w3.org/1999/xlink" x="0px" y="0px"
	 viewBox="0 0 1080 688" style="enable-background:new 0 0 1080 688;" xml:space="preserve">
<style type="text/css">
	.st0{fill:#F7F6F1;}
</style>
<g>
	<path class="st0" d="M181.8,503.1c-37.1-0.5-70-13.2-97-39.8c-22.1-21.8-34.9-48.5-40-79C36.3,334.4,57.7,264.4,94.1,226
		c19.5-20.6,42.5-35,70.9-39.6c28.4-4.5,54.6,1.5,78.7,16.8c23.8,15.2,40.9,36.3,53.9,61.1c13.2,25.3,21.4,52.3,23.7,80.7
		c4.3,52.8-12.7,97.2-55.2,130.2C241.8,494.2,213.4,502.7,181.8,503.1z M299.5,324.5c0.4-0.1,0.7-0.2,1.1-0.3
		c-3.2-10.2-5.9-20.6-9.6-30.6c-9.7-26.2-24.1-49.3-46-67.2c-16.7-13.6-35.6-22.1-57.3-23.2c-25.2-1.4-47.3,7-66.8,22.7
		c-21,16.8-35.2,38.7-44.9,63.4c-11.8,29.9-18.5,60.7-13.2,93.1c4.5,26.9,16.1,50.2,35.8,69.1c24.7,23.7,54.5,34.4,88.6,33.5
		c15.7-0.4,30.7-3.7,44.5-11.2c36.4-19.9,55-51.4,57.1-92.2c1.7-32.6-7.4-63.2-22.6-92c-10.1-19.1-23.4-35.6-41.9-47.4
		c-16.6-10.5-34.6-15.3-54.3-11.5c-17.8,3.4-31.9,13.1-43.9,26.3c-15.8,17.4-25.9,37.9-32.1,60.3c-5.2,18.7-8.3,37.5-5.9,57.1
		c4.9,40.9,34,73.5,74.4,82.2c19.7,4.3,39.2,3,57.2-6.8c28.3-15.4,41.7-40.4,42.2-71.7c0.5-29.5-8.1-57.1-23.2-82.6
		c-7-11.8-15.6-22.2-27-29.9c-15.7-10.6-32.2-13.7-49.6-4.1c-7.4,4.1-13.7,9.5-18.9,16.1c-20,25.4-29.8,54.5-29.3,86.6
		c0.5,34.2,24.2,63.3,59.8,67.7c15,1.8,29.1-0.7,41.3-10.4c6.1-4.9,10.9-10.9,13.7-18.4c-0.6,0.2-0.9,0.8-1.3,1.3
		c-15.4,16.9-34.8,22.4-56.8,18.5c-27.6-4.9-46.4-28-48.3-57.5c-0.8-12.2,1.5-24,4.5-35.6c5.1-19.6,13.4-37.7,28-52.3
		c9.2-9.2,20-15,33.6-12.7c11.3,1.9,20.2,8.3,27.9,16.4c11.9,12.4,20.2,27.2,25.9,43.3c7.2,20.4,12.6,41.2,9.9,63.1
		c-2.5,20.1-11.2,37-27.6,49.4c-13.5,10.2-28.9,14-45.6,13.3c-18.3-0.8-35-6.3-49.3-17.8c-23-18.3-33.5-42.8-33.7-71.7
		c-0.2-20.2,4.8-39.7,12.3-58.4c7.5-18.7,17.9-35.6,33.7-48.6c16.5-13.6,35.1-19.3,56.3-14c16.6,4.1,30.2,13.4,41.1,26.3
		c29.2,34.5,42.3,74.7,40.3,119.6c-1.1,25.2-11.5,47-29.8,64.6c-19.3,18.6-42.7,26.9-69.4,26.4c-22.3-0.4-43-6.4-61.2-19.2
		c-33.4-23.4-48.8-56.4-49.7-96.6c-0.4-15.8,2.7-31.2,6.9-46.3c8-29.1,21.3-55.4,43.4-76.5c30.7-29.4,72.6-34.8,109.6-13.9
		c24.8,14,41.7,35.3,54.7,60.2C290.5,297,295.5,310.6,299.5,324.5z M139.9,357.7c0.2,15.5,3.8,27.7,13.8,37.1
		c12.3,11.4,26.9,13.9,42.5,9c15.4-4.8,23.9-16.2,27.6-31.6c2.5-10.6,1-20.9-1.3-31.3c-3.7-17.2-9.8-33.3-21.4-46.8
		c-3.3-3.8-7.5-7-11.6-9.8c-4.6-3.1-9.8-2.9-14.5,0.2c-3.5,2.3-7.1,4.9-9.8,8C148.3,311.6,142.2,335,139.9,357.7z"/>
</g>
<g>
	<path class="st0" d="M437.5,250.8l1.2,4.3c20.4-3,32.9,10.2,32.9,25.7c0,16.8-9.7,32.3-32.6,32.3l-47.6-0.3l1.6-115.3h36.2
		c22.9,0,39,6.6,39,25.5C468.2,240.6,456.2,246.3,437.5,250.8z M422.5,244.4h0.7c7.9,0,12.4-4.6,12.4-13.5c0-8.1-4.4-11.2-12.4-11.2
		h-1.5L422.5,244.4z M424.3,289.7h0.7c8.7,0,13.5-5.1,13.5-14.8c0-8.9-4.8-12.4-13.5-12.4h-1.6L424.3,289.7z"/>
	<path class="st0" d="M506.3,273.5c6.4,20.4,6.4,27.7,6.4,39.2h-34.6l1.6-115.3l33.4-0.3c30.5-0.3,47.6,8.7,47.6,28.7
		c0,21.6-18.3,34.7-54.3,34.7v4.3h28.7c6.8,13.7,13.8,16.8,29.1,15.3v32.6c-25.7,0-41.7-6.8-53.5-40L506.3,273.5z M511.7,246.8
		c8.7,0,13.5-5.1,13.5-13.8c0-8.2-4.8-11.7-13.5-11.7h-3.3l1,25.5H511.7z"/>
	<path class="st0" d="M685,255.2c0,33.6-27.2,60.8-60.8,60.8s-60.8-27.2-60.8-60.8s27.2-60.8,60.8-60.8
		C657.8,194.5,685,221.6,685,255.2z M653.2,255.2c0-16-13-29-29-29s-29,13-29,29s13,29,29,29S653.2,271.2,653.2,255.2z"/>
	<path class="st0" d="M691.9,197.4h32.9c-1.6,16.3-6.8,31-20.6,53.4l3.5,2.5l35.2-55.8h37.2l-52.9,66.2l2.3,2.5l14.7-7.4
		c8.2,16.1,17.5,22.1,32.1,21.9v32.1c-25.7,0-42-6.8-60.6-49.2l-3.6,2c10.2,24.9,12.4,35.9,12.7,47.3h-34.6L691.9,197.4z"/>
	<path class="st0" d="M851.4,197.4l0.2,26.2h-37.9v34.3h3l5.4-16.8l28.7,6.3c0,23.1-21.4,26-37.1,17.5V285h38.2l1.6,27.8h-72.8
		l1.6-115.3L851.4,197.4L851.4,197.4z"/>
	<path class="st0" d="M946,197.4l1.6,115.3h-36.2L882.9,221l-4,1.2c9.6,32.8,15.5,71.5,16.3,90.6h-34.6l1.6-115.3h36.2l26.8,86.9
		l4-1.2c-8.4-31.1-15.3-67.8-16.3-85.8L946,197.4L946,197.4z"/>
	<path class="st0" d="M462,375.3l0.2,26.2h-37.9v34.3h3l5.4-16.8l28.7,6.3c0,23.1-21.4,26-37.1,17.5v20.1h38.2l1.6,27.8h-72.8
		l1.6-115.3L462,375.3L462,375.3z"/>
	<path class="st0" d="M513,372.7c14.2,0,20.7,1.3,39.5,2.6l-6.9,44.3c-20.7-2.5-34.6-17.9-36.1-35.6l-4-0.3
		c-1.5,13.3-2.6,24.5-2.6,45.3v7.6c0,16.8,4,28.3,12.5,28.3c3.5,0,5.8-2.3,5.8-5.8c0-4.3-2.1-7.6-8.6-9.2v-25h42l1.5,29l-28.2-1.2
		v4.1c16.5,1.3,32.9,1.3,32.9,33.8H532c0-12.5-4.3-18.3-7.9-21.6l-3,2.1c1.8,2.3,3.6,5.4,3.6,9.2c0,5.6-3.6,12.4-15.2,12.4
		c-29.5,0-43.5-22.6-43.5-57.5v-2.8C466.3,396.7,481.9,372.7,513,372.7z"/>
	<path class="st0" d="M608.2,372.7c14.2,0,20.7,1.3,39.5,2.6l-6.9,44.3c-20.7-2.5-34.6-17.9-36.1-35.6l-4-0.3
		c-1.5,13.3-2.6,24.5-2.6,45.3v7.6c0,16.8,4,28.3,12.5,28.3c3.5,0,5.8-2.3,5.8-5.8c0-4.3-2.1-7.6-8.6-9.2v-25h42l1.5,29l-28.2-1.2
		v4.1c16.5,1.3,32.9,1.3,32.9,33.8h-28.8c0-12.5-4.3-18.3-7.9-21.6l-3,2.1c1.8,2.3,3.6,5.4,3.6,9.2c0,5.6-3.6,12.4-15.1,12.4
		c-29.5,0-43.5-22.6-43.5-57.5v-2.8C561.5,396.7,577.1,372.7,608.2,372.7z"/>
	<path class="st0" d="M702.6,490.6l1.6-115.3h31.3v105.4h4.1c1.6-18.9,8.4-23.9,31.1-20.9l2,30.8L702.6,490.6L702.6,490.6z"/>
	<path class="st0" d="M836.1,472.3h-24.2l-2.8,18.3h-34.6l25-115.3h48.9l25,115.3h-34.6L836.1,472.3z M832.5,449.6
		c-1.6-6.8-5.4-36.1-5.4-45.9h-5.8c0,9.9-4.1,39.2-5.8,45.9H832.5z"/>
	<path class="st0" d="M924.1,428.6l1.2,4.3c20.4-3,32.9,10.2,32.9,25.7c0,16.8-9.7,32.3-32.6,32.3l-47.6-0.3l1.6-115.3h36.2
		c22.9,0,39,6.6,39,25.5C954.8,418.4,942.8,424.2,924.1,428.6z M909.1,422.2h0.7c7.9,0,12.4-4.6,12.4-13.5c0-8.1-4.4-11.2-12.4-11.2
		h-1.5L909.1,422.2z M910.9,467.5h0.7c8.7,0,13.5-5.1,13.5-14.8c0-8.9-4.8-12.4-13.5-12.4H910L910.9,467.5z"/>
	<path class="st0" d="M1038,464.4c0,17.5-13.7,29.1-33.1,29.1c-11.7,0-18.4-4-39.7-3l-4.3-32.4c29-3.5,41.2,3,46.3,23.7l4-1.2
		c-1-9.6-6.1-21.7-15.1-28.3l-12.8-9.4c-13.8-10.2-20.3-22.1-20.3-36.2c0-17.3,9.1-34.1,29-34.1c14.3,0,17,3.8,35.6,2.6l7.2,28.3
		c-28.3,8.7-42.8-0.5-47.6-20.1l-3.3,1.2c1,8.2,5.4,21.7,17.8,30l13.5,9.1C1030.4,433.9,1038,448.1,1038,464.4z"/>
</g>
</svg>
