<?xml version="1.0" encoding="utf-8"?>
<!-- Generator: Adobe Illustrator 26.5.0, SVG Export Plug-In . SVG Version: 6.00 Build 0)  -->
<svg version="1.1" id="Layer_1" xmlns="http://www.w3.org/2000/svg" xmlns:xlink="http://www.w3.org/1999/xlink" x="0px" y="0px"
	 viewBox="0 0 1080 1080" style="enable-background:new 0 0 1080 1080;" xml:space="preserve">
<style type="text/css">
	.st0{fill:#2D2D2D;}
	.st1{fill:#FFD865;}
	.st2{font-family:'ArialMT';}
	.st3{font-size:12px;}
	.st4{font-family:'MADEGentle';}
	.st5{font-size:84.8231px;}
	.st6{letter-spacing:19;}
	.st7{fill:#9F1CFA;}
	.st8{fill:#FF8E69;}
	.st9{fill:#FF4284;}
	.st10{fill:#E62FBF;}
</style>
<g>
	<path class="st0" d="M768.6,596.1c6.4,25,3.2,48.2-10.3,69.7c-3.1,4.9-6.1,10.3-10.5,13.7c-8.1,6.1-6.7,12.2-3.9,20.4
		c3.8,11.4,6.9,23.5,7.8,35.5c1.2,16.4-9.4,27.1-25.8,25.9c-12.6-0.9-25.1-4.5-37.3-8.2c-13.7-4.2-26.8-10.2-40.4-14.6
		c-3.8-1.2-8.8-0.5-12.7,0.9c-7.8,2.6-14.9,7.4-22.8,9.3c-10.8,2.6-16.3,9-20,18.8c-4.4,11.7-9.5,23.1-15.1,34.3
		c-4.5,9-9.3,18-15.4,25.8c-14.6,18.6-33.5,18.6-48.3-0.1c-6.2-7.8-11.1-16.8-15.6-25.7c-7.2-14.5-13.2-29.5-20.5-43.9
		c-2.1-4.1-6.7-7.2-10.7-10c-2.9-2.1-7.1-2.4-10-4.5c-12.4-8.9-24.6-6.3-37.7-1.1c-18.7,7.4-37.9,13.3-57,19.7c-2.8,0.9-6,1.1-9,1.3
		c-20.5,1.1-33-10.6-31-31.1c1.2-12.3,4.6-24.6,9-36.2c3.9-10.1,3.7-17-3.4-26.1c-15.4-19.7-19.3-43-14.8-68.2
		c-9.5-4.3-19.2-8.1-28.2-12.9c-9.9-5.2-20.2-10.4-28.9-17.4c-18-14.7-18-33.3-0.2-48.1c7.9-6.5,17.1-11.6,26.4-16.2
		c16.4-8.2,33.4-14.9,49.7-23.2c19.3-9.9,22.3-17,15.9-37.6c-5.3-17.2-12.6-33.7-18.1-50.8c-3.5-10.9-6.8-22.3-7.9-33.7
		c-1.8-19.4,10.2-32,29.7-30.5c12.5,1,25,4.8,37.2,8.6c17.1,5.4,33.7,12.6,50.9,17.7c18.4,5.5,24.3,2.9,33.4-14.2
		c7.3-13.7,13-28.2,19.9-42.2c5.2-10.6,10.2-21.6,17-31.3c17.2-24.7,40-24.5,56.6,0.6c8,12.1,13.7,25.8,20.2,38.9
		c6.3,12.5,11.6,25.5,18.5,37.7c7.2,12.6,12.6,15.1,26.5,11.4c15.5-4.2,30.6-10.2,46-15.2c11.6-3.8,23.1-7.7,34.9-10.8
		c4.9-1.3,10.3-1.5,15.4-1.3c15.1,0.7,25.9,10.6,25.4,25.6c-0.4,11.4-3,23-6.5,33.8c-5.8,18-13.5,35.3-19.6,53.2
		c-5.3,15.3,3,35.5,17.7,43c16.6,8.4,33.8,15.6,50.3,24c8.4,4.2,16.7,9.1,23.8,15.2c15.1,12.9,15.2,29.6,0,42.3
		c-8.1,6.8-17.7,11.7-27,16.8C784.7,589.3,776.8,592.4,768.6,596.1z"/>
	<path class="st1" d="M353.3,551.8c6.4-86.8,66-165.8,151.8-181.6c103.3-19.1,198.8,44,221.1,146.6c2.5,11.5,3.3,23.5,3.9,35.4
		c2.4,20.1-10.3,64.6-10.3,64.6C691,698.5,611.1,751.2,525,742.2c-78.3-8.2-132-50.9-161-124.3C364,617.9,351.5,577,353.3,551.8z
		 M674,573.1c2.3,0.6,4.1,1.4,5.8,1.3c3.4-0.2,6.7-0.9,10-1.4c-0.7-3.6-0.3-7.9-2.2-10.6c-7.5-10.9-23.9-15-35-8.7
		c-2.7,1.5-5.9,5.3-5.8,8c0,2.1,4.5,5.5,7.4,5.9c6.9,0.9,7.6,3.6,5.9,9.8c-5.9,21.2-15.8,40.2-30.2,56.8
		c-48.7,56.2-125.7,59.1-175.4,6.3c-18.8-19.9-30.3-43.6-35.1-71c2.9-0.7,5.1-0.8,6.9-1.7c3-1.6,5.7-3.6,8.5-5.5
		c-2.2-2.9-3.8-7-6.8-8.6c-10.5-5.5-21.1-3.6-29.8,3.8c-3.8,3.3-8.2,10.2-7.2,14.1c2,7.7,9,2.3,14,1.9c0.3,0,0.6,0.1,0.8,0.1
		c17,75,57.6,124.8,140.3,123C599.5,695.5,660.7,652.3,674,573.1z M614.9,542.3c-7.3-2.8-13-4.9-18.6-7.3c-7-3.1-7.6-7.2-1.6-12
		c5.9-4.8,12.3-9,18.2-13.9c2.1-1.8,4.9-4.8,4.7-7c-1.3-13.1-3.3-26.1-12-36.8c-8.5-10.3-20.5-10.7-29-0.4
		c-3.8,4.6-7.5,10.3-8.4,15.9c-2.2,14.3-4.4,29-3.6,43.3c0.6,11.2,4,23,9.2,32.9c8.2,15.6,24.8,15.2,34.2,0.2
		C610.8,552.9,612.4,547.9,614.9,542.3z"/>
	<path class="st0" d="M674,573.1c-13.3,79.3-74.5,122.4-127.9,123.6c-82.7,1.8-123.3-48-140.3-123c-0.2,0-0.5-0.1-0.8-0.1
		c-5,0.4-12,5.7-14-1.9c-1-3.9,3.3-10.8,7.2-14.1c8.7-7.4,19.3-9.3,29.8-3.8c3,1.5,4.6,5.6,6.8,8.6c-2.8,1.9-5.5,4-8.5,5.5
		c-1.8,0.9-4.1,1.1-6.9,1.7c4.8,27.4,16.3,51.1,35.1,71c49.7,52.8,126.8,49.9,175.4-6.3c14.4-16.6,24.3-35.6,30.2-56.8
		c1.7-6.2,1-8.9-5.9-9.8c-2.8-0.4-7.3-3.8-7.4-5.9c0-2.7,3.1-6.4,5.8-8c11.1-6.3,27.6-2.3,35,8.7c1.9,2.7,1.5,7,2.2,10.6
		c-3.3,0.5-6.7,1.2-10,1.4C678.1,574.5,676.3,573.6,674,573.1z"/>
	<path class="st0" d="M614.9,542.3c-2.6,5.7-4.2,10.6-6.9,14.9c-9.4,15-26,15.5-34.2-0.2c-5.2-9.9-8.6-21.7-9.2-32.9
		c-0.8-14.4,1.4-29,3.6-43.3c0.9-5.6,4.6-11.4,8.4-15.9c8.5-10.3,20.5-9.9,29,0.4c8.8,10.6,10.7,23.7,12,36.8c0.2,2.2-2.5,5.3-4.7,7
		c-5.9,4.9-12.2,9.1-18.2,13.9c-6,4.9-5.5,9,1.6,12C601.9,537.4,607.6,539.4,614.9,542.3z"/>
	<path class="st0" d="M463.5,516.5c3.2-14.4,2.7-29,7-43.1c2.6-8.6,9.2-15.6,19.3-15.7c10.6-0.2,16.7,7.2,20.1,16
		c3.2,8.4,5.1,17.4,6.7,26.4c0.4,2.1-1.9,5.5-3.9,7.1c-6.3,5.3-13.1,9.9-19.6,14.9c-7.6,5.9-7.1,10,1.6,13.5
		c3.7,1.5,7.3,3.1,11.1,4.1c7.7,1.8,7.8,6,4.7,12.1c-4.5,8.7-9.5,16.5-20.9,16.3c-10.9-0.2-15.8-8-19.9-16.4
		c-1.8-3.8-3.2-7.9-4-12.1c-1.4-7.4-1.1-15-2.2-22.5C462.9,516.8,464.1,516.6,463.5,516.5z"/>
</g>
<text transform="matrix(0.9975 7.031013e-02 -7.031013e-02 0.9975 559.8554 192.3005)" class="st2 st3"> </text>
<text transform="matrix(0.9951 9.904135e-02 -9.904135e-02 0.9951 563.1903 192.4374)" class="st0 st4 st5 st6"> </text>
<text class="st2 st3"> </text>
<g>
	<circle class="st7" cx="645" cy="285" r="24"/>
	<circle class="st8" cx="266" cy="433" r="24"/>
	<circle class="st9" cx="429" cy="816" r="24"/>
	<circle class="st10" cx="822" cy="673" r="24"/>
</g>
<g>
	<path class="st0" d="M433.8,147.1c5.9,16.4-0.6,33.7-23.8,41.9l-16,5.7c-4.6,1.6-8.5,2.1-9.6-1.1c-0.1-0.2,0,0-0.1-0.2
		c-1-2.9,1.5-4.9,0-9.1l-12.4-34.9c-1.5-4.2-4.7-4.1-5.8-7c0-0.1,0,0,0-0.1c-1.1-3.2,2.2-5.4,6.8-7l16-5.7
		C412,121.4,427.9,130.7,433.8,147.1z M414.8,153.9c-4.4-12.3-13.3-21.2-23.5-17.5c-2.9,1-3.7,2.8-2.2,7l12.4,34.9
		c1.5,4.2,3.2,5.1,6.1,4C417.9,178.7,419.2,166.2,414.8,153.9z"/>
	<path class="st0" d="M459.9,122.4l8,37.4c0.9,4.3,4.1,4.7,4.8,7.7c0,0.2,0,0.1,0,0.2c0.7,3.3-4.6,5.3-11,6.7s-12.2,1.7-12.9-1.6
		c0-0.1,0,0,0-0.2c-0.6-3,2.1-4.7,1.2-9l-8-37.4c-0.9-4.2-4.1-4.6-4.8-7.6c0-0.2,0-0.1,0-0.2c-0.7-3.3,4.8-4.8,11.2-6.2
		c6.4-1.4,12-2.2,12.7,1.1c0,0.1,0,0,0,0.2C461.7,116.5,459,118.2,459.9,122.4z"/>
	<path class="st0" d="M540.7,137.1c0,0.2,0,0,0,0.2c0.2,3.1-2.6,4.4-2.3,8.8c0.1,0.8,1,13,1.1,14.7c0.4,5.2-4.6,5.3-8.9,3.6
		c-1.2-0.4-2.1-1-2.8-1.7c-4.7,2.7-8.7,4.6-15.4,5.1c-18,1.4-35.8-8.1-36.4-30.8c-0.6-19.4,13.5-32.4,31.3-33.8
		c8.3-0.6,11.6,1.9,17.5-0.8c3-1.4,5.8-0.4,6.7,2.5c0.9,3.3,2.6,13.6,3.2,16.5c0.6,3-0.5,4.6-2.3,4.8c-0.1,0,0,0-0.2,0
		c-6,0.5-8.7-17.3-21.9-16.3c-9.3,0.7-14.9,11.2-13.5,23.2c2.3,19.6,14.8,25.8,24.9,23.6l-0.7-9.2c-0.3-4.4-3.5-5.2-3.7-8.3
		c0-0.2,0,0,0-0.2c-0.3-3.3,5-4.2,11.6-4.7C535.1,133.8,540.4,133.8,540.7,137.1z"/>
	<path class="st0" d="M572,116l-2,38.2c-0.2,4.4,2.8,5.6,2.6,8.7c0,0.2,0,0.1,0,0.2c-0.2,3.3-5.8,3.9-12.4,3.6
		c-6.6-0.3-12.2-1.5-12-4.9c0-0.1,0,0,0-0.2c0.2-3.1,3.3-4,3.5-8.4l2-38.2c0.2-4.3-2.8-5.6-2.6-8.6c0-0.2,0-0.1,0-0.2
		c0.2-3.3,5.9-3.4,12.4-3c6.6,0.3,12.1,1,11.9,4.3c0,0.1,0,0,0,0.2C575.3,110.8,572.2,111.7,572,116z"/>
	<path class="st0" d="M640.9,133.3c-0.1,0,0,0-0.2,0c-5.9-1.1-4.6-13-13-14.5l-2.6-0.5l-7.6,42.5c-0.8,4.3,2,5.9,1.5,9
		c0,0.2,0,0.1,0,0.2c-0.6,3.3-6.3,3.2-12.8,2s-11.8-3-11.2-6.3c0-0.1,0,0,0-0.2c0.5-3,3.7-3.5,4.5-7.9l7.6-42.5l-2.6-0.5
		c-8.3-1.5-11.2,10.1-17.3,9.1c-0.1,0,0,0-0.1,0c-1.9-0.3-2.8-2-1.8-5c0.8-2.8,2.8-8.3,4-11.4c1-2.7,2.4-3.8,5-3.3
		c3,0.5,3.9,2.3,8.6,3.1l29,5.2c4.7,0.8,6-0.5,9.1,0.1c2.5,0.4,3.4,1.9,3.5,4.8c0,3.3-0.1,9.1-0.2,12
		C644.1,132.4,642.7,133.6,640.9,133.3z"/>
	<path class="st0" d="M692.5,192c-0.1,0.2,0,0-0.1,0.2c-1.1,3.2-5.2,3-12.9,0.4c-6.1-2.1-11.7-4.4-10.6-7.5c0-0.1,0,0,0-0.1
		c1-2.9,3.7-3.3,3.4-7.9l-0.3-6.2l-19.8-6.8l-3.4,4.4c-3.3,4.2-0.9,5.6-1.8,8.3c-0.1,0.2,0,0.1-0.1,0.2c-1,2.9-5.2,2.7-9,1.4
		c-3.5-1.2-6.7-3.5-5.8-6.2c0-0.1,0,0,0.1-0.2c1-2.9,5.9-2.9,9-6.8l25.5-30.6c2.8-3.3,1.2-5.3,2.1-8.2c0.1-0.2,0,0,0.1-0.2
		c1.1-3.2,5.4-2.6,10-1.1c6.2,2.1,7.8,3.8,8.1,8l3.1,47.6C690.4,185.6,693.8,188.2,692.5,192z M671.9,163.1l-1-22.6L657,158.1
		L671.9,163.1z"/>
	<path class="st0" d="M745.1,207.5c-1.7,2.4-5.8,8-7.9,10.7c-1.8,2.2-3.4,2.8-5.7,1.6c-2.7-1.4-3-3.3-7.2-5.6l-23.3-12.3
		c-4.3-2.3-7.3-4.9-5.7-7.8c0.1-0.2,0,0,0.1-0.2c1.4-2.7,4.6-2.2,6.7-6.1l17.8-33.6c2-3.8-0.2-6.2,1.3-8.9c0.1-0.2,0-0.1,0.1-0.2
		c1.6-2.9,6.7-0.6,12.5,2.5s10.6,6,9,9c0,0.1,0,0-0.1,0.2c-1.4,2.7-4.6,2.2-6.7,6l-17.8,33.6c-2.1,3.9-1.5,5.8,1.2,7.3l5.6,3
		c7.4,3.9,14.3-7.3,19.7-4.4c0.2,0.1,0,0,0.2,0.1C746.5,203,746.8,204.9,745.1,207.5z"/>
	<path class="st0" d="M840.6,250.5c-8.3,9-21.5,8.2-33.4-2.6l-3.2-2.9l-6.5,7.1c-2.5,2.8-0.8,6.2-3.1,8.7c-0.1,0.1,0,0-0.1,0.1
		c-2.2,2.4-6.1-0.6-11.9-5.9c-4.9-4.4-8.9-8.5-6.5-11c0.1-0.1,0,0,0.1-0.1c2.1-2.3,5.1-1,8-4.2l25.6-28c3-3.3,1.4-6.1,3.5-8.4
		c0.1-0.1,0,0,0.1-0.1c2.2-2.5,5.8-0.6,9.4,2.7l12.6,11.5C846.9,228.3,848.9,241.4,840.6,250.5z M827,238.2
		c4.9-5.3,6.9-12.1,3.3-15.4c-2.3-2.1-4.2-1.9-7.2,1.3l-14.3,15.7l1.5,1.3C815.6,246.1,822.4,243.2,827,238.2z"/>
	<path class="st0" d="M844.8,322.6c-3.5-4.4-5.6-8.5-3-13.9c2.7-5.6,4.8-9.3,9.7-17.7c-0.2-0.2-0.3-0.4-0.6-0.7l-3-3.8l-9.4,7.5
		c-3.4,2.7-2.4,5.7-4.8,7.7c-0.1,0.1-0.1,0.1-0.1,0.1c-2.6,2.1-6.8-1.7-10.9-6.9s-6.9-10.1-4.3-12.2c0.1-0.1,0,0,0.1-0.1
		c2.4-1.9,5.1-0.2,8.6-2.9l29.2-23.3c3.4-2.7,2.4-5.8,4.8-7.7c0.1-0.1,0,0,0.1-0.1c2.6-2.1,5.8,0.3,8.9,4.2l10.9,13.7
		c10.1,12.7,11.3,25.7,1.6,33.4c-5.5,4.4-11.8,4.8-18.1,1.9c-9.3,17.8-4,22.4-7.5,25.8C854.4,330,849.6,328.6,844.8,322.6z
		 M870.5,284.6c5.6-4.5,7.6-10.3,4.7-14c-1.9-2.3-3.9-2.6-7.3,0.2l-14.3,11.4l1.6,2C859.2,289.3,865.1,288.8,870.5,284.6z"/>
	<path class="st0" d="M912.5,375.8c-17.5,9.5-35.5,2.6-44.5-14.1c-8.8-16.2-4.9-35,12.6-44.6c17.6-9.5,35.2-3.1,44.3,13.6
		C934,347.4,930.1,366.2,912.5,375.8z M903.1,356.3c12-7.9,17.6-17.4,13.5-23.5c-4.1-6.2-14.9-4.7-27,3.3s-17.7,17.4-13.5,23.5
		C880.2,365.8,891.1,364.3,903.1,356.3z"/>
	<path class="st0" d="M935.6,444.5c-16.6,5.4-33.6-1.5-41.3-25l-5.3-16.2c-1.5-4.6-1.8-8.6,1.3-9.6c0.2-0.1,0,0,0.2-0.1
		c2.9-0.9,4.9,1.6,9.1,0.3l35.3-11.5c4.2-1.4,4.3-4.6,7.2-5.6c0.1,0,0,0,0.1,0c3.3-1.1,5.3,2.3,6.8,7l5.3,16.2
		C961.9,423.4,952.2,439.1,935.6,444.5z M929.4,425.3c12.4-4,21.5-12.7,18.1-23c-0.9-2.9-2.7-3.7-6.9-2.4l-35.3,11.5
		c-4.2,1.4-5.1,3.1-4.2,6C904.5,427.7,916.9,429.4,929.4,425.3z"/>
	<path class="st0" d="M973.2,509.7c-0.2,0,0,0-0.2,0c-3,0.4-4.6-3.4-9-2.7l-25.9,3.6c-14.5,2-26.1-5-28.4-21
		c-2.1-15,4.2-28.8,20.6-31.1l27-3.8c4.3-0.6,4.9-3.8,8-4.2c0.2,0,0.1,0,0.2,0c3.3-0.5,4.4,5.1,5.3,11.5c0.9,6.5,1.3,12.2-2,12.6
		c-0.1,0,0,0-0.2,0c-3,0.4-4.5-2.5-8.8-1.9l-27,3.8c-11.8,1.6-16.1,8.8-15,16.6c1.1,8.2,8.6,11.9,19.1,10.4L963,500
		c4.4-0.6,4.9-4.7,7.9-5.1c0.2,0,0,0,0.2,0c3-0.4,4.7,2.8,5.2,6.8C976.9,505.7,976.2,509.3,973.2,509.7z"/>
	<path class="st0" d="M929.6,581.9c-10.7-3.9-17-13.9-16.6-26.3c0.6-18,12-34.6,34.6-32.8c19.3,1.5,30.7,16.9,30.1,34.9
		c-0.3,8.3-3.2,11.3-1.1,17.4c1.1,3.1-0.3,5.8-3.2,6.3c-3.4,0.6-13.8,1.2-16.7,1.5c-3.1,0.3-4.6-1-4.5-2.8c0-0.2,0,0,0-0.2
		c0.2-6.1,18.1-6.8,18.6-20c0.3-9.4-8.9-17-20.9-16.6c-23.9,0.8-27.2,22.1-17.4,31.9c2,2,2.1,4,1.5,5.4
		C933.3,581.7,931.9,582.8,929.6,581.9z"/>
	<path class="st0" d="M944.7,648.8c0-0.1,0,0,0-0.2c1.2-5.9,13.1-4.4,14.7-12.7l0.5-2.6l-42.4-8.4c-4.3-0.9-6,1.9-9,1.3
		c-0.2,0-0.1,0-0.2,0c-3.3-0.7-3-6.4-1.8-12.8c1.3-6.4,3.3-11.7,6.5-11.1c0.1,0,0,0,0.2,0c3,0.6,3.5,3.8,7.8,4.7l42.4,8.4l0.5-2.6
		c1.7-8.3-9.9-11.4-8.7-17.4c0-0.1,0,0,0-0.1c0.4-1.9,2-2.7,5-1.8c2.8,0.8,8.2,2.9,11.3,4.2c2.7,1.1,3.7,2.5,3.2,5
		c-0.6,3-2.3,3.9-3.3,8.5l-5.7,28.9c-0.9,4.7,0.4,6-0.3,9.1c-0.5,2.5-2,3.4-4.9,3.4c-3.3,0-9.1-0.3-12-0.5
		C945.5,652.1,944.3,650.6,944.7,648.8z"/>
	<path class="st0" d="M894.7,698.4c-7.7-5.5-9.1-17.5-4.7-28.5c3.2-7.8,8.3-10.7,7-17.7c-0.6-3.2,2.2-5.4,5-5
		c3.3,0.6,12.9,3,15.8,3.8c3,0.7,5.2,2.7,4.5,4.5c0,0.1,0,0,0,0.1c-2.1,5.7-18-1.3-24.5,12.8c-3.2,7.2-1.7,11.4,1.9,13.4
		c3.9,2.2,7.1,0.9,14.2-7.4c9.5-11.1,19.5-19.1,33.3-8.7c7.7,5.8,7.2,16.9,4.1,25.4c-2.9,7.8-6.5,7.8-6.2,15.1c0.2,3.3-2.1,5.5-5,5
		c-3.3-0.4-11.2-2.4-14-3.1c-3-0.8-4.6-2.6-4-4.3c0.1-0.2,0,0,0.1-0.2c2.1-5.7,18.1-2.5,21.9-12.9c1.2-3.4,0.9-7.1-1.6-8.9
		c-4.9-3.4-9.5-1.4-17.4,8.4C914.5,703.1,906.4,706.9,894.7,698.4z"/>
	<path class="st0" d="M826.1,792.3c-2.8-2.5-2.1-8.8,1.4-13.1c3.6-4.4,10.5-7.7,14.4-8.6c0.3,0,0.4-0.1,0.7-0.2
		c-1.2-4.6-1-10.5,3.7-17c9.1-12.4,21.2-17.4,30-11c7.3,5.3,8.7,12.7,5,21.4c6.7-2.5,13.1-2.4,18.7,3.7c5.7,6.3,4.1,16.8-1.2,24.1
		c-6.3,8.6-15.6,12.5-22.7,8.5c-7.2-4-8.4-13.1-5.1-21c-3,0.5-8.7,1.3-14.2,2.2c4.1,6.1,9.2,13.5,4.4,21.1
		c-6.8,10.7-18.8,1.1-13.5-6.2c3.9-5.4,10.7-1.7,2.5-13.8c-3.4,0.6-6.3,1-7.6,1.4C829.8,786.9,830.1,795.9,826.1,792.3z
		 M849.8,769.1c6.8-1.1,16.1-2.6,22.5-3.6c-1.3-3.2-3.4-6.2-5.9-8c-5.9-4.5-11.9-2.5-15.3,1.7C848.7,762.3,848.8,765.9,849.8,769.1z
		 M891.7,777.9c-3.7-2.5-8.6-1.2-14.4,0.1c0.2,4.9,1.5,8.2,5,11.3c3.8,3.5,8.5,2.7,11.1-0.9C896,784.7,895.1,780.3,891.7,777.9z"/>
	<path class="st0" d="M756.9,868.2c-7.3-9.4-2.9-20.7,9.9-30.6l17.1-13.2c3.9-3,7.5-4.6,9.5-2c0.1,0.1,0,0,0.1,0.1
		c1.9,2.4,0.2,5.1,2.9,8.6l22.7,29.3c2.7,3.5,5.7,2.5,7.6,4.9c0.1,0.1,0,0,0.1,0.1c2.1,2.7-0.3,5.7-4.3,8.8l-12.9,10
		c-11.4,8.8-22.7,11.1-29.7,2.1c-3.4-4.4-3.9-11.3-0.4-15.8C770.6,875.7,761.7,874.3,756.9,868.2z M772.3,856
		c4.2,5.5,10.1,6.3,15.5,2.1l3.9-3l-9.9-12.7c-2.7-3.5-4.7-3.7-7.1-1.9l-0.4,0.3C768.9,844.9,768,850.5,772.3,856z M796.1,860.7
		l-2,1.5c-4.9,3.8-5.6,8.9-1.6,13.9c3.9,5.1,8.4,5.8,12.2,2.8c2.3-1.8,2.6-3.8-0.1-7.3L796.1,860.7z"/>
	<path class="st0" d="M699.8,878.7c5-2.7,9.4-4,14.2-0.5c5,3.6,8.3,6.3,15.7,12.7c0.2-0.1,0.5-0.3,0.8-0.4l4.3-2.3l-5.7-10.5
		c-2.1-3.9-5.2-3.4-6.7-6.1c-0.1-0.2,0-0.1-0.1-0.2c-1.6-2.9,2.9-6.4,8.7-9.5s11.2-5,12.8-2.1c0,0.1,0,0,0.1,0.2
		c1.5,2.7-0.7,5.1,1.4,9l17.7,32.9c2.1,3.9,5.3,3.4,6.8,6.1c0,0.1,0,0,0,0.1c1.6,2.9-1.4,5.6-5.7,8l-15.4,8.3
		c-14.3,7.7-27.3,6.5-33.1-4.3c-3.3-6.2-2.6-12.5,1.3-18.2c-15.8-12.3-21.3-7.9-24-12C690.8,886.8,693,882.3,699.8,878.7z
		 M732.7,910.6c3.4,6.3,8.8,9.3,12.9,7.1c2.6-1.4,3.2-3.4,1.1-7.2l-8.7-16.1l-2.2,1.2C730,898.8,729.4,904.6,732.7,910.6z"/>
	<path class="st0" d="M630.5,909c-0.1-0.2,0,0-0.1-0.2c-1.1-3.2,2.3-5.5,10-8.1c6.1-2.1,12-3.6,13-0.5c0,0.1,0,0,0,0.1
		c1,2.9-0.9,4.9,2,8.3l4,4.7l19.9-6.7l0-5.5c0.1-5.4-2.7-5-3.6-7.7c-0.1-0.2,0-0.1-0.1-0.2c-1-2.9,2.5-5.3,6.3-6.6
		c3.5-1.2,7.5-1.3,8.3,1.4c0,0.1,0,0,0.1,0.2c1,2.9-2.9,5.9-3,10.9l-1.7,39.8c-0.2,4.3,2.3,4.9,3.3,7.8c0.1,0.2,0,0,0.1,0.2
		c1.1,3.2-2.7,5.4-7.3,6.9c-6.2,2.1-8.5,1.7-11.3-1.4l-31.4-35.9C636.1,912.9,631.8,912.8,630.5,909z M664.4,919.4l14.6,17.3
		l0.3-22.3L664.4,919.4z"/>
	<path class="st0" d="M575.2,972.9c0-0.2,0,0,0-0.2c-0.5-3,3.2-4.7,2.5-9l-6.5-42.8c-0.8-5.2,1.2-7.6,4.8-8.1
		c4.4-0.7,6.5,0.6,9.9,3.7c3.3,3,25.7,24.3,36.8,34.8l-4.9-31.8c-0.7-4.4-4.7-4.8-5.2-7.9c0-0.2,0-0.1,0-0.2c-0.5-3,2.7-4.7,6.7-5.3
		c4-0.6,7.7,0,8.1,3c0,0.1,0,0,0,0.2c0.5,3-3.3,4.7-2.6,9.1l5.7,37.2c0.7,4.4,4.1,4.9,4.6,7.9c0,0.2,0,0,0,0.2
		c0.5,3.3-3.2,4.8-8,5.5c-9.2,1.4-11,0.2-14.7-3.2c-2.2-2.1-21.2-20.3-31.7-30.2l4.1,26.8c0.7,4.4,4.7,4.8,5.1,7.9c0,0.2,0,0,0,0.2
		c0.5,3-2.7,4.7-6.7,5.3C579.2,976.5,575.6,975.9,575.2,972.9z"/>
	<path class="st0" d="M498.3,944.7c0.4-17.5,12.6-31.2,37.3-30.6l17,0.4c4.9,0.1,8.7,1.1,8.6,4.4c0,0.2,0,0,0,0.2
		c-0.1,3.1-3.2,4.1-3.3,8.5l-0.9,37.1c-0.1,4.4,2.9,5.6,2.9,8.6c0,0.1,0,0,0,0.1c-0.1,3.4-4,4.2-8.8,4.1l-17-0.4
		C509.4,976.5,497.8,962.2,498.3,944.7z M518.4,945.2c-0.3,13,4.8,24.5,15.7,24.8c3.1,0.1,4.4-1.3,4.5-5.7l0.9-37.1
		c0.1-4.4-1.2-5.9-4.3-6C524.4,921,518.7,932.2,518.4,945.2z"/>
	<path class="st0" d="M440.7,915.6c4.2-8.5,15.8-11.8,27.4-9.3c8.3,1.9,11.9,6.4,18.6,4.1c3-1.1,5.7,1.3,5.7,4.1
		c0,3.4-0.9,13.2-1.2,16.2c-0.2,3.1-1.8,5.5-3.7,5.1c-0.1,0,0,0-0.1,0c-6-1.2-1.6-18-16.6-22.1c-7.6-2-11.5,0.2-12.9,4
		c-1.5,4.2,0.3,7.1,9.6,12.9c12.5,7.5,22,16.2,14,31.5c-4.5,8.6-15.5,9.8-24.4,8.1c-8.1-1.6-8.7-5.2-15.9-3.6
		c-3.2,0.8-5.7-1.2-5.7-4.1c-0.1-3.3,0.6-11.4,0.8-14.3c0.3-3.1,1.8-5,3.6-4.6c0.2,0,0,0,0.2,0c6,1.2,5.4,17.5,16.3,19.6
		c3.5,0.7,7.2-0.3,8.6-3c2.6-5.4-0.2-9.6-11.1-15.8C439.3,935.8,434.3,928.5,440.7,915.6z"/>
	<path class="st0" d="M337,863c2-3.2,8.4-3.5,13.2-0.7c4.9,2.8,9.3,9.2,10.8,12.9c0.1,0.2,0.2,0.4,0.3,0.6
		c4.3-1.9,10.2-2.7,17.4,0.9c13.7,7,20.6,18.1,15.7,27.8c-4.1,8-11.1,10.6-20.3,8.4c3.5,6.2,4.4,12.5-0.7,19
		c-5.3,6.6-15.9,6.7-24,2.7c-9.5-4.8-14.9-13.4-12-21c2.8-7.8,11.6-10.4,19.9-8.4c-0.9-2.9-2.7-8.3-4.5-13.7
		c-5.4,5-11.9,11.2-20.1,7.8c-11.6-5-4.1-18.3,3.9-14.3c5.9,3,3.4,10.3,14,0.2c-1.1-3.3-2.1-6.1-2.7-7.3
		C342.9,865.8,334.1,867.6,337,863z M361.8,925.4c1.8-4-0.1-8.7-2.4-14.2c-4.8,1-7.9,2.8-10.4,6.7c-2.8,4.3-1.3,8.8,2.7,10.8
		C355.7,930.8,360,929.1,361.8,925.4z M363.8,882.7c2.2,6.6,5.2,15.4,7.2,21.6c2.9-1.8,5.5-4.4,7-7.2c3.5-6.5,0.6-12.1-4.2-14.8
		C370.3,880.5,366.7,881.2,363.8,882.7z"/>
	<path class="st0" d="M258.2,808.8c2.1-1.9,6.8-5.5,9.5-7.5c2.3-1.7,4-1.8,5.9-0.1c2.3,2.1,2.1,4,5.6,7.2l19.4,17.9
		c3.6,3.3,5.8,6.6,3.6,9c-0.1,0.1,0,0-0.1,0.1c-2.1,2.3-5.1,1-8,4.2L268.9,867c-3,3.2-1.5,6.1-3.5,8.4c-0.1,0.1,0,0-0.1,0.1
		c-2.3,2.5-5.8,0.6-9.3-2.7L237.9,856c-3.6-3.3-5.4-2.9-7.7-5c-1.9-1.8-1.9-3.5-0.4-6c1.7-2.9,4.9-7.7,6.6-10.1
		c1.9-2.6,3.7-2.8,5.1-1.6c0.1,0.1,0,0,0.1,0.1c4.5,4.1-3.1,13.4,3.2,19.2l3.4,3.2c2.2,2,4.2,1.9,7.2-1.3l10.4-11.3l-5.8-5.3
		c-3.2-3-7.7,2-10,0c-0.1-0.1-0.1-0.1-0.1-0.1c-2.1-1.9,0.3-4.9,4.8-9.7c4.4-4.8,7.2-7.4,9.3-5.5c0.1,0.1,0,0,0.1,0.1
		c2.3,2.1-2.4,7,0.9,10l5.8,5.3l9.9-10.7c3-3.2,2.9-5.3,0.7-7.3l-4.7-4.3c-6.2-5.7-14.9,2.5-19.4-1.6c-0.1-0.1,0,0-0.1-0.1
		C255.6,812.7,255.9,810.8,258.2,808.8z"/>
	<path class="st0" d="M224.7,751.7c0.1-0.1,0,0,0.1-0.1c2.7-2.1,5.9,0.2,11,6.6c4.1,5.1,8.4,10.9,5.7,13.1c-0.1,0.1,0,0-0.1,0.1
		c-2.4,1.9-5,0.4-6.2,5.9l-3.9,15.9l14.9-1.2c5.8-0.6,4-4,6.2-5.8c0.1-0.1,0.1-0.1,0.1-0.1c2.4-1.9,5.9,0.7,8.5,3.8
		c2.3,2.9,4.2,7.1,2,8.9c-0.1,0.1,0,0-0.1,0.1c-2.4,1.9-6.8,0-11.8,0.2l-21.4,0.8l-5.2,21.3c-1.1,4.9-0.9,9.6-4.1,12.1
		c-0.1,0.1,0,0-0.1,0.1c-2.7,2.2-6-0.2-11-6.5c-4.1-5.1-8.3-11-5.7-13.1c0.1-0.1,0,0,0.1-0.1c2.4-1.9,5.2-0.4,6.3-5.6l3.2-13
		l-12.1,0.9c-5.6,0.6-3.9,4-6.2,5.8c-0.1,0.1,0,0-0.1,0.1c-2.4,1.9-5.9-0.7-8.5-3.8c-2.3-2.9-4.2-7.1-2-8.9c0.1-0.1,0,0,0.1-0.1
		c2.4-1.9,6.7-0.1,11.8-0.3l18.7-0.8l6-24.3C222,758.9,221.6,754.2,224.7,751.7z"/>
	<path class="st0" d="M164.2,721.7c10.6-6,23-1.2,31,12.9l2.1,3.8l8.4-4.7c3.3-1.9,2.7-5.7,5.7-7.3c0.1,0,0,0,0.1,0
		c2.8-1.6,5.6,2.4,9.5,9.3c3.2,5.7,5.8,10.8,2.8,12.5c-0.1,0,0,0-0.1,0c-2.7,1.5-5.1-0.6-8.9,1.6l-33,18.7c-3.8,2.2-3.3,5.4-5.9,6.9
		c-0.1,0,0,0-0.1,0c-2.9,1.6-5.7-1.2-8.1-5.5l-8.4-14.8C151.3,740.9,153.5,727.8,164.2,721.7z M173.3,737.7
		c-6.3,3.5-10.3,9.4-7.9,13.7c1.5,2.7,3.4,3.1,7.3,1l18.5-10.5l-1-1.7C186.6,733.7,179.2,734.3,173.3,737.7z"/>
	<path class="st0" d="M167.7,654.5c2.8-0.8,8.5-1.9,11.9-2.5c2.8-0.5,4.4,0.2,5.3,2.6c1.1,2.9,0.1,4.5,1.8,9l9.4,24.6
		c1.7,4.5,2.3,8.5-0.8,9.7c-0.2,0.1,0,0-0.2,0.1c-2.9,1.1-5-1.4-9.1,0.2l-34.6,13.2c-4.1,1.6-4,4.8-6.9,5.9c-0.1,0,0,0-0.1,0
		c-3.2,1.2-5.4-2.1-7.1-6.6l-8.8-23c-1.7-4.5-3.5-5-4.6-7.9c-0.9-2.4-0.2-4,2.3-5.5c2.8-1.8,7.8-4.7,10.4-6.1
		c2.8-1.5,4.6-0.9,5.3,0.9c0.1,0.2,0,0,0.1,0.2c2.2,5.7-8.7,10.7-5.7,18.6l1.7,4.4c1.1,2.8,2.9,3.6,7,2l14.3-5.5l-2.8-7.3
		c-1.6-4.1-7.8-1.6-8.9-4.5c-0.1-0.2,0-0.1-0.1-0.2c-1-2.6,2.4-4.2,8.6-6.5c6.1-2.3,9.8-3.4,10.8-0.8c0,0.1,0,0,0.1,0.2
		c1.1,2.9-5.2,5.2-3.7,9.3l2.8,7.3l13.6-5.2c4.1-1.6,5-3.4,3.9-6.2l-2.3-6c-3-7.9-14.5-4.4-16.7-10.1c0-0.1,0,0,0-0.1
		C163.6,656.8,164.7,655.3,167.7,654.5z"/>
	<path class="st0" d="M170,597.6c1.2,5.5,1.2,10.1-3.6,13.7c-4.9,3.8-8.5,6.2-16.6,11.4c0.1,0.3,0.1,0.5,0.2,0.9l1,4.8l11.7-2.5
		c4.3-0.9,4.8-4,7.8-4.7c0.2,0,0.1,0,0.2,0c3.3-0.7,5.3,4.6,6.6,11c1.3,6.4,1.6,12.2-1.6,12.8c-0.1,0,0,0-0.2,0
		c-3,0.6-4.7-2.1-9-1.2l-36.6,7.7c-4.3,0.9-4.7,4.1-7.7,4.7c-0.1,0,0,0-0.1,0c-3.3,0.7-5-2.9-6-7.7l-3.6-17.1
		c-3.3-15.9,1.5-28,13.6-30.5c6.9-1.4,12.7,1,17.1,6.4c16.3-11.7,13.7-18.2,18.3-19.7C164.8,586.7,168.4,590.1,170,597.6z
		 M130,620.1c-7,1.5-11.5,5.8-10.5,10.4c0.6,2.9,2.3,4,6.6,3.1l17.9-3.7l-0.5-2.5C142.2,620.9,136.7,618.7,130,620.1z"/>
	<path class="st0" d="M115.6,566.2l38.1-3.1c4.4-0.4,5.2-3.5,8.3-3.8c0.2,0,0.1,0,0.2,0c3.3-0.3,4.7,5.2,5.2,11.8s0.1,12.3-3.2,12.5
		c-0.1,0,0,0-0.2,0c-3,0.3-4.4-2.7-8.8-2.3l-38.1,3.1c-4.3,0.4-5.1,3.5-8.2,3.7c-0.2,0-0.1,0-0.2,0c-3.3,0.3-4.1-5.3-4.7-11.9
		c-0.5-6.5-0.6-12.1,2.7-12.4c0.1,0,0,0,0.2,0C110,563.6,111.3,566.6,115.6,566.2z"/>
	<path class="st0" d="M152.4,501.5c2.9,0.4,8.6,1.5,11.9,2.3c2.8,0.6,4,1.8,3.9,4.5c-0.1,3.1-1.7,4.2-1.8,8.9l-0.9,26.4
		c-0.2,4.9-1.2,8.7-4.5,8.6c-0.2,0,0,0-0.2,0c-3.1-0.1-4-3.2-8.4-3.3l-37.1-1.2c-4.4-0.1-5.6,2.9-8.6,2.8c-0.1,0,0,0-0.1,0
		c-3.4-0.1-4.2-4-4-8.9l0.8-24.6c0.2-4.9-1.3-6-1.2-9c0.1-2.6,1.4-3.7,4.3-4.2c3.3-0.6,9-1.3,11.9-1.6c3.2-0.3,4.6,1,4.5,2.8
		c0,0.2,0,0,0,0.2c-0.2,6.1-12.2,6.4-12.5,14.9l-0.2,4.7c-0.1,3,1.3,4.5,5.7,4.6l15.3,0.5l0.3-7.8c0.1-4.4-6.6-4.5-6.5-7.6
		c0-0.2,0-0.1,0-0.2c0.1-2.8,3.9-2.9,10.4-2.7s10.3,0.6,10.2,3.4c0,0.1,0,0,0,0.2c-0.1,3.1-6.8,2.7-7,7.2l-0.3,7.8l14.6,0.5
		c4.4,0.1,5.9-1.2,6-4.2l0.2-6.4c0.3-8.5-11.7-9.7-11.5-15.8c0-0.1,0,0,0-0.1C147.8,502.1,149.4,501,152.4,501.5z"/>
	<path class="st0" d="M121,425.2c0.2,0,0,0,0.2,0c3,0.6,3.3,4.6,7.6,5.5l42.5,8.4c5.1,1,6.7,3.7,6,7.2c-0.9,4.4-2.7,5.9-6.8,8
		c-3.9,2.1-31.6,16-45.2,22.8l31.5,6.2c4.3,0.9,6.2-2.8,9.2-2.2c0.2,0,0.1,0,0.2,0c3,0.6,3.5,4.2,2.7,8.1s-2.6,7.2-5.6,6.6
		c-0.1,0,0,0-0.2,0c-3-0.6-3.3-4.7-7.6-5.5l-36.9-7.3c-4.3-0.9-6,2.2-9,1.6c-0.2,0,0,0-0.2,0c-3.3-0.6-3.4-4.6-2.5-9.4
		c1.8-9.1,3.5-10.4,8-12.7c2.8-1.4,26.3-13.1,39.2-19.5l-26.6-5.2c-4.3-0.9-6.1,2.7-9.1,2.1c-0.2,0,0,0-0.2,0
		c-3-0.6-3.5-4.2-2.7-8.1S118,424.6,121,425.2z"/>
	<path class="st0" d="M186.2,371.4c8.8,7.3,11.5,18.7,7,30.3c-6.5,16.8-22.8,28.7-43.6,19.5c-17.7-7.8-23.4-26.1-16.8-42.9
		c3-7.7,6.7-9.6,6.8-16.1c0-3.3,2.2-5.4,5.1-4.9c3.4,0.5,13.4,3.5,16.2,4.2c3,0.8,4,2.4,3.3,4.2c-0.1,0.2,0,0-0.1,0.2
		c-2.2,5.7-19.4,0.4-24.2,12.7c-3.4,8.7,2.8,19,14.2,22.6c22.8,7.2,33-11.8,27-24.3c-1.2-2.5-0.7-4.5,0.4-5.5
		C182.6,370.4,184.3,369.8,186.2,371.4z"/>
	<path class="st0" d="M217.5,321.6c2.3,1.7,6.8,5.5,9.4,7.7c2.1,1.9,2.6,3.5,1.3,5.8c-1.5,2.6-3.5,2.9-5.9,7L209,364.8
		c-2.5,4.2-5.2,7.1-8.1,5.4c-0.2-0.1,0,0-0.2-0.1c-2.6-1.5-2-4.7-5.8-7l-32-18.8c-3.8-2.2-6.3-0.1-8.9-1.7c-0.1,0,0,0-0.1,0
		c-2.9-1.7-1.8-5.5,0.7-9.7l12.4-21.2c2.5-4.2,1.7-5.9,3.2-8.5c1.3-2.3,3-2.6,5.8-1.6c3.2,1,8.6,3.2,11.2,4.3c2.9,1.3,3.5,3,2.6,4.7
		c-0.1,0.2,0,0-0.1,0.2c-3.1,5.3-13.8-0.2-18.1,7.1l-2.4,4c-1.5,2.6-1,4.5,2.8,6.8l13.2,7.7l4-6.8c2.2-3.8-3.6-7.1-2.1-9.8
		c0.1-0.2,0-0.1,0.1-0.2c1.4-2.4,4.8-0.7,10.5,2.6c5.7,3.3,8.8,5.5,7.4,7.9c0,0.1,0,0-0.1,0.2c-1.5,2.6-7.3-0.9-9.6,2.9l-4,6.8
		l12.6,7.4c3.8,2.2,5.8,1.7,7.3-0.8l3.2-5.5c4.3-7.3-5.6-14.1-2.5-19.3c0-0.1,0,0,0-0.1C213.2,319.9,215.1,319.7,217.5,321.6z"/>
	<path class="st0" d="M255,276.2c5.5,7.7,3,19.5-4.7,28.5c-5.5,6.4-11.2,7.4-12.4,14.5c-0.5,3.2-3.8,4.4-6.3,3.1
		c-3-1.6-11.2-7-13.7-8.7c-2.6-1.6-4-4.2-2.8-5.7c0.1-0.1,0,0,0.1-0.1c3.9-4.8,16.7,7,27.3-4.3c5.4-5.7,5.3-10.2,2.5-13.3
		c-3-3.3-6.4-3.1-15.9,2.4c-12.5,7.5-24.6,11.8-34.4-2.5c-5.4-8-1.4-18.3,4.3-25.3c5.2-6.4,8.7-5.3,10.7-12.3
		c0.8-3.2,3.8-4.5,6.3-3.1c3,1.5,9.8,5.9,12.3,7.4c2.6,1.8,3.5,3.9,2.4,5.4c-0.1,0.1,0,0-0.1,0.1c-3.9,4.8-18-3.4-24.9,5.2
		c-2.3,2.8-3.2,6.5-1.4,9c3.5,4.8,8.5,4.4,19.1-2.3C237.8,265.4,246.6,264.5,255,276.2z"/>
	<path class="st0" d="M350,209.2c1.9,3.3-0.8,9-5.6,12c-4.8,3-12.4,3.9-16.4,3.6c-0.3,0-0.4,0-0.7-0.1c-0.3,4.7-2.3,10.3-9,14.9
		c-12.6,8.9-25.6,9.7-31.9,0.8c-5.2-7.4-4.2-14.8,2.1-21.9c-7.1,0.2-13.2-1.9-16.5-9.5c-3.4-7.8,1.5-17.2,8.8-22.4
		c8.7-6.1,18.8-6.9,24.2-0.8c5.5,6.1,3.7,15.1-1.9,21.5c3,0.5,8.7,1.5,14.2,2.4c-1.9-7.1-4.4-15.7,2.5-21.4
		c9.8-7.9,18.1,4.9,10.8,10.1c-5.4,3.8-10.7-1.8-6.8,12.3c3.5,0.5,6.3,1,7.7,1.1C344.8,213.1,347.3,204.5,350,209.2z M283.2,201.9
		c2.7,3.5,7.7,3.9,13.7,4.6c1.4-4.7,1.2-8.2-1.1-12.3c-2.5-4.5-7.2-5.3-10.8-2.7C281.3,194,280.8,198.6,283.2,201.9z M320,223.6
		c-6.8-1.1-16.1-2.6-22.5-3.7c0.2,3.5,1.3,6.9,3.1,9.5c4.1,6.1,10.4,6.2,15.1,3.2C319,230.4,320,226.9,320,223.6z"/>
</g>
</svg>
