<?xml version="1.0" encoding="utf-8"?>
<!-- Generator: Adobe Illustrator 26.5.0, SVG Export Plug-In . SVG Version: 6.00 Build 0)  -->
<svg version="1.1" id="Layer_1" xmlns="http://www.w3.org/2000/svg" xmlns:xlink="http://www.w3.org/1999/xlink" x="0px" y="0px"
	 viewBox="0 0 1080 1080" style="enable-background:new 0 0 1080 1080;" xml:space="preserve">
<style type="text/css">
	.st0{fill:#F7F6F1;}
	.st1{fill:#191919;}
	.st2{fill:#8731EA;}
	.st3{fill:#FF5687;}
	.st4{fill:#5423DB;}
	.st5{fill:#D642BC;}
	.st6{fill:#FFDC78;}
</style>
<g>
	<path d="M424.3,311.6c-1.9-2.4-3.4-5-4.6-7.8c0.3,0.6,0.5,1.2,0.8,1.8c-1.5-3.6-2.4-7.4-3-11.2c0.1,0.7,0.2,1.3,0.3,2
		c-0.9-7.2-0.4-14.4,0.5-21.6c-0.1,0.7-0.2,1.3-0.3,2c1.2-8.7,3.3-17.3,4.5-26c1.3-9.4,1.8-18.6,0.3-28.1
		c-1.4-8.8-5.1-17.3-11.3-23.8c-6.4-6.6-15-10.3-23.7-12.7c-9-2.4-18.3-3.7-27-7.3c0.6,0.3,1.2,0.5,1.8,0.8c-2.4-1-4.7-2.2-6.9-3.7
		c-0.5-0.3-1-0.7-1.5-1c2.1,1.5,0.2,0.1-0.3-0.3c-1-0.9-1.9-1.8-2.8-2.8c-0.4-0.5-0.9-1-1.3-1.5c-0.2-0.2-0.9-1.1-0.1-0.1
		c0.8,1.1,0.1,0.2-0.1-0.1c-0.8-1.1-1.5-2.1-2.2-3.3c-1.4-2.3-2.5-4.7-3.6-7.1c0.3,0.6,0.5,1.2,0.8,1.8c-4.4-10.5-6.2-21.8-9.9-32.5
		c-4-11.5-10.2-22.4-20.1-29.7c-5.4-4-12.2-6.2-18.9-6.3c-3.9,0-7.7,3.5-7.5,7.5c0.2,4.1,3.3,7.5,7.5,7.5c1.1,0,2.2,0.1,3.3,0.2
		c-0.7-0.1-1.3-0.2-2-0.3c2,0.3,4,0.8,5.9,1.6c-0.6-0.3-1.2-0.5-1.8-0.8c1.2,0.5,2.3,1.1,3.4,1.8c0.6,0.3,1.1,0.7,1.6,1.1
		c0.2,0.2,0.4,0.3,0.7,0.5c0.7,0.5-1.6-1.3-0.5-0.4c2,1.7,3.9,3.6,5.6,5.6c0.2,0.3,0.5,0.5,0.6,0.8c-0.3-0.3-0.5-0.6-0.8-1
		c0.1,0.2,0.3,0.4,0.4,0.6c0.4,0.5,0.7,1,1.1,1.6c0.8,1.1,1.5,2.3,2.2,3.4c1.4,2.5,2.7,5.1,3.8,7.7c-0.3-0.6-0.5-1.2-0.8-1.8
		c2.7,6.6,4.3,13.5,6.2,20.3c2,7.5,4.3,14.9,7.8,21.9c3.6,7.2,8.9,13.5,15.6,18c6.2,4.2,13.7,6.5,20.9,8.2
		c7.7,1.9,15.7,3.2,23.1,6.2c-0.6-0.3-1.2-0.5-1.8-0.8c2,0.8,3.9,1.8,5.8,2.9c0.4,0.3,0.9,0.6,1.3,0.9c0.3,0.2,1.8,1.3,0.7,0.5
		c-1.1-0.9,0.3,0.3,0.6,0.5c0.4,0.4,0.9,0.8,1.3,1.2c0.8,0.7,1.5,1.5,2.1,2.3c0.1,0.2,0.3,0.4,0.4,0.5c0.8,1-0.9-1.2-0.4-0.6
		c0.3,0.4,0.6,0.8,0.9,1.3c1.2,1.8,2.2,3.7,3.1,5.7c-0.3-0.6-0.5-1.2-0.8-1.8c1.6,3.7,2.5,7.7,3.1,11.7c-0.1-0.7-0.2-1.3-0.3-2
		c1,7.4,0.5,14.9-0.4,22.3c0.1-0.7,0.2-1.3,0.3-2c-1.3,9.7-3.6,19.1-4.9,28.8c-1.3,9.7-1.6,19.6,0.9,29.1c1.4,5.4,3.8,10.7,7.2,15.1
		c1.2,1.6,2.4,2.9,4.5,3.4c1.8,0.5,4.2,0.3,5.8-0.8c1.6-1,3-2.6,3.4-4.5C425.4,315.6,425.4,313.2,424.3,311.6L424.3,311.6z"/>
</g>
<g>
	<path class="st0" d="M430.9,384.1c-2.1-17.1,0.6-34.7,7.7-50.3c4.8-10.6,11.9-20.6,22-26.3c8.6-4.9,18.7-6.2,28.6-7.1
		c20.1-1.8,40.3-1.8,60.4,0c10.7,0.9,21.7,2.5,30.9,8c12.4,7.4,20,21.1,23.6,35.2c6.5,24.8,2.3,51.5-7.3,75.2
		c-3.8,9.5-8.6,18.7-15.3,26.5c-12.1,13.9-29.9,22.2-48.2,24.5c-18.3,2.4-37-0.8-54.4-6.9c-12.5-4.4-25-10.7-32.6-21.5
		c-3.7-5.2-6.1-11.3-8.1-17.4c-3.5-10.8-5.9-22.1-6.9-33.4"/>
	<g>
		<path class="st1" d="M438.4,384.1c-1-7.9-0.9-16,0.1-23.9c-0.1,0.7-0.2,1.3-0.3,2c1.1-8.4,3.3-16.6,6.6-24.4
			c-0.3,0.6-0.5,1.2-0.8,1.8c1.4-3.2,2.9-6.3,4.6-9.3c0.8-1.4,1.7-2.8,2.7-4.2c0.5-0.7,1-1.4,1.5-2.1c0.3-0.5,0.2-0.2-0.6,0.7
			c0.2-0.2,0.3-0.4,0.5-0.6c0.2-0.3,0.5-0.6,0.8-0.9c2.1-2.6,4.6-4.6,7-6.9c-1.6,1.5-0.7,0.6-0.3,0.2c0.4-0.3,0.7-0.5,1.1-0.8
			c0.7-0.5,1.4-0.9,2.2-1.4c1.6-0.9,3.3-1.8,5-2.5c-0.6,0.3-1.2,0.5-1.8,0.8c5.4-2.2,11.1-3.4,16.9-4.2c-0.7,0.1-1.3,0.2-2,0.3
			c9.7-1.3,19.5-1.8,29.2-2c10.1-0.2,20.2,0,30.2,0.6c5.4,0.3,10.8,0.8,16.2,1.5c-0.7-0.1-1.3-0.2-2-0.3c6,0.8,12,2.1,17.7,4.4
			c-0.6-0.3-1.2-0.5-1.8-0.8c3,1.3,5.9,2.9,8.6,4.8c0.4,0.3,1.5,1.3-0.3-0.2c0.3,0.2,0.6,0.5,0.9,0.7c0.6,0.5,1.2,1,1.7,1.5
			c1.1,1,2.2,2.1,3.2,3.3c0.5,0.6,1,1.2,1.5,1.7c0.4,0.4,1,1.6-0.2-0.3c0.2,0.3,0.5,0.6,0.7,0.9c0.9,1.2,1.7,2.5,2.5,3.8
			c1.6,2.7,3,5.4,4.2,8.3c-0.3-0.6-0.5-1.2-0.8-1.8c3,7,4.8,14.5,5.8,22.1c-0.1-0.7-0.2-1.3-0.3-2c1.3,9.8,1.1,19.7-0.2,29.5
			c0.1-0.7,0.2-1.3,0.3-2c-1.7,12.5-5.3,24.7-10.1,36.3c0.3-0.6,0.5-1.2,0.8-1.8c-1.6,3.8-3.3,7.5-5.3,11.1
			c-1.9,3.5-4.1,7.2-6.7,10.3c0.1-0.1,1.1-1.4,0.4-0.5c-0.1,0.2-0.3,0.3-0.4,0.5c-0.3,0.4-0.7,0.8-1,1.2c-0.6,0.7-1.2,1.4-1.9,2.1
			c-1.3,1.4-2.6,2.7-4,3.9c-0.7,0.6-1.4,1.2-2.1,1.8c-0.3,0.3-0.6,0.5-0.9,0.8c-0.2,0.2-0.4,0.3-0.6,0.5c0.2-0.1,1.4-1,0.6-0.4
			c-1.5,1.1-3,2.2-4.6,3.2c-3.6,2.3-7.4,4.3-11.3,5.9c0.6-0.3,1.2-0.5,1.8-0.8c-6.9,2.9-14.2,4.9-21.7,5.9c0.7-0.1,1.3-0.2,2-0.3
			c-9.1,1.2-18.3,1-27.4-0.2c0.7,0.1,1.3,0.2,2,0.3c-11.8-1.6-23.4-4.8-34.4-9.4c0.6,0.3,1.2,0.5,1.8,0.8c-3.2-1.4-6.3-2.9-9.3-4.6
			c-1.5-0.9-2.9-1.8-4.4-2.8c-0.8-0.5-1.5-1.1-2.2-1.6c1.9,1.3,0.7,0.5,0.3,0.2c-0.4-0.3-0.7-0.6-1.1-0.9c-1.3-1.1-2.5-2.3-3.7-3.5
			c-0.6-0.6-1.1-1.3-1.7-1.9c-0.3-0.3-0.5-0.6-0.7-0.9c1.5,1.8,0.4,0.5,0.1,0.1c-2.3-3.1-4-6.6-5.5-10.2c0.3,0.6,0.5,1.2,0.8,1.8
			c-4.6-11-7.3-22.9-8.9-34.7c0.1,0.7,0.2,1.3,0.3,2c-0.3-2-0.5-4.1-0.7-6.1c-0.2-2-0.7-3.8-2.2-5.3c-1.3-1.3-3.4-2.3-5.3-2.2
			c-3.7,0.2-7.9,3.3-7.5,7.5c1,10.7,2.9,21.3,6,31.6c3,9.9,6.8,19.6,13.6,27.6c5.9,6.8,13.7,11.9,21.8,15.7c9,4.1,18.4,7.3,28,9.5
			c19.5,4.4,40.4,4.8,59.5-1.9c9.2-3.2,17.6-7.8,25.2-13.8c7.4-5.9,13.5-13.3,18.2-21.5c5-8.6,8.8-18,11.8-27.4
			c3.1-9.7,5.2-19.8,6.2-30c1.9-19-0.6-39.3-9.6-56.3c-4.3-8.1-10.4-15.3-18-20.5c-8-5.5-17.6-8.1-27.1-9.4
			c-21.2-2.9-42.9-3.1-64.3-1.6c-10,0.7-20.3,1.4-29.8,4.8c-9.2,3.3-17.2,8.9-23.3,16.6c-12.4,15.8-18.7,36.1-19.3,56.1
			c-0.1,4.7,0.1,9.5,0.7,14.2c0.2,2.1,0.7,3.8,2.2,5.3c1.3,1.3,3.4,2.3,5.3,2.2c1.9-0.1,4-0.7,5.3-2.2
			C437.5,388,438.7,386,438.4,384.1L438.4,384.1z"/>
	</g>
</g>
<g>
	<path class="st2" d="M498,335c9,65-9,106-9,106l-10.9-8.4c0,0,0,0,0,0c-5.2-6.6-10.4-13.2-15-20.2c-3-4.7-5.9-9.6-10-13.3
		c-9.3-8.4-24.6-8.7-34.5-1.1s-13.6,22.1-9,33.7c2,5,5.3,9.4,8.3,14c6.1,9.5,10.4,20.2,12.8,31.3c1.5,7.2,2.2,14.8,5.2,21.5l0.6,1.5
		c3.1,7.4,7.6,14.1,13.3,19.6c20.9,20,49.5,31.9,78.4,32.4c8.3,0.1,21.8-2.6,28.7-7.6c12.1,17.1,28.1,31.5,46.6,41.8
		c0.2,0.2,0.5,0.5,0.7,0.7c1,0.8,2,1.5,3.2,2c17.1,7.8,41.5-5.6,64.1-26.6c8.7,13.6,10.4,21.5,26.4,48.2
		c-18.2,4.9-27.1,25.6-19.1,40.3c8,14.7,29.1,21.8,47.8,18.5c5.1-0.9,10.2-2.6,13.6-6c2-2,3.3-4.5,4.3-6.9
		c5.4-12.7,6.5-26.7,2.9-39.7c12.6,10.1,35,9.3,47-1.8c12-11.1,11.4-30.5-1.6-40.3c-14.9-11.3-38-8-57.5-3.6
		c-3.3,0.8-6.9,1.5-10.1,0.6c-3.2-0.9-5.4-3.4-7.4-5.7c-15.4-17.5-18.6-21.1-24.2-27.3c26.6-32.5,44.4-70.2,31.8-82.1c0,0,0,0,0,0
		l-36.8-63c-2.3-6.4-4.3-12.8-6.1-19.3c-4-14.2-7.3-28.7-7.6-43.4l0-5.3c-1.5-25.6-0.6-51.3,2.6-76.7c0.6-4.6,1.2-9.3,0.6-14
		c-0.6-4.6-2.8-9.3-6.7-11.8c-4.7-3.1-11.2-2.5-16.2,0.3s-8.6,7.4-11.7,12.2c-9,14-15,31.3-15.7,48.2c-0.5-3.9-1.2-7.7-2.1-11.5
		c-3.2-12.9-10.7-25.9-23.2-30.6c-11-4.1-24.9-0.1-34.5,6.7l2.5,3.1c-4.5-2.9-9.4-5.2-14.6-6.7c-20.3-6.1-43.9,1.8-59,16.7l2.7,0.7
		c-9.4-0.7-18.9,0.6-27.8,3.9c-4.9,1.8-9.5,4.1-13.6,7.3c-11.4,8.8-17.4,22.6-22.5,36.2c-0.7,2-1.7,3.8-2.9,5.6l-0.1,0.2
		c-0.7,1.1-1.5,2.1-2.4,3.1c-8.1,8.5-12.6,20.3-12.3,32.1c0.2,7.4,3.2,15.7,10.1,18.1c0,0,24.7,11.4,37.3-3.9
		c7.4-9,6.9-13.1,14-22.3C482.2,338.8,486,335,498,335"/>
</g>
<path class="st3" d="M636.9,308.7c0.8-16.9,6.7-34.2,15.7-48.2c3.1-4.8,6.7-9.4,11.7-12.2c4.1-2.3,9.2-3.1,13.5-1.6
	c0.5-3.9,0.9-7.9,0.3-11.8c-0.6-4.6-2.8-9.3-6.7-11.8c-4.7-3.1-11.2-2.5-16.2,0.3s-8.6,7.4-11.7,12.2c-8.5,13.2-14.3,29.4-15.5,45.4
	c3.1,5,5.3,10.6,6.7,16.3C635.8,300.9,636.4,304.8,636.9,308.7z"/>
<path class="st3" d="M441.9,340.3l0.1-0.2c1.2-1.7,2.2-3.6,2.9-5.6c5.1-13.6,11.1-27.5,22.5-36.2c4.1-3.1,8.8-5.5,13.6-7.3
	c8.8-3.3,18.4-4.6,27.8-3.9l-2.7-0.7c15.1-14.9,38.6-22.7,59-16.7c5.2,1.5,10.1,3.8,14.6,6.7l-2.5-3.1c9.6-6.8,23.4-10.8,34.5-6.7
	c6.6,2.4,11.8,7.2,15.7,13.1c-0.4-2.5-0.9-5-1.5-7.5c-3.2-12.9-10.7-25.9-23.2-30.6c-11-4.1-24.9-0.1-34.5,6.7l2.5,3.1
	c-4.5-2.9-9.4-5.2-14.6-6.7c-20.3-6.1-43.9,1.8-59,16.7l2.7,0.7c-9.4-0.7-18.9,0.6-27.8,3.9c-4.9,1.8-9.5,4.1-13.6,7.3
	c-11.4,8.8-17.4,22.6-22.5,36.2c-0.7,2-1.7,3.8-2.9,5.6l-0.1,0.2c-0.7,1.1-1.5,2.1-2.4,3.1c-8.1,8.5-12.6,20.3-12.3,32.1
	c0.2,7.1,3,15.1,9.4,17.8c1.3-9.2,5.5-18.1,11.9-24.8C440.3,342.4,441.1,341.3,441.9,340.3z"/>
<path class="st4" d="M708,563.5c-6.1-10.2-10.2-17.7-13.3-23.8c-0.3-0.4-0.6-0.7-1-1.1c0.1-0.1,0.2-0.2,0.3-0.3
	c-4.6-9-7.3-15-12.4-23c-22.6,21-47,34.4-64.1,26.6c-1.2-0.5-2.2-1.2-3.2-2c-0.3-0.2-0.5-0.4-0.7-0.7
	c-18.5-10.3-34.5-24.7-46.6-41.8c-6.9,5-20.4,7.8-28.7,7.6c-29-0.5-57.5-12.5-78.4-32.4c-5.8-5.5-10.3-12.2-13.3-19.6l-0.6-1.5
	c-3-6.8-3.7-14.3-5.2-21.5c-2.3-11.1-6.7-21.7-12.8-31.3c-0.9-1.4-1.8-2.8-2.8-4.2c-2.3,0.9-4.5,2.1-6.5,3.6
	c-9.9,7.6-13.6,22.1-9,33.7c2,5,5.3,9.4,8.3,14c6.1,9.5,10.4,20.2,12.8,31.3c1.5,7.2,2.2,14.8,5.2,21.5l0.6,1.5
	c3.1,7.4,7.6,14.1,13.3,19.6c20.9,20,49.5,31.9,78.4,32.4c8.3,0.1,21.8-2.6,28.7-7.6c12.1,17.1,28.1,31.5,46.6,41.8
	c0.2,0.2,0.5,0.5,0.7,0.7c1,0.8,2,1.5,3.2,2c17.1,7.8,41.5-5.6,64.1-26.6c5.8,9.1,8.5,15.7,14.4,27
	C687.2,577.9,695.3,566.9,708,563.5z"/>
<path class="st5" d="M600.4,578.6c-14-45.1,56.6-102.4,90.5-122.2c104.7-40.2-27.8,155.7-83,130.7c-1.2-0.5-2.2-1.2-3.2-2l0,0
	C602.7,583.4,601.1,581.1,600.4,578.6z"/>
<path class="st3" d="M628.1,553.3c-7.9-25.5,32-58,51.3-69.2c59.3-22.8-15.7,88.2-47,74c-0.7-0.3-1.3-0.7-1.8-1.2l0,0
	C629.4,556,628.5,554.7,628.1,553.3z"/>
<g>
	<path class="st1" d="M479.3,419.9C479.3,419.9,479.2,419.9,479.3,419.9C479.2,419.9,479.3,419.9,479.3,419.9
		C479.3,419.9,479.3,419.9,479.3,419.9z"/>
	<path class="st1" d="M429.8,500.5c0-0.1,0-0.1-0.1-0.2c-0.2-0.5-0.5-1.1-0.7-1.6C429.3,499.3,429.5,499.9,429.8,500.5z"/>
	<path class="st1" d="M420.1,405.6C419.8,406,419.6,406.4,420.1,405.6L420.1,405.6z"/>
	<path class="st1" d="M423.6,402.1C423.1,402.5,422.5,403,423.6,402.1L423.6,402.1z"/>
	<path class="st1" d="M447.6,402.2c-0.1-0.1-0.1-0.1-0.2-0.2c0,0,0,0,0,0c-0.2-0.1-0.4-0.2-0.5-0.4
		C447,401.8,447.2,401.9,447.6,402.2z"/>
	<path class="st1" d="M624.9,522.9C624.9,522.9,624.9,522.9,624.9,522.9c-0.2,0.2-0.2,0.3-0.3,0.4
		C624.7,523.2,624.8,523.1,624.9,522.9C624.9,522.9,624.9,522.9,624.9,522.9z"/>
	<path class="st1" d="M734,452.9c-0.7-1-1.4-2-2.3-2.8c-0.2-0.2-0.4-0.4-0.5-0.6c-2.7-2.8-5.2-5.6-7.7-8.6c-0.5-0.7-1.1-1.3-1.6-2
		c-0.3-0.4-0.6-0.9-1-1.3c-1.1-1.5-2.2-3-3.3-4.6c-4.3-6.3-8.1-12.9-11.5-19.7c-1.8-3.6-3.5-7.3-5.1-11.1
		c-6.2-14.9-11.1-30.5-14.6-46.2c-1-4.6-1.9-9.3-2.6-14c-0.7-5.7-1-11.4-1.1-17.1c0-3-0.3-5.9-0.4-8.9c-0.2-4.3-0.3-8.5-0.3-12.8
		c-0.1-17,0.7-34,2.6-50.9c0.9-8.3,2.8-17.1,0.1-25.2c-1.4-4-3.6-8-6.9-10.7c-3.9-3.1-8.5-4.8-13.5-4.8c-17,0-27.6,17-33.6,30.8
		c-1.4,3.2-2.6,6.5-3.7,9.8c-3.6-6.5-8.6-12.2-14.9-16.2c-6.6-4.2-14.6-6-22.4-5.2c-8.2,0.8-16.2,3.5-23.2,7.9
		c-6.2-2.8-12.8-4.6-19.7-5.2c-9.1-0.9-18.7,0.6-27.3,3.6c-9.6,3.4-18.4,8.6-25.8,15.5c-7,0.1-13.9,1.2-20.5,3.3
		c-10.8,3.4-20.9,9.3-28,18.3c-3.7,4.7-6.9,9.7-9.5,15.1c-2.5,5.2-4.6,10.7-6.7,16c-0.5,1-1,2-1.5,3c-0.3,0.4-0.5,0.8-0.8,1.2
		c-0.1,0.2-0.2,0.3-0.3,0.5c0,0,0,0,0,0c-0.8,0.7-1.6,1.8-2.2,2.6c-1.1,1.3-2.2,2.7-3.2,4.1c-3.2,4.3-5.6,9.2-7.3,14.2
		c-3.4,10-4,21.4,0.3,31.2c2.3,5.4,6.5,9.4,11.9,11.5c6.7,2.9,14.1,4.7,21.4,4.7c6.3,0,12.9-1.5,18.1-5.1c5.8-4,10.1-10,13.3-16.2
		c1.4-2.8,2.9-5.5,4.7-8c0.3-0.4,0.6-0.8,0.9-1.2c0.2-0.2,0.4-0.5,0.5-0.7c0.1-0.1,0.1-0.2,0.1-0.2c0.2-0.2,0.4-0.4,0.5-0.5
		c0.3-0.3,0.6-0.6,1-0.9c0,0,0,0,0.1-0.1c0.3-0.2,0.9-0.7,1-0.7c0.6-0.4,1.3-0.7,1.9-1c0.9-0.3,1.8-0.6,2.7-0.8
		c1.6,14.8,1.9,29.8,0.7,44.7c-0.3,4.6-0.8,9.1-1.4,13.6c-0.6,4.5-1.4,9-2.3,13.4c-0.8,4.1-1.8,8.1-3.3,12c-0.2,0.3-0.3,0.7-0.5,1
		c0,0-0.1-0.1-0.1-0.1c-1.7-1.9-3.3-4-4.9-6c-0.4-0.5-0.8-1-1.2-1.5c0,0,0,0,0,0.1c0,0,0-0.1-0.1-0.1c-0.1-0.1-0.2-0.2-0.2-0.3
		c-0.7-0.8-0.1-0.1,0.2,0.2c-0.2-0.3-0.5-0.7-0.8-1c-1-1.3-1.9-2.5-2.9-3.8c-2-2.7-3.9-5.4-5.7-8.2c-3.4-5.2-6.5-10.7-11.2-14.8
		c-4.4-3.9-9.8-6.8-15.5-7.9c-11.6-2.3-24.1,0.7-32.4,9.4c-4.1,4.2-7,9.5-8.7,15.1c-1.7,5.7-1.9,11.6-0.9,17.4
		c1.1,6.6,4.6,12.5,8.2,18c3.6,5.4,6.8,11,9.4,17c2.4,6,4.2,12.1,5.4,18.4c0.6,3.3,1.1,6.6,1.9,9.8c0.8,3.9,2.1,7.5,3.6,11.1
		c1.6,3.8,3.3,7.5,5.6,11c3,4.6,6.5,8.9,10.5,12.7c7.5,7,16,13.2,25,18.2c9,4.9,18.6,8.9,28.5,11.5c9.8,2.6,20.1,4.2,30.2,4.1
		c5.4,0,10.8-0.8,16-2.2c3.2-0.8,6.5-1.9,9.5-3.4c8.9,11.5,19.6,21.6,31.4,30.1c4.3,3.1,8.7,5.9,13.3,8.4c8.2,6.9,21.1,7.3,31.5,4.3
		c11.7-3.3,22.3-9.9,31.8-17.2c11.4-8.8,21.8-18.9,31.3-29.7c9.5-10.9,18.2-22.6,25.8-35c6.2-10.3,11.9-21.3,15.2-32.9
		C737.7,471.6,739.3,460.7,734,452.9z M605.6,249.6C605.4,249.5,605.4,249.6,605.6,249.6L605.6,249.6z M580.8,268.6
		c-0.2-0.2-0.4-0.5-0.5-0.7C580.5,268.2,580.7,268.4,580.8,268.6z M463.4,277.3C462.5,278.1,463,277.7,463.4,277.3L463.4,277.3z
		 M431.4,359.8c0,0-0.1,0-0.1-0.1c0.6,0.2,1.1,0.5,1.7,0.7C432.4,360.2,431.9,360,431.4,359.8z M458.1,360.1
		C457.5,360.5,456.6,361.1,458.1,360.1L458.1,360.1z M484.5,347.5c0-0.1,0.1-0.2,0.2-0.3C484.6,347.3,484.5,347.4,484.5,347.5z
		 M585.1,562.2c-3.7-3.3-7.3-6.7-10.7-10.4c-1.7-1.9-3.4-3.8-5-5.7c-0.8-0.9-1.5-1.9-2.3-2.8c-0.1-0.1-0.2-0.3-0.3-0.4
		c-0.4-0.5-0.8-1-1.2-1.6c-3.3-4.5-6.4-9.2-9.1-14.1c-1.9-3.4-6.9-4.9-10.3-2.7c-3.5,2.2-4.8,6.6-2.7,10.3c0.9,1.6,1.9,3.2,2.8,4.7
		c-3.5,1.3-7.2,2.2-10.9,2.7c-6.2,0.7-12.4,0.3-18.6-0.4c-9.8-1.4-19.3-4-28.4-7.8c-7.5-3.2-14.6-7.2-21.2-11.9
		c-0.8-0.6-1.7-1.2-2.5-1.8c-0.3-0.2-0.6-0.5-0.9-0.7c-0.2-0.1-0.3-0.2-0.5-0.4c-1.7-1.3-3.3-2.7-4.9-4.1c-1.6-1.4-3.2-2.9-4.6-4.4
		c-0.7-0.8-1.4-1.5-2.1-2.3c-0.3-0.4-0.6-0.7-0.9-1.1c-0.1-0.1-0.2-0.2-0.3-0.4c-2.9-4-5.3-8.1-7.2-12.6c0.3,0.6,0.5,1.2,0.8,1.8
		c-0.3-0.7-0.6-1.3-0.8-2c-3.7-8.8-4-18.5-6.7-27.6c-2.7-9.4-6.8-18.5-12-26.7c-2.6-4.1-5.5-8-7.5-12.4c-0.6-1.7-1.1-3.4-1.4-5.2
		c-0.2-2-0.2-4,0-6c0.3-2,0.9-4,1.6-5.9c0.5-1.2,1.1-2.3,1.8-3.4c0.4-0.7,0.9-1.3,1.4-2c-0.2,0.3-0.3,0.5-0.4,0.6
		c0.1-0.2,0.3-0.4,0.4-0.5c0.3-0.3,0.5-0.6,0.8-0.9c0.6-0.6,1.2-1.2,1.8-1.7c0.3-0.3,0.6-0.5,0.9-0.8c-0.2,0.1-0.3,0.2-0.4,0.3
		c0.1,0,0.1-0.1,0.2-0.1c1.1-0.8,2.3-1.4,3.6-2c1.7-0.7,3.5-1.2,5.4-1.5c1.9-0.2,3.9-0.2,5.8,0c1.8,0.3,3.6,0.8,5.3,1.4
		c1.1,0.5,2.2,1.1,3.2,1.8c-0.1-0.1,0.2,0,0.4,0.3c0,0,0.1,0.1,0.1,0.1c0.2,0.1,0.4,0.3,0.5,0.4c-0.1-0.1-0.3-0.2-0.4-0.2
		c0.2,0.2,0.4,0.4,0.7,0.6c0.8,0.8,1.6,1.6,2.4,2.4c0.3,0.4,0.6,0.7,0.9,1.1c0,0.1,0.1,0.1,0.1,0.2c0.6,0.9,1.2,1.8,1.8,2.6
		c1.2,1.9,2.4,3.8,3.6,5.6c2.6,4,5.4,7.8,8.3,11.6c2.9,3.8,5.8,7.7,8.9,11.3c0.1,0.1,0.2,0.2,0.3,0.3c0,0,0,0,0,0
		c-3.8,1-6.5,5.4-5.2,9.2c1.3,3.9,5.2,6.4,9.2,5.2c4.9-1.4,9.4-4.1,12.9-7.8c3.8-3.9,6.4-8.5,8.4-13.4c1.8-4.4,2.9-9,3.8-13.7
		c1.1-5.5,1.9-11.1,2.7-16.7c2.7-20.4,2.8-41.1,0.3-61.5c-0.7-6.1-1.7-12.2-2.8-18.2c-0.9-4.7-2.1-9.6-5-13.5
		c-1.2-1.6-2.5-2.9-4.5-3.4c-1.8-0.5-4.2-0.3-5.8,0.8c-3.1,2-5.2,6.9-2.7,10.3c0.6,0.9,1.1,1.7,1.6,2.7c1,2.6,1.5,5.3,2,8
		c0.1,0.7,0.2,1.4,0.4,2.1c-3.2,0.5-6.3,1.5-9.1,3.1c-4.5,2.5-7.6,6.3-10.5,10.4c-1.8,2.5-3.2,5.2-4.6,8c-0.7,1.3-1.4,2.5-2.1,3.8
		c-0.4,0.7-0.9,1.3-1.3,2c-0.3,0.4-0.6,0.8-0.9,1.3c-0.1,0.1-0.1,0.2-0.2,0.2c-0.6,0.8-1.3,1.6-2.1,2.3c-0.3,0.3-0.6,0.6-0.9,0.9
		c0,0-0.1,0.1-0.1,0.1c-1,0.7-2.1,1.3-3.2,1.9c-1.4,0.5-2.8,0.9-4.2,1.1c-2.5,0.3-5.1,0.2-7.6-0.1c-4.1-0.6-8.1-1.7-11.8-3.3
		c-0.4-0.2-0.8-0.4-1.1-0.6c0.7,0.4,0,0.1-0.5-0.3c-0.1-0.1-0.3-0.2-0.4-0.2c0.1,0.1,0.3,0.2,0.4,0.2c0,0-0.1-0.1-0.1-0.1
		c-0.3-0.3-0.6-0.6-0.8-0.9c-0.2-0.3-0.4-0.6-0.6-0.9c-0.3-0.4-0.5-0.9-0.7-1.3c-0.6-1.5-1-3.1-1.3-4.7c-0.3-2.7-0.2-5.4,0.1-8.1
		c0.5-3.5,1.5-6.8,2.8-10.1c1.1-2.4,2.4-4.8,3.9-7c0.2-0.3,0.5-0.7,0.7-1c0.1-0.1,0.2-0.3,0.3-0.4c0.3-0.3,0.5-0.6,0.8-0.9
		c1.3-1.6,2.7-3,4-4.7c3.8-5,5.6-11.1,7.9-16.9c1.3-3.1,2.8-6.2,4.4-9.2c0.9-1.6,1.8-3.2,2.9-4.8c0.5-0.7,1-1.4,1.5-2.1
		c0.2-0.3,0.5-0.7,0.7-1c2.2-2.8,4.7-5.1,7.4-7.4c0.1,0,0.1-0.1,0.2-0.1c0.5-0.3,1-0.7,1.5-1c0.9-0.6,1.7-1.1,2.6-1.6
		c1.6-0.9,3.2-1.7,4.9-2.4c4.8-1.9,9.8-3.3,14.9-4.1c5-0.6,10-0.6,15,0c4.4,0.7,8.7,1.8,12.8,3.5c2.9,1.3,5.6,2.8,8.2,4.5
		c0.7,0.5,1.4,0.9,2,1.4c0.4,0.3,0.7,0.5,1.1,0.8c-0.1-0.1-0.2-0.2-0.3-0.2c1.3,1.1,2.6,2.2,3.8,3.4c1.2,1.2,2.4,2.4,3.5,3.7
		c0.5,0.6,0.9,1.2,1.4,1.8c-1.6-1.9-0.4-0.5,0,0c0.2,0.3,0.4,0.6,0.6,0.9c1.8,2.5,3.3,5.2,4.5,8.1c0.1,0.4,0.3,0.7,0.4,1.1
		c0.7,1.9,1.7,3.4,3.4,4.5c1.6,0.9,4,1.3,5.8,0.8c3.6-1.2,6.7-5.3,5.2-9.2c-3.6-9.7-9.6-18.4-17.5-25.1c-6.6-5.5-14.1-9.7-22.3-12.2
		c1.9-1.1,3.9-2.1,5.9-3c4.6-1.8,9.3-3.2,14.2-3.9c4.2-0.5,8.4-0.5,12.6,0c3.8,0.6,7.5,1.7,11.1,3.1c3.3,1.5,6.5,3.2,9.5,5.3
		c0.7,0.5,1.5,1,2.2,1.6c0.3,0.3,0.6,0.5,0.9,0.8c1.5,1.2,2.9,2.5,4.3,3.9c1.4,1.4,2.7,2.8,3.9,4.3c0.1,0.1,0.2,0.3,0.3,0.4
		c0.1,0.1,0.2,0.2,0.3,0.4c0.6,0.8,1.1,1.6,1.7,2.4c2,3,3.7,6.1,5.2,9.4c1.2,3,2.2,6.2,2.9,9.4c0.8,3.8,5.5,6.4,9.2,5.2
		c4-1.3,6.1-5.1,5.2-9.2c-3.2-14.6-11.7-27.9-23.2-37.4c2.6-0.9,5.3-1.7,8.1-2.1c2.3-0.2,4.6-0.3,6.8,0c1.7,0.3,3.3,0.7,4.8,1.3
		c1.6,0.8,3.2,1.7,4.7,2.7c0.2,0.2,0.5,0.4,0.7,0.5c0.5,0.4,0.9,0.8,1.3,1.2c0.8,0.8,1.6,1.6,2.4,2.5c0.3,0.3,0.6,0.7,0.8,1
		c0.1,0.2,0.2,0.3,0.4,0.5c0.7,1,1.3,1.9,1.9,2.9c1.1,1.8,2,3.6,2.8,5.5c2.5,6.1,3.8,12.5,4.7,19c1.1,8.5,1.7,17.1,3.2,25.6
		c1.5,8.3,4.1,16.3,6.8,24.3c1.3,3.7,5.2,6.5,9.2,5.2c3.7-1.2,6.6-5.2,5.2-9.2c-3.3-9.6-6.2-19.2-7.6-29.3c-0.1-0.9-0.2-1.9-0.3-2.8
		c0.4-0.9,0.6-1.8,0.5-2.7c-1-7.5-0.9-15,0-22.5c1.1-7.4,3-14.5,5.8-21.4c2.2-5,4.7-9.8,7.8-14.3c0.4-0.6,0.8-1.1,1.2-1.7
		c0-0.1,0.1-0.1,0.1-0.2c0-0.1,0.1-0.1,0.2-0.2c0.9-1,1.8-2.1,2.7-3c0.5-0.5,1-0.9,1.5-1.4c0.1-0.1,0.1-0.1,0.2-0.2
		c0.1,0,0.1-0.1,0.2-0.1c1-0.7,2-1.2,3-1.7c0.9-0.3,1.8-0.5,2.7-0.7c0.7,0,1.4-0.1,2.1,0c0.5,0.1,1,0.2,1.5,0.4
		c0.4,0.3,0.9,0.5,1.3,0.8c0.3,0.3,0.5,0.5,0.8,0.8c0,0,0,0,0,0.1c0.2,0.2,0.3,0.5,0.5,0.7c0.3,0.4,0.5,0.9,0.7,1.3
		c0.4,1.1,0.7,2.3,0.9,3.5c0.3,3.8-0.1,7.6-0.5,11.5c-0.5,4.3-1,8.6-1.5,12.9c-0.8,8.5-1.4,17-1.7,25.5c-0.3,8.6-0.4,17.2-0.2,25.9
		c0.1,6.1,0.6,12.1,0.6,18.2c0.1,16.1,3.8,32.2,8.3,47.6c4.2,14.6,9.4,29,16,42.7c4.3,9,9.4,17.6,15.2,25.7
		c-0.6,0.1-1.2,0.2-1.8,0.3c-3,0.5-5.9,1.2-8.7,2.1c-4,1.2-8,2.5-11.6,4.6c-7.5,4.5-14.8,9.5-21.8,14.8
		c-17.5,13.1-34.1,27.8-47.8,44.8c-6.7,8.4-12.9,17.3-17.4,27c-4.2,9.1-7.1,18.8-7.1,29c0,0.1,0,0.2,0,0.3c0,0-0.1,0-0.1-0.1
		C589,565.4,587,563.8,585.1,562.2z M722.3,469.8c-0.9,5.5-2.6,10.8-4.7,15.9c-3.1,7.1-6.8,14-10.9,20.6c-2.3,3.8-4.8,7.5-7.3,11.1
		c-1.3,1.9-2.7,3.8-4,5.6c-0.7,0.9-1.4,1.8-2.1,2.7c-0.2,0.3-0.4,0.6-0.6,0.8c-0.1,0.2-0.3,0.4-0.4,0.5c-5.8,7.4-12,14.5-18.6,21.2
		c-3.2,3.2-6.5,6.4-9.9,9.4c-1.7,1.5-3.3,2.9-5.1,4.4c-0.8,0.7-1.7,1.4-2.5,2c-0.4,0.3-0.8,0.7-1.3,1c0,0-0.1,0-0.1,0.1
		c-6.2,4.8-12.9,9.1-20,12.4c-0.6,0.3-1.1,0.5-1.7,0.8c-3.5,1.4-7.1,2.5-10.8,3.1c-2.2,0.2-4.4,0.3-6.6,0.1c-1.5-0.3-3-0.7-4.5-1.2
		c-0.2-0.1-0.3-0.2-0.5-0.2c-0.5-0.7-1.2-1.2-2-1.7c-0.1,0-0.1-0.1-0.2-0.1c-0.3-0.6-0.7-1.2-1-1.8c0,0,0,0,0,0
		c-0.5-1.7-0.9-3.5-1.2-5.3c-0.4-3.5-0.4-7,0.1-10.5c0.8-4.8,2.2-9.5,4-14c3.1-7.1,7.1-13.8,11.7-20.1c0.6-0.9,1.2-1.7,1.9-2.6
		c0.2-0.3,0.4-0.6,0.7-0.9c-0.4,0.5,0,0,0.3-0.3c0,0,0-0.1,0.1-0.1c0.1-0.2,0.3-0.3,0.4-0.5c-0.1,0.2-0.3,0.3-0.4,0.5
		c1.3-1.7,2.7-3.4,4.1-5c2.8-3.4,5.8-6.7,8.9-9.8c6.1-6.4,12.6-12.4,19.3-18.1c3.2-2.8,6.5-5.4,9.9-8.1c0.3-0.3,0.7-0.5,1-0.8
		c0,0,0.1-0.1,0.1-0.1c0.8-0.6,1.6-1.2,2.4-1.8c1.6-1.2,3.2-2.3,4.8-3.5c6.1-4.4,12.4-8.6,18.8-12.4c5.2-1.9,10.5-3.6,15.9-4.4
		c2.2-0.3,4.5-0.3,6.8-0.1c0.8,0.2,1.6,0.4,2.3,0.6c0.4,0.2,0.8,0.4,1.1,0.6c0.1,0.1,0.3,0.2,0.4,0.4c0.1,0.1,0.2,0.2,0.3,0.4
		c0.2,0.3,0.4,0.7,0.6,1.1c0.2,0.7,0.4,1.5,0.6,2.2C722.6,465.9,722.5,467.9,722.3,469.8z"/>
	<path class="st1" d="M429.7,358.8c0.2,0.1,0.3,0.2,0.5,0.3C430,359,429.8,358.9,429.7,358.8C429.6,358.8,429.6,358.8,429.7,358.8z"
		/>
	<path class="st1" d="M526.4,277.9C526.4,277.9,526.4,277.9,526.4,277.9C526,277.6,524.9,276.8,526.4,277.9z"/>
</g>
<path class="st0" d="M652.6,534.6c29.6,36.2,22.1,34.7,45.8,74.1c-18.2,4.9-27.1,25.6-19.1,40.3c8,14.7,29.1,21.8,47.8,18.5
	c5.1-0.9,10.2-2.6,13.6-6c2-2,3.3-4.5,4.3-6.9c5.4-12.7,6.5-26.7,2.9-39.7c12.6,10.1,35,9.3,47-1.8s11.4-30.5-1.6-40.3
	c-14.9-11.3-38-8-57.5-3.6c-3.3,0.8-6.9,1.5-10.1,0.6c-3.2-0.9-5.4-3.4-7.4-5.7c-25.9-29.5-17.5-19.5-43.3-49"/>
<g>
	<path class="st1" d="M647.3,539.9c2.6,3.2,5.2,6.4,7.7,9.6c0.1,0.1,0.2,0.3,0.3,0.4c0.5,0.6-0.7-0.9-0.6-0.8
		c0.3,0.4,0.6,0.8,0.9,1.2c0.5,0.6,1,1.3,1.5,1.9c0.9,1.2,1.9,2.5,2.8,3.7c2.9,4,5.6,8,8.1,12.3c4.4,7.6,8.1,15.6,12.1,23.3
		c3.7,7.1,7.7,14,11.8,20.9c1.5-3.7,3-7.3,4.5-11c-12.1,3.3-21.5,12.5-25.7,24.2c-2,5.5-2.3,11.4-1.4,17.2c0.9,6,3.9,11.3,7.7,16
		c3.6,4.4,8.5,8,13.6,10.6c5.6,2.8,11.6,4.7,17.9,5.6c6.9,1,13.6,0.9,20.5-0.3c7.9-1.4,15.3-4.9,20-11.7c2.4-3.6,4-7.9,5.3-12
		c1.4-4.2,2.2-8.5,2.7-12.9c1.1-8.4,0.4-17.1-1.9-25.2c-4.2,2.4-8.4,4.9-12.5,7.3c4.9,3.8,10.3,6.6,16.4,8
		c6.4,1.4,12.7,1.5,19.1,0.6c11.7-1.7,23.2-8.4,28.8-19c5.6-10.7,5.5-24.2-1.2-34.4c-7.5-11.3-20.4-16.2-33.5-17.4
		c-7.4-0.7-14.7,0-22,1c-3.4,0.5-6.9,1.1-10.3,1.8c-3.5,0.7-7,1.7-10.6,2.2c0.7-0.1,1.3-0.2,2-0.3c-1.3,0.2-2.6,0.2-4,0.1
		c0.7,0.1,1.3,0.2,2,0.3c-1-0.1-1.9-0.4-2.8-0.7c0.6,0.3,1.2,0.5,1.8,0.8c-0.7-0.3-1.3-0.7-2-1.1c-1-0.7,1.2,1.1,0.3,0.2
		c-0.3-0.3-0.7-0.6-1-0.9c-1.2-1.2-2.3-2.5-3.4-3.8c-2.3-2.6-4.5-5.2-6.8-7.8c-3-3.4-5.9-6.7-8.9-10.1c-4.2-4.7-8.5-9.5-12.7-14.2
		c-4.6-5.1-9.1-10.3-13.6-15.5c-2.6-3-8-2.9-10.6,0c-2.9,3.2-2.8,7.5,0,10.6c7.6,8.7,15.2,17.3,22.9,25.9c3.2,3.6,6.3,7.1,9.5,10.7
		c2.6,3,5.2,5.9,7.8,8.9c3.1,3.6,6.2,7.7,10.6,9.8c3.3,1.6,6.8,2.3,10.5,1.9c3.2-0.3,6.2-1,9.3-1.7c4.8-1,9.5-1.9,14.3-2.6
		c-0.7,0.1-1.3,0.2-2,0.3c7.4-1,14.9-1.4,22.3-0.4c-0.7-0.1-1.3-0.2-2-0.3c3.9,0.5,7.7,1.5,11.3,3c-0.6-0.3-1.2-0.5-1.8-0.8
		c1.8,0.8,3.5,1.6,5.1,2.7c0.7,0.5,1.4,1,2.1,1.4c-2.1-1.4-0.7-0.5-0.2-0.1c0.3,0.3,0.7,0.6,1,0.9c0.6,0.6,1.2,1.3,1.8,1.9
		c0.4,0.4,1,1.5-0.4-0.5c0.2,0.4,0.5,0.7,0.8,1.1c1,1.4,1.8,2.9,2.4,4.5c-0.3-0.6-0.5-1.2-0.8-1.8c0.8,2.1,1.4,4.2,1.8,6.4
		c-0.1-0.7-0.2-1.3-0.3-2c0.3,2.4,0.3,4.9,0,7.3c0.1-0.7,0.2-1.3,0.3-2c-0.3,2.3-1,4.6-1.9,6.8c0.3-0.6,0.5-1.2,0.8-1.8
		c-0.7,1.6-1.5,3.2-2.5,4.6c-0.2,0.4-0.6,0.7-0.8,1.1c0-0.1,1.2-1.5,0.5-0.7c-0.1,0.2-0.3,0.3-0.4,0.5c-0.6,0.7-1.3,1.4-2,2.1
		c-0.3,0.3-0.7,0.6-1,0.9c-0.2,0.1-0.3,0.3-0.5,0.4c-0.6,0.6,1.4-1.1,0.7-0.6c-0.7,0.5-1.4,1-2.2,1.5c-1.6,1-3.2,1.8-4.9,2.5
		c0.6-0.3,1.2-0.5,1.8-0.8c-3.2,1.3-6.5,2.2-9.9,2.7c0.7-0.1,1.3-0.2,2-0.3c-3.8,0.5-7.6,0.5-11.4,0c0.7,0.1,1.3,0.2,2,0.3
		c-3.3-0.5-6.4-1.3-9.5-2.5c0.6,0.3,1.2,0.5,1.8,0.8c-1.2-0.5-2.4-1.1-3.5-1.8c-0.6-0.3-1.1-0.7-1.7-1c-0.6-0.4-2.5-1.9-0.3-0.2
		c-1.3-1.1-2.6-1.8-4.3-2.1c-1.6-0.2-3.4,0-4.8,0.9c-2.8,1.8-4.3,5.2-3.4,8.5c0.7,2.6,1.2,5.2,1.6,7.8c-0.1-0.7-0.2-1.3-0.3-2
		c0.7,5.3,0.7,10.6,0,15.9c0.1-0.7,0.2-1.3,0.3-2c-0.8,5.3-2.2,10.6-4.3,15.5c0.3-0.6,0.5-1.2,0.8-1.8c-0.5,1.1-1,2.3-1.6,3.4
		c-0.3,0.6-0.7,1.2-1.1,1.8c-0.5,0.8,0.3-0.3,0.4-0.5c-0.2,0.3-0.5,0.5-0.7,0.8c-0.4,0.4-0.8,0.8-1.3,1.2c-0.7,0.7,0.5-0.3,0.6-0.5
		c-0.2,0.2-0.5,0.4-0.8,0.6c-1,0.7-2.2,1.3-3.3,1.8c0.6-0.3,1.2-0.5,1.8-0.8c-3.2,1.3-6.6,2.1-10,2.6c0.7-0.1,1.3-0.2,2-0.3
		c-4.8,0.6-9.6,0.6-14.3,0c0.7,0.1,1.3,0.2,2,0.3c-4.5-0.6-9-1.8-13.2-3.5c0.6,0.3,1.2,0.5,1.8,0.8c-2.1-0.9-4.1-1.9-6-3.1
		c-0.9-0.6-1.8-1.2-2.7-1.8c-0.2-0.1-1.2-0.9,0,0c1.1,0.8,0.2,0.2,0,0c-0.4-0.4-0.9-0.7-1.3-1.1c-0.8-0.7-1.5-1.4-2.2-2.2
		c-0.4-0.4-0.7-0.8-1.1-1.2c-0.1-0.1-0.5-0.6-0.5-0.6c0,0,1.2,1.6,0.6,0.7c-1.2-1.7-2.3-3.5-3.1-5.4c0.3,0.6,0.5,1.2,0.8,1.8
		c-0.8-2-1.4-4.1-1.7-6.3c0.1,0.7,0.2,1.3,0.3,2c-0.3-2.4-0.3-4.7,0-7.1c-0.1,0.7-0.2,1.3-0.3,2c0.4-2.6,1.1-5.1,2.1-7.5
		c-0.3,0.6-0.5,1.2-0.8,1.8c0.7-1.7,1.6-3.3,2.6-4.8c0.3-0.4,0.5-0.8,0.8-1.1c0.1-0.2,0.2-0.3,0.4-0.5c0.5-0.7-1.2,1.5-0.5,0.7
		c0.6-0.7,1.2-1.4,1.9-2.1c0.6-0.6,1.3-1.2,1.9-1.8c0.2-0.2,0.4-0.3,0.6-0.5c0.8-0.6-0.7,0.6-0.8,0.6c0.1,0,1-0.7,1.2-0.8
		c1.7-1.1,3.4-2.1,5.3-2.9c-0.6,0.3-1.2,0.5-1.8,0.8c1.2-0.5,2.5-0.9,3.8-1.3c4.6-1.3,7-6.9,4.5-11c-6.3-10.5-12.1-21.3-17.6-32.2
		c-4-7.9-8.3-15.6-13.4-22.8c-5-7.1-10.5-13.9-16-20.6c-1.1-1.4-3.6-2.2-5.3-2.2c-1.8,0-4,0.8-5.3,2.2c-1.3,1.4-2.3,3.3-2.2,5.3
		C645.2,536.7,646,538.3,647.3,539.9L647.3,539.9z"/>
</g>
<g>
	<path class="st1" d="M662.7,415c-20.1-1.2-40.8-2.3-60.4,3.4c-5.6,1.6-11,3.8-16.2,6.6c-2,1.1-2.7,3.6-1.8,5.6
		c0.9,2.2,3.1,3,5.3,2.6c11.6-2,22.9-3.3,35.1-4c12-0.7,24-0.8,36-0.2c6.8,0.3,13.6,0.9,20.4,1.6c1.9,0.2,3.9-1.5,4.3-3.3
		c0.4-2-0.3-4-2.1-5.1c-7.9-4.7-16.7-7.4-25.9-8c-2.4-0.2-4.6,2.2-4.5,4.5c0.1,2.6,2,4.3,4.5,4.5c1,0.1,2,0.2,3.1,0.3
		c0.5,0.1,0.6,0.1,0.1,0c0.2,0,0.4,0.1,0.6,0.1c0.5,0.1,1,0.2,1.5,0.3c1.9,0.4,3.9,0.8,5.7,1.4c3.9,1.2,6.5,2.4,10.3,4.6
		c0.8-2.8,1.5-5.6,2.3-8.4c-24.2-2.6-48.7-2.7-73,0c-7,0.8-14,1.7-21,2.9c1.2,2.7,2.3,5.5,3.5,8.2c1.1-0.6,2.1-1.1,3.2-1.6
		c0.5-0.2,1-0.5,1.5-0.7c0.3-0.1,0.5-0.2,0.8-0.3c0.4-0.2-0.5,0.2,0.3-0.1c2.2-0.9,4.5-1.7,6.8-2.4c4.6-1.4,9.3-2.4,14-3.1
		c0.3,0,0.6-0.1,0.8-0.1c1.4-0.2-0.5,0.1,0.3,0c0.6-0.1,1.1-0.1,1.7-0.2c1.2-0.1,2.4-0.3,3.6-0.4c2.4-0.2,4.9-0.4,7.3-0.4
		c5-0.2,10-0.2,15,0c5.6,0.2,11.1,0.5,16.6,0.8c2.4,0.1,4.6-2.2,4.5-4.5C667.1,416.9,665.2,415.2,662.7,415L662.7,415z"/>
</g>
<path class="st1" d="M603.7,435.7c-1.9-10.1-1-20.7,2.6-30.4c0.8-2.1,3.9-1.9,4.3,0.3c2.2,12.6,4,25.5,2.5,38.1
	c-0.2,1.9-2.6,2.6-3.9,1.2c-1.4-1.5-2.4-2.6-3.7-4.5C604.6,439.1,604,437.4,603.7,435.7L603.7,435.7z"/>
<path class="st1" d="M622.7,432.7c-1.9-10.1-1-20.7,2.6-30.4c0.8-2.1,3.9-1.9,4.3,0.3c2.2,12.6,4,25.5,2.5,38.1
	c-0.2,1.9-2.6,2.6-3.9,1.2c-1.4-1.5-2.4-2.6-3.7-4.5C623.6,436.1,623,434.4,622.7,432.7L622.7,432.7z"/>
<path class="st1" d="M642.7,432.7c-1.9-10.1-1-20.7,2.6-30.4c0.8-2.1,3.9-1.9,4.3,0.3c2.2,12.6,4,25.5,2.5,38.1
	c-0.2,1.9-2.6,2.6-3.9,1.2c-1.4-1.5-2.4-2.6-3.7-4.5C643.6,436.1,643,434.4,642.7,432.7L642.7,432.7z"/>
<path class="st0" d="M380.5,344.5c-20.6-1.1-41.3-1.2-61.9-0.3c-21,0.9-41.9,2.7-62.7,5.5c-10.1,1.4-20.1,2.9-30.1,4.7
	c2.9-3.5,6-6.7,9.2-9.9c7.2-7.2,14.7-14.1,22.6-20.6c2.2-1.8,4.4-3.6,6.6-5.3c0.2-0.1,0.3-0.2,0.5-0.4c0,0,0,0,0,0
	c0.5-0.4,1.1-0.8,1.6-1.3c1.2-0.9,2.5-1.8,3.7-2.7c1.6-1.2,2.9-2.5,3.4-4.5c0.5-1.8,0.3-4.2-0.8-5.8c-2-3.1-6.9-5.2-10.3-2.7
	c-10.1,7.4-19.8,15.3-29,23.9c-4.4,4.1-8.6,8.3-12.7,12.6c-4.1,4.3-8.1,8.9-11.3,13.9c-3.8,5.9-6.2,12.6-6.5,19.7
	c-0.1,2.6,1.5,5.1,3.7,6.5c17.6,10.7,35.9,19.9,54.9,27.9c1.7,0.7,4.3,0.1,5.8-0.8c1.6-0.9,3-2.7,3.4-4.5c0.4-1.9,0.3-4.1-0.8-5.8
	c-1.1-1.7-2.5-2.6-4.4-3.4c0.3,0.1,0.6,0.2,0.8,0.4c-14.9-6.3-29.4-13.5-43.4-21.6c0.6,0,1.2-0.1,1.7-0.2c11-2.1,22-3.8,33.1-5.4
	c31.6-4.2,63.6-6.2,95.5-5.8c9.1,0.1,18.2,0.4,27.3,0.9c3.9,0.2,7.7-3.6,7.5-7.5C387.8,347.8,384.7,344.8,380.5,344.5z"/>
<g>
	<path class="st0" d="M857.8,341.5C857.6,341.8,857.4,341.9,857.8,341.5L857.8,341.5z"/>
	<path class="st0" d="M871.3,321.5c-13-16.3-29.8-29.9-48.4-39.3c-5.5-2.8-11.3-5.3-17.1-7.5c-1.7-0.6-4.2-0.1-5.8,0.8
		c-1.6,0.9-3,2.7-3.4,4.5c-1,4.2,1.3,7.8,5.2,9.2c1.7,0.6,3.5,1.3,5.2,2c8.2,3.5,16,7.8,23.3,12.7c1.9,1.3,3.7,2.6,5.5,3.9
		c0.5,0.4,0.9,0.7,1.4,1.1c0,0,0.1,0.1,0.2,0.1c0.9,0.7,1.8,1.4,2.7,2.2c1.9,1.6,3.7,3.2,5.5,4.8c-16.8-0.3-33.7-0.2-50.5,0.4
		c-17.7,0.6-35.4,1.8-53,3.4c-9.9,0.9-19.8,2-29.7,3.2c-2.1,0.3-3.8,0.7-5.3,2.2c-1.3,1.3-2.3,3.4-2.2,5.3c0.1,1.9,0.7,4,2.2,5.3
		c1.4,1.2,3.4,2.4,5.3,2.2c17.5-2.2,35.1-3.8,52.6-5c17.7-1.2,35.4-1.9,53.1-2.1c9.6-0.1,19.3-0.1,28.9,0.1
		c-6.8,5.4-13.1,11.4-18.8,18c-3,3.5-5.9,7.1-8.6,10.8c-1.1,1.5-1.2,4.1-0.8,5.8c0.5,1.7,1.8,3.6,3.4,4.5c1.7,0.9,3.8,1.4,5.8,0.8
		c2-0.6,3.3-1.8,4.5-3.4c0.3-0.5,0.7-0.9,1-1.4c0.3-0.4,1.6-2,0.1-0.2c0.7-0.9,1.4-1.8,2.1-2.6c1.4-1.7,2.9-3.5,4.4-5.1
		c3-3.3,6.1-6.5,9.4-9.5c1.6-1.5,3.3-2.9,4.9-4.3c0.9-0.7,1.7-1.4,2.6-2.1c0.4-0.4,0.9-0.7,1.3-1c-0.3,0.2-0.4,0.4-0.6,0.5
		c0.2-0.2,0.6-0.5,0.7-0.6c3.6-2.7,7.3-5.3,11.2-7.6c2-1.2,3.3-3.1,3.6-5.5C873.7,325.3,872.8,323.5,871.3,321.5z"/>
</g>
<g>
	<path class="st1" d="M407,424.5c0.1-3.4-1.2-6.7-3.4-9.2c-0.5-0.6-1.6-0.6-2.1,0c-0.6,0.6-0.6,1.5,0,2.1c0.1,0.1,0.2,0.3,0.3,0.4
		c0.1,0.1,0.1,0.1,0.2,0.2c-0.1-0.1-0.1-0.1,0,0c0.2,0.3,0.4,0.6,0.6,0.9c0.2,0.3,0.3,0.6,0.5,0.9c0,0.1,0.2,0.6,0.1,0.2
		c0.1,0.2,0.1,0.3,0.2,0.5c0.2,0.7,0.4,1.4,0.5,2.1c0,0.1,0,0.2,0,0.3c0-0.2,0-0.2,0,0c0,0.2,0,0.4,0,0.5c0,0.4,0,0.7,0,1.1
		c0,0.8,0.7,1.5,1.5,1.5C406.3,426,407,425.3,407,424.5L407,424.5z"/>
</g>
<g>
	<path class="st6" d="M563.3,647.3c-53.3-38.2-131.1-37.7-184,1c-13.5,9.9-25.5,22.2-32.6,37.3c-3.9,8.3-6.3,17.4-7.5,26.5
		c-5.6,40.9,11,83.3,40.1,112.6s69.7,45.7,110.9,49.3c28.6,2.5,58.5-1.1,83.1-15.7c25.6-15.1,43.3-40.3,60.1-64.8
		c9.8-14.4,20-29.7,21.4-47.1c2.2-25.5-14.5-48.5-31.4-67.7c-16.8-19-37.8-38.2-63.1-37.6"/>
</g>
<g>
	<g>
		<path class="st1" d="M567.1,640.9c-23.4-16.7-51.5-26.1-80.1-28.7c-28.7-2.6-57.8,2.3-84.1,13.9c-13.3,5.9-25.6,13.7-36.7,23.1
			c-12.4,10.6-22.6,23.5-28.7,38.8c-5.9,14.8-7.8,31.5-6.8,47.4c0.9,15.3,4.3,30.4,10.1,44.5c6,14.6,13.9,28,24,40.1
			c9.8,12,21.7,22.2,34.5,30.8c25.9,17.3,56.3,27.2,87.2,30.5c31.9,3.4,66.1-0.7,93.6-18.3c26.7-17,45.1-43.9,62.4-69.7
			c9.5-14.1,18-29.1,19.7-46.3c1.5-16.1-4.2-32-12.4-45.6c-8.2-13.6-18.7-25.9-29.8-37.2c-10.9-11.1-23.3-21.1-38-26.7
			c-6.9-2.6-14.4-3.9-21.8-3.8c-3.9,0.1-7.7,3.4-7.5,7.5c0.2,4,3.3,7.6,7.5,7.5c1.7,0,3.5,0,5.2,0.1c0.4,0,0.8,0.1,1.2,0.1
			c0.2,0,0.3,0,0.5,0.1c0.8,0.1,0.6,0.1-0.5-0.1c0.6,0.4,2.1,0.3,2.9,0.5c3.3,0.7,6.5,1.7,9.7,2.9c1.3,0.5-0.5-0.2-0.4-0.2
			c0,0,1.2,0.6,1.3,0.6c0.7,0.3,1.5,0.7,2.2,1.1c1.6,0.8,3.2,1.7,4.8,2.6c3,1.8,5.9,3.8,8.7,5.9c1.4,1.1-1.3-1,0.1,0.1
			c0.3,0.3,0.7,0.5,1,0.8c0.7,0.5,1.3,1.1,2,1.6c1.5,1.3,3,2.6,4.4,3.9c2.6,2.4,5.2,5,7.7,7.5c5,5.2,9.8,10.7,14.4,16.3
			c0.6,0.8,1.2,1.5,1.8,2.3c0.3,0.4,0.6,0.7,0.8,1.1c1.1,1.5-1-1.3,0.1,0.2c1.2,1.6,2.4,3.2,3.5,4.8c2.2,3.1,4.2,6.2,6.1,9.4
			c1.9,3.2,3.5,6.5,5,9.8c0.7,1.7-0.6-1.6,0.1,0.1c0.1,0.3,0.3,0.6,0.4,1c0.3,0.8,0.6,1.6,0.9,2.4c0.6,1.8,1.2,3.6,1.7,5.4
			c0.5,1.8,0.9,3.6,1.2,5.5c0.1,0.3,0.1,0.7,0.2,1c0.3,1.8-0.2-1.8,0,0c0.1,1,0.2,2,0.3,3.1c0.1,1.7,0.1,3.4,0.1,5.2
			c0,0.9-0.1,1.7-0.2,2.6c0,0.5-0.1,0.9-0.1,1.4c-0.2,2,0.2-1.1-0.1,0.4c-0.7,3.7-1.6,7.4-2.8,10.9c-0.3,0.8-0.6,1.7-0.9,2.5
			c-0.2,0.5-1,1.8-0.1,0.2c-0.2,0.3-0.3,0.7-0.4,1c-0.8,1.8-1.7,3.6-2.6,5.4c-3.6,7-8,13.6-12.4,20.1c-4.2,6.2-8.4,12.3-12.8,18.3
			c-1.1,1.5-2.2,3-3.3,4.4c-0.5,0.7-1,1.4-1.6,2.1c-0.2,0.3-0.4,0.6-0.6,0.8c-0.2,0.3-0.4,0.6-0.6,0.8c0.6-0.8,0.7-0.9,0.2-0.3
			c-2.3,2.9-4.6,5.7-6.9,8.5c-4.8,5.6-9.8,11-15.3,15.9c-1.3,1.2-2.7,2.4-4.1,3.5c-0.7,0.5-1.3,1.1-2,1.6c-0.3,0.2-0.5,0.5-0.8,0.6
			c1.8-1.1-0.2,0.1-0.5,0.4c-2.9,2.2-5.9,4.2-9,6.1c-3.2,1.9-6.5,3.7-10,5.3c-0.8,0.4-1.6,0.7-2.5,1.1c-1.7,0.8,1.5-0.6-0.2,0.1
			c-0.3,0.1-0.7,0.3-1,0.4c-1.9,0.8-3.8,1.5-5.8,2.1c-7.2,2.5-14.7,4.2-22.2,5.4c-0.4,0.1-0.9,0.1-1.3,0.2c-0.5,0.1-1.8,0.4,0.1,0
			c-0.9,0.2-1.8,0.2-2.7,0.3c-2,0.2-4,0.4-5.9,0.6c-3.9,0.3-7.8,0.4-11.7,0.4c-7.6,0-15.2-0.4-22.7-1.3c-0.8-0.1-1.8-0.1-2.6-0.3
			c1.9,0.6,0.5,0.1-0.1,0c-0.3,0-0.7-0.1-1-0.1c-1.9-0.3-3.7-0.6-5.6-0.9c-3.7-0.6-7.3-1.4-10.9-2.2c-7.1-1.7-14.2-3.8-21.1-6.2
			c-1.6-0.6-3.2-1.2-4.8-1.8c-0.8-0.3-1.6-0.6-2.4-1c-0.5-0.2-1-0.4-1.4-0.6c1.8,0.9,0.3,0.1-0.1-0.1c-3.4-1.5-6.7-3-10-4.7
			c-6.5-3.3-12.8-7-18.8-11.1c-1.4-1-2.8-2-4.2-3c-0.7-0.5-1.4-1-2.1-1.5c-0.4-0.3-0.8-0.6-1.2-0.9c1.5,1.3,0.3,0.2-0.1-0.1
			c-2.9-2.3-5.7-4.7-8.4-7.2c-5.3-4.9-10.3-10.1-14.8-15.7c-0.5-0.7-1.1-1.3-1.6-2c-1.1-1.4,1,1.3-0.1-0.1c-0.2-0.3-0.4-0.5-0.6-0.8
			c-1.1-1.5-2.2-3-3.3-4.5c-2.1-3-4-6.1-5.8-9.2c-1.8-3.1-3.5-6.3-5.1-9.6c-0.7-1.5-1.5-3-2.1-4.6c-0.2-0.4-1.5-2.9-0.4-1
			c-0.5-0.9-0.8-1.9-1.1-2.8c-2.6-6.7-4.7-13.5-6.3-20.5c-0.4-1.7-0.7-3.4-1-5.2c-0.1-0.8-0.3-1.7-0.4-2.5c-0.1-0.4-0.1-0.8-0.2-1.2
			c-0.1-0.5-0.3-2.5,0-0.2c-0.4-3.5-0.8-7-0.9-10.5c-0.2-3.5-0.2-7,0-10.6c0.1-1.8,0.2-3.5,0.3-5.3c0.1-0.9,0.2-1.8,0.3-2.8
			c0-0.3,0.1-0.7,0.1-1c0-0.3,0.1-0.7,0.1-1c-0.2,1.2-0.2,1.3-0.1,0.4c0.6-4,1.3-8,2.4-11.9c0.5-1.9,1-3.7,1.6-5.5
			c0.3-0.9,0.6-1.8,1-2.7c0.2-0.5,0.4-1.1,0.6-1.6c0.2-0.4,0.7-2.1,0.1-0.3c1.2-3.4,3.2-6.7,5.1-9.8c0.9-1.5,1.9-3,3-4.5
			c0.5-0.7,1-1.7,1.7-2.3c-0.1,0.1-1.1,1.3-0.2,0.3c0.4-0.5,0.9-1.1,1.3-1.6c4.6-5.6,9.8-10.7,15.4-15.3c0.7-0.5,1.3-1.1,2-1.6
			c0.3-0.3,1.8-1.2,0.1-0.1c0.3-0.2,0.6-0.4,0.8-0.6c1.4-1.1,2.9-2.1,4.4-3.2c2.8-2,5.8-3.9,8.8-5.6c5.7-3.4,11.7-6.2,17.7-9
			c-2.1,1,0.3-0.1,0.8-0.3c0.7-0.3,1.5-0.6,2.2-0.9c1.6-0.6,3.2-1.2,4.9-1.8c3.3-1.1,6.6-2.2,9.9-3.1c6.4-1.8,12.9-3.1,19.4-4.1
			c0.6-0.1,3.2-0.3,0.8-0.1c0.8-0.1,1.6-0.2,2.4-0.3c1.7-0.2,3.5-0.4,5.2-0.5c3.5-0.3,6.9-0.5,10.4-0.6c6.6-0.2,13.3,0.1,19.9,0.7
			c1.6,0.2,3.1,0.3,4.7,0.5c0.5,0.1,2.1,0.4-0.1,0c0.4,0.1,0.8,0.1,1.2,0.2c0.9,0.1,1.7,0.3,2.6,0.4c3.4,0.6,6.8,1.2,10.2,2
			c6.5,1.5,12.8,3.3,19,5.6c1.5,0.5,3,1.1,4.4,1.7c0.4,0.2,0.9,0.4,1.3,0.5c0.2,0.1,1.6,0.7,0.4,0.2c-1.2-0.5,0.2,0.1,0.4,0.2
			c0.5,0.2,1,0.4,1.5,0.7c3.1,1.4,6.1,2.9,9.1,4.4c5.7,3,11.2,6.4,16.5,10.2c3.2,2.3,8.5,0.7,10.3-2.7
			C571.8,647.2,570.5,643.3,567.1,640.9L567.1,640.9z"/>
	</g>
</g>
<g>
	<path d="M422.7,713.7l6.6,1.4l-0.7-4.8l0.4-6.7c0.1-0.9,1.1-1.8,3.1-2.7l2,0.1c4.4,0.3,5.9,17.4,4.5,51.3c-0.3,4.5-4.3,6.5-11.9,6
		c-0.5,1.9-3.1,2.7-7.8,2.4l-1-0.1c-12.8-0.8-20.6-8-23.6-21.7l0.3-4.8c0.7-11.9,8.9-18.8,24.4-20.6L422.7,713.7z M422.3,723.2
		c-10.7,1-16.3,4.7-16.7,11.2l-0.2,3.1c-0.4,7,4.6,11.3,15.2,13.1c4-1.4,7-2.9,8.9-4.5C430.3,733,427.9,725.4,422.3,723.2z"/>
	<path d="M460.5,762.4c-3.4-0.2-5.9-14.3-7.6-42.3c1.1-2.4,2.1-3.6,3-3.5l1.9,0.1c2.8,0.2,4.6,6.2,5.4,18l0.9,0.1
		c4.3-9,10.8-13.2,19.4-12.7c2.4,1.1,3.6,2.1,3.5,3l-0.2,3.7c-0.1,1.5-3.6,3.1-10.5,4.9c-4,3.9-7.3,13-10.1,27.3l-2.8,1.7
		L460.5,762.4z"/>
	<path d="M521.7,766l-3.6-0.2c-15.9-1-23.3-9.7-22.3-26.2c0.8-13.1,10.1-20.2,27.9-21.3c15.3,0.9,22.3,12.6,20.9,35l-0.5,8
		c-0.4,7.1-1.8,10.5-4.2,10.4l-0.9-0.1c-1.7-0.1-2.7-3.1-3-9.1l0.2-2.6l-0.9-0.1C530.2,764.1,525.6,766.2,521.7,766z M519.3,756.1
		c9.6-3.1,14.6-7.8,15-14c0.5-7.9-2.3-12.5-8.3-13.8l-4.1-0.3c-10,1.2-15.2,4.8-15.6,10.6c-0.7,10.5,3.7,16,13.1,16.6L519.3,756.1z"
		/>
	<path d="M570.2,784.1c0.1-1,3.8-3.4,11.2-6.9c3.5-3.4,5.5-8.7,6-15.8l-0.8-0.1c-4.1,3.1-8.3,4.6-12.7,4.3
		c-13.1-3.5-19.4-10.2-18.8-19.9l0.2-2.5c0.5-7.6,7.5-14,21.2-19.1c3-0.4,4.7-0.5,5-0.5c8.7,0.5,13.9,10.8,15.6,30.7l-0.7,11.8
		c-3.8,17.9-11.2,26.5-22.4,25.8c-2.4-1.3-3.8-2.5-3.9-3.6L570.2,784.1z M585.7,747.2c0.1-1.7-0.8-6.7-2.7-15.1
		c-11.8,3.2-17.9,7.8-18.3,13.8l-0.1,0.9c-0.3,5.4,3.4,8.8,11.3,10.1C580.8,757.2,584.1,754,585.7,747.2z"/>
</g>
</svg>
