<?xml version="1.0" encoding="utf-8"?>
<!-- Generator: Adobe Illustrator 26.5.0, SVG Export Plug-In . SVG Version: 6.00 Build 0)  -->
<svg version="1.1" id="Layer_1" xmlns="http://www.w3.org/2000/svg" xmlns:xlink="http://www.w3.org/1999/xlink" x="0px" y="0px"
	 viewBox="0 0 24 24" style="enable-background:new 0 0 24 24;" xml:space="preserve">
<style type="text/css">
	.st0{fill:#F7F6F1;}
</style>
<g>
	<path class="st0" d="M21.9,8.1c-0.8-2.3-2.2-4.6-4.7-5.2c-0.9-0.2-1.7-0.2-2.6-0.1c0-0.7-0.5-1.4-1.4-1.4C10.9,1.2,8.8,1.6,7,3.2
		C5.3,4.8,4.4,6.9,3.6,9c-0.8,2-1.4,4-0.9,6.2c0.5,2,1.8,3.7,3.4,4.9c3.5,2.7,8.6,2.2,12.3,0.2C22.6,17.9,23.5,12.4,21.9,8.1z
		 M17.1,17.5c-2.6,1.6-6.2,2.1-8.9,0.4c-1-0.7-1.9-1.7-2.4-2.8c-0.6-1.5-0.3-2.9,0.3-4.3c0.6-1.7,1.2-3.5,2.5-4.9
		c0.8-0.9,1.7-1.3,2.7-1.5C11,4.6,10.8,4.8,10.6,5c-1.3,1.4,0.8,3.5,2.1,2.1c0.9-1,2.2-1.7,3.6-1.4C17.9,6,18.6,7.5,19,8.9
		C20.1,11.8,20,15.8,17.1,17.5z"/>
	<path class="st0" d="M16.7,10.5c-0.8,0.1-1.6,0.1-2.4,0.2c0-0.5,0-1.1-0.1-1.6c-0.1-0.8-0.6-1.5-1.5-1.5c-0.8,0-1.6,0.7-1.5,1.5
		c0,0.6,0.1,1.1,0.1,1.7c-0.8,0-1.6,0-2.3,0c-0.8,0-1.5,0.7-1.5,1.5c0,0.8,0.7,1.5,1.5,1.5c0.8,0,1.6,0,2.4,0c0,0.6,0,1.1,0,1.7
		c0,0.8,0.7,1.5,1.5,1.5c0.8,0,1.5-0.7,1.5-1.5c0-0.6,0-1.2,0-1.8c0.8,0,1.6-0.1,2.3-0.2c0.8-0.1,1.5-0.6,1.5-1.5
		C18.1,11.2,17.5,10.4,16.7,10.5z"/>
</g>
</svg>
