<?xml version="1.0" encoding="utf-8"?>
<!-- Generator: Adobe Illustrator 26.5.0, SVG Export Plug-In . SVG Version: 6.00 Build 0)  -->
<svg version="1.1" id="Layer_1" xmlns="http://www.w3.org/2000/svg" xmlns:xlink="http://www.w3.org/1999/xlink" x="0px" y="0px"
	 viewBox="0 0 24 24" style="enable-background:new 0 0 24 24;" xml:space="preserve">
<style type="text/css">
	.st0{fill:#2D2D2D;}
</style>
<g>
	<path class="st0" d="M19.5,4.4c-1.7-1.8-3.9-3.2-6.5-2.7c-0.9,0.2-1.7,0.5-2.4,1c-0.3-0.6-1.1-1-1.9-0.7C6.5,3,4.8,4.2,3.9,6.5
		C3,8.6,3.1,10.9,3.3,13.2c0.2,2.2,0.5,4.2,1.9,6c1.3,1.6,3.2,2.6,5.1,3c4.3,0.9,8.7-1.7,11.2-5.2C24.4,12.9,22.7,7.6,19.5,4.4z
		 M19.2,15c-1.7,2.5-4.7,4.6-7.9,4.2c-1.2-0.1-2.5-0.7-3.4-1.5c-1.2-1.1-1.5-2.5-1.6-4C6.2,11.9,6,9.9,6.5,8.2
		C6.8,7,7.4,6.3,8.2,5.7C8.1,5.9,8,6.2,7.9,6.5c-0.6,1.8,2.2,2.8,2.8,1C11.2,6.2,12,5,13.4,4.7c1.5-0.4,2.8,0.7,3.8,1.7
		C19.4,8.5,21.1,12.1,19.2,15z"/>
	<path class="st0" d="M11.3,10.7c-0.8,0-1.6,0-2.3,0c-0.8,0-1.5,0.7-1.5,1.5c0,0.8,0.7,1.5,1.5,1.5c0.8,0,1.6,0,2.4,0l3-0.1
		c0,0,1.6-0.1,2.3-0.2c0.8-0.1,1.5-0.6,1.5-1.5c0-0.8-0.7-1.6-1.5-1.5c-0.8,0.1-1.6,0.1-2.4,0.2L11.3,10.7z"/>
</g>
</svg>
