<?xml version="1.0" encoding="utf-8"?>
<!-- Generator: Adobe Illustrator 26.5.0, SVG Export Plug-In . SVG Version: 6.00 Build 0)  -->
<svg version="1.1" id="Layer_1" xmlns="http://www.w3.org/2000/svg" xmlns:xlink="http://www.w3.org/1999/xlink" x="0px" y="0px"
	 viewBox="0 0 1080 1080" style="enable-background:new 0 0 1080 1080;" xml:space="preserve">
<style type="text/css">
	.st0{fill:#2D2D2D;}
	.st1{fill:#FF9772;}
	.st2{fill:#FF5687;}
	.st3{fill:#D642BC;}
	.st4{fill:#8731EA;}
	.st5{fill:#FFDC78;}
</style>
<g>
	<path class="st0" d="M776.1,951.6c-40.2-0.6-75.8-14.3-105.1-43.1c-23.9-23.6-37.8-52.5-43.4-85.6c-9.2-54.1,14-129.9,53.5-171.5
		c21.1-22.3,46-38,76.8-42.9c30.8-4.9,59.2,1.6,85.3,18.2c25.8,16.4,44.4,39.4,58.4,66.2c14.3,27.4,23.2,56.7,25.7,87.4
		c4.7,57.2-13.8,105.3-59.8,141.1C841.1,942,810.3,951.2,776.1,951.6z M903.6,758.2c0.4-0.1,0.8-0.2,1.2-0.4
		c-3.5-11.1-6.4-22.3-10.4-33.2c-10.5-28.4-26.2-53.4-49.8-72.8c-18.1-14.8-38.6-23.9-62.1-25.2c-27.3-1.5-51.3,7.6-72.4,24.6
		c-22.7,18.3-38.2,41.9-48.7,68.7c-12.7,32.4-20.1,65.8-14.3,100.8c4.8,29.1,17.4,54.4,38.8,74.9c26.8,25.6,59.1,37.2,96,36.3
		c17-0.5,33.2-4,48.2-12.2c39.5-21.5,59.6-55.7,61.9-99.9c1.8-35.3-8-68.5-24.5-99.6c-10.9-20.7-25.3-38.6-45.4-51.3
		c-18-11.4-37.5-16.5-58.8-12.4c-19.2,3.7-34.6,14.2-47.6,28.5c-17.1,18.8-28,41.1-34.8,65.4c-5.6,20.2-9,40.7-6.4,61.9
		c5.3,44.3,36.9,79.7,80.6,89.1c21.4,4.6,42.4,3.2,61.9-7.4c30.6-16.7,45.2-43.7,45.7-77.7c0.5-32-8.8-61.9-25.2-89.5
		c-7.6-12.7-16.9-24-29.3-32.4c-17-11.4-34.9-14.9-53.7-4.5c-8,4.4-14.8,10.3-20.4,17.4c-21.7,27.5-32.2,59.1-31.7,93.8
		c0.6,37.1,26.2,68.6,64.7,73.4c16.3,2,31.5-0.7,44.7-11.3c6.6-5.3,11.8-11.8,14.8-19.9c-0.7,0.2-1,0.9-1.4,1.4
		c-16.7,18.3-37.7,24.3-61.6,20.1c-29.9-5.3-50.2-30.3-52.4-62.3c-0.9-13.2,1.6-26,4.9-38.6c5.6-21.3,14.5-40.9,30.4-56.6
		c10-9.9,21.7-16.2,36.4-13.7c12.2,2.1,21.9,9,30.2,17.8c12.9,13.5,21.9,29.4,28.1,46.9c7.8,22.1,13.6,44.7,10.7,68.4
		c-2.7,21.8-12.2,40.1-29.9,53.5c-14.6,11-31.3,15.2-49.4,14.4c-19.9-0.8-37.9-6.9-53.5-19.2c-24.9-19.8-36.3-46.4-36.5-77.7
		c-0.2-21.9,5.2-43,13.3-63.3c8.2-20.3,19.4-38.6,36.5-52.7c17.9-14.8,38.1-20.9,61-15.1c18,4.5,32.7,14.6,44.5,28.5
		c31.6,37.3,45.9,81,43.7,129.6c-1.2,27.3-12.4,50.9-32.3,70c-21,20.1-46.3,29.1-75.2,28.6c-24.2-0.4-46.6-7-66.4-20.8
		c-36.2-25.4-52.9-61.1-53.8-104.7c-0.4-17.1,3-33.8,7.5-50.2c8.7-31.6,23.1-60,47.1-82.9c33.2-31.8,78.6-37.7,118.7-15
		c26.9,15.2,45.2,38.3,59.2,65.2C893.9,728.3,899.3,743,903.6,758.2z M730.7,794.1c0.2,16.8,4.1,30.1,15,40.2
		c13.3,12.3,29.2,15,46.1,9.7c16.7-5.2,25.9-17.6,29.9-34.3c2.7-11.4,1-22.7-1.4-33.9c-4-18.6-10.6-36.1-23.1-50.7
		c-3.5-4.1-8.1-7.5-12.6-10.6c-5-3.4-10.7-3.1-15.7,0.2c-3.8,2.5-7.7,5.3-10.7,8.7C739.8,744.1,733.2,769.5,730.7,794.1z"/>
</g>
<path class="st1" d="M862.7,453.1c-16.5-2.6-20.9,18.7-23.2,30.5c-1.8,9.1-1.9,18.4-3.5,27.6c-1.5,8.2-5,16.3-13.1,19.8
	c-2.6,1.1-2.2,3.9-0.5,5.4c-0.1,2,1,3.9,3.1,4.5c3,0.9,7.4-0.1,10.3-1.1c6.5-2.2,11.3-7,14.4-13c3.3-6.3,4.9-13.3,8.6-19.3
	c4-6.4,9.4-11.5,12.3-18.6C875.1,478.9,877.7,455.5,862.7,453.1z"/>
<g>
	<path class="st2" d="M955.3,359c-4.6-3.6-10-3.2-15.3-1.5c-4,1.2-11.2,4.7-11.6-2.1c-0.2-2.6,0.5-5.2,1-7.8
		c0.7-3.9,1.3-7.8,1.6-11.7c0.5-6.5,0.5-13.3-0.8-19.8c-2.2-10.7-11.5-18.7-22.5-13.4c-12.4,6-12.6,20.4-12.1,32.3
		c0.7,17.1-1.3,34.1-2.8,51.1c-1.3,14.9-1.3,30.7-5.8,45.1c-1.7,0.5-3.1,2.1-2.7,4.3c2.1,9.6,14.7,11.6,22.1,7.1
		c5.3-3.2,8.6-8.6,11.9-13.6c3.2-4.9,6.9-9.2,11.2-13.2c8.5-8,18-14.9,25-24.4C961.2,382.2,966.1,367.3,955.3,359z M927.7,389.7
		c-1.9,9-9.5,17.7-15.9,23.9c-2.3,2.3-5.7,0.5-6-2.5c-0.7-7-1.2-14-1.5-21.1c-0.2-5.3-1.5-12.3,0.8-17.3c4.6-10.1,18.1,0,20.6,7.1
		C928,382.6,928.5,386.1,927.7,389.7z"/>
</g>
<path class="st3" d="M1042.6,256.1c-3.5-5.9-11.2-8.2-16.8-3.8c-5.6,4.4-6.8,12.5-8.2,19.1c-1.9,8.6-4,16.9-8.5,24.5
	c-9.2,15.6-24,29.7-22.6,49.3c0.1,0.8,0.3,1.5,0.8,2c0,1.4,0.8,2.7,2.5,3.1c7.5,1.8,12.9-3.5,16.1-9.7c4-7.7,7.8-15.5,12.3-23
	c8-13.2,19.6-24.8,24.7-39.6C1045.1,271.2,1046.4,262.5,1042.6,256.1z"/>
<path class="st3" d="M947.1,183c-3.9-5.4-10.5-7.1-16.3-3.5c-6.2,3.9-7.9,10.7-8.7,17.5c-0.9,8.1-2.6,15-6.4,22.2
	c-8.2,15.2-19.8,29.4-17.3,47.8c0.4,3,3.6,3.1,5.5,1.6c5.8-2.5,7.5-8.7,9.5-14.1c2.7-7.1,7.8-12.8,13.2-18.1
	c10.1-9.9,22.2-19.6,24.5-34.5C952.1,195.4,951.1,188.4,947.1,183z"/>
<path class="st2" d="M845.6,331.5c-10.4,2-16.8,15.3-19.8,24.2c-4.5,13.6-3.9,28.3-3.2,42.4c0.1,1.7,1.2,2.8,2.5,3.2
	c0.5,1.1,1.5,1.9,3.1,1.8c5.1-0.3,9.1-3.4,11.5-7.9c2.8-5.3,2.3-11.4,4.4-16.9c1.9-4.9,6-8.6,9.1-12.7c3.3-4.3,5.2-8.8,5.7-14.2
	C859.7,343.1,857.3,329.3,845.6,331.5z"/>
<path class="st1" d="M816.9,467.5c-0.3-1.1-1.3-2.2-2.5-2.5c-4.4-1-9.6-1.6-13.1,2c-3.8,3.8-4.1,11.3-5.2,16.2
	c-1.1,5.2-3.6,11.5-2.8,16.8c0.4,3,2.1,5.3,4.4,6.5c0,0.2,0.1,0.4,0.1,0.6c0.8,4,6.2,2.9,6.8-0.5c1.4-1.1,1.3-3.1,0.4-4.6
	c0.9-2.2,2.8-4.2,4.2-5.8c2.2-2.6,4.4-5.2,5.9-8.3C818.3,481.6,818.9,474.4,816.9,467.5z"/>
<path class="st1" d="M777.4,491.4c4.4-16.3,6.7-33.1,6.8-50c0-9.5-0.6-18.9-1.5-28.3c-0.4-4.6-0.9-9.2-1.5-13.8
	c-0.3-2.3-0.5-4.6-0.8-6.9c-0.3-2.1-0.2-4.7-1.3-6.6c-3.3-6-11.9-2.7-15.8,0.8c-4.6,4.2-6.8,10.5-7.1,16.6
	c-0.4,7.8,3.1,15.3,6.2,22.3c3.5,8.1,5.7,16,5.9,24.9c0.3,10-1,20-1.1,30.1c0,3.9-0.1,9.9,2,13.7c-1,3.5,3.2,5.4,5.6,3.7
	c0.6,0,1.2,0,1.9-0.1C780.3,497.2,779.9,492.9,777.4,491.4z"/>
<path class="st2" d="M794.8,360c0.7-12.6,8.7-24.2,5.8-37.2c-0.7-3.4-2.3-6.6-3.8-9.7c-1.8-3.9-2.8-7.8-3-12.1
	c-0.3-7.3,1.5-14.8-0.1-22c-1.3-5.8-6.1-10.3-12.2-9.8c-6,0.4-10.6,4.8-12.8,10.1c-2.6,6.7-2.3,14.9-1.2,21.9
	c1.3,8.1,6.4,14.5,9,22.1c2.7,7.9,3.3,16.3,4.5,24.5c0.9,5.7,2.6,11.3,6.6,15.3c0,0.3,0,0.5,0,0.8c0.3,4.3,6.8,4.5,7.1,0.6
	C795.8,363.3,796,361.4,794.8,360z"/>
<path class="st3" d="M758.7,177.9c-3.1-3.2-7.7-4.4-11.6-2.1c-1,0.6-1.5,1.5-1.7,2.4c-0.2,0.3-0.4,0.7-0.6,1.2
	c-3.3,12.4-5.1,25.2-5.1,38c0,4.6-0.4,10.7,4.4,13.3c4.3,2.3,8.6-0.3,9.5-4.8c1.1-5.8,1.2-11.8,2.4-17.6c1.3-5.8,3.4-11.3,4.9-17
	C762.1,186.7,762.2,181.5,758.7,177.9z"/>
<path class="st1" d="M726.6,514.9c-0.2-0.1-0.4-0.1-0.6-0.2c-0.8-12.5-1.5-24.9-2.3-37.4c-0.4-7.2-0.9-14.4-1.3-21.5
	c-0.3-4.7,0.8-12.5-3.3-15.9c-3.5-2.9-8.8-1.8-11.7,1.4c-3.7,4-3.1,10-3.5,15c-0.5,6.6-2.1,12.9-4.1,19.2
	c-1.8,5.9-3.6,12.3-1.8,18.4c1.8,6.1,7,10.6,11.2,15.1c3.1,3.3,6.1,7.3,9.9,10c0,0,0,0.1,0,0.1c0.2,3.2,3.8,4.1,5.8,2.8
	C729.2,522.8,730.9,516.2,726.6,514.9z"/>
<path class="st2" d="M733.9,409.8c-1.9-18.4-3.6-36.7-2.1-55.2c0.7-8.1,0.8-16.6-3.9-23.6c-3.6-5.5-9.6-10.2-16.1-11.4
	c-6-1.1-12.8,0.2-15.9,6c-3.5,6.4-3.2,16.1-0.6,22.7c2.8,7.3,7.5,13.5,8.8,21.4c1.4,8.2,0.4,16.6,1.9,24.8
	c1.3,6.7,4.3,13.6,9.9,17.8c4,3,11.5,5,14.9,0.9C732.6,413.1,734.2,412,733.9,409.8z"/>
<path class="st3" d="M708.1,228.2c-3.1-3.5-8.4-5.3-12.3-1.9c-3.7,3.3-4.3,9.4-5,14c-2,12.9-1.4,26-0.6,39c0.2,2.7,2.7,3.8,4.7,3.3
	c0.2,0.2,0.5,0.3,0.8,0.4c4.6,1.7,9.6-1,11.9-5.1c3-5.2,1.6-11.7,2.4-17.4C711.7,250.2,716,237.1,708.1,228.2z"/>
<g>
	<path class="st3" d="M671.6,393.8c-7.4-15.6-15.1-31-22-46.8c-6.6-15.1-12.1-31.4-11.5-48.2c0.5-13.3,7.9-32-7.3-40.3
		c-5.1-2.8-11.2-2.2-15.4,1.9c-3.9,3.8-4.9,9.3-7.4,14c-3.7,6.9-10.8,5-17.4,5.5c-6.2,0.5-12.3,2.7-17.4,6.4
		c-5.1,3.6-9.3,8.5-12,14.1c-2.5,5.4-4.9,13.3-1.9,19c3.1,5.7,10,6.7,15.6,8.3c6.2,1.8,12.4,3.9,18.1,7c5.5,2.9,10.7,6.7,14.4,11.7
		c4.5,6,5.6,13,7.1,20.1c3,14.6,12,27.2,25.2,34.3c5.7,3,12.7,5.7,19.2,4.8c4.4-0.6,8.4-2.8,9.9-6.5
		C671.1,398.5,672.8,396.3,671.6,393.8z M625.3,344.7c-0.5,2.3-3.4,2.7-5,1.3c-3.7-3.3-5.6-7.8-7.4-12.3c-1.6-4.1-3.5-9.2-7.8-11.1
		c-1.9-0.8-3.9-1.2-5.1-3c-1.2-1.9-0.7-4.3,0.3-6.1c1.5-2.7,4.2-4.6,7.2-5.2c0,0,0,0,0,0c2.4-3,6.6-3.5,10.1-2.2
		c3.6,1.4,5.8,4.7,7.1,8.3C628,323.8,627.3,335.1,625.3,344.7z"/>
</g>
<path class="st4" d="M654.1,237.6c-2.2-8.4-6.5-16-9.7-24.1c-3.5-8.9-3.8-18-4.1-27.5c-0.5-15.1-3-32.5-17.5-40.6
	c-5.7-3.2-14.1-5-19.6-0.4c-5.5,4.5-9,13.1-10.1,20c-2.7,16.6,7.7,30.6,18.1,42.3c6.5,7.2,12.7,14.1,17,22.9
	c3.8,7.7,8.7,14.4,17.9,15c1.2,0.1,2.4-0.5,3.3-1.3C652.3,243.5,655,241.1,654.1,237.6z"/>
<path class="st4" d="M685.8,129.3c-0.7-9.6,1.3-19.3-1.2-28.7c-2.4-9.1-6.9-18.3-10.8-26.8c-3.1-6.7-10.3-9.2-16.6-4.7
	c-6.6,4.8-5.6,13.9-1.9,20.2c2,3.5,4.9,6.3,6.9,9.8c2.2,3.7,3.4,7.9,4,12.2c1.3,8.4-0.4,16.8,0.3,25.2c0.5,5.8,3.7,15.7,11.2,15.4
	c8.3-0.4,7.3-13,7.4-19.4C685.6,131.5,685.9,130.5,685.8,129.3z"/>
<path class="st4" d="M825.1,103.7c1.3-6.5,1.8-14-1.7-20c-3.6-6.2-10.6-7.1-17.2-5.8c-15.1,3-18.9,20.3-11.9,32.3
	c1.9,3.2,5.4,5.8,6.1,9.6c0.8,4.3-0.5,9.3-1.1,13.5c-1.2,8.6-1.9,16.6,1.9,24.7c1.3,2.7,3.8,3.1,5.9,2.1c1.7,0.7,3.7,0.9,5.9,0.3
	c6.1-1.7,9.8-8.3,9.5-14.4c-0.3-7.6-4.3-14-3-21.8C820.8,117.3,823.7,110.7,825.1,103.7z"/>
<path class="st3" d="M866.5,168c-3.4-6.8-12-11.8-19.3-7.5c-7.4,4.5-11.5,16.2-13.7,24c-2.7,9.8-2.8,19.7-1.5,29.7
	c0.8,6.1,1.9,12.2,1.9,18.3c0,5.9-1.3,11.6-3,17.2c-2.9,9.3-6.5,18.5-6.9,28.2c-1.6,0.3-3,1.4-3.4,3.5c-0.9,5.2,0.2,9.6,3.9,13.4
	c1.7,1.8,5.4,2.1,7.1,0c5.6-7.1,5.4-17.5,11.7-23.8c6.2-6.2,14.2-9.7,17.2-18.6c3.1-9.1-0.4-18.8-2.3-27.8
	c-2.3-10.9-0.1-21.6,4.5-31.6C866.3,185.5,870.7,176.4,866.5,168z"/>
<path class="st4" d="M1005.7,192.7c-2.5-4.1-7.7-6.6-12.4-5.1c-4.7,1.5-7,6.2-9.3,10.2c-6.2,11-11.6,22.7-11.3,35.6
	c0,0.5,0.1,0.9,0.2,1.3c-0.1,2.8,0.6,5.4,2.4,7.8c2,2.7,6.9,3.8,8.6,0c2.1-4.6,6.5-6.7,10.5-9.4c4-2.7,7.7-5.8,10-10.1
	C1008.8,215,1010.7,201,1005.7,192.7z"/>
<path class="st4" d="M961.7,104.7c-3.9-8.4-10.2-15.6-5.1-25.1c1.9-3.6,5.4-6.1,6.5-10.1c1-3.7-0.2-7.8-2.8-10.6
	c-5.6-6-14.2-5.7-20.4-0.9c-7,5.5-10.8,15-12.3,23.6c-1.7,10.1,0.3,18.6,2.6,28.3c0.6,2.4,1.2,5,0.1,7.3c-1.1,2.2-3.6,3.6-5.4,5.2
	c-3.4,2.9-6.4,6.6-8.6,10.5c-4.8,8.6-6.3,18.1-4.9,27.8c0.5,3.1,3,4,5.4,3.4c2.4,0.6,5.1-0.4,6-3.3c2.6-8.6,7.6-16.2,14.5-21.9
	c6.5-5.4,15.3-7.2,21.4-13C964.8,120.1,965.1,112.1,961.7,104.7z"/>
<path class="st2" d="M615,469c0.1-1.2,0.1-2.5-0.2-3.8c-0.9-4.5-6.1-4.4-8.5-1.7c-4.8-3.9-7.2-13.3-10.2-17.6
	c-4.3-6.1-9.8-11.2-16.3-14.9c-5.8-3.3-14.4-7.4-21.2-5c-6.1,2.2-9,9.5-7.5,15.5c1.8,7.2,8.3,11.5,14.6,14.5
	c3.9,1.9,7.5,3.6,10.6,6.7c3,2.9,5.5,6.3,8.5,9.3c5.1,5,12.2,9.3,19.6,7.9c3.5-0.7,6.4-2.5,8.3-5C614.8,473.7,615.6,471.2,615,469z"
	/>
<path class="st3" d="M528.3,340.1c-1.4-7.9-2.5-15.9-4.4-23.7c-1.3-5.5-3.6-11-8.2-14.5c-10.7-8.2-26.4,0.9-24.3,14.3
	c1.1,7,6.7,9.5,10.7,14.7c3.9,5.1,4.6,12,8.9,16.9c3.7,4.2,10.2,7,15.2,3.3C530.1,348.3,530.5,343.6,528.3,340.1z"/>
<path class="st2" d="M1047.2,338.3c-9.5-0.4-17.1,6.7-23,13.3c-6.6,7.4-10.8,15.8-15.4,24.5c-2.9,5.5-6.1,8.5-12.1,10.3
	c-5.1,1.5-10.1,2.8-14.3,6c-6.8,5.2-10.1,13.1-9.9,21.3c-1.1,0.5-2,1.6-2.3,3.2c-0.7,3.8,0.8,7.6,4.9,8.7c4.3,1.2,7.5-1.8,9.7-5.1
	c2.7-4,5.8-7.2,10-9.5c4.6-2.5,9.3-2.7,14.3-3.7c9.5-1.8,12.3-8.6,16.5-16.2c2.3-4.1,5.1-5.2,9.4-6.9c4.5-1.8,8.7-4.2,12.4-7.4
	c6.5-5.4,12.7-13.7,13.8-22.4C1062.3,345.7,1056,338.7,1047.2,338.3z"/>
<path class="st1" d="M931.7,475.5c-6.7-8.6-16.6-0.8-22.1,4.9c-7,7.4-9.8,16.9-7.4,26.8c0.2,0.7,0.4,1.2,0.8,1.7
	c0.9,2.1,3,3.9,5.8,3.4c4.4-0.7,5.7-4.2,7.5-7.7c2.1-4.1,6-5.8,9.6-8.5C932.5,491.6,937.5,482.9,931.7,475.5z"/>
<path class="st4" d="M564.5,246.8c-5.5-9.7-8.6-20.5-8.7-31.8c-0.1-9.4,0.6-18.1-9.4-22.6c-3.6-1.6-7.7-2.1-11.1-4.1
	c-4.1-2.4-6.6-6.7-10.1-9.8c-7.6-6.9-17.7-7.5-26.9-3.7c-12.9,5.3-39.6,24.3-25.9,40.8c2.8,3.3,6.4,4.4,10.4,5.6
	c4.6,1.5,8.5,4.5,12.9,6.5c4.5,2.1,9,2.9,13.9,2.4c4.8-0.5,10.2-2.2,14.8,0.1c7.5,3.9,10.6,14.1,16.7,19.7c3.6,3.3,8.4,6.3,13.5,4.9
	c1.1-0.3,2-0.8,2.8-1.4C561,256.2,567.3,251.7,564.5,246.8z"/>
<path class="st4" d="M551.5,113.3c-1.8-7.9,0-16.5-4.6-23.7c-2.7-4.3-6.6-7.2-11.3-7.9c-3.2-4.3-9.4-5.9-14.8-5
	c-7.8,1.2-7.4,9.9-5.4,15.8c2.5,7.4,8,11.5,14.5,15.2c5.6,3.2,8.8,10.4,15.4,11.7C549.1,120.2,552.4,117.2,551.5,113.3z"/>
<path class="st1" d="M668.5,497.7C668.5,497.7,668.5,497.7,668.5,497.7c0.6-7.3,0.7-14.8-1.4-21.8c-1.9-6.3-5.5-11.9-9.4-17.1
	c-3.6-4.7-7.7-11.5-14.3-12.1c-5.9-0.6-11,3.9-12.4,9.5c-1.6,6.4,1.9,12.5,5.8,17.2c2.1,2.6,4.6,4.9,6.2,7.9
	c1.7,3.2,2.6,6.8,3.6,10.2c1.6,5.3,3.8,11.6,9.6,13.6c4.3,1.5,9.5-0.5,11.5-4.5c0.4-0.6,0.6-1.4,0.7-2.3
	C668.5,498,668.5,497.9,668.5,497.7z"/>
<path class="st5" d="M613.1,586.1c-0.3-0.5-0.7-0.9-1-1.2c-3.7-9.5-11.6-18.7-21.8-20.2c-9.9-1.5-21.3,8.9-15.2,19
	c2.5,4.2,7.1,5.7,11.6,6.3c2.2,0.3,4.9,0.3,7,1.2c2.3,0.9,3.1,2.9,4.6,4.7c3,3.5,7.7,5.4,12,2.7
	C614.4,595.9,615.8,590.3,613.1,586.1z"/>
<path class="st5" d="M677.9,597.3c-4.8-5.7-6.8-12.1-9.4-19c-4.4-11.8-13.9-22.2-27.7-17.9c-5.9,1.8-12.3,7.2-11.6,14
	c0.9,8.5,6.3,17.4,10.6,24.5c1.9,3.1,5.2,2.5,7.1,0.4c2.9,4.4,5.3,9,7.4,13.9c2.3,5.4,4.9,11.2,9.9,14.7c5.3,3.7,11.8,3.1,17.6,0.9
	c6.8-2.7,9.7-7.3,7.6-14.6C687.4,607.5,682.3,602.6,677.9,597.3z"/>
<path class="st5" d="M710,555.6c-3-1.7-6.2-0.1-7.3,3c-2.3,6.1-1.1,12.4,0.7,18.4c1.6,5.3,4.1,10.9,3.1,16.5
	c-0.3,0.4-0.6,0.9-0.8,1.4c-2.5,6.8,5.4,11.9,11.3,8.9c5.6-2.9,8.1-10.8,8.8-16.6C727.3,574.7,721.1,561.7,710,555.6z"/>
<path class="st5" d="M767.8,539.5c-0.2-11-0.8-33.6-16.4-34.1c-6.4-0.2-11.5,4.8-13.1,10.7c-2.1,7.4,1.6,14.5,5.4,20.6
	c0.5,0.8,1.2,1.4,1.9,1.8c-3.5,11.8-4.9,34.6,10.4,38.8c2.8,0.8,6.9,0.9,9-1.3c2.3-2.3,2.7-6.9,2.9-10
	C768.6,557.3,767.9,548.2,767.8,539.5z"/>
<path class="st5" d="M809.1,543.8c-5.7-8-19-10.6-21.5,1.4c-1.3,6.2-0.4,13.2-0.4,19.6c0,6.9,0,13.7,0.1,20.6
	c-0.4,1.2-0.3,2.4,0.1,3.5c0.9,4,6.2,4.8,8.7,2.2c2.3-1.1,4.1-3.2,5.3-5.9c1.3-2.8,2.2-5.7,4.1-8.1c1.5-1.9,3.4-3.2,5.2-4.8
	C818,565.4,814.3,551.1,809.1,543.8z"/>
<path class="st5" d="M880.9,536.4c-7.1-3.1-15.6,0-19.2,6.8c-3.9,7.4-1.3,16-2.1,23.9c-0.4,3.9,3.2,5.4,6.2,4.5
	c0.7,0.1,1.5,0.1,2.3-0.2c7.9-2.6,17-7.6,20.4-15.7C891.6,548.5,888.1,539.6,880.9,536.4z"/>
<path class="st5" d="M914,596.8c-4.5,2.2-8.1,5.8-11.3,9.5c-3.6,4-7.6,9.1-13.5,9.2c-1.9,0-3.3,0.9-4.1,2.2
	c-1.3,0.5-2.5,1.2-3.7,2.3c-4.8,4.3,2.3,11.4,7.1,7.1c0.8-0.7,4.7,3,5.5,3.6c2.2,1.5,4.6,2.5,7.2,3c5.1,0.9,10.4-0.3,14.9-2.9
	c4.5-2.5,8-6.5,11-10.7c2.8-3.9,6.7-9.1,7.1-14.1C935.1,595,921.4,593.2,914,596.8z"/>
<path class="st5" d="M632.8,656.9c-2,0.3-4.3-5-5.3-6.4c-1.7-2.4-3.6-4.8-6.3-6.2c-5.2-2.8-11.4-0.7-14.1,4.4
	c-2.9,5.4-0.9,11.8,3.6,15.5c5.4,4.5,12.4,4.5,19.1,4.9c2.2,0.1,3.7-1,4.4-2.5c0.4,0,0.8-0.1,1.2-0.1
	C641.8,665.6,639.1,655.9,632.8,656.9z"/>
<g>
	<path class="st0" d="M166.5,826.9c0,6,3,10.5,9,13.6l0.2,0.7v1.2c-0.7,0.8-1.2,1.3-1.5,1.3c-0.1,0-0.2,0-0.3-0.1l-0.6,0.1v-0.1
		l-0.2,0.1h-0.5c-0.1,0-0.1,0-0.1-0.1l-0.2,0.1c-4-1.2-7.3-3.9-9.9-8.3c-1.2-3-1.8-5.7-1.8-8.2v-1.6c0-4.7,3.2-9,9.6-13
		c0.9-0.6,1.9-0.9,2.9-0.9h0.7c0.1,0,0.3,0,0.4,0.1c0.1-0.1,0.2-0.1,0.4-0.1c0.5,0,1,0.2,1.5,0.7v0.9c-6.4,5-9.7,9.1-9.7,12.5V826.9
		z"/>
	<path class="st0" d="M193.6,843.8h-1.8c-7.9,0-11.9-4.1-11.9-12.4c0-6.6,4.4-10.4,13.3-11.5c7.6,0,11.5,5.6,11.5,16.8v4
		c0,3.5-0.6,5.3-1.8,5.3h-0.4c-0.8,0-1.4-1.5-1.8-4.4v-1.3h-0.4C197.8,842.7,195.6,843.8,193.6,843.8z M192.1,839
		c4.7-1.9,7-4.3,7-7.4c0-4-1.5-6.2-4.6-6.6h-2.1c-5,0.9-7.4,2.8-7.4,5.8c0,5.2,2.3,7.9,7,7.9V839z"/>
	<path class="st0" d="M210.8,814.4l1.4-0.7h1.4c2.3,1.6,4.5,10.4,6.4,26.3c-0.6,1.4-1.2,2.1-1.8,2.1h-2.3c-2,0-3.3-6.8-4.2-20.5
		C211.5,821.6,211.2,819.2,210.8,814.4z"/>
	<path class="st0" d="M233.8,827.4v0.3c0,0.9,1.5,3.6,4.4,8v2c0,3.3-2.5,5.7-7.5,7h-0.8c-2.1-0.6-3.2-1.1-3.2-1.7v-1.7
		c0.1-0.7,1.8-1.7,5.2-3l0.4-1.7c-2.9-3.5-4.4-6.1-4.4-7.7v-1.7c0-3.9,3.2-6.1,9.5-6.7c2.4,0.6,3.6,1.5,3.6,2.7c0,1-2.1,2-6.3,3
		L233.8,827.4z"/>
	<path class="st0" d="M256.3,822.2l1.3,0.9c0.1-0.6,0.4-0.9,0.9-0.9h2.2c5.3,1.5,7.9,4.1,7.9,7.9v4c0,5.2-3.4,8.4-10.1,9.7
		c-7.9-1.8-11.9-5.3-11.9-10.5v-2.7c0-4.3,2.9-7.1,8.8-8.3H256.3z M256.3,826.6c-3.2,1-4.8,2.6-4.8,4.8v0.4c0,3.4,2.2,5.6,6.6,6.6
		h0.9c2.9,0,4.5-2.2,4.8-6.6C263.8,828.4,261.3,826.6,256.3,826.6z"/>
	<path class="st0" d="M296.7,822.2l1.3,0.9c0.1-0.6,0.4-0.9,0.9-0.9h2.2c5.3,1.5,7.9,4.1,7.9,7.9v4c0,5.2-3.4,8.4-10.1,9.7
		c-7.9-1.8-11.9-5.3-11.9-10.5v-2.7c0-4.3,2.9-7.1,8.8-8.3H296.7z M296.7,826.6c-3.2,1-4.8,2.6-4.8,4.8v0.4c0,3.4,2.2,5.6,6.6,6.6
		h0.9c2.9,0,4.5-2.2,4.8-6.6C304.2,828.4,301.7,826.6,296.7,826.6z"/>
	<path class="st0" d="M328.5,839.3c2.4-0.8,3.6-3.2,3.6-7.3l-1.4-8.6c0.6-1.2,1.5-1.7,2.7-1.7c2.7,1.3,4.1,4.9,4.1,10.8
		c-1.1,8.1-4.3,12.1-9.5,12.1c-5.1,0-9.1-2.4-11.7-7.3c-0.2-0.8-0.3-1.5-0.4-2.1c-0.1-0.6-0.1-1-0.1-1.4c0.9-8.4,2.3-12.5,4.1-12.5
		h0.9c0.3,0,0.9,0.6,1.8,1.7l-1.8,10.4C320.8,837.3,323.3,839.3,328.5,839.3z"/>
	<path class="st0" d="M348.6,843.9c-1.7,0-3.4-6.9-5.1-20.8c0.5-1.2,0.9-1.9,1.4-1.9h0.9c1.4,0,2.5,2.9,3.2,8.8h0.5
		c1.9-4.6,5-6.9,9.3-6.9c1.2,0.5,1.9,0.9,1.9,1.4v1.9c0,0.7-1.7,1.7-5.1,2.8c-1.9,2.1-3.2,6.7-4.2,13.9l-1.4,0.9H348.6z"/>
	<path class="st0" d="M378.6,814.4l1.4-0.7h1.4c2.3,1.6,4.5,10.4,6.4,26.3c-0.6,1.4-1.2,2.1-1.8,2.1h-2.3c-2,0-3.3-6.8-4.2-20.5
		C379.2,821.6,378.9,819.2,378.6,814.4z"/>
	<path class="st0" d="M403.9,822.2l1.3,0.9c0.1-0.6,0.4-0.9,0.9-0.9h2.2c5.3,1.5,7.9,4.1,7.9,7.9v4c0,5.2-3.4,8.4-10.1,9.7
		c-7.9-1.8-11.9-5.3-11.9-10.5v-2.7c0-4.3,2.9-7.1,8.8-8.3H403.9z M403.9,826.6c-3.2,1-4.8,2.6-4.8,4.8v0.4c0,3.4,2.2,5.6,6.6,6.6
		h0.9c2.9,0,4.5-2.2,4.8-6.6C411.4,828.4,408.9,826.6,403.9,826.6z"/>
	<path class="st0" d="M429.8,851.4c0-0.5,1.8-1.8,5.4-3.8c1.7-1.8,2.5-4.5,2.5-8h-0.4c-1.9,1.7-4,2.5-6.2,2.5
		c-6.6-1.4-10-4.5-10-9.3v-1.3c0-3.8,3.3-7.2,10-10.2c1.5-0.3,2.3-0.4,2.5-0.4c4.3,0,7.3,4.9,8.7,14.8v5.9
		c-1.3,9-4.8,13.5-10.4,13.5c-1.3-0.6-1.9-1.1-2.1-1.7V851.4z M436.4,832.5c0-0.8-0.6-3.3-1.8-7.4c-5.8,2-8.7,4.5-8.7,7.4v0.5
		c0,2.7,2,4.3,5.9,4.7C434.2,837.6,435.8,835.9,436.4,832.5z"/>
	<path class="st0" d="M457.8,822.2l1.3,0.9c0.1-0.6,0.4-0.9,0.9-0.9h2.2c5.3,1.5,7.9,4.1,7.9,7.9v4c0,5.2-3.4,8.4-10.1,9.7
		c-7.9-1.8-11.9-5.3-11.9-10.5v-2.7c0-4.3,2.9-7.1,8.8-8.3H457.8z M457.8,826.6c-3.2,1-4.8,2.6-4.8,4.8v0.4c0,3.4,2.2,5.6,6.6,6.6
		h0.9c2.9,0,4.5-2.2,4.8-6.6C465.3,828.4,462.8,826.6,457.8,826.6z"/>
	<path class="st0" d="M476.2,813.1l-0.3-1.6c0-0.3,0.4-0.7,1.2-1.2h1c3.6,0,7,2.7,10.2,8c1.6,3.1,2.3,5.8,2.3,7.9v2.1
		c0,7.5-3.5,12.8-10.4,16.1h-0.5c-2.5-0.2-3.8-0.7-3.8-1.5c0-1.2,1.8-3,5.4-5.5c2.5-2.5,3.8-5.9,3.8-10.3
		C485.1,822.1,482.2,817.4,476.2,813.1z"/>
</g>
<g>
	<path class="st0" d="M21.1,255.2c0-1.2,1.9-1.9,5.9-2.1l-0.1-5.1c0-0.4,0.4-0.8,1.1-1.2l0.8,0c1.9,1,2.9,3.1,2.9,6.3l4.8-0.1
		c2.6-0.1,4,1,4,3.1c0,1.4-0.9,2.3-2.7,2.9c-2.7-0.5-4.6-0.7-5.6-0.7l0,0.4c0.6,4,1.1,7.1,1.4,9.4s0.5,3.8,0.5,4.5
		c0,0.7-0.9,1.2-2.7,1.7c-1.9,0-3.4-5.2-4.3-15.8l-0.8,0c-3,0.1-4.7-0.5-5.2-1.9L21.1,255.2z"/>
	<path class="st0" d="M56.6,251.7l1.4,0.8c0.1-0.6,0.4-0.9,0.9-0.9l2.2-0.1c5.3,1.3,8,3.9,8.1,7.7l0.1,4c0.1,5.2-3.2,8.5-9.9,9.9
		c-8-1.6-12-5-12.1-10.3l-0.1-2.7c-0.1-4.3,2.8-7.1,8.6-8.6L56.6,251.7z M56.7,256.1c-3.2,1.1-4.8,2.7-4.7,5l0,0.4
		c0.1,3.4,2.3,5.6,6.8,6.5l0.9,0c2.9-0.1,4.4-2.3,4.7-6.7C64.2,257.6,61.7,255.9,56.7,256.1z"/>
	<path class="st0" d="M87.1,243.1l1.4-0.7l1.4,0c2.4,1.6,4.7,10.3,7.1,26.1c-0.6,1.4-1.2,2.1-1.8,2.1l-2.3,0.1
		c-2,0-3.5-6.7-4.6-20.4C87.9,250.3,87.5,247.9,87.1,243.1z"/>
	<path class="st0" d="M102.6,243.7c0.3-0.9,1.3-1.4,3-1.4l0.5,0c1.4,0.5,2.1,1.5,2.1,3.2c0,0.4-0.5,0.9-1.5,1.4l-2.6,0.1
		c-0.5,0-1-0.4-1.6-1.3L102.6,243.7z M104.9,251l1,0c2.7-0.1,4.2,5.6,4.5,16.9l0,0.8c0,0.4-0.7,0.9-2,1.6c-1.8,0-3-0.4-3.6-1.5
		c-0.9-8.5-1.4-14.2-1.4-17L104.9,251z"/>
	<path class="st0" d="M121.1,254.8c0.3,1.6,0.5,2.9,0.5,4l0.1,3.5c0.1,0.6,0.4,0.9,0.9,0.9l10.2-0.2c0.4,0,0.9,0.4,1.4,1.3l0.1,2.2
		c0,0.4-0.4,0.9-1.3,1.4l-10.6,0.3l0.2,8c0,1.6-0.7,2.8-2.1,3.6l-1.3,0c-1.5-0.6-2.3-2.1-2.3-4.4l-0.6-23.5c1.3-2.1,2.9-3.2,4.8-3.2
		c8.3-0.2,12.5,0.9,12.5,3.3l0,0.9c0,0.4-0.7,1.2-2.2,2.3c-5.3-0.5-8.7-0.7-10.2-0.6L121.1,254.8z"/>
	<path class="st0" d="M145.8,264.7l0,0.5c0,0.8,0.9,1.2,2.5,1.4c2,0,5.3-1.1,9.9-3.2l0.5,0c0.5,0,1,0.5,1.5,1.5l0,0.5
		c-0.8,4-4.4,6.1-10.8,6.3l-1.5,0c-6-1.2-9.1-4.5-9.2-9.8l-0.1-3c1-6,3.4-9.1,7.3-9.2l1,0c6.7,0.4,10,2.5,10.1,6.3
		C153.8,261.7,150.1,264.6,145.8,264.7z M147.1,254.7c-2.3,0.9-3.4,2.9-3.3,6.1l0,0.5c5.6-1.6,8.4-3.3,8.4-5.2
		C149.4,255.2,147.8,254.7,147.1,254.7z"/>
	<path class="st0" d="M169.8,240.1c2.4-0.1,3.9,5.9,4.6,17.9l0,0.5c-0.1,1.9-0.9,2.8-2.4,2.8l-0.8,0c-1.9,0-2.9-5.8-3.2-17.7
		l-0.1-2.2C168.5,240.6,169.1,240.1,169.8,240.1z M169.1,267.3c0-0.3,0.3-0.7,1.1-1.1l2.2-0.1c1.5,0,2.2,0.8,2.3,2.5l0,0.3
		c0,2-0.8,3.1-2.4,3.1l-0.3,0c-1.5,0-2.5-1.3-2.9-4.1L169.1,267.3z"/>
</g>
<g>
	<g>
		<path class="st0" d="M524.4,147.1c-10.6-3.8-23.5-0.9-32.1,6c-9.6,7.7-12.2,20.3-12,32c0.2,13,4,25.7,10.4,37
			c3,5.3,6.6,10.3,9.6,15.6c0.7,1.3,1.4,2.6,2.1,3.9c0.7,1.5,0.8,1.8,1.4,3.3c0.5,1.3,0.8,2.7,1.1,4.1c0.1,0.3,0.1,0.6,0.2,0.9
			c-0.1-0.8,0,0,0,0.2c0.1,0.6,0.1,1.3,0.1,1.9c0,0.7,0,1.4-0.1,2.1c0,0.3,0,0.5-0.1,0.8c-0.1,1.2,0.2-0.9,0,0.3
			c-0.2,1.3-0.5,2.5-0.9,3.7c-0.2,0.6-0.4,1.2-0.7,1.8c0.3-0.8,0,0-0.1,0.2c-0.1,0.3-0.3,0.6-0.4,0.9c-0.6,1.3-1.4,2.5-2.2,3.7
			c-0.2,0.3-0.4,0.6-0.6,0.8c-0.5,0.8,0.3-0.4-0.3,0.4c-0.5,0.5-0.9,1.1-1.4,1.6c-1,1.1-2,2.1-3.1,3.1c-1.4,1.2-1.6,1.4-3,2.4
			c-1.4,1-2.9,1.9-4.5,2.7c-3.4,1.8-2.7,7.4,1.1,8.2c1.7,0.4,3.4,0.9,5,1.4c0.7,0.3,1.4,0.5,2.1,0.8c-0.7-0.3,0.2,0.1,0.4,0.2
			c0.5,0.2,0.9,0.4,1.4,0.7c1.3,0.7,2.6,1.4,3.8,2.1c0.7,0.5,1.4,0.9,2.1,1.4c0.2,0.2,0.5,0.3,0.7,0.5c-0.7-0.5,0.6,0.5,0.7,0.6
			c1,0.9,2.1,1.8,3,2.8c0.5,0.5,0.9,1,1.4,1.5c0.3,0.3,0.5,0.6,0.8,0.9c0.1,0.1,0.9,1.1,0.3,0.3c1.7,2.2,3.1,4.6,4.2,7.1
			c0.4,1.1,1.1,3,1.4,4.4c0.5,1.8,0.9,3.9,1,5.2c0.4,3.7,0.3,7.4,0,11.1c-0.3,3.8-0.8,6.8-1.5,10.7c-0.7,3.8-1.5,7.5-2.5,11.2
			c-2,7.6-4.5,15.1-7.5,22.3c-2.2,5.4-5.2,11-6.1,17.1c-1.7,11.1,1,22.2,6.9,31.8c7.4,11.9,19,20.8,31.7,26.3
			c2.2,0.9,4.9,0.7,6.2-1.6c1-1.9,0.7-5.2-1.6-6.2c-3-1.3-6-2.7-8.8-4.4c-1.3-0.8-2.6-1.6-3.8-2.4c-0.6-0.4-1.3-0.9-1.9-1.3
			c-0.2-0.2-0.5-0.3-0.7-0.5c-0.2-0.2-0.4-0.3-0.7-0.5c0.4,0.3,0.3,0.3-0.1-0.1c-2.3-1.9-4.5-3.9-6.6-6c-0.9-1-1.8-1.9-2.6-2.9
			c-0.2-0.3-0.5-0.6-0.7-0.9c0.1,0.1,0.5,0.7,0,0c-0.5-0.6-0.9-1.2-1.3-1.9c-1.5-2.2-2.9-4.6-4.1-7.1c-0.1-0.3-0.8-1.9-0.4-0.9
			c-0.2-0.6-0.5-1.2-0.7-1.8c-0.5-1.3-0.9-2.6-1.2-3.9c-0.3-1.1-0.5-2.3-0.7-3.4c-0.1-0.3-0.1-0.7-0.2-1c0.2,1,0,0.4,0,0.2
			c-0.1-0.7-0.2-1.5-0.2-2.2c-0.1-1.2-0.1-2.4,0-3.6c0-0.6,0.1-1.2,0.1-1.7c0-0.3,0.1-0.7,0.1-1c0.1-1.2-0.2,1,0-0.2
			c0.4-2.6,1-5.1,1.9-7.5c0.1-0.3,0.3-0.7,0.4-1c-0.1,0.1-0.4,0.8,0,0.1c0.4-0.8,0.8-1.7,1.1-2.5c1-2.2,1.9-4.4,2.8-6.6
			c2.9-7.2,5.4-14.6,7.3-22.1c2-7.7,3.5-15.6,4.2-23.6c0.7-7.6,0.2-15.5-2.4-22.7c-5.2-14.2-18-24.2-32.6-27.6
			c0.4,2.7,0.7,5.5,1.1,8.2c9.6-5.1,18-13.6,20.8-24.4c1.4-5.2,1.2-10.7-0.3-15.9c-1.8-5.8-4.9-11.1-8.2-16.3
			c-3.3-5.2-6.7-10.3-9.3-15.9c-2.3-5.1-4.2-11.1-5.3-17c-0.3-1.7-0.4-2.1-0.5-3.8c-0.2-1.5-0.3-3-0.3-4.5c-0.1-3,0-5.9,0.3-8.9
			c0-0.2,0.2-1.8,0.1-0.9c0.1-0.6,0.2-1.3,0.3-1.9c0.3-1.3,0.6-2.7,1-4c0.2-0.6,0.4-1.1,0.6-1.6c0,0.1,0.5-1.2,0.3-0.7
			c-0.2,0.5,0.2-0.4,0.2-0.5c0.6-1.3,1.3-2.5,2.1-3.7c0.8-1.2,1.3-1.8,2.6-3c0.5-0.5,1.1-1,1.7-1.5c0.6-0.5,0.1-0.1,0,0
			c0.3-0.2,0.6-0.5,1-0.7c1.1-0.8,2.3-1.4,3.5-2c0.3-0.1,0.5-0.2,0.8-0.3c-0.8,0.4,0.3-0.1,0.5-0.2c0.7-0.3,1.3-0.5,2-0.7
			c3.3-1,5-1.3,8-1.3c0.7,0,1.4,0,2.2,0.1c0.3,0,0.6,0,0.9,0.1c0.2,0,0.4,0,0.6,0.1c-0.4-0.1-0.5-0.1-0.1,0c1.5,0.3,2.9,0.6,4.3,1.1
			c2.2,0.8,5-0.9,5.5-3.1C528.1,150.1,526.7,148,524.4,147.1L524.4,147.1z"/>
	</g>
</g>
<g>
	<g>
		<path class="st0" d="M560.5,640.6c-10.8,1.1-19.8,7.2-26,16c-6.4,9.2-8.4,21-7.1,32c0.7,6.2,2.2,12.2,4.4,18
			c2.1,5.7,4.7,11.1,7.2,16.6c1.3,2.8,2.1,4.7,3.1,7.2c1,2.6,2,5.3,2.7,8.1c0.4,1.4,0.7,2.7,0.9,4.1c0.1,0.6,0.2,1.2,0.3,1.7
			c-0.2-1.2,0,0.6,0.1,0.9c0.2,2.1,0.2,4.3,0,6.5c0,0.3-0.1,0.6-0.1,0.9c0,0.6,0.1-0.8,0,0.1c-0.1,0.7-0.2,1.3-0.4,1.9
			c-0.2,1.2-0.6,2.3-0.9,3.5c-0.2,0.6-0.4,1.2-0.7,1.8c-0.1,0.2-0.3,0.8,0-0.1c-0.1,0.3-0.3,0.6-0.4,1c-0.5,1-1.1,2.1-1.7,3
			c-0.3,0.5-0.6,1-1,1.4c-0.5,0.7,0,0,0.1-0.1c-0.2,0.3-0.4,0.5-0.7,0.8c-0.8,0.9-1.6,1.6-2.4,2.4c-0.8,0.7,0.5-0.3,0,0
			c-0.2,0.2-0.5,0.3-0.7,0.5c-0.5,0.3-1,0.6-1.5,0.9c-0.3,0.1-0.5,0.3-0.8,0.4c-0.1,0.1-1.2,0.6-0.6,0.3c0.6-0.3-0.1,0.1-0.3,0.1
			c-0.4,0.1-0.8,0.3-1.2,0.4c-2.1,0.7-3.5,2.7-3.2,4.9c0.3,2.4,2.2,3.6,4.4,3.9c-1-0.1,0.5,0.1,0.7,0.2c0.5,0.1,1,0.3,1.5,0.4
			c0.3,0.1,0.6,0.2,0.9,0.3c0.6,0.2-0.6-0.3,0,0c0.5,0.3,1,0.5,1.6,0.8c0.5,0.3,0.9,0.5,1.3,0.8c0.2,0.1,0.4,0.3,0.6,0.5
			c-0.7-0.5-0.1-0.1,0,0c0.9,0.8,1.8,1.6,2.5,2.5c0.1,0.1,1.1,1.3,0.6,0.6c0.3,0.4,0.6,0.9,0.9,1.3c0.7,1,1.2,2,1.8,3.1
			c0.1,0.2,0.2,0.5,0.3,0.7c-0.4-0.8,0-0.1,0,0.1c0.2,0.6,0.5,1.2,0.6,1.8c0.4,1.4,0.8,2.8,1.1,4.2c0.1,0.3,0.1,0.6,0.2,1
			c0.2,0.9,0.1,0.5,0,0.3c0.1,0.6,0.2,1.3,0.2,1.9c0.1,1.5,0.2,2.9,0.2,4.4c0,2.8-0.1,5.6-0.2,8.4c-0.4,6-0.9,12.1-1.5,18.1
			c-1.1,12-2.2,24.1-1.2,36.1c0.8,9.7,3,19.2,7.1,28.1c4.4,9.8,11.4,18.4,20.5,24.2c2,1.3,5.1,0.5,6.2-1.6c1.2-2.2,0.5-4.8-1.6-6.2
			c-1-0.6-1.9-1.3-2.8-2c-0.6-0.4,0.5,0.4,0,0c-0.2-0.2-0.4-0.3-0.6-0.5c-0.5-0.4-0.9-0.8-1.4-1.2c-1.7-1.5-3.4-3.2-4.9-5
			c-0.3-0.4-0.7-0.8-1-1.2c-0.5-0.6,0.6,0.8-0.1-0.2c-0.2-0.2-0.3-0.4-0.5-0.6c-0.7-0.9-1.3-1.9-1.9-2.8c-1.3-2-2.4-4.1-3.4-6.2
			c-0.2-0.5-0.5-1-0.7-1.5c-0.1-0.2-0.2-0.5-0.3-0.7c0.3,0.7,0,0.1,0,0c-0.5-1.1-0.9-2.3-1.3-3.4c-0.8-2.2-1.4-4.4-2-6.6
			c-0.6-2.2-1-4.5-1.4-6.8c-0.1-0.6-0.2-1.2-0.3-1.8c-0.1-0.7,0.1,0.7,0,0c0-0.3-0.1-0.5-0.1-0.8c-0.2-1.3-0.3-2.6-0.4-3.9
			c-0.9-12.1,0.2-24.3,1.4-36.4c0.6-6,1.1-12,1.5-18.1c0.3-5.9,0.3-11.8-0.8-17.6c-2.3-11.8-10.7-22.3-23.2-23.8
			c0.4,2.9,0.8,5.9,1.2,8.8c9.3-2.9,15.5-10.8,18.2-20c3-10.1,1.4-20.4-2.2-30.1c-2.1-5.6-4.6-11-7.1-16.4
			c-2.3-5.1-4.3-9.8-5.9-15.6c-1.7-5.9-2.4-10.7-2.3-16.8c0-1.3,0.1-2.6,0.2-3.8c0,0.1,0.2-1.4,0.1-0.8c-0.1,0.6,0.2-1,0.1-0.8
			c0.1-0.8,0.3-1.6,0.5-2.4c0.3-1.2,0.6-2.4,1-3.5c0.2-0.6,0.4-1.2,0.7-1.8c0.1-0.2,0.3-0.8,0,0c0.2-0.4,0.3-0.7,0.5-1.1
			c1.1-2.4,2.5-4.6,4.1-6.7c-0.1,0.1-0.5,0.6,0,0c0.3-0.3,0.5-0.6,0.8-0.9c0.4-0.5,0.9-1,1.3-1.4c0.9-0.9,1.9-1.8,2.9-2.6
			c0.6-0.5,0.1-0.1,0,0c0.3-0.2,0.6-0.5,0.9-0.7c0.5-0.4,1.1-0.7,1.6-1.1c1.1-0.7,2.2-1.3,3.4-1.8c1.1-0.5-0.5,0.2,0.2-0.1
			c0.3-0.1,0.6-0.2,0.9-0.3c0.7-0.2,1.3-0.5,2-0.6c0.6-0.2,1.3-0.3,1.9-0.4c0.3-0.1,0.5-0.1,0.8-0.1c1.2-0.2-0.4,0,0.6-0.1
			c2.3-0.2,4.6-1.9,4.5-4.5C564.9,642.9,563,640.3,560.5,640.6L560.5,640.6z"/>
	</g>
</g>
<g>
	<path class="st0" d="M38.2,222.7c-0.1-1.4-1.7-3.5-5-6.5c-3.5-3.1-5.3-4.7-5.3-4.8c-0.2-0.9-0.4-1.6-0.4-2c0-0.2,0.3-0.6,0.9-1l1,0
		c1.6-0.1,5.2,2.3,10.6,7.2c5.2-5.7,8.6-8.8,10.2-9.3l0.5,0.1l0.2-0.1c1.3-0.1,2.2,1,2.6,3.3c-0.4,1.2-3.5,4.6-9.3,10.2
		c-0.3,0-0.6,0.7-1.1,2.1l0.4,8.7c0,0.7-0.5,1.4-1.8,2l-0.6,0l0-0.1l-0.2,0.1l-0.1,0c-1.5,0.1-2.3-1.6-2.5-5.1L38.2,222.7z"/>
	<path class="st0" d="M67.5,208.7l1.4,0.8c0.1-0.6,0.3-0.9,0.8-0.9l2.2-0.1c5.3,1.2,8.1,3.7,8.3,7.5l0.2,4c0.3,5.2-2.9,8.6-9.6,10.2
		c-8-1.4-12.1-4.7-12.4-9.9l-0.1-2.7c-0.2-4.3,2.6-7.2,8.4-8.8L67.5,208.7z M67.7,213.1c-3.2,1.2-4.7,2.8-4.6,5.1l0,0.4
		c0.2,3.4,2.5,5.5,6.9,6.3l0.9,0c2.9-0.1,4.4-2.4,4.5-6.9C75.3,214.5,72.7,212.9,67.7,213.1z"/>
	<path class="st0" d="M100.1,224.2c2.4-0.9,3.4-3.4,3.2-7.5l-1.8-8.6c0.6-1.2,1.4-1.8,2.6-1.9c2.8,1.2,4.3,4.7,4.6,10.6
		c-0.7,8.1-3.7,12.3-8.9,12.6c-5.1,0.3-9.2-2-12.1-6.7c-0.2-0.8-0.4-1.5-0.5-2c-0.1-0.6-0.2-1-0.2-1.4c0.5-8.4,1.6-12.6,3.4-12.7
		l0.9,0c0.3,0,0.9,0.5,1.9,1.6l-1.3,10.5C92.4,222.6,95,224.5,100.1,224.2z"/>
	<path class="st0" d="M120.5,227.8c-1.7,0.1-3.7-6.8-6.2-20.5c0.4-1.3,0.8-1.9,1.3-1.9l0.9,0c1.4-0.1,2.6,2.8,3.7,8.6l0.5,0
		c1.7-4.7,4.6-7.2,8.9-7.4c1.3,0.4,1.9,0.8,1.9,1.3l0.1,1.9c0,0.7-1.6,1.8-5,3c-1.7,2.1-2.9,6.8-3.5,14.1l-1.3,1L120.5,227.8z"/>
	<path class="st0" d="M148.8,197.8c0.3-0.9,1.3-1.4,3-1.5l0.5,0c1.4,0.4,2.1,1.5,2.2,3.1c0,0.4-0.5,0.9-1.5,1.4l-2.6,0.1
		c-0.5,0-1-0.4-1.6-1.3L148.8,197.8z M151.2,205l1-0.1c2.7-0.1,4.4,5.5,5,16.8l0,0.8c0,0.4-0.6,0.9-2,1.6c-1.8,0.1-3-0.4-3.7-1.4
		c-1.1-8.5-1.7-14.2-1.9-17L151.2,205z"/>
	<path class="st0" d="M174.9,201.9l3.4,0.3l-0.6-2.4l-0.2-3.4c0-0.4,0.4-0.9,1.4-1.5l1,0c2.2-0.1,3.9,8.3,5.1,25.2
		c0.1,2.2-1.7,3.4-5.6,3.6c-0.1,1-1.4,1.5-3.8,1.6l-0.5,0c-6.4,0.3-10.7-2.8-12.9-9.4l-0.1-2.4c-0.3-6,3.3-9.8,10.9-11.6
		L174.9,201.9z M175.2,206.7c-5.3,1.1-7.8,3.3-7.7,6.5l0.1,1.5c0.2,3.5,2.9,5.4,8.3,5.7c1.9-0.9,3.3-1.8,4.1-2.8
		C179.7,211.1,178.1,207.4,175.2,206.7z"/>
	<path class="st0" d="M197.4,217.4l0,0.5c0,0.8,0.9,1.2,2.6,1.4c2-0.1,5.3-1.3,9.8-3.5l0.5,0c0.5,0,1,0.4,1.6,1.4l0,0.5
		c-0.7,4-4.3,6.2-10.7,6.6l-1.5,0.1c-6.1-1.1-9.2-4.2-9.5-9.5l-0.2-3c0.8-6.1,3.1-9.2,7-9.4l1-0.1c6.7,0.2,10.1,2.2,10.3,6
		C205.4,214.2,201.7,217.2,197.4,217.4z M198.4,207.3c-2.3,0.9-3.3,3-3.2,6.2l0,0.5c5.6-1.7,8.3-3.5,8.2-5.4
		C200.8,207.7,199.1,207.3,198.4,207.3z"/>
	<path class="st0" d="M231.7,222.1l-1.8,0.1c-7.9,0.4-12.1-3.5-12.5-11.8c-0.3-6.6,3.9-10.6,12.7-12.1c7.6-0.4,11.7,5,12.3,16.2
		l0.2,4c0.2,3.5-0.3,5.3-1.5,5.4l-0.4,0c-0.8,0-1.5-1.4-2-4.3l-0.1-1.3l-0.4,0C235.8,220.7,233.7,222,231.7,222.1z M229.9,217.3
		c4.6-2.1,6.8-4.7,6.6-7.8c-0.2-4-1.8-6.1-4.9-6.4l-2,0.1c-4.9,1.2-7.3,3.2-7.1,6.2c0.3,5.2,2.7,7.7,7.4,7.5L229.9,217.3z"/>
	<path class="st0" d="M268.9,198l2.4-0.1c6.2-0.3,10.4,2.7,12.5,9l0.2,3.4c0.3,5.9-3.8,9.7-12.4,11.2l-1,0c-0.8,0-4-0.8-9.8-2.4
		c0-1-0.2-1.4-0.6-1.4c-0.9-17.3,0.1-26,3-26.2l1,0c0.4,0,0.9,0.4,1.5,1.4l0.2,3.4l-0.4,2.4L268.9,198z M271.3,216.7
		c5.2-1.1,7.7-3.7,7.5-7.6c-0.2-3.7-3.5-5.8-9.9-6.2c-2.6,0.1-3.7,4.2-3.3,12.1C267.7,216.2,269.6,216.8,271.3,216.7z"/>
	<path class="st0" d="M296.2,218.9c-1.7,0.1-3.7-6.8-6.2-20.5c0.4-1.3,0.8-1.9,1.3-1.9l0.9,0c1.4-0.1,2.6,2.8,3.7,8.6l0.5,0
		c1.7-4.7,4.6-7.2,8.9-7.4c1.3,0.4,1.9,0.8,1.9,1.3l0.1,1.9c0,0.7-1.6,1.8-5,3c-1.7,2.1-2.9,6.8-3.5,14.1l-1.3,1L296.2,218.9z"/>
	<path class="st0" d="M322.3,195.8l1.4,0.8c0.1-0.6,0.3-0.9,0.8-0.9l2.2-0.1c5.3,1.2,8.1,3.7,8.3,7.5l0.2,4
		c0.3,5.2-2.9,8.6-9.6,10.2c-8-1.4-12.1-4.7-12.4-9.9l-0.1-2.7c-0.2-4.3,2.6-7.2,8.4-8.8L322.3,195.8z M322.5,200.2
		c-3.2,1.2-4.7,2.8-4.6,5.1l0,0.4c0.2,3.4,2.5,5.5,6.9,6.3l0.9,0c2.9-0.1,4.4-2.4,4.5-6.9C330.1,201.6,327.5,199.9,322.5,200.2z"/>
	<path class="st0" d="M354.9,211.2c2.4-0.9,3.4-3.4,3.2-7.5l-1.8-8.6c0.6-1.2,1.4-1.8,2.6-1.9c2.8,1.2,4.3,4.7,4.6,10.6
		c-0.7,8.1-3.7,12.3-8.9,12.6c-5.1,0.3-9.2-2-12.1-6.7c-0.2-0.8-0.4-1.5-0.5-2c-0.1-0.6-0.2-1-0.2-1.4c0.5-8.4,1.6-12.6,3.4-12.7
		l0.9,0c0.3,0,0.9,0.5,1.9,1.6l-1.3,10.5C347.1,209.6,349.8,211.5,354.9,211.2z"/>
	<path class="st0" d="M377.9,222.2c0-0.5,1.7-1.9,5.2-4.1c1.6-1.9,2.3-4.6,2.1-8.1l-0.4,0c-1.8,1.8-3.9,2.7-6.1,2.9
		c-6.7-1-10.2-3.9-10.4-8.8l-0.1-1.3c-0.2-3.8,2.9-7.4,9.4-10.6c1.5-0.4,2.3-0.5,2.4-0.5c4.3-0.2,7.5,4.6,9.5,14.4l0.3,5.9
		c-0.9,9.1-4.1,13.8-9.6,14.1c-1.3-0.5-2-1-2.2-1.6L377.9,222.2z M383.5,203c0-0.8-0.8-3.3-2.2-7.3c-5.7,2.3-8.4,4.9-8.3,7.9l0,0.5
		c0.1,2.7,2.2,4.2,6.2,4.4C381.6,208.2,383.1,206.4,383.5,203z"/>
	<path class="st0" d="M398.8,213.5c-1.3-0.4-2-1.7-2.1-4.1l-0.3-5.6l-2.3-18.1c0.4-1.3,0.8-1.9,1.3-1.9l1,0
		c1.9-0.1,3.2,3.3,3.8,10.1c3.5-3,6.5-4.6,9.1-4.7l0.9,0c4.9-0.3,8.2,3.5,9.9,11.2c0,2.7,0,5,0,6.7s0,2.9,0.1,3.6l-1.8,1.5l-2.3,0.1
		c-1.3-0.6-2-1.5-2-2.7c0.2-3.1,0.3-5.5,0.3-7.3c0.1-1.8,0.1-2.9,0.1-3.5c-1.1-3.4-2.4-5-4-5c-5.3,0.3-8.2,4.2-8.8,11.7l0.3,6.1
		c0,0.5-0.6,1.1-1.8,2L398.8,213.5z"/>
	<path class="st0" d="M425.4,193.2c-0.1-1.2,1.9-1.9,5.8-2.3l-0.3-5.1c0-0.4,0.4-0.8,1.1-1.3l0.8,0c1.9,0.9,2.9,3,3.1,6.2l4.8-0.2
		c2.6-0.1,4,0.9,4.1,3c0.1,1.4-0.8,2.3-2.6,2.9c-2.7-0.4-4.6-0.6-5.6-0.5l0,0.4c0.7,3.9,1.3,7,1.7,9.3c0.4,2.3,0.6,3.8,0.6,4.5
		c0,0.7-0.9,1.3-2.7,1.7c-1.9,0.1-3.5-5.1-4.8-15.6l-0.8,0c-3,0.2-4.8-0.4-5.2-1.7L425.4,193.2z"/>
</g>
<g>
	<path class="st0" d="M16.7,342.7c0,6,3,10.6,9,13.6l0.2,0.7l0,1.2c-0.7,0.8-1.2,1.3-1.5,1.3c-0.1,0-0.2,0-0.3-0.1l-0.6,0.1l0-0.1
		l-0.2,0.1l-0.5,0c-0.1,0-0.1,0-0.1-0.1l-0.2,0.1c-4-1.2-7.3-3.9-9.9-8.3c-1.2-3-1.7-5.7-1.7-8.2l0-1.6c0-4.7,3.2-9,9.6-13
		c0.9-0.6,1.9-0.9,2.9-0.9l0.7,0c0.1,0,0.3,0,0.4,0.1c0.1-0.1,0.2-0.1,0.4-0.1c0.5,0,1,0.2,1.5,0.7l0,0.9c-6.5,5-9.7,9.1-9.7,12.5
		L16.7,342.7z"/>
	<path class="st0" d="M37.5,353.3l0,0.5c0,0.8,0.8,1.3,2.5,1.5c2,0,5.3-1,10-3l0.5,0c0.5,0,1,0.5,1.5,1.5l0,0.5c-0.9,4-4.6,6-11,6
		l-1.5,0c-6-1.4-9-4.7-9-10l0-3c1.1-6,3.6-9,7.5-9l1,0c6.7,0.6,10,2.7,10,6.5C45.6,350.5,41.7,353.3,37.5,353.3z M39,343.3
		c-2.3,0.8-3.5,2.8-3.5,6l0,0.5c5.7-1.4,8.5-3.1,8.5-5C41.4,343.8,39.7,343.3,39,343.3z"/>
	<path class="st0" d="M66,367.3c0-0.5,1.8-1.8,5.4-3.8c1.7-1.8,2.5-4.5,2.5-8l-0.4,0c-1.9,1.7-4,2.5-6.2,2.5
		c-6.6-1.4-10-4.5-9.9-9.3l0-1.3c0-3.8,3.3-7.2,10-10.1c1.5-0.3,2.3-0.4,2.5-0.4c4.3,0,7.2,5,8.7,14.8l0,5.9
		c-1.3,9-4.8,13.5-10.4,13.5c-1.3-0.6-1.9-1.1-2.1-1.7L66,367.3z M72.6,348.4c0-0.8-0.6-3.3-1.8-7.4c-5.8,2-8.7,4.4-8.7,7.4l0,0.5
		c0,2.7,2,4.3,5.9,4.7C70.5,353.5,72,351.8,72.6,348.4z"/>
	<path class="st0" d="M91.9,367.3c0-0.5,1.8-1.8,5.4-3.8c1.7-1.8,2.5-4.5,2.5-8l-0.4,0c-1.9,1.7-4,2.5-6.2,2.5
		c-6.6-1.4-10-4.5-9.9-9.3l0-1.3c0-3.8,3.3-7.2,10-10.1c1.5-0.3,2.3-0.4,2.5-0.4c4.3,0,7.2,5,8.7,14.8l0,5.9
		c-1.3,9-4.8,13.5-10.4,13.5c-1.3-0.6-1.9-1.1-2.1-1.7L91.9,367.3z M98.5,348.4c0-0.8-0.6-3.3-1.8-7.4c-5.8,2-8.7,4.4-8.7,7.4l0,0.5
		c0,2.7,2,4.3,5.9,4.7C96.4,353.6,97.9,351.9,98.5,348.4z"/>
	<path class="st0" d="M122.6,331.4c0.3-0.9,1.4-1.4,3.1-1.4l0.5,0c1.4,0.5,2,1.6,2,3.2c0,0.4-0.5,0.9-1.5,1.4l-2.6,0
		c-0.5,0-1-0.5-1.5-1.4L122.6,331.4z M124.6,338.7l1,0c2.7,0,4.1,5.7,4.1,17l0,0.8c0,0.4-0.7,0.9-2.1,1.5c-1.8,0-3-0.5-3.6-1.5
		c-0.7-8.5-1-14.2-1-17L124.6,338.7z"/>
	<path class="st0" d="M142.7,343.4l0,0.3c0,0.9,1.5,3.6,4.4,8l0,2c0,3.3-2.5,5.7-7.6,7l-0.8,0c-2.1-0.6-3.2-1.1-3.2-1.7l0-1.7
		c0.1-0.7,1.8-1.6,5.2-3l0.4-1.7c-2.9-3.6-4.4-6.1-4.4-7.7l0-1.7c0-3.9,3.2-6.1,9.6-6.7c2.4,0.6,3.6,1.5,3.6,2.7c0,1-2.1,2-6.4,3
		L142.7,343.4z"/>
	<path class="st0" d="M182.2,343.7l-0.6,0c-2.7,0-4.4,2.2-5,6.5c0,6.1-1.3,9.1-3.9,9.1c-2.1,0-3.5-5.2-4.4-15.6l1.1-0.5l1.1,0
		l1.7,1.1c2.2-3.9,6.2-5.9,11.8-5.9c5,0,9.3,4.1,12.8,12.4l0,2.7c0,4.3-1.5,6.4-4.5,6.4c-1.5-0.7-2.2-1.6-2.2-2.7
		c0-0.4,0.1-1.1,0.1-2c0.1-1,0.2-2.3,0.4-3.9C190.6,347.5,187.8,345,182.2,343.7z"/>
	<path class="st0" d="M212.7,338.3l1.3,0.9c0.1-0.6,0.4-0.9,0.9-0.9l2.2,0c5.3,1.5,7.9,4.1,7.9,7.9l0,4c0,5.2-3.4,8.4-10.1,9.7
		c-7.9-1.8-11.9-5.4-11.9-10.6l0-2.7c0-4.3,2.9-7.1,8.8-8.3L212.7,338.3z M212.7,342.7c-3.2,1-4.8,2.6-4.8,4.8l0,0.4
		c0,3.4,2.2,5.6,6.6,6.6l0.9,0c2.9,0,4.5-2.2,4.8-6.6C220.2,344.5,217.7,342.7,212.7,342.7z"/>
	<path class="st0" d="M245.6,341c0.9-0.6,1.7-0.8,2.5-0.8c1.4,0,3,3.3,5,10c1.2,1.7,1.8,2.5,2.1,2.5c1.1-2.3,2.5-7.3,4.2-15
		c1-0.8,2-1.2,2.9-1.2c1.7,0.7,2.5,1.6,2.5,2.9c-2.7,13.1-5.8,19.6-9.2,19.6l-0.8,0c-2.2,0-4.6-2.7-7.1-7.9l-0.4,0
		c-1.4,5.8-3.7,8.8-6.7,8.8l-0.4,0c-4.3,0-7.1-6.3-8.3-18.8l0-1.2l1.2-0.9l1.3,0c0.8,0,2.4,5,5,15c0.3,0,0.4,0.3,0.4,0.8
		C240.8,353.6,242.7,349.1,245.6,341z"/>
	<path class="st0" d="M291.6,338l2.4,0c6.2,0,10.2,3.2,12,9.6l0,3.4c0,6-4.3,9.5-13,10.6l-1,0c-0.8,0-4-1-9.6-2.9
		c0-1-0.2-1.4-0.5-1.4c0-17.3,1.5-26,4.4-26l1,0c0.4,0,0.9,0.5,1.4,1.4l0,3.4l-0.5,2.4L291.6,338z M293.1,356.7
		c5.2-0.9,7.8-3.3,7.8-7.2c0-3.7-3.2-5.9-9.5-6.8c-2.6,0-3.9,4-3.9,11.9C289.5,356,291.4,356.7,293.1,356.7z"/>
	<path class="st0" d="M317.8,360.2c-1.7,0-3.4-6.9-5.1-20.8c0.5-1.2,0.9-1.9,1.4-1.9l0.9,0c1.4,0,2.5,2.9,3.2,8.8l0.5,0
		c1.9-4.6,5-6.9,9.3-6.9c1.2,0.5,1.9,0.9,1.9,1.4l0,1.9c0,0.7-1.7,1.7-5.1,2.8c-1.9,2-3.3,6.7-4.2,13.9l-1.4,0.9L317.8,360.2z"/>
	<path class="st0" d="M345.1,338.5l1.3,0.9c0.1-0.6,0.4-0.9,0.9-0.9l2.2,0c5.3,1.5,7.9,4.1,7.9,7.9l0,4c0,5.2-3.4,8.4-10.1,9.7
		c-7.9-1.8-11.9-5.4-11.9-10.6l0-2.7c0-4.3,2.9-7.1,8.8-8.3L345.1,338.5z M345.1,342.9c-3.2,1-4.8,2.6-4.8,4.8l0,0.4
		c0,3.4,2.2,5.6,6.6,6.6l0.9,0c2.9,0,4.5-2.2,4.8-6.6C352.6,344.7,350.1,342.9,345.1,342.9z"/>
	<path class="st0" d="M368.5,342.4l11.7-5.7c1.3,0.4,2,0.8,2,1.1l0,1.1c0,0.5-2.1,2.2-6.3,4.9l0,0.4c4.3,5.4,6.7,9.4,7.3,11.8l0,0.4
		c0,0.4-0.5,0.8-1.5,1.1l-1.5,0c-1,0-3.6-3.9-7.8-11.8l-1,0c-2.3,1.1-3.4,1.8-3.4,2.3c0,0.4,0,1.2,0.1,2.4c0.1,1.2,0.2,2.8,0.4,4.8
		c-0.2,2-1.5,3-3.9,3c-1.3-0.9-1.9-3.1-1.9-6.8c0.3-6,0.6-10.9,0.8-14.6c0.2-3.7,0.3-6.4,0.3-7.8l1.5-0.8l0.5,0
		c1.3,0,2.1,2.3,2.4,6.8l0,7.2L368.5,342.4z"/>
	<path class="st0" d="M395.5,353.8l0,0.5c0,0.8,0.8,1.3,2.5,1.5c2,0,5.3-1,10-3l0.5,0c0.5,0,1,0.5,1.5,1.5l0,0.5c-0.9,4-4.6,6-11,6
		l-1.5,0c-6-1.4-9-4.7-9-10l0-3c1.1-6,3.6-9,7.5-9l1,0c6.7,0.6,10,2.7,10,6.5C403.5,351,399.7,353.8,395.5,353.8z M397,343.8
		c-2.3,0.8-3.5,2.8-3.5,6l0,0.5c5.7-1.4,8.5-3.1,8.5-5C399.3,344.3,397.6,343.8,397,343.8z"/>
	<path class="st0" d="M430.7,344.1l-0.6,0c-2.7,0-4.4,2.2-5,6.5c0,6.1-1.3,9.1-3.9,9.1c-2.1,0-3.5-5.2-4.4-15.6l1.1-0.5l1.1,0
		l1.7,1.1c2.2-3.9,6.2-5.9,11.8-5.9c5,0,9.3,4.1,12.8,12.4l0,2.7c0,4.3-1.5,6.4-4.5,6.4c-1.5-0.7-2.2-1.6-2.2-2.7
		c0-0.4,0.1-1.1,0.1-2c0.1-1,0.2-2.3,0.4-3.9C439.1,347.9,436.3,345.4,430.7,344.1z"/>
</g>
<g>
	<path class="st0" d="M36.9,377.2c1.2,0,2.2,0.3,3,0.9c0.8,0.5,1.5,1.2,2,2c0.5,0.8,0.9,1.7,1.1,2.7c0.2,1,0.4,2,0.4,3
		c-0.1,2-1.7,4.2-4.8,6.6l1.7,3c1.1-1.1,2.4-1.7,3.7-1.6l2,0.1c0.5,0,0.9,0.5,1.2,1.4l0,0.5c-2.8,2.1-4.2,3.7-4.2,4.6
		c1.5,3.2,2.2,5,2.2,5.4c0,0.9-0.7,1.4-2.1,1.6l-0.1,0c-0.2,0-0.4,0-0.5-0.1l-0.6,0.1l-0.4,0c-1.1-0.9-1.7-1.7-2-2.5
		c-3.1,2.4-5.9,3.6-8.5,3.5l-1,0c-3.7-0.2-6.1-1.5-7.1-4.1l-0.4-1.6c0.1-3.3,3.3-6.9,9.5-10.8l0-0.1c-3-3.9-4.4-7-4.3-9.2l0-0.1
		c0-1.2,1-2.5,2.8-4c1.4-0.9,3-1.2,4.8-1.2L36.9,377.2z M27.4,402.7c0,0.6,1.1,1,3.4,1.4c1.8,0.1,3.9-1.3,6.2-4.1l0-0.2
		c-0.3-0.9-0.7-1.7-1.1-2.5c-0.4-0.8-1-1.6-1.5-2.3C30.9,397.1,28.6,399.6,27.4,402.7L27.4,402.7z M32.7,383.1
		c0.2,1.1,1.3,3.1,3.3,5.8c1.7-1.1,2.6-2.2,2.7-3.3l0-0.9c0.1-1.8-0.9-3.1-3-3.9l-0.1,0c-1,0.2-1.9,0.7-2.9,1.5L32.7,383.1z"/>
	<path class="st0" d="M65.1,391.1c0-1.2,2.1-1.7,6-1.7l0.2-5.1c0-0.4,0.4-0.8,1.2-1.1l0.8,0c1.8,1.1,2.6,3.3,2.5,6.5l4.8,0.2
		c2.6,0.1,3.9,1.2,3.8,3.3c-0.1,1.4-1,2.3-2.9,2.7c-2.7-0.7-4.5-1-5.5-1l0,0.4c0.4,4,0.6,7.1,0.8,9.4c0.2,2.3,0.2,3.8,0.2,4.5
		c0,0.7-1,1.2-2.8,1.5c-1.9-0.1-3-5.4-3.3-16l-0.8,0c-3-0.1-4.7-0.9-5.1-2.2L65.1,391.1z"/>
	<path class="st0" d="M93.1,411.2c-1.2-0.5-1.8-1.9-1.7-4.3l0.2-5.6L91,383c0.5-1.2,1-1.8,1.5-1.8l1,0c1.9,0.1,2.9,3.6,2.8,10.4
		c3.8-2.7,6.9-3.9,9.5-3.8l0.9,0c4.9,0.2,7.9,4.2,8.8,12.1c-0.3,2.7-0.5,4.9-0.6,6.6c-0.1,1.7-0.2,2.9-0.3,3.6l-1.9,1.3l-2.3-0.1
		c-1.2-0.7-1.8-1.6-1.8-2.9c0.4-3,0.8-5.4,1-7.2c0.2-1.8,0.4-2.9,0.4-3.5c-0.7-3.5-1.9-5.2-3.5-5.3c-5.3-0.2-8.6,3.4-9.8,10.8
		l-0.3,6.1c0,0.5-0.7,1.1-2,1.8L93.1,411.2z"/>
	<path class="st0" d="M127.8,406.3l0,0.5c0,0.8,0.8,1.3,2.4,1.6c2,0.1,5.4-0.8,10.1-2.6l0.5,0c0.5,0,1,0.5,1.4,1.6l0,0.5
		c-1.1,4-4.8,5.8-11.2,5.5l-1.5-0.1c-5.9-1.6-8.8-5.1-8.6-10.4l0.1-3c1.4-6,4-8.8,7.9-8.7l1,0c6.6,0.8,9.9,3.1,9.7,6.9
		C136,403.8,132,406.5,127.8,406.3z M129.7,396.4c-2.4,0.7-3.6,2.7-3.7,5.9l0,0.5c5.7-1.2,8.6-2.7,8.7-4.6
		C132.1,397,130.4,396.4,129.7,396.4z"/>
	<path class="st0" d="M161.9,385.7c0.4-0.9,1.4-1.3,3.1-1.2l0.5,0c1.3,0.5,2,1.6,1.9,3.3c0,0.4-0.6,0.9-1.6,1.3l-2.6-0.1
		c-0.5,0-1-0.5-1.5-1.4L161.9,385.7z M163.7,393.1l1,0c2.7,0.1,3.9,5.8,3.4,17.2l0,0.8c0,0.4-0.7,0.9-2.1,1.5
		c-1.8-0.1-3-0.6-3.5-1.7c-0.3-8.6-0.4-14.3-0.3-17.1L163.7,393.1z"/>
	<path class="st0" d="M187.5,392.2l3.3,0.6l-0.4-2.4l0.1-3.4c0-0.4,0.5-0.9,1.5-1.4l1,0c2.2,0.1,3.1,8.6,2.8,25.6
		c-0.1,2.2-2.1,3.3-5.9,3.1c-0.2,1-1.5,1.4-3.9,1.3l-0.5,0c-6.4-0.3-10.4-3.8-12-10.6l0.1-2.4c0.3-6,4.2-9.5,12-10.5L187.5,392.2z
		 M187.4,396.9c-5.4,0.6-8.1,2.5-8.2,5.7l-0.1,1.5c-0.1,3.5,2.4,5.6,7.7,6.4c2-0.7,3.5-1.5,4.4-2.4
		C191.5,401.8,190.2,398,187.4,396.9z"/>
	<path class="st0" d="M208.6,409.7l0,0.5c0,0.8,0.8,1.3,2.4,1.6c2,0.1,5.4-0.8,10.1-2.6l0.5,0c0.5,0,1,0.5,1.4,1.6l0,0.5
		c-1.1,4-4.8,5.8-11.2,5.5l-1.5-0.1c-5.9-1.6-8.8-5.1-8.6-10.4l0.1-3c1.4-6,4-8.8,7.9-8.7l1,0c6.6,0.8,9.9,3.1,9.7,6.9
		C216.7,407.2,212.8,409.9,208.6,409.7z M210.5,399.8c-2.4,0.7-3.6,2.7-3.7,5.9l0,0.5c5.7-1.2,8.6-2.7,8.7-4.6
		C212.8,400.4,211.1,399.8,210.5,399.8z"/>
	<path class="st0" d="M242.2,417.5l-1.8-0.1c-7.9-0.3-11.7-4.6-11.4-12.9c0.3-6.6,4.9-10.2,13.7-10.9c7.6,0.3,11.2,6.1,10.8,17.2
		l-0.2,4c-0.1,3.5-0.8,5.3-2,5.2l-0.4,0c-0.8,0-1.4-1.5-1.6-4.5l0.1-1.3l-0.4,0C246.4,416.5,244.2,417.6,242.2,417.5z M240.9,412.6
		c4.8-1.7,7.2-4,7.3-7.1c0.2-4-1.3-6.2-4.3-6.8l-2-0.1c-5,0.7-7.6,2.5-7.7,5.5c-0.2,5.2,2,8,6.7,8.2L240.9,412.6z"/>
	<path class="st0" d="M272.8,390.3c0.4-0.9,1.4-1.3,3.1-1.2l0.5,0c1.3,0.5,2,1.6,1.9,3.3c0,0.4-0.6,0.9-1.6,1.3l-2.6-0.1
		c-0.5,0-1-0.5-1.5-1.4L272.8,390.3z M274.6,397.7l1,0c2.7,0.1,3.9,5.8,3.4,17.2l0,0.8c0,0.4-0.7,0.9-2.1,1.5
		c-1.8-0.1-3-0.6-3.5-1.7c-0.3-8.6-0.4-14.3-0.3-17.1L274.6,397.7z"/>
	<path class="st0" d="M292.4,403.2l0,0.3c0,0.9,1.3,3.7,4,8.2l-0.1,2c-0.1,3.3-2.8,5.5-7.8,6.7l-0.8,0c-2.1-0.7-3.1-1.3-3.1-1.8
		l0.1-1.7c0.1-0.6,1.9-1.6,5.3-2.8l0.5-1.6c-2.8-3.7-4.1-6.3-4-7.9l0.1-1.7c0.2-3.9,3.4-6,9.8-6.3c2.3,0.7,3.5,1.6,3.4,2.8
		c0,1-2.2,1.9-6.5,2.8L292.4,403.2z"/>
	<path class="st0" d="M329.9,421.2l-1.8-0.1c-7.9-0.3-11.7-4.6-11.4-12.9c0.3-6.6,4.9-10.2,13.7-10.9c7.6,0.3,11.2,6.1,10.8,17.2
		l-0.2,4c-0.1,3.5-0.8,5.3-2,5.2l-0.4,0c-0.8,0-1.4-1.5-1.6-4.5l0.1-1.3l-0.4,0C334.1,420.2,331.9,421.3,329.9,421.2z M328.6,416.3
		c4.8-1.7,7.2-4,7.3-7.1c0.2-4-1.3-6.2-4.3-6.8l-2-0.1c-5,0.7-7.6,2.5-7.7,5.5c-0.2,5.2,2,8,6.7,8.2L328.6,416.3z"/>
	<path class="st0" d="M348.3,392.5l1.4-0.6l1.4,0.1c2.3,1.7,4.1,10.5,5.3,26.5c-0.7,1.3-1.3,2-1.9,2l-2.3-0.1c-2-0.1-3-7-3.3-20.6
		C348.6,399.7,348.4,397.3,348.3,392.5z"/>
	<path class="st0" d="M363.8,394.2c0.4-0.9,1.4-1.3,3.1-1.2l0.5,0c1.3,0.5,2,1.6,1.9,3.3c0,0.4-0.6,0.9-1.6,1.3l-2.6-0.1
		c-0.5,0-1-0.5-1.5-1.4L363.8,394.2z M365.5,401.6l1,0c2.7,0.1,3.9,5.8,3.4,17.2l0,0.8c0,0.4-0.7,0.9-2.1,1.5
		c-1.8-0.1-3-0.6-3.5-1.7c-0.3-8.6-0.4-14.3-0.3-17.1L365.5,401.6z"/>
	<path class="st0" d="M390.3,420c-1.4,2.7-2.9,4-4.7,3.9c-2.2-0.1-5.6-7.5-10.1-22.1l0-0.4c0-0.6,0.7-1,2.1-1.1
		c1.8,0.7,4.4,5.4,8,14.2c0.1,0.5,0.3,0.8,0.8,0.8c0-0.3,2.2-4.3,6.6-12c1-1.9,2.2-2.8,3.8-2.7c1.1,0.4,1.9,1.1,2.4,2.2l0,0.8
		C399.2,404.3,396.2,409.8,390.3,420z"/>
	<path class="st0" d="M411.4,418.3l0,0.5c0,0.8,0.8,1.3,2.4,1.6c2,0.1,5.4-0.8,10.1-2.6l0.5,0c0.5,0,1,0.5,1.4,1.6l0,0.5
		c-1.1,4-4.8,5.8-11.2,5.5l-1.5-0.1c-5.9-1.6-8.8-5.1-8.6-10.4l0.1-3c1.4-6,4-8.8,7.9-8.7l1,0c6.6,0.8,9.9,3.1,9.7,6.9
		C419.6,415.8,415.7,418.4,411.4,418.3z M413.4,408.3c-2.4,0.7-3.6,2.7-3.7,5.9l0,0.5c5.7-1.2,8.6-2.7,8.7-4.6
		C415.7,408.9,414,408.4,413.4,408.3z"/>
	<path class="st0" d="M433.5,394.8l-0.2-1.6c0-0.3,0.4-0.6,1.2-1.1l1,0c3.6,0.2,6.9,3,9.8,8.4c1.4,3.2,2.1,5.9,2,8l-0.1,2
		c-0.3,7.5-4,12.7-11,15.7l-0.5,0c-2.5-0.3-3.8-0.8-3.7-1.6c0.1-1.2,1.9-2.9,5.6-5.2c2.6-2.4,4.1-5.7,4.2-10.1
		C442,404.2,439.2,399.4,433.5,394.8z"/>
</g>
<g>
	<path class="st0" d="M173.8,699.4c0-1.4-1.5-3.7-4.5-6.9c-3.3-3.4-4.9-5.1-4.9-5.2c-0.2-1-0.3-1.7-0.2-2.1c0-0.2,0.3-0.5,1-1l1,0
		c1.6,0,5,2.7,10.1,8c5.6-5.3,9.3-8.1,10.9-8.5l0.5,0.1l0.2-0.1c1.3,0,2.1,1.2,2.4,3.5c-0.5,1.2-3.8,4.3-10,9.4
		c-0.3,0-0.7,0.7-1.2,2l-0.2,8.7c0,0.7-0.7,1.3-1.9,1.9l-0.6,0l0-0.1l-0.2,0.1l-0.1,0c-1.5,0-2.2-1.8-2.1-5.2L173.8,699.4z"/>
	<path class="st0" d="M204.2,687.8l1.3,0.9c0.1-0.6,0.4-0.9,0.9-0.9l2.2,0.1c5.2,1.6,7.8,4.3,7.7,8.1l-0.1,4
		c-0.1,5.2-3.6,8.3-10.4,9.4c-7.9-2-11.7-5.6-11.6-10.9l0.1-2.7c0.1-4.3,3.1-7,9-8.1L204.2,687.8z M204,692.2
		c-3.2,0.9-4.9,2.5-5,4.7l0,0.4c-0.1,3.4,2.1,5.7,6.4,6.8l0.9,0c2.9,0.1,4.5-2.1,5-6.5C211.5,694.1,209,692.3,204,692.2z"/>
	<path class="st0" d="M235.5,705.7c2.4-0.7,3.7-3.1,3.8-7.3l-1.1-8.7c0.6-1.1,1.6-1.7,2.8-1.7c2.7,1.4,3.9,5,3.8,10.9
		c-1.3,8-4.6,12-9.8,11.9c-5.1-0.1-9-2.7-11.5-7.6c-0.1-0.8-0.2-1.5-0.3-2.1c-0.1-0.6-0.1-1-0.1-1.4c1.1-8.3,2.6-12.5,4.4-12.4
		l0.9,0c0.3,0,0.9,0.6,1.8,1.8l-2.1,10.3C227.9,703.5,230.4,705.5,235.5,705.7z"/>
	<path class="st0" d="M255.5,710.8c-1.7,0-3.2-7-4.6-21c0.5-1.2,1-1.8,1.4-1.8l0.9,0c1.4,0,2.4,3,3,8.9l0.5,0c2-4.6,5.1-6.8,9.4-6.7
		c1.2,0.5,1.8,1,1.8,1.4l0,1.9c0,0.7-1.7,1.6-5.2,2.7c-1.9,2-3.4,6.6-4.5,13.8l-1.4,0.9L255.5,710.8z"/>
	<path class="st0" d="M286,683.1c0.4-0.9,1.4-1.3,3.1-1.3l0.5,0c1.4,0.5,2,1.6,2,3.3c0,0.4-0.5,0.9-1.6,1.3l-2.6-0.1
		c-0.5,0-1-0.5-1.5-1.4L286,683.1z M287.9,690.5l1,0c2.7,0.1,4,5.8,3.7,17.1l0,0.8c0,0.4-0.7,0.9-2.1,1.5c-1.8,0-3-0.6-3.5-1.6
		c-0.5-8.6-0.7-14.2-0.6-17.1L287.9,690.5z"/>
	<path class="st0" d="M311.7,689.2l3.3,0.6l-0.4-2.4l0.1-3.4c0-0.4,0.5-0.9,1.5-1.4l1,0c2.2,0.1,3.3,8.6,3.2,25.5
		c-0.1,2.2-2,3.3-5.8,3.2c-0.2,1-1.5,1.4-3.9,1.3l-0.5,0c-6.4-0.2-10.4-3.6-12.2-10.4l0.1-2.4c0.2-6,4.1-9.5,11.8-10.7L311.7,689.2z
		 M311.7,693.9c-5.3,0.7-8.1,2.6-8.1,5.9l0,1.5c-0.1,3.5,2.5,5.6,7.8,6.3c2-0.8,3.4-1.6,4.3-2.4
		C315.8,698.7,314.5,694.9,311.7,693.9z"/>
	<path class="st0" d="M333,706.3l0,0.5c0,0.8,0.8,1.3,2.5,1.6c2,0.1,5.4-0.9,10.1-2.7l0.5,0c0.5,0,1,0.5,1.5,1.5l0,0.5
		c-1,4-4.7,5.9-11.1,5.7l-1.5,0c-6-1.5-8.9-4.9-8.7-10.2l0.1-3c1.3-6,3.8-8.9,7.7-8.8l1,0c6.6,0.7,9.9,3,9.8,6.8
		C341.2,703.7,337.3,706.5,333,706.3z M334.8,696.4c-2.3,0.8-3.6,2.7-3.6,5.9l0,0.5c5.7-1.3,8.6-2.9,8.6-4.8
		C337.1,697,335.5,696.4,334.8,696.4z"/>
	<path class="st0" d="M366.8,713.6l-1.8,0c-7.9-0.2-11.8-4.4-11.6-12.7c0.2-6.6,4.7-10.3,13.5-11.1c7.6,0.2,11.3,5.9,11,17.1l-0.1,4
		c-0.1,3.5-0.7,5.3-1.9,5.3l-0.4,0c-0.8,0-1.4-1.5-1.7-4.5l0-1.3l-0.4,0C371,712.5,368.8,713.7,366.8,713.6z M365.4,708.7
		c4.7-1.7,7.1-4.1,7.2-7.2c0.1-4-1.4-6.2-4.4-6.7l-2.1-0.1c-5,0.8-7.5,2.6-7.6,5.6c-0.1,5.2,2.1,7.9,6.8,8L365.4,708.7z"/>
	<path class="st0" d="M396,699.2c0-1.4,2.9-2.1,8.5-1.9l0.8,0c3.9,0.1,5.9,0.9,5.9,2.3l0,0.9c0,1.6-0.5,2.6-1.4,3
		c-9.2-0.9-13.8-1.8-13.8-2.9L396,699.2z"/>
	<path class="st0" d="M441.5,715.5l-1.8,0c-7.9-0.2-11.8-4.4-11.6-12.7c0.2-6.6,4.7-10.3,13.5-11.1c7.6,0.2,11.3,5.9,11,17.1l-0.1,4
		c-0.1,3.5-0.7,5.3-1.9,5.3l-0.4,0c-0.8,0-1.4-1.5-1.7-4.5l0-1.3l-0.4,0C445.6,714.5,443.4,715.6,441.5,715.5z M440,710.7
		c4.7-1.7,7.1-4.1,7.2-7.2c0.1-4-1.4-6.2-4.4-6.7l-2.1-0.1c-5,0.8-7.5,2.6-7.6,5.6c-0.1,5.2,2.1,7.9,6.8,8L440,710.7z"/>
	<path class="st0" d="M473.4,700.2l-0.6,0c-2.7-0.1-4.4,2-5.2,6.3c-0.2,6.1-1.5,9.1-4.1,9c-2.1-0.1-3.4-5.3-4.1-15.7l1.1-0.5l1.1,0
		l1.6,1.1c2.3-3.9,6.3-5.7,11.9-5.6c5,0.1,9.2,4.4,12.5,12.7l-0.1,2.7c-0.1,4.3-1.7,6.4-4.6,6.3c-1.5-0.8-2.2-1.7-2.2-2.7
		c0-0.4,0.1-1.1,0.2-2c0.1-1,0.3-2.3,0.5-3.9C481.6,704.2,478.9,701.6,473.4,700.2z"/>
</g>
<g>
	<path class="st0" d="M133.2,744.4c2.4-0.7,3.7-3.1,3.8-7.2l-1.1-8.7c0.7-1.1,1.6-1.7,2.8-1.6c2.7,1.4,3.9,5.1,3.7,10.9
		c-1.4,8-4.7,12-9.9,11.8c-5.1-0.2-9-2.7-11.5-7.7c-0.1-0.8-0.2-1.5-0.3-2.1c-0.1-0.6-0.1-1-0.1-1.4c1.2-8.3,2.7-12.5,4.5-12.4
		l0.9,0c0.3,0,0.9,0.6,1.8,1.8l-2.1,10.3C125.6,742.1,128.1,744.2,133.2,744.4z"/>
	<path class="st0" d="M162.7,733.6l-0.6,0c-2.7-0.1-4.5,2-5.2,6.3c-0.2,6.1-1.6,9.1-4.2,9c-2.1-0.1-3.4-5.3-4-15.7l1.1-0.5l1.1,0
		l1.6,1.1c2.3-3.9,6.3-5.7,11.9-5.5c5,0.2,9.2,4.4,12.5,12.8l-0.1,2.7c-0.1,4.3-1.7,6.4-4.7,6.3c-1.5-0.8-2.2-1.7-2.2-2.8
		c0-0.4,0.1-1.1,0.2-2c0.1-1,0.3-2.3,0.5-3.9C171,737.7,168.3,735.1,162.7,733.6z"/>
	<path class="st0" d="M186,750.5c-1.2-0.5-1.8-1.9-1.8-4.3l0.2-5.6l-0.8-18.3c0.5-1.2,1-1.8,1.4-1.8l1,0c1.9,0.1,2.9,3.5,3,10.4
		c3.7-2.7,6.9-4,9.5-3.9l0.9,0c4.9,0.2,7.9,4.1,9,12c-0.2,2.7-0.4,4.9-0.6,6.7c-0.1,1.7-0.2,2.9-0.2,3.6l-1.9,1.4l-2.3-0.1
		c-1.2-0.7-1.8-1.6-1.8-2.9c0.4-3,0.7-5.5,0.9-7.2c0.2-1.8,0.3-2.9,0.3-3.5c-0.8-3.5-2-5.2-3.6-5.3c-5.3-0.2-8.5,3.5-9.7,10.9
		l-0.2,6.1c0,0.5-0.7,1.1-1.9,1.8L186,750.5z"/>
	<path class="st0" d="M226.8,751.8l-1.8-0.1c-7.9-0.2-11.8-4.5-11.5-12.7c0.2-6.6,4.7-10.3,13.6-11.1c7.6,0.2,11.3,5.9,11,17.1
		l-0.1,4c-0.1,3.5-0.7,5.3-1.9,5.2l-0.4,0c-0.8,0-1.4-1.5-1.6-4.5l0-1.3l-0.4,0C231,750.7,228.7,751.8,226.8,751.8z M225.4,746.9
		c4.7-1.7,7.2-4.1,7.3-7.2c0.1-4-1.3-6.2-4.4-6.8l-2-0.1c-5,0.8-7.5,2.6-7.6,5.6c-0.2,5.2,2.1,7.9,6.8,8.1L225.4,746.9z"/>
	<path class="st0" d="M244.4,733.4c0-1.2,2-1.8,6-1.8l0.2-5.1c0-0.4,0.4-0.8,1.2-1.2l0.8,0c1.8,1.1,2.7,3.2,2.6,6.4l4.8,0.1
		c2.6,0.1,3.9,1.2,3.9,3.3c0,1.4-1,2.3-2.9,2.7c-2.7-0.6-4.5-0.9-5.5-1l0,0.4c0.4,4,0.7,7.1,0.9,9.4c0.2,2.3,0.3,3.8,0.3,4.5
		c0,0.7-1,1.2-2.8,1.5c-1.9-0.1-3.1-5.4-3.5-16l-0.8,0c-3-0.1-4.7-0.8-5.1-2.1L244.4,733.4z"/>
	<path class="st0" d="M282.5,748.8c1.7-0.2,3.1-0.3,4.3-0.3l1,0c0.4,0,0.9,0.5,1.4,1.3l-0.1,1.7c0,0.9-1.5,1.5-4.3,2l-3.8-0.1
		c-5.5-0.2-8.8-4.4-10-12.8c1.8-6.3,4.7-9.3,8.8-9.2l5.2,0.2c0.4,0,1.2,0.8,2.3,2.2l0,0.4c0,1-2.7,1.8-8.1,2.3
		c-1.6,2.1-2.5,3.7-2.5,4.7C277.4,746.2,279.4,748.7,282.5,748.8z"/>
	<path class="st0" d="M298.4,753.9c-1.2-0.5-1.8-1.9-1.8-4.3l0.2-5.6l-0.8-18.3c0.5-1.2,1-1.8,1.4-1.8l1,0c1.9,0.1,2.9,3.5,3,10.4
		c3.7-2.7,6.9-4,9.5-3.9l0.9,0c4.9,0.2,7.9,4.1,9,12c-0.2,2.7-0.4,4.9-0.6,6.7c-0.1,1.7-0.2,2.9-0.2,3.6l-1.9,1.4l-2.3-0.1
		c-1.2-0.7-1.8-1.6-1.8-2.9c0.4-3,0.7-5.5,0.9-7.2c0.2-1.8,0.3-2.9,0.3-3.5c-0.8-3.5-2-5.2-3.6-5.3c-5.3-0.2-8.5,3.5-9.7,10.9
		l-0.2,6.1c0,0.5-0.7,1.1-1.9,1.8L298.4,753.9z"/>
	<path class="st0" d="M333,748.6l0,0.5c0,0.8,0.8,1.3,2.4,1.6c2,0.1,5.4-0.8,10.1-2.7l0.5,0c0.5,0,1,0.5,1.4,1.5l0,0.5
		c-1,4-4.8,5.9-11.2,5.7l-1.5,0c-5.9-1.5-8.8-5-8.7-10.3l0.1-3c1.3-6,3.9-8.9,7.8-8.8l1,0c6.6,0.8,9.9,3,9.8,6.8
		C341.1,746.1,337.2,748.8,333,748.6z M334.8,738.7c-2.4,0.7-3.6,2.7-3.7,5.9l0,0.5c5.7-1.3,8.6-2.8,8.6-4.7
		C337.1,739.3,335.5,738.7,334.8,738.7z"/>
	<path class="st0" d="M367.5,733.1l3.3,0.6l-0.4-2.4l0.1-3.4c0-0.4,0.5-0.9,1.5-1.4l1,0c2.2,0.1,3.2,8.6,3.1,25.5
		c-0.1,2.2-2,3.3-5.9,3.2c-0.2,1-1.5,1.4-3.9,1.3l-0.5,0c-6.4-0.2-10.4-3.7-12.1-10.4l0.1-2.4c0.2-6,4.1-9.5,11.8-10.7L367.5,733.1z
		 M367.5,737.8c-5.3,0.7-8.1,2.6-8.2,5.8l0,1.5c-0.1,3.5,2.5,5.6,7.8,6.3c2-0.8,3.4-1.6,4.3-2.4
		C371.6,742.6,370.3,738.9,367.5,737.8z"/>
	<path class="st0" d="M401.1,750.7l0,0.5c0,0.8,0.8,1.3,2.4,1.6c2,0.1,5.4-0.8,10.1-2.7l0.5,0c0.5,0,1,0.5,1.4,1.5l0,0.5
		c-1,4-4.8,5.9-11.2,5.7l-1.5,0c-5.9-1.5-8.8-5-8.7-10.3l0.1-3c1.3-6,3.9-8.9,7.8-8.8l1,0c6.6,0.8,9.9,3,9.8,6.8
		C409.3,748.1,405.4,750.8,401.1,750.7z M402.9,740.8c-2.4,0.7-3.6,2.7-3.7,5.9l0,0.5c5.7-1.3,8.6-2.8,8.6-4.7
		C405.3,741.4,403.6,740.8,402.9,740.8z"/>
	<path class="st0" d="M429.2,765.5c0-0.5,1.8-1.7,5.5-3.6c1.7-1.8,2.6-4.4,2.7-8l-0.4,0c-2,1.6-4.1,2.4-6.3,2.3
		c-6.6-1.6-9.8-4.8-9.7-9.6l0-1.3c0.1-3.8,3.5-7.1,10.3-9.8c1.5-0.2,2.3-0.3,2.5-0.3c4.3,0.1,7.1,5.2,8.3,15.1l-0.2,5.9
		c-1.6,9-5.2,13.4-10.8,13.2c-1.2-0.6-1.9-1.2-2-1.7L429.2,765.5z M436.4,746.9c0-0.8-0.5-3.3-1.6-7.5c-5.8,1.8-8.8,4.2-8.9,7.2
		l0,0.5c-0.1,2.7,1.8,4.3,5.8,4.8C434.1,751.9,435.7,750.3,436.4,746.9z"/>
	<path class="st0" d="M455.1,766.3c0-0.5,1.8-1.7,5.5-3.6c1.7-1.8,2.6-4.4,2.7-8l-0.4,0c-2,1.6-4.1,2.4-6.3,2.3
		c-6.6-1.6-9.8-4.8-9.7-9.6l0-1.3c0.1-3.8,3.5-7.1,10.3-9.8c1.5-0.2,2.3-0.3,2.5-0.3c4.3,0.1,7.1,5.2,8.3,15.1l-0.2,5.9
		c-1.6,9-5.2,13.4-10.8,13.2c-1.2-0.6-1.9-1.2-2-1.7L455.1,766.3z M462.3,747.7c0-0.8-0.5-3.3-1.6-7.5c-5.8,1.8-8.8,4.2-8.9,7.2
		l0,0.5c-0.1,2.7,1.8,4.3,5.8,4.8C460,752.7,461.6,751,462.3,747.7z"/>
	<path class="st0" d="M474,753.6c0-1.5,1.1-2.3,3.2-2.6l0.3,0c2.3,0.1,3.4,1.7,3.3,4.9c-0.7,1.8-1.8,2.7-3.5,2.6
		C475.3,758.5,474.2,756.8,474,753.6z"/>
</g>
<g>
	<path class="st0" d="M114.2,155.1v-0.7c0.2-0.8,0.9-1.9,2.2-3.2c1.4-1.1,2.7-1.7,4.1-1.7c0.1,0.1,0.2,0.1,0.4,0.1h0.2
		c0.1,0,0.3,0,0.4-0.1c2.5,0.4,4.4,0.9,5.9,1.7c2.2,1.3,3.3,3.1,3.3,5.4c0,4.1-2.6,7.9-7.9,11.2l-0.9,1.2v0.2h6.7
		c2.1,0,3.2,0.8,3.2,2.5c0,0.6-0.7,1.3-2.2,2.1c-0.1,0-0.3,0-0.6-0.1c-0.1,0-0.2,0-0.3,0.1l-7.8-0.6l-3.2,0.6
		c-0.1-0.1-0.2-0.1-0.4-0.1h-0.2c-0.1,0-0.3,0-0.4,0.1c-1.3-0.5-2-1.3-2-2.4c0.2-1.5,2-4,5.5-7.4c2.9-2.5,4.3-3.8,4.3-4.1
		c0.7-1.5,1.1-2.7,1.2-3.5c0-1.3-1.1-2.2-3.3-2.8c-0.3-0.1-0.7-0.1-1-0.1c-0.3,0-0.7,0-1,0h-0.1c-2,2-3.4,3-4.2,3
		c-0.2-0.1-0.3-0.1-0.3-0.2l-0.5,0.1H115C114.5,155.9,114.2,155.5,114.2,155.1z"/>
</g>
<g>
	<g>
		<path class="st0" d="M119.2,662c-1.1,0.9-1.9,1.4-2.4,1.7c-0.3-0.1-0.5-0.2-0.6-0.2l-0.4,0.2c-0.9-0.3-1.4-0.7-1.4-1.2v-0.6
			c0.3-0.9,2.3-2.9,6-5.9h2.3c0.9,0,1.5,1.3,1.8,3.9c0,0.2,0,0.4,0.1,0.7c-0.2,1.8-0.3,3.5-0.4,5.2c-0.1,1.7-0.2,3.3-0.3,4.9
			c0.2,3.4,0.3,6.3,0.3,8.9v0.2c0,0.1-0.5,0.4-1.4,1.1h-2c-0.9,0-1.4-0.8-1.7-2.3c-0.2-1.4-0.3-3.4-0.3-5.9v-1.3
			C118.9,668.6,119,665.5,119.2,662z"/>
	</g>
	<g>
		<g>
			<path class="st0" d="M123.7,643c-6.2-3.5-13.9-2.2-19.4,2c-5.9,4.6-8.6,11.9-9.4,19.1c-0.4,3.8-0.3,7.7,0.5,11.4
				c0.9,3.9,2.9,7.4,5.5,10.5c2.4,2.8,5.3,5.3,8.3,7.5c3,2.2,6.4,4.2,10,5.2c15.2,4.1,25.9-10.4,29.8-23.2
				c2.1-6.9,2.9-14.9,0.1-21.8c-2.6-6.5-7.7-11.2-14.3-13.6c-6.2-2.2-13.3-1.6-19,1.8c-5.6,3.4-9.9,9.4-11.1,15.9
				c-0.3,1.7-0.5,3.4-0.4,5.1c0.1,3.8,6.1,3.9,6,0c-0.2-5.2,2-10.2,5.9-13.8c1.8-1.6,4-2.9,6.3-3.6c0.6-0.2,1.1-0.3,1.7-0.4
				c0.7-0.1,0.8-0.2,1.6-0.2c1.2-0.1,2.9,0,3.7,0.1c2.7,0.4,4.9,1.2,7.1,2.6c2,1.2,3.9,2.9,5.2,4.8c3.2,4.9,3.7,11,2.7,16.7
				c-1.1,5.9-3.3,11.4-6.8,16.3c-1.5,2.1-3.5,4.2-5.5,5.5c-2.2,1.5-4.5,2.4-7,2.5c-6.1,0.3-11.5-3.5-15.8-7.3
				c-2.3-2-4.6-4.2-6.2-6.8c-1.6-2.6-2.4-5.7-2.5-8.7c-0.4-6.3,0.8-13.7,5.1-18.6c3.8-4.3,10-6.3,14.9-3.6
				C124.1,650.1,127.1,644.9,123.7,643L123.7,643z"/>
		</g>
	</g>
</g>
<g>
	<g>
		<path class="st0" d="M129.5,135.2c-7,0.3-14.2,0.5-20.8,3c-5.7,2.1-11,5.9-14.1,11.2c-3.4,5.8-3.2,12.7-0.2,18.6
			c2.9,5.9,8.4,10.2,14,13.3c5.8,3.2,12.2,5.9,19,5.5c5.9-0.4,11.4-2.6,16-6.3c9.3-7.5,11.6-20.6,6.8-31.3
			c-2.7-6.1-7.8-10.8-13.8-13.5c-6.6-2.9-13.8-3.9-21-4.4c-1.6-0.1-3,1.5-3,3c0,1.7,1.4,2.9,3,3c9.7,0.7,21.5,2.4,27.4,10.9
			c5.3,7.6,5.4,18.3-0.7,25.3c-3.1,3.5-7,5.8-11.5,6.9c-2.2,0.5-4.3,0.7-6.7,0.4c-2.3-0.2-5.5-1.3-7.9-2.4c-5.2-2.3-10.3-5.2-14-9.7
			c-3.3-3.9-4.8-9.2-3.2-13.9c1.6-4.8,6-8.5,10.7-10.5c6.3-2.7,13.3-2.8,20-3.1c1.6-0.1,3-1.3,3-3
			C132.5,136.6,131.1,135.1,129.5,135.2L129.5,135.2z"/>
	</g>
</g>
</svg>
