<?xml version="1.0" encoding="utf-8"?>
<!-- Generator: Adobe Illustrator 26.5.0, SVG Export Plug-In . SVG Version: 6.00 Build 0)  -->
<svg version="1.1" id="Layer_1" xmlns="http://www.w3.org/2000/svg" xmlns:xlink="http://www.w3.org/1999/xlink" x="0px" y="0px"
	 viewBox="0 0 1080 1080" style="enable-background:new 0 0 1080 1080;" xml:space="preserve">
<style type="text/css">
	.st0{fill:#F7F6F1;}
	.st1{fill:#191919;}
	.st2{fill:#8731EA;}
	.st3{fill:#D642BC;}
	.st4{fill:#FF9772;}
	.st5{fill:#FFDC78;}
</style>
<g>
	<path class="st0" d="M827.3,832.1c-21.3-8.7-38.2-25.4-54.1-42.1c-1-6-1.7-10.3-1.6-11.3c0.1-1.5,0-3.1-0.4-4.5
		c-1.1-3.8-4.5-6.5-8.3-7.6c-3.8-1.1-7.8-0.8-11.6,0c-10.6,2.2-20.8,9-24.3,19.2l-3,7.3c-0.6,1.8-1.3,3.6-1.9,5.4
		c-2.2,6.1-4.3,13.2-0.9,18.7c3.2,5.1,10.3,6.6,16.1,4.9c4.2-1.2,1.6,22.6,1.4,34.2c-0.9,0.1-1.8,0.3-2.7,0.5
		c-15.3,3.7-26.3,17.7-30.9,32.7c-4.6,15-3.8,31.1-2.9,46.8l0.5,6.4c-0.8,2.4-1.5,4.8-2.3,7.2c12.3,4.8,24.7,9.6,37.6,12
		c13,2.4,26.7,2.3,39-2.6c21.5-8.6,35-30.5,41.2-52.8c6.2-22.3,6.5-45.7,10.1-68.6L827.3,832.1z"/>
	<g>
		<path class="st1" d="M543.6,810.7c14.1-29.4,28.8-58.6,44-87.5c4.3-8.1,8.5-16.2,12.9-24.2c2.6-4.9,3.6-10.7,2.1-16.2
			c-0.6-2.7-1.9-5.1-3.8-7.1c-1.5-2.3-3.4-4.1-5.9-5.4c-4.9-2.6-10.8-3.9-16.2-2.1c-5.1,1.7-9.9,4.8-12.6,9.7
			c-15.5,28.7-30.4,57.8-44.9,87.1c-4,8.2-8,16.4-12,24.7c-1.5,2.4-2.4,5-2.5,7.8c-0.6,2.8-0.5,5.6,0.4,8.4c0.6,2.7,1.9,5.1,3.8,7.1
			c1.5,2.3,3.4,4.1,5.9,5.4c4.9,2.6,10.8,3.9,16.2,2.1C536,818.8,541.3,815.6,543.6,810.7L543.6,810.7z"/>
	</g>
	<path class="st0" d="M543,821.7c-7-17.8-26.5-29.8-45.5-28.2c-2.6,0.2-5.4,0.8-7.1,2.7c-1.9,2.1-2.1,5.2-1.7,7.9
		c0.5,3.5,1.9,6.9,3.9,9.8L471,833c0.2-17.6,0.6-14.8-9.2-29.3c-3.9-5.7-9.1-10.5-14.5-14.7c-7.5-6-15.8-11.2-24.9-14.3
		c-23.5-7.9-51.6,1.5-65.6,21.9c0.6-0.1,1.2-0.1,1.8-0.2c-9.7,12.9-21.9,30.3-20.3,45.4c0.8,7.9,4.3,15.1,8.3,22
		c5.2,8.8,11.3,17.2,19.3,23.6c8,6.4,18,10.5,28.2,10.1l8.6,2.5c13.7,9,27.4,18.1,41.1,27.1c4.2,2.8,8.5,5.6,13.4,7.1
		c9.3,2.8,19.9,0,27.2-6.4c7.2-6.3,22.5-17.4,23.7-27c0.2,0,0.3-0.1,0.5-0.2c1.1-0.4,1.9-1.3,2.7-2.1c7.1-8.1,8.1-19.7,9.2-30.4
		c1.1-10.7,2.9-22.4,10.9-29.6l-3.1-2.5c1.8,0.1,3.6,0.2,5.3,0.1c3.9-0.2,8.3-1.4,10.1-4.9C545,828.1,544.2,824.6,543,821.7z"/>
	<path class="st0" d="M173.4,357c-1.8-2.2-3.5-4.8-3.3-7.7s3-5.6,5.7-4.8l7.1,2.7c-1.9-2-3.6-4.2-5.2-6.3c-1.5-1.9-3-4-3.3-6.4
		c-0.7-4.8,3.7-9,8.4-10c4.7-1,9.5,0.3,14.1,1.7l2.4,1.3c0.4-0.3,0.8-0.5,1.2-0.7c10-4.8,21.6-5,32.6-6.4c0.3,0,0.5-0.1,0.8-0.1
		l-51,2.7c-0.5-1.7-1.3-3.2-2.4-4.6l-2-4.5c-6.7-8.3-13.4-16.5-20-24.8c-2.6-3.2-5.2-6.4-6.9-10.1c-1.7-3.7-2.6-8-1.5-12
		c0.4-1.5,1.2-2.9,2.5-3.7c0.9-0.5,2.1-1,3.5-1.3c2.7-0.7,5.5,0.1,7.4,2.1c6.3,6.4,26.9,27.3,33.4,34.1c1.7,1.8,3.5,3.7,5.8,4.7
		c2.3,1,5.3,0.9,7-1c-2.7-17.6-10.4-34.5-10.9-52.3c-0.1-3.2,0-6.5,1.3-9.4c1.2-3,3.7-5.5,6.8-6.2c3.3-0.7,6.7,1,9,3.4
		c2.3,2.4,3.8,5.5,5.1,8.6c4,9.1,7.7,18.4,9.9,28.1c1.2,5.2,1.9,10.4,3,15.6c2.5,11.1,7.1,22,15.3,29.8l-6,0.3
		c2.1,0.1,4.3,0.4,6.3,0.9c11.1,3,18.6,14.1,20.1,25.5s-2.1,22.8-7.3,33.1l-8.7,20L231,403l-37.6-19.6l-12.8-18.3"/>
	<g>
		<g>
			<path class="st1" d="M188.6,321.3c-0.5-1.7-1.2-3.4-2.2-5c-0.4-0.6-0.7-1.1-1-1.7c-0.5-1.2-1-2.5-1.6-3.7
				c-0.6-1.2-1.7-2.3-2.6-3.3c-1-1.3-2.1-2.6-3.1-3.9c-2.1-2.6-4.2-5.2-6.3-7.8c-2-2.5-4-4.9-5.9-7.4c-1-1.3-2.1-2.6-3.1-3.9
				c-0.4-0.5-0.7-0.9-1.1-1.4c-0.3-0.3-0.6-0.7-0.8-1c0.1,0.2,0.3,0.3,0.4,0.5c-0.2-0.2-0.4-0.5-0.5-0.7c-0.8-1.1-1.5-2.1-2.2-3.3
				c-0.4-0.6-0.8-1.3-1.1-1.9c-0.1-0.3-0.3-0.5-0.4-0.8c-0.1-0.3-0.3-0.5-0.4-0.8c0.1,0.2,0.2,0.4,0.3,0.6c-0.4-0.6-0.5-1.4-0.7-2.1
				c-0.1-0.4-0.6-1.7-0.5-2.2c0,0.1,0.1,1.5,0,0.3c0-0.4-0.1-0.7-0.1-1.1c0-0.4,0-0.7,0-1.1c0-0.2,0-0.4,0.1-0.7
				c0-0.5,0-0.3-0.1,0.5c0.1-0.1,0.4-2.1,0.5-2c-0.1,0.1-0.1,0.2-0.2,0.4c-0.2,0.5-0.2,0.5,0,0c0.1-0.1,0.1-0.2,0.2-0.3
				c-0.2,0.2-0.3,0.4-0.5,0.6c0.9-0.9-1.2,0.5-0.1,0c0.2-0.1,0.5-0.2,0.6-0.3c-0.9,0.7-0.7,0.3-0.1,0.1c0.4-0.1,0.8-0.3,1.3-0.4
				c0.7-0.2,1,0.1-0.2,0c0.2,0,0.5,0,0.8,0c0.1,0,0.3,0,0.4,0c0.5,0,0.5,0,0,0c-0.1,0-0.3,0-0.4,0c0.2,0.1,0.5,0.1,0.7,0.2
				c1.1,0.2-0.4,0-0.4-0.2c0,0,1,0.5,1,0.6c0,0.1-1.1-1-0.3-0.2c0.2,0.2,0.3,0.3,0.5,0.5c2.1,2.1,4.1,4.2,6.1,6.2
				c5.8,5.9,11.6,11.8,17.4,17.8c2.4,2.5,4.9,5,7.3,7.5c3.4,3.5,6.6,7.3,11.4,8.8c3.3,1,7.4,0.7,10.3-1.3c1.1-0.8,2.1-1.6,2.8-2.7
				c1.1-1.7,0.8-3.6,0.5-5.5c-0.2-1.5-0.5-3-0.8-4.5c-1.2-5.8-2.8-11.6-4.4-17.4c-1.6-5.8-3.2-11.6-4.2-17.6c-0.1-0.7-0.2-1.3-0.3-2
				c-0.1-0.4-0.1-0.7-0.2-1.1c0-0.1,0-0.2,0-0.2c-0.1-0.7-0.1-0.6,0,0.2c0.2-0.5-0.2-1.6-0.2-2c-0.1-0.8-0.2-1.7-0.2-2.5
				c-0.1-1.4-0.2-2.8-0.2-4.3c0-0.7,0-1.3,0.1-2c0-0.4,0.1-0.7,0.1-1.1c0-0.5,0-0.3-0.1,0.5c0-0.3,0.1-0.6,0.1-0.9
				c0.1-0.6,0.3-1.1,0.4-1.7c0-0.1,0.1-0.3,0.1-0.4c0.2-0.6,0.2-0.5-0.2,0.3c0,0,0.4-0.7,0.3-0.7c0.1-0.3,0.3-0.5,0.5-0.8
				c0.6-0.9,0.3,0.1-0.2,0.2c0.3,0,1-1.1,1.3-1.3c0.9-0.9-1.2,0.6,0,0.1c0.2-0.1,0.4-0.2,0.6-0.4c0.9-0.5-0.3,0.2-0.4,0.2
				c0,0,1.1-0.3,1.1-0.3c-0.1,0.1-1.5,0.1-0.5,0.1c0.2,0,0.5,0,0.8,0c1.3,0-1.3-0.4-0.1,0c0.1,0,1.1,0.3,1.1,0.3
				c-0.1,0.2-1.2-0.6-0.4-0.1c0.3,0.2,0.6,0.3,0.9,0.5c0.1,0.1,0.8,0.5,0.8,0.5c0,0.1-1-0.9-0.3-0.2c0.5,0.5,0.9,0.9,1.4,1.4
				c0.8,0.8-0.1-0.2-0.2-0.2c0.3,0.2,0.6,0.9,0.8,1.2c1.5,2.4,2.6,5,3.7,7.5c0.3,0.7,0.6,1.4,0.9,2.2c0.1,0.3,0.5,1.1-0.1-0.1
				c0.2,0.4,0.3,0.7,0.5,1.1c0.6,1.5,1.2,2.9,1.8,4.4c1.1,2.9,2.1,5.8,3.1,8.7c1.9,5.9,3,12,4.2,18.1c2,11.3,5.4,22.6,12.3,31.9
				c1.8,2.4,3.6,4.7,5.8,6.7c2.2,2.2,6.3,2.4,8.5,0c2.2-2.4,2.4-6.1,0-8.5c-1-1-1.9-1.9-2.8-3c-0.4-0.5-0.8-0.9-1.2-1.4
				c-0.6-0.7,0.9,1.2,0.1,0.1c-0.2-0.3-0.5-0.7-0.7-1c-1.6-2.2-2.9-4.6-4.1-7c-0.2-0.5-0.5-1-0.7-1.5c-0.2-0.4-0.3-0.7-0.5-1.1
				c-0.2-0.4-0.6-0.8,0.1,0.3c-0.7-1.1-1-2.6-1.5-3.8c-0.9-2.6-1.6-5.2-2.3-7.9c-1.4-6.1-2.2-12.4-3.7-18.5
				c-1.5-6-3.6-11.9-5.9-17.7c-1.3-3.2-2.6-6.4-4-9.5c-1.1-2.5-2.2-5-3.9-7.2c-4.1-5.6-11.2-10-18.4-7.4
				c-14.3,5.2-11.8,23.5-9.6,35.3c2.5,13.4,7.4,26.2,9.5,39.7c0.5-1.9,1-3.9,1.5-5.8c-0.9,0.9,1.2-0.7,0.1-0.1
				c-0.9,0.5,0.4-0.2,0.5-0.2c-0.1,0-0.2,0.1-0.3,0.1c-0.6,0.1-0.5,0.1,0.5,0c-0.1,0-0.7,0-0.7,0c-1.3,0,1.4,0.4,0.2,0
				c-0.2-0.1-0.5-0.1-0.7-0.2c-1.2-0.3,1.1,0.7,0,0c-0.3-0.2-0.7-0.4-1.1-0.6c-1.1-0.7,0.7,0.6,0.1,0.1c-0.2-0.2-0.5-0.5-0.8-0.7
				c-0.5-0.5-1-1-1.5-1.5c-0.5-0.6-1.1-1.1-1.6-1.7c-2.4-2.5-4.8-5-7.3-7.5c-6-6.2-12.1-12.3-18.1-18.5c-2.2-2.3-4.4-4.5-6.7-6.8
				c-2.6-2.6-5.9-4.1-9.6-4.4c-1.7-0.1-3.5,0.3-5.2,0.8c-2,0.7-4.2,1.6-5.7,3.2c-5.6,5.8-4.3,15.1-1.3,21.8c2.7,6,7.4,11,11.5,16
				c4.8,5.9,9.6,11.9,14.4,17.8c0.6,0.8,1.2,1.6,1.9,2.3c-0.9-0.9-0.7-1-0.4-0.4c0.3,0.8,0.7,1.6,1,2.4c0.2,0.6,0.4,1.2,0.7,1.7
				c0.4,0.6,0.8,1.2,1.2,1.8c0.1,0.1,0.4,0.8,0.4,0.8c-0.3-0.8-0.3-0.9-0.1-0.2c0.1,0.3,0.2,0.5,0.3,0.8c0.9,3,4.2,5.2,7.4,4.2
				C187.4,327.7,189.6,324.5,188.6,321.3L188.6,321.3z"/>
		</g>
	</g>
	<g>
		<path class="st1" d="M375.4,491.1c-8.6-0.1-17.2-0.3-25.8-1.5c1.9,0.3,3.7,0.5,5.6,0.8c-6.9-0.9-13.7-2.5-20.1-5.2
			c1.7,0.7,3.3,1.4,5,2.1c-4.5-1.9-8.7-4.4-12.6-7.4c1.4,1.1,2.8,2.2,4.3,3.3c-7.1-5.5-13.6-11.8-20.3-17.8
			c-1.9-1.7-3.7-3.4-5.4-5.2c-1.4-1.5-3-2.8-4.2-4.4c1.1,1.4,2.2,2.8,3.3,4.3c-0.9-1.2-1.6-2.5-2.2-3.8c0.7,1.7,1.4,3.3,2.1,5
			c-1.3-3.2-2.2-6.6-3.6-9.8c-2-4.9-4.1-9.7-6.7-14.3c-3.5-6.3-7.5-12.4-11.1-18.7c-2-3.6-3.9-7.2-5.5-11c0.7,1.7,1.4,3.3,2.1,5
			c-1.5-3.5-2.7-7.2-3.5-10.9c-0.6-2.7-1.9-5.1-3.8-7.1c-1.5-2.3-3.4-4.1-5.9-5.4c-2.4-1.5-5-2.4-7.8-2.5c-2.8-0.6-5.6-0.5-8.4,0.4
			c-5.1,1.6-10,4.8-12.6,9.7c-0.7,1.7-1.4,3.3-2.1,5c-1,3.7-1,7.4,0,11.2c0.7,3.6,1.9,7,3.2,10.4c2,4.9,4.1,9.7,6.6,14.3
			c3.5,6.4,7.5,12.5,11.1,18.8c2,3.6,4,7.3,5.6,11.1c-0.7-1.7-1.4-3.3-2.1-5c0.8,1.8,1.4,3.7,2.1,5.5c1.1,3.4,2.4,6.6,3.9,9.8
			c0.4,0.8,0.7,1.6,1.2,2.3c0.2,0.4,0.5,0.7,0.7,1.1c1.3,1.7,2.5,3.5,4,5.1c0.6,0.7,1.4,1.3,2.1,2c1.3,1.3,2.5,2.7,3.8,4
			c3.4,3.3,7.2,6.4,10.8,9.6c3.4,3.1,6.8,6.2,10.3,9.1c4.6,3.8,9.4,7.6,14.7,10.5c3.3,1.8,6.8,3.2,10.3,4.6c1.8,0.8,3.7,1.4,5.6,2
			c3.9,1.2,7.9,2.1,12,2.7c11.1,1.7,22.1,2.3,33.2,2.5c2.9,0.1,5.6-0.5,8.1-1.8c2.6-0.8,4.9-2.3,6.8-4.3c2-1.9,3.5-4.2,4.3-6.8
			c1.3-2.5,1.9-5.2,1.8-8.1c-0.2-5.4-2-11.1-6.2-14.8C386.1,493.4,381.1,491.1,375.4,491.1L375.4,491.1z"/>
	</g>
	<g>
		<path class="st0" d="M272.9,373.2c3.4-1,6.8,2.4,7.1,5.9s-1.5,6.8-3.5,9.7c-11.2,16.2-31.7,26.1-51.2,23.2
			c-1.7-0.3-3.6-0.6-4.9-1.8c-2.9-2.4-2.6-6.9-1.9-10.6"/>
		<g>
			<path class="st1" d="M274.5,379c1.2-0.3-1.5,0-0.2,0.1c-0.3,0-0.6-0.1-0.9-0.1c0.2,0,0.4,0.1,0.6,0.2c-0.3-0.1-0.5-0.2-0.8-0.4
				c0.2,0.1,0.4,0.2,0.6,0.3c1,0.5-0.9-1-0.1-0.1c0.1,0.1,0.3,0.4,0.5,0.5c-0.2-0.2-0.3-0.4-0.5-0.6c0.1,0.2,0.3,0.4,0.4,0.6
				c0.7,1-0.3-1.3,0-0.1c0.4,1.7,0.1-1,0.1,0.2c0,0.3,0,0.6,0,0.8c0,1.4,0.4-1.3,0,0c-0.1,0.4-0.2,0.8-0.3,1.2
				c0,0.1-0.1,0.3-0.1,0.4c-0.2,0.6-0.2,0.5,0.1-0.3c-0.1,0.6-0.7,1.4-1,1.9c-0.5,0.8-1,1.7-1.6,2.5c-0.2,0.3-1.1,1.2-1.1,1.5
				c0.2-0.2,0.3-0.4,0.5-0.6c-0.2,0.2-0.3,0.4-0.5,0.6c-0.2,0.3-0.5,0.6-0.7,0.9c-1,1.2-2,2.3-3.1,3.3c-1,1-2,1.9-3,2.8
				c-0.6,0.5-1.2,1-1.7,1.5c-0.2,0.2-0.4,0.3-0.6,0.5c1.4-1.2,0,0-0.3,0.2c-2.3,1.7-4.8,3.2-7.4,4.6c-0.7,0.3-1.3,0.7-2,1
				c-0.3,0.1-0.6,0.3-0.9,0.4c-0.5,0.2-1.2,0.2,0.2-0.1c-1.4,0.3-2.8,1.1-4.2,1.6c-2.8,0.9-5.7,1.5-8.6,2c-0.9,0.1,1.6-0.2,0.3,0
				c-0.4,0-0.7,0.1-1.1,0.1c-0.7,0.1-1.5,0.1-2.2,0.2c-1.5,0.1-3,0.1-4.5,0c-0.7,0-1.5-0.1-2.2-0.1c-0.4,0-0.7-0.1-1.1-0.1
				c-0.7-0.1-0.5-0.1,0.5,0.1c-0.3,0-0.5-0.1-0.8-0.1c-0.3,0-2.4-0.3-2.4-0.6c0.2,0.1,0.5,0.2,0.7,0.3c-0.2-0.1-0.5-0.2-0.7-0.4
				c-0.6-0.4-0.5-0.3,0.3,0.2c-0.2-0.2-0.3-0.3-0.5-0.5c0.2,0.1,0.7,1.2,0.4,0.4c-0.7-1.5,0.2,1,0-0.1c-0.1-0.2-0.1-0.8-0.2-1
				c0.1,1,0.1,1.2,0.1,0.6c0-0.2,0-0.3,0-0.5c0-0.8,0-1.5,0.1-2.3c0-0.3,0.1-0.7,0.1-1.1c0,1.8,0,0.4,0-0.1c0.3-1.6,0.3-3.1-0.6-4.6
				c-0.7-1.2-2.2-2.4-3.6-2.8c-2.9-0.7-6.8,0.9-7.4,4.2c-0.7,4.4-1.1,8.7,0.8,12.9c2,4.4,6.5,6.4,11,7c7.6,1,15.3,0.6,22.7-1.5
				c14.2-3.9,27.2-13.2,35.2-25.7c2.8-4.3,4.8-10,2.9-15c-2.1-5.8-7.8-9.9-14.1-8.4c-3.1,0.7-5.2,4.4-4.2,7.4
				C268.1,378,271.2,379.8,274.5,379L274.5,379z"/>
		</g>
	</g>
	<g>
		<path class="st0" d="M233.5,398.3c-10.4,2.3-21.8,0-30.5-6.1c-6.1-4.3-10.9-10.2-15.5-16c-2.4-3-4.4-8-6.8-11"/>
		<g>
			<path class="st1" d="M231.9,392.5c-0.5,0.1-1.1,0.2-1.6,0.3c-0.3,0-0.6,0.1-0.8,0.1c0,0,1.3-0.1,0.6-0.1
				c-1.1,0.1-2.2,0.2-3.3,0.3c-2.1,0.1-4.2-0.2-6.4-0.3c1.7,0.1,0,0-0.4-0.1c-0.5-0.1-1.1-0.2-1.6-0.3c-1.1-0.2-2.1-0.5-3.2-0.8
				c-0.9-0.3-1.8-0.6-2.7-0.9c-0.2-0.1-0.5-0.2-0.8-0.3c1.2,0.7,0.6,0.3,0.3,0.1c-0.6-0.3-1.1-0.5-1.7-0.8c-1.9-1-3.7-2.1-5.4-3.4
				c-0.7-0.5,0.1-0.2,0.2,0.2c0-0.1-0.4-0.3-0.5-0.4c-0.4-0.4-0.9-0.7-1.3-1.1c-0.9-0.8-1.7-1.5-2.5-2.4c-3.2-3.2-6-6.6-8.8-10.1
				c-0.2-0.2-0.8-0.8-0.1-0.2c0.7,0.6,0,0-0.1-0.3c-0.3-0.5-0.6-0.9-0.9-1.4c-0.6-1-1.1-2-1.7-3c-1.3-2.4-2.7-4.6-4.3-6.7
				c-0.9-1.1-2.9-1.8-4.2-1.8c-1.5,0-3.2,0.7-4.2,1.8c-1,1.1-1.8,2.6-1.8,4.2c0.1,1.7,0.7,2.9,1.8,4.2c-1.1-1.4-0.2-0.2,0.1,0.2
				c0.3,0.4,0.5,0.9,0.8,1.3c0.6,1,1.1,2,1.7,3c1.2,2.2,2.5,4.3,4,6.3c2.9,3.6,5.8,7.3,9.1,10.6c7,7,15.7,12.2,25.6,13.8
				c5.9,0.9,11.6,0.9,17.5-0.4c3.1-0.6,5.1-4.4,4.2-7.4C238.2,393.4,235.2,391.8,231.9,392.5L231.9,392.5z"/>
		</g>
	</g>
	<g>
		<g>
			<path class="st1" d="M177.4,338.7c-4.7-1.1-9.3,1.1-11.7,5.2c-2.4,4-1.8,8.7,0.2,12.7c1.5,2.9,3.9,5.5,6.2,7.8
				c2.3,2.2,4.9,4.1,7.5,5.8c5.2,3.3,10.9,5.7,16.7,7.5c6.1,2,13.6,4.7,19.8,1.7c8.5-4.2,7.6-16.9,3.1-23.7c-1.7-2.6-5.4-4-8.2-2.2
				c-2.6,1.7-4,5.4-2.2,8.2c0.4,0.5,0.7,1.1,1,1.6c0.1,0.2,0.5,1,0.1,0.2c-0.4-0.9,0.1,0.4,0.1,0.5c0.2,0.5,0.3,1.1,0.4,1.6
				c0.2,1.1-0.1-0.2,0-0.4c-0.1,0.3,0.1,0.9,0.1,1.3c0,0.3,0.1,1.5-0.1,1.7c0,0,0.3-1.3,0-0.4c-0.1,0.3-0.1,0.6-0.2,0.9
				c-0.1,0.3-0.1,1,0,0.2c0.1-1.2,0.1,0.5-0.2,0.3c0,0,0.9-1.2,0.2-0.3c-0.6,0.8,0.8-0.5,0.2-0.2c-0.7,0.4,1.5-0.4,0.3-0.1
				c-0.2,0-0.6,0.1-0.7,0.2c0.1-0.1,1.6-0.1,0.5-0.1c-0.2,0-0.5,0-0.7,0c-0.2,0-0.5,0-0.7,0c-0.2,0-1.4-0.1-0.3,0c0.9,0,0.1,0-0.1,0
				c-0.3-0.1-0.6-0.1-0.9-0.2c-2.3-0.5-4.6-1.2-6.8-1.9c-2.3-0.7-4.6-1.5-6.8-2.4c-0.4-0.2-1.9-0.9-0.4-0.2c-0.5-0.2-1-0.4-1.5-0.6
				c-1.1-0.5-2.3-1.1-3.4-1.7c-2-1.1-4-2.3-5.8-3.6c0,0-0.6-0.4-0.6-0.5c0.2,0.2,0.4,0.3,0.6,0.5c-0.2-0.1-0.3-0.2-0.5-0.4
				c-0.4-0.3-0.8-0.7-1.2-1c-0.9-0.8-1.8-1.7-2.7-2.6c-0.4-0.5-0.9-1-1.3-1.5c-0.3-0.3-0.7-0.6,0.2,0.2c-0.3-0.3-0.5-0.7-0.7-1
				c-0.2-0.3-1.1-1.5-1-1.8c0-0.1,0.4,1.5,0.2,0.3c0-0.2-0.3-1.2-0.3-1.2c-0.1,0,0.3,1.6,0.1,0.4c0-0.1,0-0.3,0-0.4
				c-0.2,0.9-0.2,1.2-0.1,0.7c0.4-1.1-0.1,0.2-0.2,0.2c0,0,0.9-1.2,0.1-0.3c-0.8,0.8,0.3-0.1,0.3-0.2c0,0.1-1.2,0.9-0.2,0.2
				c0.6-0.4-1.5,0.5-0.3,0.2c-0.3,0-0.6,0.1-0.9,0.1c-1-0.2-1.2-0.2-0.6-0.1c3,0.7,6.6-1,7.4-4.2C182.3,343,180.7,339.5,177.4,338.7
				L177.4,338.7z"/>
		</g>
	</g>
	<g>
		<g>
			<path class="st1" d="M198.5,320.2c-4.5-1.3-9.2-2.6-13.9-2.2c-4.6,0.4-9.1,2.1-12.3,5.7c-3.3,3.7-5,8.8-3.4,13.6
				c1.4,4.3,4.6,8,7.5,11.4c2.7,3.3,6,6.3,9.8,8.3c3.7,2,7.7,3.2,11.8,4c4.1,0.7,8.3,1.1,12.5,1.3c4.4,0.3,9.2,0.4,13.4-1.3
				c4.8-1.9,9.2-5.7,10.5-10.9c1.5-6.1-1.5-12.5-7.6-14.5c-3-1-6.7,1.1-7.4,4.2c-0.8,3.3,1,6.3,4.2,7.4c-0.3-0.1-0.5-0.2-0.8-0.4
				c0.2,0.1,0.4,0.2,0.6,0.3c-0.2-0.2-0.5-0.4-0.7-0.5c0.2,0.1,0.3,0.3,0.5,0.5c-0.2-0.2-0.4-0.4-0.5-0.7c0.1,0.2,0.2,0.4,0.3,0.6
				c-0.5-0.3-0.5-1.3-0.2-0.3c0.2,0.9-0.2,0.4,0-0.4c0,0.1,0,0.9,0,1c0-0.3,0.1-0.6,0.1-0.9c0,0.2-0.1,0.5-0.1,0.7
				c-0.1,0.2-0.1,0.4-0.2,0.7c0.4-0.8,0.5-1.1,0.3-0.6c-0.1,0.3-0.3,0.5-0.4,0.8c-0.1,0.1-0.1,0.2-0.2,0.3c-0.4,0.5-0.3,0.4,0.3-0.4
				c-0.2,0.1-0.6,0.6-0.7,0.8c-0.2,0.2-0.7,0.5-0.8,0.7c0.1-0.1,1.2-0.8,0.3-0.3c-0.3,0.2-0.6,0.4-0.9,0.6c-0.1,0.1-0.2,0.1-0.3,0.2
				c-0.6,0.3-0.4,0.2,0.5-0.2c-0.1-0.1-1.2,0.4-1.4,0.5c-0.4,0.1-0.7,0.2-1.1,0.3c-0.4,0.1-1.7,0.6-0.2,0.1
				c-0.8,0.3-1.9,0.2-2.7,0.2c-1.8,0-3.6-0.1-5.4-0.2c-1.5-0.1-3-0.2-4.5-0.3c-0.7-0.1-1.4-0.1-2.1-0.2c-0.5-0.1-1.7,0.1-0.1,0
				c-0.5,0-1.1-0.2-1.6-0.2c-1.5-0.2-3-0.6-4.4-0.9c-0.7-0.2-1.3-0.4-1.9-0.6c-0.4-0.1-0.8-0.3-1.1-0.4c-0.3-0.1-0.5-0.2-0.8-0.3
				c0.8,0.3,0.9,0.4,0.3,0.1c-1.3-0.7-2.6-1.3-3.9-2.2c-0.1-0.1-1.1-0.9-0.4-0.3c0.7,0.6-0.3-0.3-0.4-0.3c-0.8-0.7-1.5-1.4-2.2-2.1
				c-1.1-1.1-2.1-2.4-3.1-3.6c-0.9-1.2,0.8,1-0.1-0.1c-0.2-0.2-0.3-0.5-0.5-0.7c-0.6-0.8-1.2-1.5-1.7-2.3c-0.4-0.6-0.7-1.2-1-1.8
				c-0.6-1.2,0.3,1.2,0-0.1c0-0.1-0.1-0.3-0.1-0.4c-0.1-0.7-0.1-0.5,0,0.5c0.1-0.2,0-0.8,0-1c0-1,0,0.5-0.1,0.6
				c0.1-0.1,0.2-0.8,0.3-1c0.2-0.6,0.1-0.4-0.2,0.5c0.1-0.2,0.2-0.4,0.3-0.6c0.3-0.4,0.9-1.1-0.2,0.1c0.2-0.2,0.5-0.5,0.7-0.8
				c0.1-0.1,0.7-0.6,0.8-0.7c-0.8,0.6-0.9,0.7-0.4,0.3c0.2-0.1,0.4-0.3,0.6-0.4c0.3-0.2,0.5-0.3,0.8-0.4c1.3-0.7-1.1,0.3,0,0
				c0.3-0.1,0.7-0.2,1-0.3c0.3-0.1,0.5-0.1,0.8-0.2c0.7-0.1,0.6-0.1-0.2,0c0-0.1,2.6,0,2.8,0c0.4,0,1,0,1.4,0.1
				c-1.6-0.4,0.4,0.1,0.7,0.2c2,0.4,3.9,1,5.9,1.5c3,0.9,6.7-1.1,7.4-4.2C203.4,324.4,201.7,321.2,198.5,320.2L198.5,320.2z"/>
		</g>
	</g>
	<g>
		<g>
			<path class="st1" d="M243.7,357.4c-2.3-6.4-5.6-12.9-10.3-17.9c-2.9-3.1-6.7-4.6-10.8-4.7c-3.6,0-7.2,0.9-10.7,1.4
				c-1.6,0.3,1.3-0.1-0.3,0c-0.4,0-0.8,0.1-1.2,0.1c-0.7,0.1-1.5,0.1-2.2,0.1c-0.3,0-0.7,0-1,0c-0.1,0-0.3,0-0.4,0
				c-0.7-0.1-0.6-0.1,0.4,0.1c-0.3,0.2-2.1-0.5-2.4-0.6c-0.2-0.1-0.5-0.2-0.8-0.3c1.3,0.3,0.5,0.2,0-0.1c-0.2-0.1-0.5-0.3-0.7-0.4
				c-1.2-0.7,0.9,0.9,0,0c-0.2-0.2-0.3-0.4-0.5-0.5c-0.9-0.9,0.6,1.1,0,0c-0.2-0.3-0.3-0.5-0.5-0.8c-0.7-1.3,0.2,1,0-0.1
				c0,0-0.1-0.7-0.2-0.7c0,0.3,0.1,0.6,0.1,0.9c0-0.2,0-0.5,0-0.7c0-0.2-0.1-1.4,0-0.3c0,0.1-0.1,0.9,0,0.1c0-0.1,0-0.1,0.1-0.2
				c0.1-0.3,1.4-2.5-0.5,1.1c0.2-0.4,0.3-0.7,0.6-1.1c0.1-0.2,0.3-0.4,0.4-0.6c0,0.1-1,1.2-0.4,0.5c0.2-0.1,0.6-0.5,0.7-0.7
				c-0.3,0.7-1,0.7-0.4,0.3c0.6-0.3,1.1-0.6,1.7-0.9c1.3-0.6-1.2,0.5,0.2-0.1c0.4-0.2,0.8-0.3,1.2-0.5c3-1.1,6.1-1.9,9.3-2.4
				c1.4-0.3,2.9-0.6,4.3-0.7c-1.7,0.1,0.6-0.1,1-0.1c0.9-0.1,1.8-0.2,2.6-0.3c3.1-0.3,6.1-0.6,9.2-1c3.2-0.4,6.4-0.7,9.6-0.7
				c0.8,0,1.5,0,2.3,0.1c0.4,0,1,0,1.4,0.1c-1.2-0.5-0.5-0.1,0,0c1.5,0.2,2.9,0.6,4.3,1.1c0.3,0.1,0.5,0.2,0.8,0.3
				c-1.6-0.4-0.6-0.3-0.1,0c0.5,0.3,1,0.5,1.6,0.8c0.5,0.3,1,0.6,1.5,0.9c0.2,0.1,0.4,0.3,0.6,0.4c0.2,0.1,0.4,0.3,0.6,0.4
				c-0.7-0.6-0.9-0.7-0.4-0.3c0.9,0.8,1.8,1.6,2.6,2.4c0.4,0.4,0.8,0.9,1.2,1.3c0.4,0.4,0.6,1.2,0-0.1c0.2,0.3,0.4,0.6,0.6,0.9
				c0.7,1,1.3,2,1.9,3.1c0.3,0.5,0.6,1.1,0.8,1.6c0.2,0.3,0.3,0.7,0.5,1c0.5,1.1-0.4-1.2,0-0.1c0.5,1.4,1,2.7,1.3,4.1
				c0.2,0.7,0.3,1.4,0.5,2.1c0.1,0.4,0.1,0.7,0.2,1.1c0.2,1.1-0.1-1.4,0,0c0.2,1.8,0.3,3.6,0.2,5.4c0,0.9-0.1,1.8-0.1,2.7
				c0,0.4-0.1,0.7-0.1,1.1c0,0.2,0,0.4-0.1,0.7c0.1-0.9,0.1-0.9,0-0.3c-0.6,3.6-1.4,7.1-2.6,10.5c-0.3,0.9-0.6,1.7-0.9,2.6
				c-0.1,0.3-0.2,0.6-0.3,0.8c-0.1,0.3-0.2,0.6-0.3,0.8c0.3-0.7,0.3-0.8,0.1-0.2c-0.7,1.7-1.5,3.3-2.3,4.9c-1.4,2.8-0.8,6.6,2.2,8.2
				c2.7,1.4,6.7,0.8,8.2-2.2c6.4-12.8,10.8-27.7,7-41.9c-3.2-11.9-12.3-23.1-24.8-25.7c-7.3-1.6-14.5-0.4-21.8,0.3
				c-7,0.7-14.1,1.3-21,3.1c-6.1,1.6-13,3.9-15.8,10c-1.7,3.6-1.4,7.5,0.2,11.1c1.7,3.9,5,6.5,8.9,8c3.7,1.5,7.8,1.7,11.7,1.2
				c2.4-0.3,4.8-0.7,7.2-1.1c0.5-0.1,0.9-0.2,1.4-0.2c1.5-0.2-1.3,0.1,0.2,0c0.4,0,0.9-0.1,1.3-0.1c0.3,0,0.6,0,0.9,0
				c0.7,0.1,0.6,0-0.3-0.1c0.1-0.1,0.8,0.2,0.8,0.2c0.6,0.2,0.6,0.2-0.2-0.2c0.2,0.1,0.5,0.2,0.7,0.4c1.2,0.5-0.9-0.9,0,0
				c0.3,0.3,0.6,0.5,0.8,0.8c0.3,0.3,0.5,0.6,0.8,0.9c0.4,0.5,0.3,0.4-0.2-0.3c0.2,0.2,0.3,0.5,0.5,0.7c0.5,0.7,1,1.4,1.5,2.2
				c1,1.6,2,3.2,2.8,4.9c0.4,0.8,0.8,1.6,1.1,2.4c0.6,1.4-0.5-1.2,0.1,0.2c0.2,0.5,0.4,1.1,0.6,1.6c1.1,2.9,4.1,5.2,7.4,4.2
				C242.4,363.8,244.9,360.5,243.7,357.4L243.7,357.4z"/>
		</g>
	</g>
	<g>
		<path class="st1" d="M461.2,928.8c0.2,0,0.5,0.1,0.7,0.1c0,0,0,0,0.1,0C461.3,928.8,461.1,928.8,461.2,928.8z"/>
		<path class="st1" d="M467.7,928.9c0.1,0,0.2,0,0.2,0c0,0,0.1,0,0.1,0C467.1,928.7,467.2,928.9,467.7,928.9z"/>
		<path class="st1" d="M393.1,903.3C393.1,903.3,393.1,903.3,393.1,903.3c0.1,0,0.2,0.1,0.3,0.1
			C393.3,903.4,393.2,903.3,393.1,903.3C393.2,903.3,393.1,903.3,393.1,903.3z"/>
		<path class="st1" d="M495.3,800C495.3,800,495.3,800,495.3,800c-0.1,0.1-0.3,0.2-0.4,0.3C495,800.2,495.1,800.1,495.3,800z"/>
		<path class="st1" d="M506.1,799.7C506.6,799.8,506.4,799.8,506.1,799.7L506.1,799.7z"/>
		<path class="st1" d="M545.5,813.1c-2.2-3.8-5-7.4-8.2-10.5c-6.4-6.3-14.5-11-23.1-13.4c-4.4-1.2-9-1.9-13.5-1.8
			c-5.1,0-11.3,0.7-14.8,4.9c-4,4.7-4,11.3-2.2,16.9c-0.1,0.3-0.3,0.6-0.4,0.9c-0.2,0.5-0.4,1.1-0.6,1.6c-0.7,1.5-1.5,2.9-2.5,4.2
			c-1.1,1.3-2.3,2.5-3.6,3.6c-0.5,0.4-1,0.7-1.5,1c-0.3-1.4-0.6-2.7-1-4c-1.8-6.2-4.5-12.3-8.4-17.6c-4.2-5.5-9.1-10.2-14.6-14.5
			c-10.3-8.1-21.9-15.3-35.1-17.5c-11.3-1.9-23.1-0.9-33.8,3.1c-12.4,4.7-23.1,12.6-30.7,23.5c-0.7,1-0.9,2.1-0.8,3.3
			c-3.8,5.2-7.5,10.6-10.7,16.3c-4.6,8.4-8.7,18.1-8,27.9c0.8,11.3,6.4,21.6,12.5,30.9c6,9.1,13.2,17.6,22.4,23.5
			c4.5,2.9,9.5,5.1,14.6,6.5c2.8,0.7,5.7,1.2,8.6,1.3c0.6,0,1.3,0.1,1.9,0.1c0.3,0,0.7,0,1,0c-0.2,0-0.4-0.1-0.7-0.2
			c0.2,0.1,0.5,0.2,0.8,0.2c0,0,0,0,0,0c0.4,0,0.5,0.1,0.2,0.1c2.3,0.7,4.5,1.3,6.8,2c0,0,0.1,0.1,0.2,0.2c1.1,0.9,2.5,1.7,3.7,2.5
			c2.5,1.6,5,3.3,7.5,4.9c9.9,6.6,19.9,13.1,29.8,19.7c4.7,3.1,9.7,6.1,15.2,7.5c5.3,1.3,10.9,1.3,16.2,0c5.3-1.2,10.1-3.8,14.4-7.1
			c2.9-2.3,5.8-4.8,8.6-7.2c3.2-2.7,6.4-5.5,9.2-8.6c2.8-3,5.5-6.3,7.2-10.1c0.4-0.8,0.6-1.6,0.9-2.4c1.8-1.3,3.2-3.1,4.5-4.9
			c1.2-1.7,2.3-3.4,3.1-5.3c3.9-8.6,4.8-17.9,5.7-27.1c0.1-1,0.2-1.9,0.3-2.9c0.1-0.5,0.2-1,0.2-1.5c-0.1,1.8,0,0,0.1-0.5
			c0.3-2.1,0.7-4.2,1.2-6.3c0.5-1.9,1-3.7,1.7-5.5c0,0,0,0-0.1,0.1c0,0,0.1-0.1,0.1-0.1c0-0.1,0.1-0.2,0.1-0.3
			c0-0.1,0.1-0.2,0.1-0.2c0,0,0-0.1,0-0.1c0.2-0.4,0.4-0.8,0.6-1.2c0.5-0.9,1-1.9,1.6-2.7c0.2-0.3,0.4-0.6,0.6-0.9c0,0,0,0,0,0
			c0,0,0,0,0.1-0.1c0.1-0.1,0.1-0.2,0.2-0.3c0.1-0.2,0.2-0.3,0.2-0.2c0,0,0,0,0,0c0.7-0.8,1.4-1.5,2.1-2.2c0.3-0.3,0.6-0.6,0.8-1
			c1.1-0.2,2.1-0.4,3.1-0.7c6.1-1.8,10.5-6.4,10.9-12.9C550.6,822.9,548,817.5,545.5,813.1z M532.3,815
			C532.2,814.7,532,814.6,532.3,815L532.3,815z M494.9,800.1C494.9,800.1,494.9,800.1,494.9,800.1c0-0.1,0.1-0.2,0.1-0.2
			C495,799.9,495,800,494.9,800.1z M494.8,800.1C494.8,800.1,494.8,800.1,494.8,800.1C494.8,800.1,494.8,800.2,494.8,800.1
			C494.8,800.2,494.8,800.2,494.8,800.1z M494.8,800.2C494.7,800.2,494.7,800.2,494.8,800.2C494.7,800.2,494.7,800.3,494.8,800.2
			C494.7,800.2,494.7,800.2,494.8,800.2z M347.1,825.9c0,0,0-0.1,0-0.1C347,826.2,346.7,826.6,347.1,825.9z M344.1,837.5
			c0-0.5,0.1-1.1,0.1-1.6c0,0,0-0.1,0-0.2c0-0.1,0-0.1,0-0.2c0.4-2.1,0.9-4.2,1.6-6.3c0.3-1,0.7-2,1.1-3.1c0.1-0.2,0.2-0.4,0.2-0.6
			c0.2-0.5,0.5-1.1,0.7-1.6c1.5-3.2,3.3-6.4,5.1-9.4c0.8,0.1,1.6,0.1,2.5,0c0.4-0.1,0.8-0.1,1.2-0.2c1.2-0.2-0.4,0-0.4,0.1
			c0.1-0.2,1.8-0.2,2-0.2c1.5-0.1,2.9-0.1,4.4,0c0.7,0,1.3,0.1,2,0.2c0.1,0,0.3,0,0.4,0c0,0,0.1,0,0.1,0c0.1,0,0.2,0,0.3,0
			c1.5,0.2,2.9,0.5,4.3,0.9c1.3,0.3,2.6,0.7,3.9,1.2c0.6,0.2,1.3,0.5,1.9,0.7c0.1,0,0.1,0,0.2,0.1c0.1,0,0.1,0.1,0.3,0.1
			c0.3,0.1,0.5,0.2,0.8,0.3c0.3,0.1,0.5,0.2,0.7,0.4c-10,11.6-20.1,23.2-29.9,34.9c-0.1-0.2-0.2-0.4-0.3-0.7
			c-0.1-0.3-0.2-0.5-0.4-0.8c0-0.1-0.1-0.2-0.1-0.3c-0.1-0.2-0.2-0.5-0.2-0.5c-0.1-0.3-0.2-0.6-0.3-0.8c-0.5-1.3-0.9-2.5-1.2-3.8
			c-0.3-1.1-0.6-2.3-0.8-3.5c0-0.2-0.1-0.4-0.1-0.6c0.1-0.5-0.1-1.3-0.2-1.8C344,839.4,344,838.4,344.1,837.5z M344.2,842.1
			c0-0.1,0-0.1,0-0.2C344,840.8,344.2,841.8,344.2,842.1z M376.4,817.7c-0.3-0.1-0.4-0.2-0.5-0.2C376,817.5,376.3,817.6,376.4,817.7
			z M359.6,872.4c-0.2-0.2-0.4-0.4-0.5-0.7c0,0,0,0,0,0c0,0-0.1-0.1-0.1-0.1c-1.8-2.4-3.4-4.8-5-7.3c11.1-13.3,22.4-26.4,33.8-39.5
			c0.1-0.1,0.2-0.3,0.4-0.5c0.4,0.3,0.9,0.6,1.3,0.9c0.3,0.2,0.7,0.5,1,0.8c0.1,0,0.2,0.1,0.3,0.3c2.3,1.7,4.4,3.6,6.5,5.6
			c1.5,1.4,3,2.9,4.5,4.4c-1.1,1.5-2.1,2.9-3.2,4.4c-0.6,0.7-1.1,1.5-1.7,2.2c-0.3,0.4-0.7,0.9-1,1.3c-0.1,0.2-0.3,0.4-0.4,0.6
			c-0.2,0.3-0.3,0.3-0.2,0.3c-2.3,3.1-4.8,6.1-7.3,9.1c-5.1,6.2-10.3,12.3-15.7,18.3c-2.1,2.3-4.2,4.6-6.4,6.9
			c-1-0.9-1.9-1.9-2.8-2.9c-0.8-0.9-1.6-1.8-2.4-2.7C360.3,873.3,359.9,872.9,359.6,872.4z M391.4,891.3c-0.6,0-1.1,0-1.7-0.1
			c-0.3,0-0.6,0-0.8-0.1c0,0-0.2,0-0.4,0c-0.1,0-0.2,0-0.2,0c-0.3,0-0.5-0.1-0.8-0.1c-0.7-0.1-1.4-0.3-2-0.4
			c-1.1-0.3-2.2-0.6-3.2-0.9c-0.6-0.2-1.2-0.4-1.8-0.6c-0.3-0.1-0.5-0.2-0.8-0.3c-1.4-0.7-2.8-1.3-4.1-2.1
			c9.8-10.5,19.1-21.4,27.9-32.7c2.2-2.9,4.4-5.7,6.6-8.6c3.8,4.4,7.5,9,11.1,13.6c-5,5-8.8,11-12.6,16.9c-1.9,3-3.8,6-5.9,8.8
			c-0.2,0.2-0.7,1.2-0.9,1.3c0.2-0.2,0.3-0.4,0.5-0.6c-0.2,0.2-0.3,0.4-0.5,0.6c-0.6,0.7-1.1,1.4-1.7,2.1c-1.2,1.3-2.5,2.6-3.8,3.8
			C394.6,891.3,393.1,891.4,391.4,891.3z M480.6,922.9c-0.3,0.2-0.6,0.5-0.9,0.8c-0.2,0.1-0.4,0.3-0.5,0.4c0,0-0.1,0-0.1,0.1
			c-0.9,0.6-1.8,1.2-2.8,1.8c-0.3,0.1-2.9,1.6-3,1.5c0,0,1.3-0.5,0.2-0.1c-0.2,0.1-0.5,0.2-0.7,0.3c-0.5,0.2-1,0.3-1.5,0.5
			c-1.1,0.3-2.2,0.6-3.3,0.8c0,0,0.1,0,0.1,0c-0.1,0-0.1,0-0.2,0c0,0,0,0-0.1,0c-0.1,0-0.1,0-0.2,0c-0.1,0-0.3,0-0.3,0.1
			c-0.5,0.1-1,0.1-1.5,0.1c-1.2,0.1-2.3,0-3.5-0.1c-0.1,0-0.3,0-0.4,0c0,0,0.1,0,0.1,0c-0.1,0-0.1,0-0.2,0c-0.1,0-0.2,0-0.3,0
			c-0.2,0-0.4-0.1-0.4-0.1c-0.2,0-0.4-0.1-0.7-0.1c-1.2-0.3-2.4-0.6-3.6-1.1c-0.1-0.1-0.3-0.1-0.5-0.2c0,0-0.1-0.1-0.1-0.1
			c-0.6-0.3-1.2-0.6-1.8-0.9c-1.2-0.6-2.4-1.3-3.5-2c-4.7-2.9-9.3-6-13.9-9.1c-4.8-3.1-9.5-6.3-14.3-9.4c-4.8-3.1-9.5-6.3-14.3-9.4
			c0,0-0.1,0-0.1-0.1c3.9-4.3,7-9.2,10.1-14c1.9-3,3.8-6,5.8-8.9c0.4-0.6,1-1.8,1.6-2.2c-0.5,0.7-0.6,0.8-0.2,0.3
			c0.1-0.2,0.2-0.3,0.4-0.5c0.3-0.4,0.6-0.7,0.9-1.1c0.5-0.6,1.1-1.2,1.6-1.8c9,11.4,18.1,22.8,28.9,32.5
			c8.3,7.4,17.4,13.8,27.4,18.4c-0.9,0.7-1.8,1.5-2.7,2.2C481.7,921.9,481.2,922.4,480.6,922.9z M510.4,888.2
			c0.1-0.3,0.4-0.8,0.1-0.1C510.4,888.1,510.4,888.2,510.4,888.2z M537.2,829.1c-0.9,0.2-1.8,0.6-2.7,0.7c0,0-0.1,0-0.1,0
			c0,0,0,0-0.1,0c-0.6,0.1-1.2,0.1-1.8,0.1c-1.3,0-2.5,0-3.8-0.1c-0.7,0-1.4-0.1-2.1-0.2c-0.7-0.1,0.4,0.1,0.4,0.1
			c-0.2,0.1-1.1-0.2-1.4-0.2c-1.6-0.3-3.2-0.3-4.6,0.6c-1.2,0.7-2.4,2.2-2.8,3.6c-0.6,2.6,0.6,6,3.3,7.1c-3.1,5.1-4.9,10.9-5.9,16.8
			c-0.8,4.5-1.2,9-1.7,13.5c-0.1,1-0.2,2-0.3,3c-0.1,0.5-0.1,0.9-0.2,1.4c0,0.3-0.1,0.5-0.1,0.8c-0.3,2.1-0.7,4.2-1.2,6.3
			c-0.2,1-0.5,1.9-0.8,2.8c-0.3,1-0.8,2-1.1,3c0,0,0,0,0,0c-0.2,0.5-0.5,1.1-0.8,1.6c-0.5,1-1.1,1.9-1.7,2.8
			c-0.3,0.4-1.3,1.5-0.2,0.4c-0.3,0.3-0.5,0.7-0.8,1c-0.5,0.1-0.9,0.3-1.4,0.5c-0.1,0-0.3,0-0.3-0.1c-1-0.3-2.1-0.6-3.1-0.9
			c-0.9-0.3-1.8-0.6-2.6-1c-0.1,0-0.2-0.1-0.3-0.1c-0.5-0.2-1-0.4-1.5-0.7c-1.8-0.8-3.5-1.8-5.2-2.8c-1.7-1-3.4-2.1-5-3.3
			c-0.4-0.3-0.7-0.5-1.1-0.8c-0.1-0.1-0.2-0.2-0.3-0.2c-0.8-0.7-1.6-1.3-2.4-2c-12.8-10.9-22.7-24.8-33.8-37.3
			c-6.6-7.4-13.5-14.5-20.7-21.3c-1.8-1.7-3.6-3.4-5.5-5c-1.2-1-2.2-1.9-3.7-2.6c-0.6-0.3-1.2-0.6-1.8-0.8c-0.9-0.4-1.9-0.1-2.5,0.6
			l-4.7,6.5c-0.7,1-0.3,2.5,0.8,3c0,0,0,0,0,0c1,0.5,2,1,3,1.4c0,0,0,0,0,0c0.1,0.1,0.1,0.1,0.1,0.1c1,0.9,2,1.8,2.9,2.6
			c7.4,6.7,14.4,13.8,21.1,21.2c11.5,12.7,21.5,27,34.4,38.4c6.6,5.9,13.9,10.8,22.1,14.2c1.2,0.5,2.5,1,3.8,1.4
			c-0.2,0.3-0.5,0.6-0.5,0.7c-1.3,1.5-2.6,2.9-4,4.3c-1.1-0.4-2.3-0.8-3.3-1.3c-0.1-0.1-0.3-0.1-0.4-0.2c-0.3-0.1-0.6-0.3-0.9-0.4
			c-0.7-0.3-1.4-0.6-2-1c-2.6-1.3-5.1-2.7-7.5-4.2c-2.4-1.5-4.8-3.1-7.1-4.8c-0.3-0.2-2.1-1.5-0.7-0.6c-0.6-0.4-1.1-0.8-1.6-1.3
			c-1.2-0.9-2.3-1.9-3.5-2.9c-9-7.8-16.8-16.7-24.2-25.9c-8-9.9-15.6-20.2-23.9-30c-8.1-9.5-17-18.6-27.6-25.4
			c-3.6-2.4-7.5-4.5-11.6-6.1l0.1,0c-0.2-0.1-0.4-0.2-0.6-0.3c0,0-0.1,0-0.1,0c-0.5-0.2-1-0.4-1.6-0.6c-1-0.4-2-0.7-2.9-1
			c-2.1-0.7-4.2-1.2-6.4-1.6c-0.6-0.1-1.2-0.2-1.8-0.3c-0.2,0-0.3,0-0.5-0.1l1.3,0.4c-1.6-0.2-3.3-0.4-4.9-0.5
			c-0.3-0.6-0.4-0.8-0.6-1.4c1.2-1.7,2.5-3.3,3.7-5c0.5-0.6,0.7-1.5,0.8-2.4c1.5-1.5,3-2.9,4.6-4.2c0,0,0,0,0.1,0
			c-0.1,0-0.1,0.1-0.2,0.1c0.2-0.2,0.5-0.4,0.7-0.5c0.5-0.4,1-0.8,1.6-1.1c1.1-0.7,2.2-1.4,3.3-2.1c2.1-1.3,4.3-2.4,6.6-3.4
			c0,0-0.1,0-0.1,0c0.3-0.1,0.5-0.2,0.8-0.3c0.6-0.2,1.2-0.5,1.8-0.7c1.2-0.4,2.5-0.8,3.7-1.2c2.4-0.7,4.8-1.2,7.3-1.6
			c0.3,0,0.6-0.1,0.9-0.1c0.6-0.1,1.2-0.1,1.8-0.2c1.3-0.1,2.6-0.2,3.9-0.2c2.5-0.1,4.9,0,7.4,0.3c0.1,0,0.2,0,0.3,0
			c0.1,0,0.2,0,0.3,0c0.1,0,0.1,0,0.2,0c0.1,0,0.1,0,0.2,0c0,0-0.1,0-0.1,0c0.6,0.1,1.1,0.2,1.7,0.3c1.3,0.2,2.5,0.5,3.8,0.8
			c1.1,0.3,2.3,0.6,3.4,1c0.7,0.2,1.4,0.5,2.1,0.7c0.4,0.2,0.8,0.3,1.2,0.5c0.1,0,0.2,0.1,0.3,0.1c-0.1,0-0.1,0-0.2,0
			c1.5,0.4,3,1.4,4.3,2.1c1.4,0.7,2.8,1.5,4.2,2.3c2.6,1.6,5.2,3.3,7.6,5.1c0.6,0.4,1.2,0.9,1.8,1.3c0.1,0,0.2,0.1,0.3,0.2
			c0,0-0.1-0.1-0.1-0.1c0.4,0.3,0.7,0.5,1,0.8c1.2,1,2.5,2,3.7,3c2.3,2,4.5,4.1,6.5,6.3c0.5,0.5,0.9,1.1,1.4,1.6
			c0.1,0.1,0.2,0.2,0.3,0.3c0.2,0.2,0.3,0.4,0.5,0.7c0.9,1.3,1.8,2.6,2.6,4c0.7,1.2,1.3,2.4,1.9,3.6c0.2,0.4,0.3,0.7,0.5,1.1
			c0.1,0.2,0.2,0.3,0.2,0.3c0.2,0.5,0.4,1.2,0.5,1.6c1.1,3.1,1.9,6.2,2.5,9.4c0.2,0.8,0.3,1.6,0.4,2.4c0.1,0.4,0.1,0.8,0.2,1.2
			c0,0.3,0.1,0.5,0.1,0.8c0-0.3-0.1-0.5-0.1-0.8c0.3,0.6,0.2,1.8,0.3,2.5c0.1,0.8,0.2,1.7,0.2,2.5c0.5,6.8,0.5,13.6,0.4,20.5
			c0,3.1,2.8,6.1,6,6c3.3-0.1,6-2.6,6-6c0.1-7.2,0.1-14.5-0.5-21.7c3.9-1.7,7.4-4,10.4-7.1c1.4-1.4,2.6-2.9,3.6-4.6
			c1.3,1.3,2.7,2.5,4.3,3.6c2.6,1.8,6.8,0.5,8.2-2.2c1.6-3.1,0.6-6.3-2.2-8.2c-0.1-0.1-0.2-0.2-0.4-0.3c-0.3-0.2-0.6-0.5-0.8-0.7
			c-0.7-0.7-1.4-1.4-2-2.1c0,0.1,0.1,0.1,0.1,0.2c-0.1-0.1-0.1-0.2-0.2-0.3c0,0,0,0,0,0c-0.1-0.1-0.1-0.2-0.2-0.2
			c-0.2-0.3-0.5-0.7-0.7-1.1c-0.6-0.9-1-1.8-1.5-2.7c0,0,0,0,0,0c0,0,0-0.1-0.1-0.1c-0.2-0.4-0.3-0.8-0.4-1.3
			c-0.3-0.9-0.5-1.9-0.7-2.8c0,0,0-0.1,0-0.1c0-0.5-0.1-1,0-1.5c0-0.1,0-0.2,0-0.4c0-0.1,0-0.2,0.1-0.3c0,0,0-0.1,0.1-0.2
			c0-0.1,0.1-0.1,0.1-0.2c0,0-0.1,0.1-0.1,0.1c0,0,0-0.1,0-0.1c0,0,0,0,0.1,0c0,0,0,0,0,0c0,0,0,0-0.1,0c0,0,0,0,0.1-0.1
			c0,0,0,0,0.1-0.1c0,0,0,0,0,0c0,0,0,0,0,0c0,0,0,0,0,0c0,0,0,0,0,0c0,0,0,0,0.1,0c0.1,0,0.2-0.1,0.3-0.1c0.1,0,0.1-0.1,0.1-0.1
			c0,0-0.1,0.1-0.1,0.1c0.2-0.1,0.4-0.1,0.6-0.2c0.4-0.1,0.8-0.2,1.2-0.3c0,0,0.1,0,0.2,0c0.9-0.1,1.8-0.1,2.7-0.2
			c1.8,0,3.6,0,5.4,0.2c0.2,0,0.6,0.1,0.8,0.1c-0.1,0-0.3-0.1-0.6-0.1c0.4,0.1,0.7,0.1,1.1,0.2c0.9,0.2,1.9,0.4,2.8,0.6
			c1.7,0.4,3.5,0.9,5.2,1.6c0.4,0.1,0.8,0.3,1.2,0.5c0,0,0.1,0,0.1,0c0.9,0.4,1.7,0.8,2.5,1.2c1.5,0.8,3.1,1.7,4.5,2.6
			c0.8,0.5,1.5,1,2.2,1.6c0,0,0,0,0,0c0.4,0.3,0.8,0.6,1.2,1c1.4,1.2,2.7,2.4,3.9,3.7c0.6,0.6,1.1,1.2,1.7,1.9
			c0.2,0.3,0.5,0.6,0.7,0.9c0.1,0.1,0.1,0.2,0.2,0.3c1.1,1.5,2,3,2.9,4.6c0.4,0.7,0.8,1.5,1.1,2.2c0.2,0.4,0.8,1.9,0.1,0.2
			c0.2,0.5,0.4,1,0.6,1.5c0.2,0.5,0.4,1.1,0.5,1.6c0.1,0.3,0.1,0.6,0.2,1c0-0.1,0.1,0,0.1,0.4c0,0,0,0.1,0,0.1c0,0.1,0,0.2,0.1,0.2
			c0-0.1-0.1-0.1-0.1-0.2c0,0.2,0,0.4,0,0.6c0,0.2-0.1,0.3-0.1,0.5c0,0.1-0.1,0.1-0.1,0.2c-0.1,0.1-0.2,0.2-0.3,0.3
			c-0.1,0.1-0.2,0.1-0.3,0.2C537.4,828.9,537.3,829,537.2,829.1z M414.5,827C414.4,827,414.4,827,414.5,827
			C414.4,827,414.4,827,414.5,827z"/>
		<path class="st1" d="M538.3,827.1C538.3,827.1,538.3,827.1,538.3,827.1c0-0.2-0.1-0.4-0.1-0.5
			C538.2,826.7,538.2,826.9,538.3,827.1z"/>
		<path class="st1" d="M494.8,800.3C494.8,800.3,494.9,800.3,494.8,800.3C494.9,800.2,494.9,800.3,494.8,800.3
			C494.8,800.3,494.8,800.3,494.8,800.3z"/>
		<path class="st1" d="M494.8,800.3C494.8,800.3,494.8,800.3,494.8,800.3C494.8,800.3,494.8,800.3,494.8,800.3
			C494.8,800.3,494.8,800.3,494.8,800.3z"/>
		<path class="st1" d="M497.9,811.1C497.9,811.1,497.9,811.2,497.9,811.1c0.1,0.1,0.1,0.2,0.2,0.2c0,0,0.1,0.1,0.1,0.1
			C497.8,810.8,497.8,810.9,497.9,811.1z"/>
		<path class="st1" d="M494.9,800.1C494.9,800.1,494.9,800.1,494.9,800.1c-0.1,0.1-0.1,0.1-0.1,0.2c0,0,0,0,0,0
			C494.9,800.2,494.9,800.2,494.9,800.1z"/>
		<path class="st1" d="M529.9,850.7c0.4-0.4,0.4-0.8,0.2-0.5C530.1,850.3,530,850.5,529.9,850.7
			C529.9,850.7,529.9,850.7,529.9,850.7z"/>
		<path class="st1" d="M533,845.3C533,845.3,533,845.3,533,845.3c0.2,0,0.4-0.4,0.4-0.5C533.3,844.8,533.1,845.1,533,845.3z"/>
		<path class="st1" d="M379.7,806.1c0,0-0.1,0-0.1-0.1C379.5,806,379.6,806,379.7,806.1z"/>
		<path class="st1" d="M367.1,802.5C367.1,802.5,367.1,802.5,367.1,802.5c0.2,0,0.3,0,0.4,0C367.3,802.5,366,802.3,367.1,802.5z"/>
		<path class="st1" d="M379.7,806.1c0.1,0,0.1,0.1,0.2,0.1C380.5,806.4,380,806.2,379.7,806.1z"/>
		<path class="st1" d="M411.9,778.3C411.9,778.3,411.9,778.3,411.9,778.3c-0.3,0-0.4,0-0.6-0.1C411,778.2,410.8,778.2,411.9,778.3z"
			/>
		<path class="st1" d="M383.6,782.3C383.6,782.3,383.6,782.3,383.6,782.3C385.1,781.8,384,782.1,383.6,782.3z"/>
		<path class="st1" d="M371.6,789.4C372.7,788.6,372,789.1,371.6,789.4L371.6,789.4z"/>
	</g>
	<g>
		<path class="st1" d="M731.9,839.2C731.9,839.2,731.9,839.2,731.9,839.2c0,0.7,0,0.7,0,0.6C731.9,839.6,731.9,839.4,731.9,839.2
			C731.9,839.2,731.9,839.2,731.9,839.2z"/>
		<path class="st1" d="M731.9,848.6c0,0,0,0.1,0,0.1C731.9,848.7,731.9,848.7,731.9,848.6C731.9,848.7,731.9,848.6,731.9,848.6z"/>
		<path class="st1" d="M786.9,946.6C785.7,947.3,786.5,946.8,786.9,946.6L786.9,946.6z"/>
		<path class="st1" d="M834,836.2c-0.1-1-0.3-2-0.5-3c-0.2-1.2-0.3-2.3-0.8-3.4c-0.9-2-2.4-2.8-4.3-3.6c0.1,0.1,1.3,0.5,0.3,0.1
			c-0.3-0.1-0.5-0.2-0.8-0.3c-1.1-0.5-2.3-1-3.4-1.6c-4.4-2.2-8.7-4.7-12.7-7.5c-2-1.4-4-2.8-5.9-4.3c-0.2-0.2-0.4-0.3-0.6-0.5
			c-0.5-0.4-1-0.8-1.5-1.2c-1-0.8-1.9-1.6-2.9-2.4c-7.6-6.4-14.6-13.4-21.4-20.6c-1-1.1-2-2.1-3-3.2c0.6-2.1,0.9-4.4,1-6.6
			c0.2-7.1-3.8-13.5-10.3-16.4c-6.5-2.9-13.8-2.3-20.5-0.4c-5.7,1.7-11,4.5-15.6,8.2c-4.4,3.6-7.8,8.4-9.8,13.8
			c-0.9,2.5-1.9,4.9-2.9,7.3c-1.9,4.6-3.8,9.5-4.6,14.4c-1.1,6.7-0.2,14,5.2,18.7c2.1,1.8,4.5,3.1,7.1,3.8c0.7,1.3,1.8,2.2,3,2.7
			c0.1,0.2,0.2,0.3,0.2,0.4c0,0,0.1,0.1,0.1,0.2c0.1,0.1,0.1,0.3,0.1,0.3c0.2,0.6,0.5,1.2,0.7,1.8c0.4,1.2,0.7,2.3,1,3.5
			c0.1,0.6,0.2,1.1,0.4,1.7c0.1,0.3,0.1,0.6,0.1,0.8c0,0,0-0.1,0-0.1c0,0,0,0.1,0,0.1c0,0.2,0,0.4,0,0.5c0,0.9,0.2,1.9,0.3,2.8
			c0,1.2,0,2.4,0,3.7c0,0.6-0.1,1.3-0.2,1.9c0,0.2,0,0.3-0.1,0.5c0-0.3,0.1-0.5,0,0.1c0,0,0,0,0,0c0,0.1,0,0.2,0,0.3
			c0-0.1,0-0.2,0-0.3c-0.2,1-0.4,2-0.6,3c-7.7,2.6-14.6,7.6-19.8,13.7c-6.2,7.4-10.6,16.1-13,25.5c-2.8,10.9-3.2,22.3-2.8,33.5
			c0.1,4.5,0.3,9,0.7,13.6c0.1,1.2,0.1,2.4,0.2,3.6c-0.2,0.5-0.5,1.8-0.6,2c-0.5,1.5-0.9,3-1.4,4.5c-0.4,1.4-0.2,3.4,0.6,4.6
			c0.9,1.4,2.1,2.2,3.6,2.8c20.7,8.1,42.5,16.1,65.1,13.1c10.1-1.4,19.7-4.9,28-10.9c7.8-5.7,14.2-12.7,19.4-20.8
			c11.2-17.4,15.6-37.7,18.2-58c1.4-11.1,2.3-22.3,3.7-33.4c0-0.2,0.1-0.8,0.2-1.2c0.1-0.6,0.2-1.1,0.2-1.7
			C833.9,840.5,834.4,838.3,834,836.2z M696.5,941.6c0,0.2,0,0.4,0,0.6C696.7,942.9,696.5,942.1,696.5,941.6z M696.6,941.6
			c0-0.1,0.1-0.2,0.1-0.2C696.6,941.4,696.6,941.5,696.6,941.6z M735.6,782.1c0.4-0.6,0.1-0.2-0.1,0.1
			C735.6,782.1,735.6,782.1,735.6,782.1z M725.5,811.5C725.5,811.9,725.5,812.2,725.5,811.5L725.5,811.5z M819.5,860.4
			c-0.4,3.8-0.8,7.6-1.2,11.4c-0.2,1.9-0.4,3.8-0.7,5.7c-0.1,0.9-0.2,1.9-0.4,2.8c0.2-1.6,0,0,0,0.3c-0.1,0.6-0.2,1.3-0.3,1.9
			c-1.1,7.5-2.5,15-4.5,22.3c-0.8,2.9-1.7,5.8-2.8,8.6c-0.5,1.2-1.1,2.5-1.5,3.7c0.1-0.4,0.1-0.6-0.2,0.5c0,0,0,0,0,0
			c0,0,0,0.1,0,0.1c0,0,0,0,0,0c0,0,0,0,0,0c-0.2,0.3-0.3,0.7-0.5,1c-0.4,0.8-0.7,1.6-1.1,2.4c-1.3,2.7-2.7,5.4-4.3,8
			c-0.8,1.3-1.6,2.5-2.4,3.8c-0.4,0.5-0.7,1-1.1,1.5c-0.2,0.3-0.4,0.6-0.7,0.9c-0.1,0.1-0.2,0.2-0.2,0.3c-1,0.9-1.9,2.3-2.8,3.4
			c-1,1.1-2,2.2-3,3.2c-1,1-2.1,2-3.2,3c-0.6,0.5-1.1,1-1.7,1.4c0,0,0,0-0.1,0c0,0,0.1,0,0.1-0.1c-0.4,0.3-0.8,0.6-1.2,0.9
			c-2.4,1.7-4.9,3.3-7.5,4.6c-0.7,0.3-1.3,0.7-2,1c-0.3,0.1-0.7,0.2-1,0.4c-1.7,0.7-3.4,1.2-5.1,1.7c-1.7,0.5-3.5,0.9-5.2,1.2
			c-0.9,0.2-1.8,0.3-2.6,0.4c0,0,0,0,0,0c0,0-0.1,0-0.1,0c-0.5,0.1-1,0.1-1.6,0.2c-3.7,0.3-7.4,0.4-11,0.2c-2-0.1-3.9-0.3-5.8-0.5
			c-0.1,0-0.1,0-0.1,0c0,0,0,0-0.1,0c-0.6-0.1-1.2-0.2-1.8-0.3c-1.1-0.2-2.1-0.4-3.1-0.6c-4.2-0.8-8.3-1.9-12.3-3.1
			c-6.3-1.9-12.4-4.2-18.6-6.5c0.4-1,0.7-2.1,0.8-3.2c11,3.1,22.4,4.9,33.9,5.4c11.6,0.5,24.8,0.2,34.8-6.5
			c5.3-3.6,9.3-8.5,12.8-13.8c3.1-4.7,6-9.7,8.7-14.7c5.6-10.6,10.1-21.7,13.6-33.2c3.9-12.9,6.3-26.2,7.3-39.6c0.2-3.1-2.9-6.1-6-6
			c-3.5,0.2-5.7,2.6-6,6c-0.2,2.8-0.5,5.6-0.8,8.3c0,0.4-0.1,0.7-0.1,1.1c0,0,0,0,0,0c0,0,0,0.1,0,0.1c0,0,0,0,0,0c0,0,0,0,0,0
			c-0.3,1.3-0.1,0.6,0,0.2c-0.1,0.6-0.2,1.2-0.2,1.7c-0.2,1.4-0.4,2.8-0.7,4.1c-1,5.6-2.2,11.1-3.7,16.5c-1.5,5.4-3.2,10.7-5.2,15.9
			c-0.5,1.3-1,2.6-1.5,3.9c-0.2,0.5-0.4,1.1-0.7,1.6c0,0,0,0.1,0,0.1c-0.2,0.4-0.4,0.9-0.6,1.3c-1.1,2.6-2.3,5.1-3.5,7.6
			c-2.5,5-5.2,9.9-8.1,14.6c-1.4,2.3-2.9,4.6-4.5,6.8c-0.2,0.2-0.3,0.5-0.5,0.7c0,0-0.3,0.4-0.5,0.6c-0.1,0.1-0.1,0.2-0.2,0.2
			c-0.2,0.2-0.4,0.4-0.5,0.6c-0.9,1.1-1.8,2.1-2.9,3c-0.5,0.4-0.9,0.8-1.4,1.2c-0.1,0.1-0.1,0.1-0.2,0.2c-0.2,0.1-0.3,0.2-0.4,0.3
			c-1.1,0.8-2.3,1.5-3.5,2.1c-0.2,0.1-0.5,0.2-0.7,0.4c0,0,0,0,0,0c-0.5,0.2-1,0.4-1.6,0.6c-1.3,0.4-2.6,0.8-4,1.1
			c-0.6,0.1-1.2,0.3-1.8,0.4c-0.5,0.1-1.3,0.4-1.9,0.3c0.3,0,0.5-0.1,0.8-0.1c-0.2,0-0.4,0.1-0.6,0.1c-0.3,0-0.7,0.1-1,0.1
			c-0.7,0.1-1.4,0.1-2.1,0.2c-2.7,0.2-5.5,0.2-8.2,0.2c-3.4,0-6.8-0.2-10.3-0.5c-1.7-0.1-3.3-0.3-5-0.5c-0.4,0-0.7-0.1-1.1-0.1
			c-0.1,0-0.3,0-0.4-0.1c-0.9-0.1-1.7-0.3-2.6-0.4c-6.6-1.1-13.2-2.6-19.6-4.6c-0.2-5.2-0.4-10.4-0.3-15.7c0.1-2.6,0.2-5.3,0.4-7.9
			c0.1-1.3,0.2-2.6,0.4-3.9c0-0.1,0-0.2,0-0.4c0-0.1,0-0.3,0-0.3c0.1-0.7,0.2-1.4,0.3-2.1c0.8-4.7,2.1-9.3,3.8-13.8
			c0.1-0.2,0.1-0.4,0.2-0.5c0.2-0.5,0.4-0.9,0.6-1.3c0.5-0.9,0.9-1.9,1.4-2.8c1-1.8,2.1-3.6,3.3-5.3c0.3-0.4,0.6-0.8,0.8-1.2
			c0.1-0.1,0.2-0.3,0.3-0.4c0.7-0.8,1.3-1.6,2-2.3c1.4-1.5,2.9-2.9,4.5-4.2c0.1-0.1,0.2-0.1,0.2-0.2c0,0,0.1-0.1,0.1-0.1
			c0,0,0,0,0,0c0.1-0.1,0.1-0.1,0.2-0.2c0,0-0.1,0.1-0.1,0.1c0.3-0.3,0.7-0.5,1.1-0.7c0.8-0.6,1.7-1.1,2.6-1.6
			c0.9-0.5,1.8-1,2.7-1.4c0.1,0,0.2-0.1,0.3-0.1c0.5-0.2,0.9-0.4,1.4-0.5c1.2-0.4,2.4-0.7,3.6-1c0.7-0.2,1.4-0.3,2.1-0.4
			c0,0,0.1,0,0.2,0c0.2,0,0.9-0.1,1-0.1c3-0.3,6-0.3,9-0.2c6.3,0.2,12.6,0.6,18.9,0.9c3.1,0.2,6.1-2.9,6-6c-0.2-3.4-2.6-5.8-6-6
			c-5.7-0.3-11.5-0.6-17.2-0.8c-2.7-0.1-5.4-0.1-8.1,0c0.6-4.7,0.4-9.5-0.4-14.2c-0.5-2.9-1.4-5.7-2.5-8.4
			c5.9-2.3,10.9-6.7,15.1-11.3c2.1-2.3,2.5-6.2,0-8.5c-2.3-2.1-6.2-2.5-8.5,0c-1.7,1.9-3.5,3.7-5.5,5.3c-0.1,0.1-0.2,0.2-0.3,0.3
			c-0.1,0-0.1,0.1-0.3,0.2c-0.4,0.3-0.9,0.6-1.3,0.9c-1.1,0.7-2.3,1.2-3.3,1.8c-0.2,0.1-0.5,0.2-0.7,0.2c-0.6,0.2-1.1,0.3-1.7,0.5
			c-0.1,0-0.3,0-0.4,0.1c-0.5,0-0.9,0.1-1.4,0.1c-0.5,0-0.9,0-1.4-0.1c-0.1,0-0.3-0.1-0.4-0.1c-0.5-0.1-1-0.2-1.5-0.4
			c-0.1,0-0.3-0.1-0.4-0.1c0,0,0,0,0,0c-0.4-0.2-0.7-0.4-1.1-0.6c0,0-0.2,0-0.3-0.2c0,0,0,0,0,0c-0.1-0.1-0.3-0.2-0.4-0.3
			c0.1,0.1,0.2,0.1,0.3,0.2c-0.2-0.3-0.6-0.7-0.8-0.9c-0.1-0.2-0.3-0.5-0.4-0.7c0,0,0,0,0,0c0.1,0.1,0.1,0.1-0.1-0.4c0,0,0,0,0,0.1
			c0,0,0,0.1,0,0.1c-0.1-0.2-0.1-0.3-0.2-0.4c0.1,0.1,0.1,0.2,0.2,0.3c-0.1-0.3-0.3-1.3-0.4-1.7c0-0.2,0-0.3,0-0.5
			c0-0.7,0-1.3,0.1-2c0-0.2,0-1.4,0-0.4c0,0.9,0,0.1,0-0.2c0.1-0.6,0.2-1.2,0.4-1.8c0.3-1.3,0.7-2.5,1.1-3.8
			c0.9-2.6,1.8-5.3,2.8-7.9c0.8-2.1,1.7-4.2,2.5-6.2c0.1-0.3,0.3-0.6,0.4-1c0.1-0.3,0.2-0.5,0.3-0.8c0-0.1,0.1-0.2,0.1-0.3
			c0-0.1,0.1-0.2,0.1-0.3c0.4-0.9,0.9-1.8,1.5-2.7c0.2-0.3,0.5-0.7,0.7-1c0.2-0.2,0.4-0.6,0.6-0.8c0.7-0.8,1.5-1.6,2.3-2.3
			c0.4-0.3,0.7-0.6,1.1-1c0.1-0.1,1.1-0.8,0.2-0.2c-0.9,0.6,0.2-0.2,0.4-0.3c1.8-1.3,3.8-2.5,5.9-3.4c0.1-0.1,0.3-0.1,0.4-0.2
			c0.5-0.2,0.9-0.4,1.4-0.5c1.1-0.4,2.2-0.7,3.3-1c1.1-0.3,2.2-0.5,3.4-0.7c0,0,0,0,0,0c0,0,0.1,0,0.1,0c0,0,0.1,0,0.1,0
			c0.2,0,0.3,0,0.4,0c0.1,0,0.2,0,0.3,0c0.8-0.1,1.7-0.1,2.5-0.1c0.3,0,0.6,0,0.9,0c0.1,0,0.4,0,0.6,0c0.2,0,0.6,0.1,0.7,0.1
			c0.4,0.1,0.9,0.2,1.3,0.3c0.2,0.1,0.5,0.2,0.7,0.2c0.5,0.3,1.1,0.6,1.6,0.9c0,0,0.2,0.1,0.3,0.2c0.1,0.1,0.2,0.1,0.2,0.2
			c0.2,0.2,0.3,0.3,0.5,0.5c0,0,0-0.1,0-0.1c0,0,0,0.1,0.1,0.2c0.4,0.5,0.3,0.4,0.2,0.3c0.1,0.2,0.2,0.4,0.3,0.6
			c0-0.2,0-0.3,0.2,0.3c0,0,0,0.1,0,0.1c0.1,0.1,0.1,0.2,0.1,0.2c0,0-0.1,0-0.1-0.1c0.1,0.3,0.2,0.6,0.2,1c0,0,0,0.1,0,0.1
			c0,0.4,0,0.8,0,1.1c0,0.4,0,0.7,0,1.1c0,0.1,0,0.3,0,0.4c-0.1,0.7,0,0.5,0.1-0.4c0.2,0.2-0.3,1.7-0.4,2c-0.2,0.7-0.3,1.3-0.6,2
			c-0.1,0.3-0.2,0.5-0.3,0.8c0,0,0,0.1,0,0.1c-0.3,0.6-0.6,1.2-0.9,1.8c-0.4,0.6-0.8,1.3-1.2,1.9c-0.1,0.1-0.6,0.8-0.7,0.9
			c-2.1,2.4-2.5,6.2,0,8.5c2.3,2.1,6.3,2.5,8.5,0c0.2-0.3,0.5-0.5,0.7-0.8c12.1,12.6,24.6,24.9,39.5,34c3.8,2.3,7.7,4.4,11.7,6.2
			c0.1,0.5,0.2,1.1,0.3,1.6C821.1,845.4,820.3,852.9,819.5,860.4z"/>
		<path class="st1" d="M726.3,867.8c0,0-0.1,0.1-0.1,0.1c0,0-0.1,0.1-0.1,0.1C725.8,868.2,725.6,868.6,726.3,867.8z"/>
		<path class="st1" d="M755,771.9c-0.2,0-0.4,0.1-0.5,0.1c0,0,0,0-0.1,0C754.6,772.1,755.1,771.9,755,771.9z"/>
		<path class="st1" d="M727.2,814.9c0,0,0.1,0.1,0.1,0.1c0,0,0.1,0.1,0.1,0.1c0.1,0,0.1,0.1,0.2,0.1
			C727.7,815.2,727.6,815.1,727.2,814.9z"/>
		<path class="st1" d="M765.3,775.6c-0.1-0.1-0.1-0.2-0.2-0.3C765.1,775.4,765.2,775.6,765.3,775.6
			C765.3,775.7,765.3,775.6,765.3,775.6z"/>
		<path class="st1" d="M764.6,774.4C764.6,774.3,764.5,774.3,764.6,774.4C764.5,774.3,764.5,774.3,764.6,774.4
			c-0.1,0,0.1,0.2,0.2,0.3C764.7,774.6,764.6,774.5,764.6,774.4z"/>
	</g>
	<g>
		<path class="st1" d="M664.6,683.4c0,9.1-0.7,18.2-0.3,27.2c0.3,6.2,1,12.4,2.3,18.5c1.2,5.6,3.4,10.7,5.6,16
			c3.7,8.7,9.4,16.4,15.5,23.6c4.7,5.6,10.2,10.6,15.7,15.4c6.6,5.6,13.7,10.4,21,15.1c2.4,1.5,5,2.4,7.8,2.5
			c2.8,0.6,5.6,0.5,8.4-0.4c2.7-0.6,5.1-1.9,7.1-3.8c2.3-1.5,4.1-3.4,5.4-5.9c2.6-4.9,3.9-10.8,2.1-16.2c-0.7-1.7-1.4-3.3-2.1-5
			c-1.9-3.2-4.4-5.7-7.5-7.5c-4.5-2.9-9.1-5.8-13.4-9.1c1.4,1.1,2.8,2.2,4.3,3.3c-3.5-2.7-6.9-5.8-10.1-8.8
			c-4.1-3.9-8.1-8-11.6-12.4c1.1,1.4,2.2,2.8,3.3,4.3c-3.9-5.1-7.3-10.6-9.8-16.5c0.7,1.7,1.4,3.3,2.1,5c-2.1-5-3.4-10.2-4.2-15.5
			c0.3,1.9,0.5,3.7,0.8,5.6c-1.5-11.7-0.4-23.5-0.4-35.3c0-5.4-2.3-11-6.2-14.8c-1.9-2-4.2-3.5-6.8-4.3c-2.5-1.3-5.2-1.9-8.1-1.8
			c-5.4,0.2-11.1,2-14.8,6.2C667,672.6,664.6,677.7,664.6,683.4L664.6,683.4z"/>
	</g>
	<path class="st2" d="M425.7,606c-0.7,16.5-0.5,33,0.5,49.5c0.3,4.8,0.7,9.8,3.1,14.1c2.2,4,5.9,6.9,9.7,9.4
		c5.8,3.7,12.2,6.4,18.9,7.9c18.9,4.4,38.5-0.2,57.5-4.1c26.2-5.4,61.5,2,88.1-0.7l13.9-0.8c71.4,1.1,142.7,1,214.1-0.2l3.6-18.1
		c3.2-44.1,5.3-88.3,6.3-132.5l0.9-7.7c0.5-50.1,0.2-100.3-0.9-150.4l1-13.6c0.2-14.8,0.3-29.5,0.5-44.3c0-4.5,0-9.3-2.1-13.3
		c-2.8-5.1-8.5-7.8-13.8-10.2c-41.6-18.6-91.9-38.3-133.4-56.8"/>
	<g>
		<path class="st1" d="M419.7,606c-0.7,17.2-0.7,34.6,0.7,51.8c0.7,8.4,2.9,16.1,9.4,21.8c6,5.2,13.3,8.9,20.8,11.4
			c16.4,5.5,33.9,3.8,50.6,0.7c4.2-0.8,8.3-1.6,12.4-2.5c3.2-0.7,7.1-1.4,9.6-1.7c7-0.8,14.1-0.9,21.2-0.8
			c14.8,0.3,29.7,1.8,44.5,1.9c9,0,18-0.8,27-1.3c6.2-0.4,12.5,0.1,18.8,0.1c8.7,0.1,17.5,0.2,26.2,0.3c17.5,0.1,34.9,0.2,52.4,0.2
			c35.1,0,70.2-0.2,105.2-0.8c4.4-0.1,8.7-0.1,13.1-0.2c2.5,0,5.3-1.8,5.8-4.4c0.7-3.7,1.4-7.3,2.2-11c1.1-5.4,1.7-10.4,2.1-15.9
			c1.5-21.3,2.7-42.6,3.7-64c0.5-10.5,0.9-21,1.3-31.6c0.2-5.4,0.4-10.8,0.5-16.2c0.1-4.6,0-9.2,0.4-13.7c0.2-2.1,0.5-4.3,0.8-6.4
			c0.5-3.9,0.2-7.9,0.2-11.8c0.1-10.5,0.1-21,0.2-31.5c0-21.3-0.1-42.6-0.4-63.9c-0.1-10.5-0.3-21-0.5-31.5
			c-0.1-6.3-0.3-12.5,0.2-18.7c1.2-16.3,0.8-32.7,1-49.1c0.1-4.9,0.3-10.1-1.2-14.8c-1.5-4.9-4.6-8.7-8.8-11.7
			c-3.3-2.4-7-4-10.7-5.6c-4.2-1.8-8.3-3.7-12.5-5.5c-35.4-15.4-71.3-29.7-106.8-45.1c-4.1-1.8-8.3-3.6-12.4-5.5
			c-3-1.3-6.4-0.9-8.2,2.2c-1.5,2.6-0.8,6.9,2.2,8.2c34.8,15.5,70.1,29.6,105.2,44.6c8.4,3.6,16.7,7.2,25.1,10.9
			c3.7,1.7,7.6,3.2,11,5.5c1.1,0.7,2.4,1.8,3.2,2.9c0.8,1.1,1.4,3,1.7,4.5c0.7,4.3,0.2,9.5,0.2,14c-0.1,5.1-0.1,10.2-0.2,15.4
			c-0.1,7.9,0.2,15.8-0.4,23.7c-0.3,3.9-0.7,7.8-0.8,11.7c-0.2,5.2,0.2,10.5,0.3,15.8c0.1,5.3,0.2,10.5,0.3,15.8
			c0.3,21,0.5,42,0.6,63c0,10.4,0,20.7-0.1,31.1c0,5.3-0.1,10.5-0.1,15.8c0,3.5,0.1,7.1-0.3,10.6c-0.9,7-0.9,13.9-1.1,21
			c-0.3,10.4-0.7,20.8-1.1,31.1c-0.8,21-1.9,42.1-3.3,63.1c-0.3,5.3-0.7,10.5-1,15.8c-0.1,1.2-0.2,2.4-0.2,3.6
			c-0.1,0.7-0.2,1.5-0.2,2.3c0,0.3-0.1,1.9,0.1,0.2c-0.1,0.4-0.2,0.8-0.2,1.2c-0.9,4.5-1.8,9-2.7,13.5c-0.2,1.1-0.4,2.2-0.7,3.3
			c1.9-1.5,3.9-2.9,5.8-4.4c-34.3,0.6-68.6,0.9-103,1c-34.3,0.1-68.7-0.2-103-0.6c-7.6-0.1-15.1,0.1-22.7,0.8c-14,1.2-28,0.1-42-0.7
			c-14.3-0.8-28.8-1.4-43.1,0.8c-7.8,1.2-15.5,3.2-23.3,4.5c-7.9,1.3-15.9,2.2-23.9,1.8c-7.3-0.3-14.7-1.8-21.4-4.9
			c-5.8-2.7-12.5-6.1-15.2-11.8c-1.3-2.7-1.6-5.9-1.8-8.9c-0.3-4.3-0.5-8.5-0.7-12.8c-0.3-8.6-0.4-17.1-0.3-25.7
			c0.1-4.2,0.2-8.4,0.4-12.6c0.1-3.2-2.9-6-6-6C422.4,600,419.8,602.7,419.7,606L419.7,606z"/>
	</g>
	<path class="st3" d="M382.3,443.9c11-70.2,3-141.9-5-212.5h0c6.1,2.3,12.6,3.5,19.1,3.8c97.5,3.4,195.2,2.4,292.6-2.9l4.9,1.5
		c-3.8,33.9-0.1,68.2,3.7,102.1l-1.7,11.9c-2,20.7,3.3,41.4,3.4,62.2c0.1,8.8-0.8,17.7-1.5,26.5c-4.3,53.8-3.6,108,0.4,161.8
		c0.5,6.2-4.3,7.6-4.3,7.6c-67.2,4.8-134.5-7-201.9-5.3c-11.9,0.3-23.8,1-35.7,1.7c-23.3,1.4-46.5,2.8-69.8,4.2l-8.2-1.4
		c-1.2-51.3,0.5-102.6,5-153.7L382.3,443.9z"/>
	<g>
		<path class="st1" d="M388.1,445.5c4.3-27.7,5.9-55.8,5.5-83.8c-0.4-27.9-2.5-55.7-5.3-83.4c-1.6-15.6-3.3-31.3-5.1-46.9
			c-2.5,1.9-5.1,3.9-7.6,5.8c10,3.7,20.3,4,30.7,4.3c10.7,0.3,21.4,0.6,32.1,0.9c21.5,0.5,43.1,0.7,64.6,0.8
			c42.8,0.1,85.6-0.6,128.4-2.2c11.9-0.4,23.9-0.9,35.8-1.5c6-0.3,11.9-0.6,17.9-0.9c0.7,0,1.6,0,2.2-0.1c1.4-0.3,0.3-0.2,0-0.3
			c0.5,0.2,1.1,0.3,1.6,0.5c1,0.3,2.1,0.6,3.1,0.9c-1.5-1.9-2.9-3.9-4.4-5.8c-2.7,24.1-1.6,48.4,0.6,72.5c0.6,6.2,1.2,12.3,1.9,18.5
			c0.3,2.7,0.6,5.4,0.9,8.1c0,0.2,0.3,2.2,0.2,2.2c1.3-0.6,0.2-1.2,0.3-0.7c0,0.3-0.1,0.9-0.2,1.2c-0.9,6.4-2,12.8-2.2,19.3
			c-0.3,11.9,1.4,23.7,2.6,35.4c1.2,11.7,1.5,23.3,0.6,35c-1.8,24.2-3.4,48.3-3.7,72.6c-0.3,24.3,0.2,48.6,1.5,72.8
			c0.3,5.9,0.7,11.9,1.1,17.8c0.2,3,0.4,5.9,0.6,8.9c0,0.6,0,1.2,0.1,1.8c0.1,1.4,0.4-0.9,0,0.3c-0.1,0.3-0.6,1.7,0,0.1
			c-0.1,0.2-0.2,0.4-0.4,0.6c0.6-0.8,0.7-0.9,0.3-0.4c-0.1,0-0.6,0.6-0.6,0.6c0-0.1,1.3-0.8,0.6-0.5c-0.7,0.3-1.8,0.6,0.4,0
			c-0.1,0-0.1,0.1-0.2,0.1c2-0.5-0.2-0.1-0.6-0.1c-1.7,0.1-3.4,0.2-5.1,0.3c-5.9,0.3-11.8,0.5-17.7,0.6
			c-48.2,0.8-96.2-4.9-144.4-6.3c-24-0.7-47.9,0.4-71.8,1.9c-12.1,0.7-24.3,1.5-36.4,2.2c-6.2,0.4-12.4,0.8-18.6,1.1
			c-2.7,0.2-5.4,0.3-8.2,0.5c-0.2,0-2.1,0.3-2.2,0.1c0.7,1,1.1,0.2,0.7,0.2c-0.5,0-1.1-0.2-1.5-0.3c-2.2-0.4-4.3-0.8-6.5-1.1
			c1.5,1.9,2.9,3.9,4.4,5.8c-1-46.1,0.2-92.2,3.7-138.1c0.2-3.2,0.5-6.4,0.8-9.6c0.2-2.6,0.6-5.2,0.2-7.9c-0.3-2.4-0.7-4.8-1-7.2
			c-0.4-3.1-4.6-5.1-7.4-4.2c-3.4,1.1-4.7,4-4.2,7.4c0.3,2.1,0.6,4.3,0.9,6.4c0,0.2,0.2,0.9,0.1,1c-0.9,1.3,0.5-2.8-0.3,0
			c-0.2,0.7-0.1,1.5-0.2,2.2c-0.2,2.8-0.5,5.7-0.7,8.5c-0.9,11.5-1.7,23-2.3,34.5c-1.2,22.8-1.9,45.5-2,68.3
			c-0.1,12.9,0,25.8,0.3,38.6c0.1,2.4,1.8,5.3,4.4,5.8c2.3,0.4,4.5,0.8,6.8,1.2c4.6,0.8,9.5,0.1,14.1-0.2
			c12.4-0.8,24.7-1.5,37.1-2.3c24.5-1.5,48.9-3.3,73.4-3.2c48.7,0.2,97.2,6.2,145.9,6.6c12,0.1,24.1-0.1,36.1-0.9
			c2.4-0.2,4.8-0.1,7-1.2c1.3-0.6,2.4-1.5,3.4-2.5c4.1-4.3,3.5-9.8,3.1-15.3c-1.7-24.5-2.8-49-2.9-73.5c-0.2-24.5,0.5-49,2.2-73.5
			c0.8-12,2.3-24,2.2-36.1c-0.1-12.1-1.9-24.2-3-36.2c-0.5-5.8-0.9-11.6-0.8-17.4c0-1.4,0.1-2.9,0.1-4.3c0-0.7,0.1-1.4,0.1-2.2
			c0-0.2,0-0.5,0.1-0.7c0.1-1,0.1-1-0.1,0.1c0,0,0.3-2.3,0.4-2.4c0.4-2.8,0.8-5.5,1.2-8.3c0.7-4.5-0.4-9.2-0.8-13.8
			c-2.6-24.3-4.8-48.8-3.8-73.3c0.2-5.9,0.7-11.8,1.3-17.7c0.3-2.6-2.1-5.1-4.4-5.8c-2.1-0.6-4.3-1.6-6.4-1.7
			c-2.5-0.1-5,0.3-7.5,0.4c-2.9,0.1-5.7,0.3-8.6,0.4c-10.7,0.5-21.4,1-32.1,1.4c-21.5,0.9-43,1.5-64.6,1.9
			c-42.8,0.9-85.6,0.9-128.4,0.1c-11.9-0.2-23.9-0.5-35.8-0.9c-5.9-0.2-11.9-0.2-17.8-0.6c-5-0.3-10.2-1.5-15.4-3.4
			c-3.4-1.2-8,2.1-7.6,5.8c3.1,27.6,6.3,55.2,8.3,82.9c2,27.5,2.9,55.1,1.5,82.6c-0.8,15.3-2.2,30.7-4.5,45.4
			c-0.5,3.1,0.8,6.6,4.2,7.4C383.6,450.4,387.6,448.8,388.1,445.5z"/>
	</g>
	<path class="st4" d="M415.6,270.5c4.1,65.1,3.2,130.4-2.8,195.4l2.3,10.2c0.3,3.3,0.6,6.6,0.8,9.9c71.4-0.6,142.9-1.1,214.3-1.7
		c10-0.1,20.3-0.1,29.7,3.4l-1.2-15.1c5.3-58.4,5.1-117.3-0.5-175.7l1.8-12c-0.2-6.1-0.3-12.2-0.5-18.4
		c-79.3-5.5-159.1-4.7-238.3,2.4L415.6,270.5z"/>
	<g>
		<path class="st1" d="M409.6,270.5c1.9,30.7,2.8,61.5,2.5,92.3c-0.3,30.8-1.7,61.5-4.3,92.2c-0.2,2.1-0.4,4.3-0.6,6.4
			c-0.2,2-0.6,4.1-0.2,6.1c0.3,1.5,0.7,3,1,4.4c0.4,1.8,0.8,3.5,1.2,5.3c0,0.1,0,0.3,0.1,0.4c-0.1-0.4-0.1-0.7-0.2-1.1
			c0,0.3,0.1,0.7,0.1,1c0,0.6,0.1,1.2,0.1,1.7c0.2,2.2,0.4,4.5,0.6,6.7c0.3,3.2,2.5,6,6,6c32.1-0.3,64.3-0.5,96.4-0.8
			c32.1-0.3,64.3-0.5,96.4-0.8c8.8-0.1,17.7-0.2,26.5-0.2c4.1,0,8.2,0.1,12.3,0.6c0.2,0,0.8,0.2,0.9,0.1c-0.8-0.1-0.9-0.1-0.2,0
			c0.3,0,0.6,0.1,0.9,0.1c1,0.2,2.1,0.4,3.1,0.6c2.1,0.5,4.1,1.1,6.1,1.8c3.5,1.3,7.9-2.1,7.6-5.8c-0.3-3.3-0.5-6.5-0.8-9.8
			c-0.1-1.6-0.3-3.3-0.4-4.9c0-0.8,0.1-1.6,0.1-2.4c0.2-2.2,0.4-4.4,0.6-6.6c1.5-17.9,2.4-35.8,2.8-53.8c0.4-17.9,0.3-35.7-0.2-53.6
			c-0.6-17.9-1.7-35.9-3.3-53.8c-0.1-1.1-0.2-2.1-0.3-3.2c0-0.5-0.1-1-0.1-1.5c-0.1-0.8-0.2-1.3-0.3,0.3c0-0.5,0.1-1,0.2-1.4
			c0.3-2,0.6-4.1,0.9-6.1c0.2-1.5,0.5-2.9,0.7-4.4c0.3-2.2,0.1-4.4,0.1-6.6c-0.1-2.2-0.1-4.5-0.2-6.7c-0.1-2.2-0.1-4.5-0.2-6.7
			c-0.1-3.4-2.7-5.8-6-6c-16.7-1.1-33.3-2-50-2.6c-16.7-0.6-33.4-0.9-50.1-1c-16.7,0-33.4,0.2-50.1,0.7c-16.8,0.5-33.5,1.3-50.3,2.4
			c-8.3,0.5-16.7,1.1-25,1.8c-4.1,0.3-8.2,0.6-12.4,1c-2.2,0.2-4.1,0.8-6.2,1.4c-0.5,0.1-1.1,0.3-1.6,0.4c-3,0.8-5.2,4.3-4.2,7.4
			c1,3.1,4.1,5.1,7.4,4.2c1.5-0.4,3-0.8,4.4-1.2c0.3-0.1,0.7-0.2,1-0.3c0.1,0,0.2,0,0.2-0.1c0.1,0,2.4-0.4-0.5,0.1
			c-1.3,0.2,0.1,0,0.4,0c2.1-0.2,4.1-0.4,6.2-0.5c8.2-0.7,16.5-1.3,24.7-1.9c16.7-1.1,33.3-2,50-2.5c16.6-0.6,33.2-0.9,49.8-0.9
			s33.2,0.2,49.8,0.8c16.7,0.5,33.4,1.3,50,2.4c2.1,0.1,4.1,0.3,6.2,0.4c-2-2-4-4-6-6c0.1,4.5,0.2,8.9,0.4,13.4
			c0,1.2,0.1,2.3,0.1,3.5c0,0.2,0,0.5,0,0.7c0.2,0.9,0-0.9,0.2-0.8c0,0,0,0.2,0,0.2c-0.1,0.6-0.2,1.2-0.3,1.8c-0.5,3.3-1,6.7-1.5,10
			c-0.4,2.5,0.1,5.2,0.4,7.7c0.2,2.2,0.4,4.4,0.6,6.6c0.4,4.4,0.7,8.9,1,13.3c0.6,9,1.1,17.9,1.5,26.9c0.7,17.9,0.9,35.7,0.6,53.6
			c-0.3,18-1.1,35.9-2.5,53.8c-0.3,4.4-0.7,8.9-1.1,13.3c-0.1,1.5-0.1,2.8,0,4.4c0.3,3.9,0.6,7.9,0.9,11.8c0,0.3,0,0.6,0.1,0.9
			c2.5-1.9,5.1-3.9,7.6-5.8c-7.3-2.7-15.3-3.4-23.1-3.6c-7.7-0.2-15.5,0-23.2,0.1c-16.2,0.1-32.3,0.3-48.5,0.4
			c-32.1,0.3-64.3,0.5-96.4,0.8c-18.2,0.1-36.3,0.3-54.5,0.4c2,2,4,4,6,6c-0.2-2-0.3-4-0.5-5.9c-0.2-1.9-0.2-3.8-0.6-5.6
			c-0.3-1.2-0.6-2.5-0.8-3.7c-0.4-1.7-0.8-3.4-1.2-5.1c-0.1-0.4-0.2-0.8-0.3-1.2c0.4,2,0.3,0.4,0.4-0.4c0.1-1,0.2-2,0.3-3
			c1.3-15.3,2.4-30.7,3.2-46c1.6-30.7,2-61.5,1.3-92.3c-0.4-17.4-1.1-34.7-2.2-52.1c-0.2-3.1-2.6-6.2-6-6
			C412.5,264.6,409.4,267.1,409.6,270.5z"/>
	</g>
	<path class="st5" d="M658.6,293.1c-69.5,5.3-146.5,5-216-0.1c-4.2,18.2-4.1,37.1-3.9,55.7c0.6,45,2.1,90,4.6,134.9
		c0,0,206.2-1.5,216.7,4c-1.9-15-0.6-25.1,0-33.3c0.6-8.2,3-84.4,1.8-107.3C660.6,324.1,658.6,293.1,658.6,293.1z"/>
	<g>
		<path class="st1" d="M658.6,287.1c-27.9,2.1-55.9,3.3-83.9,3.7c-28.5,0.4-56.9,0-85.4-1.2c-15.6-0.6-31.2-1.5-46.8-2.7
			c-2.5-0.2-5.2,2-5.8,4.4c-5.5,24.4-4.3,49.7-3.8,74.5c0.5,25.2,1.2,50.3,2.3,75.5c0.6,14.1,1.3,28.2,2.1,42.3c0.2,3.2,2.6,6,6,6
			c1.8,0,3.7,0,5.5,0c5,0,10-0.1,15-0.1c7.4,0,14.9-0.1,22.3-0.1c9.1,0,18.2,0,27.3,0c10.1,0,20.2,0,30.3,0.1
			c10.2,0.1,20.5,0.1,30.7,0.2c9.7,0.1,19.4,0.2,29.1,0.4c8.4,0.2,16.8,0.4,25.2,0.7c6.4,0.2,12.8,0.5,19.2,1
			c2.2,0.2,4.4,0.3,6.6,0.6c0.2,0,0.4,0.1,0.7,0.1c0.8,0.1-2.1-0.3-0.9-0.1c0.4,0.1,0.7,0.1,1.1,0.2c0.6,0.1,1.2,0.2,1.8,0.4
			c0.2,0.1,0.4,0.1,0.6,0.2c1,0.3-1.7-0.8-0.9-0.4c1.9,1,4.1,1.1,6.1,0c1.7-1,3.2-3.2,3-5.2c-1.2-9.3-1.1-18.6-0.4-27.9
			c0.3-3.6,0.5-7.2,0.7-10.8c0.5-11,0.8-22.1,1.1-33.1c0.4-14.2,0.7-28.4,0.8-42.5c0.1-12.1-0.2-24.1-0.9-36.2
			c-0.8-14.4-1.7-28.8-2.6-43.2c0-0.3,0-0.6-0.1-0.8C664.4,290,662,286.9,658.6,287.1c-3.1,0.1-6.2,2.6-6,6
			c0.8,12.4,1.6,24.9,2.3,37.3c0.4,7.2,0.9,14.3,1.1,21.5c0.2,5.5,0.2,11.1,0.1,16.6c0,14.1-0.3,28.1-0.7,42.1
			c-0.3,11.9-0.6,23.7-1.1,35.6c-0.4,11-1.8,22-1.1,33c0.2,2.8,0.4,5.6,0.8,8.4c3-1.7,6-3.5,9-5.2c-3.4-1.7-7.5-1.9-11.1-2.2
			c-5.7-0.5-11.4-0.8-17.2-1.1c-8-0.3-15.9-0.6-23.9-0.8c-9.5-0.2-18.9-0.4-28.4-0.5c-10.2-0.1-20.4-0.2-30.6-0.3
			c-10.3-0.1-20.5-0.1-30.8-0.1c-9.5,0-18.9,0-28.4,0c-8,0-15.9,0-23.9,0.1c-5.7,0-11.4,0-17.1,0.1c-2.7,0-5.4,0-8.1,0
			c-0.1,0-0.2,0-0.3,0c2,2,4,4,6,6c-1.4-25-2.5-50.1-3.3-75.2c-0.8-24.7-1.6-49.5-1.4-74.3c0-6.8,0.2-13.5,0.8-20.3
			c0.1-1.8,0.3-3.5,0.5-5.3c0.1-0.8,0.2-1.6,0.3-2.4c0.2-1.6-0.1,0.9,0-0.1c0.1-0.5,0.1-1,0.2-1.4c0.5-3.4,1.1-6.8,1.9-10.2
			c-1.9,1.5-3.9,2.9-5.8,4.4c27.9,2,55.9,3.3,83.9,3.8c28.5,0.5,56.9,0.2,85.4-0.9c15.6-0.6,31.2-1.5,46.8-2.7c3.1-0.2,6.2-2.6,6-6
			C664.5,290,662,286.8,658.6,287.1z"/>
	</g>
	<path class="st2" d="M411.3,520.2c-0.4,10-0.8,20-1.1,30c-0.1,3-0.2,6.2,1.1,8.9c3.1,6.5,11.8,7.4,19,7.3
		c72.3-0.5,144.7-1.1,217-1.6c1.9,0,3.9,0,5.7-0.7c6.9-2.6,7.3-12.2,5.5-19.4c-1.8-7.2-4.1-15.7,0.8-21.2c-17.3-3.6-35.1-2.7-52.8-2
		c-59.2,2.4-118.4,2.4-177.6,0L411.3,520.2z"/>
	<g>
		<path class="st1" d="M405.3,520.2c-0.2,6-0.5,12-0.7,18c-0.1,3-0.2,6-0.3,9c-0.1,2.7-0.3,5.5,0,8.2c0.3,3.1,1.1,6.1,3,8.6
			c1.6,2.2,3.6,4,6,5.2c4.3,2.2,9.1,2.9,13.9,3.1c5.5,0.2,11,0,16.4,0c5.9,0,11.8-0.1,17.7-0.1c12-0.1,23.9-0.2,35.9-0.3
			c23.9-0.2,47.7-0.3,71.6-0.5s47.7-0.3,71.6-0.5c2.9,0,5.8,0,8.8-0.1c3-0.1,6.2-0.7,8.8-2.4c4-2.7,6.4-7,7.1-11.7
			c0.7-4.8,0.3-9.4-0.8-14.1c-0.6-2.3-1.1-4.5-1.5-6.8c0-0.3-0.1-0.5-0.1-0.8c-0.2-0.9,0.2,1.6,0,0.3c0-0.5-0.1-1-0.1-1.5
			c0-0.5,0-1,0-1.5c0-0.5,0.2-1.4,0.1-1.8c0.2,0.8-0.2,1.2,0,0.3c0-0.2,0.1-0.5,0.1-0.7c0.1-0.5,0.4-1,0.5-1.5
			c0,0.1-0.6,1.3-0.2,0.5c0.1-0.2,0.2-0.4,0.3-0.6c0.1-0.2,0.3-0.4,0.4-0.6c0.6-1.1-0.9,1,0,0c1.4-1.7,2.1-3.6,1.5-5.8
			c-0.5-1.9-2.2-3.8-4.2-4.2c-18.1-3.8-36.5-3-54.9-2.2c-18.6,0.7-37.2,1.3-55.9,1.5s-37.2,0.3-55.9,0.1
			c-18.6-0.2-37.2-0.6-55.9-1.3c-8.8-0.3-17.5-0.9-26.3-1.6c-0.3,0-0.6,0-0.8-0.1C408.2,514,405.2,517.1,405.3,520.2
			c0.2,3.4,2.6,5.8,6,6c6.6,0.5,13.3,1.1,19.9,1.4c18.5,0.7,37.1,1.2,55.6,1.5c18.6,0.3,37.3,0.3,55.9,0.1
			c18.5-0.2,37.1-0.7,55.6-1.3c9.1-0.3,18.2-0.8,27.3-0.9c4.4-0.1,8.8,0,13.3,0.2c2.2,0.1,4.5,0.3,6.7,0.5c1.1,0.1,2.2,0.2,3.3,0.3
			c0.5,0.1,1,0.1,1.4,0.2c1.2,0.1,0,0-0.2,0c0.3,0,0.6,0.1,1,0.1c2.2,0.3,4.4,0.7,6.6,1.2c-0.9-3.3-1.8-6.7-2.6-10
			c-3.7,4.3-5.1,9.6-4.6,15.2c0.4,4.8,1.9,9.3,2.7,14c0,0.2,0.1,0.4,0.1,0.6c0.2,1-0.1-0.6-0.1-0.6c0,0.5,0.1,1,0.1,1.5
			c0.1,1,0.1,1.9,0.1,2.9c0,0.5-0.1,1-0.1,1.4c-0.1,1,0.3-1.6,0,0c-0.2,0.9-0.4,1.8-0.7,2.6c-0.3,0.9,0.2-0.6,0.3-0.6
			c-0.1,0.1-0.2,0.4-0.3,0.5c-0.2,0.4-0.4,0.7-0.7,1.1c-0.3,0.6,0.9-1,0.4-0.5c-0.2,0.2-0.3,0.4-0.5,0.5c-0.1,0.1-0.3,0.3-0.4,0.4
			c-0.7,0.7,1-0.6,0.4-0.3c-0.4,0.2-0.7,0.5-1.1,0.7c-0.7,0.4,0.4-0.5,0.6-0.2c0,0-0.9,0.3-0.8,0.3c0,0-0.8,0.2-0.9,0.2
			c0.4,0.2,1.1-0.1,0.3,0c-0.7,0-1.5,0.1-2.2,0.1c-23.3,0.3-46.5,0.3-69.8,0.5c-23.3,0.2-46.6,0.3-69.8,0.5
			c-23.3,0.2-46.6,0.3-69.8,0.5c-4.8,0-9.6,0.3-14.4-0.2c-0.4,0-0.9-0.3,0.6,0.1c-0.2-0.1-0.5-0.1-0.7-0.1c-0.4-0.1-0.9-0.2-1.3-0.3
			c-1-0.2-1.9-0.5-2.9-0.8c-1.1-0.4,1.1,0.5,0.4,0.2c-0.2-0.1-0.4-0.2-0.6-0.3c-0.4-0.2-0.8-0.4-1.2-0.7c-0.2-0.1-0.3-0.2-0.5-0.3
			c-0.5-0.3-0.1-0.5,0.5,0.4c-0.3-0.4-0.8-0.7-1.1-1.1c-0.4-0.4-0.2-0.6,0.4,0.5c-0.1-0.2-0.3-0.4-0.4-0.5c-0.1-0.2-0.5-1.1-0.6-1.1
			c0.4,0.1,0.3,1.1,0.1,0.2c-0.1-0.3-0.2-0.7-0.3-1c-0.1-0.2-0.4-1.1-0.1-0.3c0.3,0.8,0-0.2,0-0.5c-0.2-2.8,0-5.6,0.1-8.4
			c0.2-5.8,0.4-11.7,0.7-17.5c0.1-2.8,0.2-5.7,0.3-8.5c0.1-3.1-2.8-6.1-6-6C407.9,514.3,405.4,516.8,405.3,520.2z"/>
	</g>
	<g>
		<g>
			<path class="st1" d="M428.3,523.3c-1.8,6.6-2.8,13.9,0.4,20.2c1.9,3.7,5.5,6.2,9.4,7.4c3.8,1.1,8.1,1.1,12.1,1.3
				c16.5,1,33.1,1.1,49.6,1c16.7-0.2,33.3-0.6,50-0.9c16.6-0.3,33.2-0.7,49.9-1s33.2-0.7,49.9-1c2.1,0,4.2-0.1,6.2-0.1
				c3.1-0.1,6.1-2.7,6-6c-0.1-3.2-2.6-6.1-6-6c-32.4,0.7-64.8,1.4-97.2,2c-32.3,0.7-64.7,1.9-96.9,0.7c-4.5-0.2-8.9-0.4-13.4-0.7
				c-1.1-0.1-2.2-0.1-3.4-0.2c-0.4,0-0.8-0.1-1.2-0.1c-0.1,0-0.3,0-0.4,0c-0.7-0.1-0.5-0.1,0.4,0.1c0,0-2.5-0.5-2.7-0.6
				c-0.1,0-0.2-0.1-0.4-0.1c-0.6-0.2-0.5-0.2,0.4,0.2c-0.1,0.1-1.2-0.8-1.3-0.8c0.2,0.2,0.5,0.4,0.7,0.5c-0.2-0.1-0.3-0.3-0.5-0.4
				c-0.2-0.1-0.3-0.3-0.4-0.5c-0.4-0.5-0.3-0.3,0.4,0.5c-0.1-0.3-0.4-0.5-0.5-0.8c-0.8-1.4,0.3,1,0,0c-0.2-0.6-0.4-1.2-0.5-1.8
				c-0.1-0.7,0.1-1.2,0,0.3c0-0.4-0.1-0.9-0.1-1.3c0-0.8,0-1.6,0.1-2.4c0-0.4,0.1-0.7,0.1-1c0.1-1.1-0.2,1.5,0-0.2
				c0.3-1.6,0.6-3.2,1.1-4.8c0.8-3-1-6.7-4.2-7.4C432.5,518.4,429.2,520,428.3,523.3L428.3,523.3z"/>
		</g>
	</g>
	<g>
		<path class="st1" d="M705.1,609.9c7.5-0.4,15-0.8,22.5-1.2c3.7-0.2,7.4-0.4,11.1-0.6c0.9,0,1.8-0.1,2.7-0.1c0.1,0,1,0,1,0
			c-0.3,0-0.5-0.1-0.8-0.1c-1.4-0.5-2.3-1.4-2.7-2.8c0,0.1,0.1,0.2,0.1,0.3c0.1,0.6,0.1,0.5-0.1-0.5c0,0.2,0,0.6,0.1,0.9
			c0.1,1.2,0.1,2.3,0.2,3.5c0.7,14.9,0.7,29.7-0.1,44.6c-0.4,8.4-1.1,16.8-1.9,25.2c-0.3,3.1,3,6.1,6,6c3.5-0.2,5.7-2.6,6-6
			c1.6-15.6,2.5-31.3,2.5-47c0-7.9-0.2-15.9-0.6-23.8c-0.1-2,0-4.1-0.6-6c-1-3.7-4-6-7.8-6.2c-1.7-0.1-3.4,0.1-5.1,0.2
			c-2,0.1-4,0.2-5.9,0.3c-8.9,0.5-17.8,0.9-26.7,1.4c-3.1,0.2-6.2,2.6-6,6C699.2,607,701.7,610.1,705.1,609.9L705.1,609.9z"/>
	</g>
	<path class="st4" d="M463.5,635.3c-2.6-1.8-6.3-0.1-7.9,2.5c-1.6,2.7-1.6,6-1.6,9.1c0,3.1,0.1,6.4,1.7,9.1
		c3.2,5.5,10.7,6.1,17.1,6.1c1.7,0,3.8-0.2,4.7-1.6c0.5-0.8,0.6-1.7,0.7-2.7c0.6-6.9,1.2-13.9,1.8-20.8c-2.5-0.9-5.1-1.4-7.7-1.2
		L463.5,635.3z"/>
	<g>
		<path class="st1" d="M466.6,630.1c-3.5-2.2-7.8-1.9-11.3,0c-3.3,1.8-5.6,5.2-6.5,8.8c-0.8,3.2-0.8,6.6-0.7,9.9
			c0.1,3.6,0.7,7.4,2.6,10.5c3.5,5.6,9.6,7.7,15.9,8.5c6.3,0.7,15.2,0.9,17.2-6.8c0.6-2.1,0.6-4.5,0.7-6.7c0.2-1.8,0.3-3.6,0.5-5.5
			c0.3-4,0.7-7.9,1-11.9c0.2-2.8-2.1-4.9-4.4-5.8c-3.7-1.4-7.6-1.4-11.5-1.6c-2.2-0.1-4.3-0.2-6.5-0.3c-3.1-0.2-6.1,2.9-6,6
			c0.2,3.4,2.6,5.8,6,6c2.1,0.1,4.2,0.2,6.3,0.3c0.8,0,1.6,0.1,2.4,0.1c0.4,0,0.8,0,1.2,0c0.4,0,0.8,0,1.2,0.1c1,0-0.2-0.1-0.2-0.1
			c0.1-0.1,1.6,0.3,1.8,0.4c0.8,0.2,1.5,0.4,2.2,0.7c-1.5-1.9-2.9-3.9-4.4-5.8c-0.5,5.6-0.9,11.2-1.4,16.9c-0.1,1.3-0.2,2.6-0.3,4
			c0,0.4-0.3,1,0.1-0.4c-0.1,0.5-0.3,0.6,0.2-0.3c0.1-0.1,1-1,0.3-0.4c0.2-0.2,0.5-0.4,0.7-0.6c0.9-0.3,1.1-0.4,0.7-0.3
			c-0.2,0-0.7,0.1-0.8,0.2c0.1-0.1,1.5-0.1,0.5-0.1c-0.5,0-0.9,0-1.4,0c-1,0-1.9,0-2.9-0.1c-0.9,0-1.9-0.1-2.8-0.2
			c-0.8-0.1,1.3,0.2,0.6,0.1c-0.2,0-0.5-0.1-0.7-0.1c-0.5-0.1-1-0.2-1.5-0.3c-0.5-0.1-1-0.3-1.4-0.4c-0.2-0.1-0.4-0.2-0.6-0.2
			c-0.7-0.2,1.2,0.6,0.5,0.2c-0.4-0.2-0.8-0.4-1.1-0.6c-0.2-0.1-0.4-0.2-0.5-0.3c-0.8-0.5,0.1,0,0.3,0.3c-0.2-0.3-0.7-0.6-0.9-0.9
			c-0.1-0.1-0.3-0.4-0.4-0.5c0.8,0.5,0.7,1,0.4,0.4c-0.2-0.3-0.8-1-0.7-1.3c-0.1,0.3,0.4,1,0.1,0.3c-0.1-0.4-0.2-0.8-0.3-1.2
			c0-0.2-0.1-0.7-0.2-0.8c0.4,0.6,0.1,1,0,0.3c0-0.6-0.1-1.1-0.1-1.7c-0.1-1.3-0.1-2.6,0-3.9c0-0.6,0-1.3,0.1-1.9
			c0-0.2,0.1-1.2,0-0.3c-0.1,1,0.1-0.2,0.1-0.5c0.1-0.3,0.1-0.5,0.2-0.8c0.1-0.2,0.1-0.4,0.2-0.6c0.2-0.4,0.1-0.3-0.2,0.5
			c0-0.1,0.4-0.7,0.4-0.7c0.4-0.9-0.7,0.7-0.2,0.3c0.2-0.2,0.4-0.4,0.6-0.6c0.7-0.7-0.9,0.5-0.3,0.2c0.2-0.1,0.4-0.2,0.6-0.3
			c0.6-0.4-1.3,0.4-0.4,0.2c0.1,0,0.5-0.1,0.6-0.2c-1,0.1-1.3,0.2-0.8,0.1c0.2,0,0.3,0,0.5,0c-0.1,0-1.5-0.3-0.7,0
			c-0.6-0.2-1.1-0.6-0.3,0c2.7,1.7,6.7,0.6,8.2-2.2C470.3,635.3,469.4,631.9,466.6,630.1z"/>
	</g>
	<g>
		<path class="st1" d="M517.1,341.9c0,0-0.1,0.1-0.1,0.1c-0.1,0.4-0.1,0.7,0.6-0.7c-0.1,0.1-0.2,0.2-0.3,0.2
			C517.3,341.7,517.2,341.8,517.1,341.9z"/>
		<path class="st1" d="M523.3,346.7c-2-2-4.5-3.1-7.2-3.3c0.3-0.5,0.6-0.9,0.9-1.4c0.1-0.2,0.1-0.3,0.2-0.4c0,0,0.1-0.1,0.1-0.1
			c0.2-0.2,0.4-0.5,0.5-0.7c-0.1,0.2-0.2,0.4-0.2,0.5c0,0,0,0,0,0c2.2-1.8,4.4-3.6,6.6-5.5c2-1.7,2.2-5.1,0.9-7.3
			c-2.7-5.4-6.1-11-11.9-13.5c-6.5-2.8-14.1-1.7-19.8,2.6c-5.7,4.3-9,10.5-11.2,17.2c-2.1,6.5-3.5,13.5-3.3,20.3
			c0.2,6.5,1.8,13.1,5.2,18.7c3.6,5.9,8.9,10.2,15.5,12.6c3.4,1.2,7.2,2,10.8,2.2c4.1,0.2,7.9-1.3,11.1-3.8
			c5.5-4.5,7.2-11.9,7.1-18.7C528.7,359.6,528.2,351.5,523.3,346.7z"/>
	</g>
	<path class="st1" d="M602.3,346.9c-1.9-1.6-4.1-2.6-6.3-3.1c0.9-1.2,1.8-2.4,2.7-3.7c0.5-0.7,1.1-1.5,1.6-2.2
		c0.3-0.4,0.5-0.7,0.8-1.1c0.3-0.3,0.6-0.7,0.9-1.1c1.2-1.5,2-2.8,2.7-4.6c1.4-3.6,0.3-8.1-2.8-10.5c-0.2-0.2-0.4-0.3-0.6-0.5
		c-0.2-0.2-0.4-0.3-0.6-0.5c-2.4-1.7-4.6-3.6-7.1-5.2c-3-1.9-6.3-3.1-9.8-3.5c-6.7-0.7-13.6,2.8-18,7.7c-4.6,5.1-7.1,11.7-8.7,18.3
		c-1.6,6.8-2.8,14-2,21c0.6,6.3,2.4,12.7,6.2,17.9c3.8,5.3,9,9.5,15.4,11.1c6.1,1.5,13,0.9,18.4-2.6c5.8-3.8,8.9-10,10.6-16.6
		C607.4,361.1,608.6,352.1,602.3,346.9z"/>
	<path class="st0" d="M540.3,417.7c-7.9,0.6-15.1-4-22.3-7.4c-7.1-3.4-16.2-5.6-22.6-1c-4.3,3.1-6.2,8.8-5.7,14.1
		c0.5,5.3,3.2,10.2,6.6,14.2c3.6,4.3,8.1,7.9,13.1,10.4c6.9,3.5,14.7,5,22.4,5.7c11.8,1.1,24.1,0.3,35.1-4.1s20.8-12.7,25.3-23.7
		c1.7-4,2.5-8.9,0.4-12.7c-3.5-6.2-12.5-6.2-19.4-4.5c-7.9,1.9-15.5,4.9-22.6,8.9L540.3,417.7z"/>
	<g>
		<path class="st1" d="M592.8,405c-3.4-2.4-8-3.1-12.1-3.1c-4.2,0-8.4,0.9-12.5,2.1c-4.9,1.4-9.7,3.2-14.4,5.4
			c-1.6,0.7-3.2,1.5-4.8,2.4c-2.8,0-5.5,0-8.3,0c-0.2,0-0.4,0-0.6,0c-1.1,0.1-2.1,0.1-3.2,0c-0.2,0-1-0.2-0.4-0.1c0,0-0.1,0-0.1,0
			c-0.6-0.1-1.1-0.2-1.7-0.4c-1-0.3-2.1-0.6-3.1-1c-0.3-0.1-1.3-0.7-1.6-0.6c-0.2-0.1-0.4-0.2-0.6-0.3c-4.4-2-8.6-4.4-13.2-6.2
			c-8.8-3.4-19.8-3.9-26.9,3.3c-3.7,3.7-5.5,8.6-5.9,13.7c-0.5,4.9,1,10,3.2,14.3c4.2,8.3,12,15.3,20.3,19.3
			c9.2,4.4,19.4,6,29.5,6.5c9.8,0.4,19.8-0.5,29.1-3.6c8.4-2.9,16.2-7.4,22.5-13.8c3-3,5.6-6.5,7.6-10.3c2.3-4.3,4.2-9.2,4.1-14.1
			C599.9,412.9,597.3,408.1,592.8,405z M530.5,409.7c-0.1,0-0.1-0.1-0.2-0.1C530.5,409.7,531.5,410.2,530.5,409.7z M495.6,423.3
			c0-0.1,0-0.1,0-0.2C495.6,423.2,495.6,423.2,495.6,423.3z M496.9,427.6C496.6,427.1,496.7,427.3,496.9,427.6L496.9,427.6z
			 M499.7,432.5c0,0,0.1,0.1,0.1,0.1c-0.7-1-1.3-1.9-1.9-2.9c-0.2-0.4-0.5-0.9-0.7-1.3c-0.1-0.2-0.2-0.4-0.3-0.6
			c-0.1-0.5-0.4-1-0.5-1.4c-0.2-0.6-0.4-1.2-0.5-1.8c0-0.1-0.1-0.5-0.2-0.8c0,0,0-0.1,0-0.3c0-0.2,0-0.5-0.1-0.7c-0.1-1,0.1-2,0.1-3
			c0,1.7,0,0.3,0.1-0.2c0.1-0.5,0.2-1,0.4-1.4c0-0.1,0.1-0.4,0.2-0.6c0-0.1,0.1-0.1,0.1-0.2c0.1-0.3,0.3-0.5,0.4-0.8
			c0.2-0.3,0.5-0.7,0.7-1.1c0.1-0.1,0.2-0.2,0.3-0.3c0.3-0.3,0.5-0.5,0.8-0.8c0.2-0.1,0.4-0.3,0.6-0.4c0.4-0.2,0.8-0.4,1.2-0.6
			c0.1,0,0.2-0.1,0.3-0.1c0.5-0.1,1-0.3,1.4-0.4c0.1,0,0.4-0.1,0.5-0.1c0.9-0.1,1.9-0.1,2.8,0c0.2,0,0.3,0,0.5,0c0.1,0,0.3,0,0.4,0
			c0,0,0,0,0,0c0.1,0,0.3,0,0.4,0c-0.1,0-0.2,0-0.3,0c0.3,0.1,0.7,0.1,1,0.2c2,0.4,4,1.1,5.9,1.8c0,0,0.1,0,0.1,0
			c0.1,0,0.2,0.1,0.3,0.1c-4,6.9-7.6,14-10.9,21.3c-0.7-0.7-1.3-1.3-2-2.1c-0.4-0.4-0.7-0.8-1.1-1.3
			C500,432.8,499.9,432.7,499.7,432.5z M528.7,447.6c-0.2,0-0.3,0-0.5-0.1c0,0-0.1,0-0.1,0c-0.6-0.1-1.2-0.2-1.8-0.3
			c-1.2-0.2-2.4-0.4-3.5-0.7c-2.3-0.5-4.6-1.2-6.9-2c-0.1-0.1-1.7-0.5-1.7-0.6c0,0,1,0.5,0.4,0.2c-0.3-0.1-0.5-0.2-0.8-0.4
			c-0.2-0.1-0.5-0.2-0.7-0.3c3.5-7.9,7.4-15.5,11.7-23c2.4,1.1,4.9,2,7.5,2.6c0.9,0.2,1.8,0.4,2.8,0.5c-0.1,0.5-0.2,1-0.2,1.6
			c0.4,7.8,1.1,15.5,2,23.2C534.2,448.1,531.4,447.9,528.7,447.6z M565.6,443.9c-0.1,0.1-0.3,0.1-0.4,0.2c-0.6,0.3-1.3,0.5-1.9,0.7
			c-2.3,0.8-4.6,1.5-7,2c-1.1,0.2-2.2,0.5-3.4,0.7c-0.5,0.1-1.1,0.2-1.6,0.3c-0.2,0-0.3,0-0.3,0.1c-0.2,0-0.4,0-0.6,0.1
			c-0.5,0.1-1,0.1-1.5,0.1c-0.1-0.7-0.2-1.5-0.3-2.2c-0.3-2.3-0.5-4.6-0.7-6.9c-0.4-4.6-0.7-9.2-1-13.8c0-0.4-0.1-0.9-0.2-1.3
			c1.6,0,3.1,0.1,4.7-0.1c1.7-0.2,3.2-1.2,4.7-2c0.9-0.5,1.8-0.9,2.7-1.3c4.1,6.9,8.5,13.7,13.1,20.3c-1.2,0.8-2.5,1.5-3.7,2.1
			C567.3,443.1,566.4,443.5,565.6,443.9z M582.2,431.5C582.2,431.5,582.3,431.5,582.2,431.5C582.3,431.4,582.2,431.5,582.2,431.5z
			 M582.3,431.4c0.2-0.3,0.8-0.9,0.2-0.2C582.4,431.2,582.4,431.3,582.3,431.4z M586.6,424.1c-0.1,0.1-0.1,0.3-0.2,0.4
			c-0.2,0.4-0.4,0.8-0.6,1.2c-0.5,1-1,1.9-1.6,2.8c-0.5,0.8-1,1.6-1.6,2.3c0,0-0.3,0.4-0.4,0.5c-0.3,0.3-0.5,0.6-0.8,0.9
			c-0.2,0.2-0.3,0.4-0.5,0.5c-3.8-5.5-7.4-11.2-10.9-16.9c0.7-0.2,1.3-0.4,2-0.6c1.7-0.5,3.4-0.8,5.1-1.2c0.1,0,0.3-0.1,0.5-0.1
			c0.1,0,0.2,0,0.3-0.1c-0.1,0-0.1,0-0.2,0.1c0.1,0,0.2,0,0.3,0c0.5,0,0.9-0.1,1.4-0.1c0.9,0,1.8,0,2.7,0c0.3,0,0.6,0.1,0.9,0.1
			c0.1,0,0.2,0,0.2,0c0.8,0.2,1.5,0.4,2.2,0.7c0.1,0.1,0.2,0.1,0.3,0.2c0.2,0.1,0.4,0.3,0.6,0.4c0.1,0.1,0.2,0.1,0.2,0.2
			c0.1,0.1,0.2,0.2,0.2,0.2c0.1,0.3,0.4,0.6,0.5,0.8c0,0,0,0,0,0c0,0.1,0.1,0.3,0.1,0.4c0,0.2,0.1,0.3,0.1,0.5c0,0.5,0.1,1,0.1,1.5
			c0,0.2,0,0.5,0,0.7c-0.1,0.4-0.1,0.8-0.2,1.1C587.4,422,587,423.1,586.6,424.1z"/>
		<path class="st1" d="M506.7,412.9c0,0-0.1,0-0.1,0c-0.2,0-0.3,0-0.5,0C506,412.8,506.1,412.8,506.7,412.9z"/>
		<path class="st1" d="M577.9,414.1c0,0-0.1,0-0.1,0c-0.2,0-0.3,0.1-0.5,0.1C577.1,414.3,577.2,414.2,577.9,414.1z"/>
		<path class="st1" d="M499.9,432.6C499.9,432.7,499.9,432.7,499.9,432.6C500.1,433,500.5,433.3,499.9,432.6z"/>
	</g>
	<g>
		<path class="st1" d="M927.8,602.1c3.1-4.8,5.8-9.8,8-15.1c2.9-6.8,5.6-13.6,7-20.9c1.5-7.2,2.4-14.7,2.2-22.1
			c-0.1-4.4-0.8-8.8-1.4-13.1c-0.4-2.4-0.8-4.9-1.5-7.3c-1.7-6.5-4.3-12.9-7.5-18.8c-3.2-5.9-7.3-11.4-11.8-16.2
			c-9.9-10.5-22.8-16.9-36.2-21.7c-3-1.1-6-2-9.1-2.9c-3.3-1-6.1-1.7-9.7-2c-0.4,0-0.8-0.1-1.2-0.1c-4.1-0.3-8.2-0.6-12.2-1.1
			c1.9,0.3,3.7,0.5,5.6,0.8c-7.9-1.1-15.7-2.9-23.5-4.6c-9.5-2.1-19.1-3.9-28.8-4.7c-4.5-0.4-8.9-0.4-13.4-0.1
			c-2.9-0.1-5.6,0.5-8.1,1.8c-2.6,0.8-4.9,2.3-6.8,4.3c-2,1.9-3.5,4.2-4.3,6.8c-1.3,2.5-1.9,5.2-1.8,8.1c0.2,5.4,2,11.1,6.2,14.8
			c3.9,3.6,9.4,6.6,14.8,6.2c6.2-0.5,12.4-0.2,18.6,0.6c-1.9-0.3-3.7-0.5-5.6-0.8c8.7,1.2,17.3,3.2,25.9,5.1c9.4,2,19,3.6,28.6,4.4
			c2,0.2,4,0.3,6.1,0.5c-1.9-0.3-3.7-0.5-5.6-0.8c6.5,1.9,13,3.9,19.3,6.5c-1.7-0.7-3.3-1.4-5-2.1c5.3,2.2,10.3,5,14.9,8.5
			c-1.4-1.1-2.8-2.2-4.3-3.3c3.5,2.7,6.6,5.8,9.3,9.3c-1.1-1.4-2.2-2.8-3.3-4.3c3.2,4.1,5.8,8.6,7.8,13.4c-0.7-1.7-1.4-3.3-2.1-5
			c2.2,5.3,3.7,10.8,4.5,16.5c-0.3-1.9-0.5-3.7-0.8-5.6c0.8,6,0.7,12.1-0.1,18.1c0.3-1.9,0.5-3.7,0.8-5.6c-1,7.3-3,14.3-5.8,21.1
			c0.7-1.7,1.4-3.3,2.1-5c-2.2,5.3-4.9,10.3-8,15.1c-1.5,2.4-2.4,5-2.5,7.8c-0.6,2.8-0.5,5.6,0.4,8.4c0.6,2.7,1.9,5.1,3.8,7.1
			c1.5,2.3,3.4,4.1,5.9,5.4c4.9,2.6,10.8,3.9,16.2,2.1c1.7-0.7,3.3-1.4,5-2.1C923.4,607.7,926,605.2,927.8,602.1L927.8,602.1z"/>
	</g>
	<path class="st0" d="M930.3,620.7c-0.7-5.7-4.8-10.2-8.7-14.3c-10-10.5-21.2-21.2-35.4-24.3c-4.7-1-10.2-0.9-13.5,2.5
		c-4,4.1-3,10.7-1.7,16.3l-3.4,1.8c-2.4-0.1-4.9-0.1-7.3-0.2c-5.2-0.1-10.5-0.1-15.4,1.8c-5.3,2.2-9.4,6.5-13.3,10.7
		c-2.9,3.1-5.8,6.2-8.7,9.3c-1.3,1.4-2.6,2.8-3.7,4.5c-3.2,5.2-3,12.3,0.6,17.2l18.8-14c-5.3,9.2-17.5,13.3-21.8,23.1
		c-2.1,4.8-1.9,10.6,0.5,15.3c2.4,4.7,7.1,8.1,12.3,9.1c-0.8,0.6-1.3,1.7-1.3,2.7l1.2,3.9c-0.8,3.3,0.7,7,3.4,8.9s6.7,1.9,9.5,0
		c-0.1,6.4,6.6,12.1,12.9,10.9c2-0.4,4.1-1.4,6.1-0.8c1.4,0.4,2.5,1.5,3.6,2.4c5.1,4,12.3,4.4,18.4,2.3c6.1-2.1,11.3-6.2,16-10.7
		c10.3-9.8,19.2-21.9,22.4-35.8c2.7-11.6,0.8-24.6-6-34.2l5.1,3.2C926.6,632.9,931.1,626.3,930.3,620.7z"/>
	<path class="st1" d="M791.6,188.1c-1.6-1-3.4-1.6-5.2-2.2c-0.7-0.2-1.4-0.4-2.1-0.6c0,0,0,0,0,0c-0.1-0.1-0.2-0.1-0.3-0.2
		c-0.2-0.3-0.6-0.8-0.4-0.5c-0.1-0.2-0.2-0.3-0.2-0.4c-0.4-0.8-0.8-1.6-1.2-2.4c0-0.1-0.1-0.2-0.1-0.3c0,0,0,0,0,0
		c-0.2-0.4-0.3-0.9-0.5-1.3c0-0.1-0.1-0.3-0.1-0.4c0.2-0.8,0.3-1.6,0.4-2.4c0.2-3.1-2.9-6.1-6-6c-2.6,0.1-4.6,1.6-5.5,3.7
		c-0.8,0.9-1.3,2.1-1.4,3.3c-0.3,0.4-0.6,0.8-0.9,1.3c-0.4,0.6-1.2,1.3-1.5,2c-0.1,0.1-0.1,0.1-0.2,0.2c-0.3,0.3-0.6,0.7-0.8,1
		c-0.6,0.6-1.2,1.2-1.8,1.8c0,0,0,0,0,0c0,0,0,0,0,0c-0.4,0.2-0.7,0.5-1,0.7c-0.1,0.1-0.4,0.2-0.6,0.4c-0.1,0-0.2,0-0.4,0.1
		c-0.4,0.1-0.8,0.2-1.1,0.3c-0.1,0-0.2,0-0.3,0c-3,0.1-5.5,2.2-5.9,5.2c-0.4,2.9,1.4,5.8,4.3,6.6c0.4,0.1,0.7,0.2,1.1,0.3
		c0.1,0,0.5,0.2,0.7,0.3c0.2,0.1,0.3,0.1,0.4,0.2c0.3,0.2,0.6,0.3,1,0.5c0.4,0.2,0.7,0.4,1.1,0.7c0.2,0.1,0.6,0.5,0.8,0.6
		c0,0,0,0,0,0c0.3,0.2,0.5,0.5,0.8,0.7c0.5,0.5,1,1.1,1.5,1.6c0,0,0,0,0,0c0.2,0.3,0.4,0.5,0.6,0.8c0.4,0.6,0.8,1.3,1.1,1.9
		c0.1,0.1,0.1,0.2,0.2,0.3c0.1,0.3,0.2,0.6,0.3,1c0.9,2.9,3.6,4.7,6.6,4.3c3-0.4,5-2.9,5.2-5.9c0.1-0.2,0.2-0.7,0.3-0.9c0,0,0,0,0,0
		c0.1-0.3,0.3-0.5,0.5-0.8c0,0,0-0.1,0.1-0.1c0.2-0.2,0.4-0.4,0.6-0.6c0.3-0.3,0.5-0.5,0.8-0.7c0,0,0,0,0.1,0c0.7-0.4,1.3-0.8,2-1.2
		c0.1-0.1,0.2-0.1,0.3-0.2c0.1,0,0.2-0.1,0.4-0.1c0.1-0.1,0.3-0.1,0.4-0.2c1.6-0.6,3.3-1.1,4.9-1.5c2.3-0.7,4-2.6,4.3-5
		C794.8,191.7,793.6,189.4,791.6,188.1z M774.2,193.3c-0.2,0.2-0.4,0.3-0.6,0.5c-0.3-0.3-0.6-0.7-1-1c0.4-0.4,0.8-0.8,1.2-1.2
		c0.3,0.4,0.6,0.8,1,1.2C774.6,193,774.4,193.1,774.2,193.3z M769.8,177.3C769.8,177.3,769.8,177.3,769.8,177.3
		C769.8,177.3,769.8,177.3,769.8,177.3C769.8,177.2,769.8,177.2,769.8,177.3C769.8,177.2,769.8,177.2,769.8,177.3z M769.8,176.8
		c0,0.1,0,0.1,0,0.2c0,0,0,0,0,0.1C769.8,176.5,769.9,176.6,769.8,176.8z M784.5,200.9c0.2-0.1,0.4-0.2,0.6-0.2
		C784.8,200.8,784.6,200.9,784.5,200.9z"/>
	<path class="st3" d="M775.8,177.5c0,1.6-0.9,3-1.8,4.3c-1.7,2.5-3.4,5-5.7,7c-2.2,2-5.1,3.5-8.1,3.6c6.4,1.7,11.7,6.8,13.7,13.1
		c0.1-3.4,2.4-6.5,5.2-8.4c2.8-1.9,6.2-2.9,9.5-3.8c-2.6-1.7-6.1-1.6-8.5-3.6c-1-0.9-1.8-2.1-2.4-3.3c-1.2-2.3-2.1-4.8-2.8-7.4"/>
	<g>
		<path class="st1" d="M848,128.1c0,0-0.1,0-0.1,0c0,0,0,0,0,0C847.9,128.1,847.9,128.1,848,128.1z"/>
		<path class="st1" d="M813.8,134.4C814.2,134.2,814.7,133.8,813.8,134.4L813.8,134.4z"/>
		<path class="st1" d="M859.4,133.5c-1.3-0.4-2.6-0.8-3.8-1.2c-0.5-0.2-1.2-0.6-1.7-0.7c-0.3-0.1-0.6-0.3-1-0.4
			c-1.2-0.6-2.4-1.2-3.5-2c-0.3-0.2-1-0.9-1.4-1c0.3,0.1,0.6,0.6-0.1,0c0,0,0,0,0,0c0,0,0,0,0,0c0,0,0,0,0,0
			c-0.3-0.2-0.5-0.4-0.8-0.7c-0.9-0.8-1.7-1.6-2.4-2.5c-0.2-0.2-0.3-0.5-0.5-0.7c-0.3-0.5-0.6-1-0.9-1.5c-0.2-0.3-0.3-0.6-0.5-0.9
			c0,0-0.1-0.1-0.1-0.2c-0.1-0.2-0.2-0.5-0.2-0.5c-0.1-0.2-0.2-0.5-0.2-0.7c-0.2-0.6-0.3-1.2-0.4-1.8c0-0.3-0.1-0.6-0.1-0.8
			c0-0.3-0.1-0.5-0.1-0.8c0-2.7-1.6-5.3-4.3-6c-3-0.7-6.6,0.9-7.4,4.2c-0.3,1.3-0.7,2.6-1.1,3.8c-0.1,0.3-0.2,0.6-0.3,0.9
			c-0.3,0.6-0.5,1.1-0.8,1.7c-0.6,1.2-1.3,2.3-2.1,3.4c-0.2,0.3-0.3,0.5-0.5,0.7c0,0,0,0.1-0.1,0.1c-0.4,0.5-0.8,0.9-1.2,1.4
			c-0.9,1-1.8,1.9-2.8,2.8c-0.4,0.3-1,0.7-1.3,1.1c0,0,0,0,0,0c-0.3,0.2-0.6,0.4-0.9,0.6c-1.1,0.7-2.2,1.4-3.3,1.9
			c-0.6,0.3-1.3,0.5-1.8,0.9c0.1,0,0.1-0.1,0.1-0.1c0,0,0,0-0.1,0c-0.3,0.1-0.7,0.2-1,0.4c-2.4,0.8-4.5,3.1-4.4,5.8
			c0.1,2.7,1.8,4.9,4.4,5.8c0.6,0.2,1.1,0.4,1.7,0.6c0.2,0.1,0.4,0.2,0.6,0.3c1.1,0.5,2.2,1.1,3.2,1.8c0.5,0.3,0.9,0.6,1.4,0.9
			c0.1,0,0.1,0.1,0.2,0.1c0,0,0.1,0.1,0.4,0.3c0,0,0.1,0.1,0.1,0.1c0,0,0.1,0,0.1,0.1c0,0-0.1,0-0.1,0c0.9,0.7,1.8,1.5,2.6,2.4
			c0.4,0.4,0.7,0.8,1.1,1.2c0.2,0.2,0.4,0.4,0.5,0.6c0-0.1-0.1-0.1-0.1-0.2c0,0.1,0.1,0.1,0.1,0.2c0,0,0,0,0,0c0.5,0.6,0.2,0.4,0,0
			c0.6,0.9,1.3,1.8,1.9,2.8c0.6,1,1,2,1.5,3c0.1,0.2,0.2,0.4,0.2,0.7c0.2,0.6,0.4,1.3,0.6,1.9c0.8,2.9,3.6,4.7,6.6,4.3
			c2.7-0.4,5.5-2.9,5.2-5.9c-0.1-0.6-0.1-1.3,0-1.9c0,0,0-0.2,0-0.4c0-0.1,0-0.3,0.1-0.3c0.1-0.6,0.3-1.2,0.5-1.8c0,0,0-0.1,0-0.1
			c0.1-0.2,0.2-0.4,0.3-0.6c0.3-0.6,0.6-1.1,1-1.7c0.2-0.2,0.4-0.5,0.6-0.8c0.9-1,1.8-1.9,2.8-2.7c0,0,0,0,0,0
			c0.3-0.2,0.6-0.4,0.9-0.6c0.6-0.4,1.2-0.8,1.8-1.1c1.2-0.7,2.4-1.3,3.7-1.8c0,0,0,0,0.1,0c0.3-0.1,0.7-0.3,1-0.4
			c0.7-0.3,1.3-0.5,2-0.7c1.4-0.5,2.8-1,4.3-1.4c2.4-0.8,4.5-3.1,4.4-5.8C863.7,136.6,862.1,134.2,859.4,133.5z M841.8,118.9
			c0-0.1,0-0.1,0-0.2C841.8,118.7,841.8,118.8,841.8,118.9z M841.7,118.2C841.7,118,841.7,118.1,841.7,118.2L841.7,118.2z
			 M837,142.9c-1.3,1.1-2.6,2.4-3.7,3.9c-1.9-2.3-4-4.4-6.4-6.2c3.2-2.4,6-5.2,8.3-8.4c1,1.3,2,2.4,3.2,3.5c1.3,1.2,2.8,2.4,4.3,3.4
			C840.6,140.1,838.7,141.4,837,142.9z M842.8,154C842.8,154,842.8,154,842.8,154C842.6,154.2,842.4,154.4,842.8,154z"/>
		<path class="st1" d="M824.3,154.6C824.4,154.7,824.4,154.7,824.3,154.6C824.4,154.7,824.4,154.7,824.3,154.6
			C824.3,154.6,824.3,154.6,824.3,154.6z"/>
		<path class="st1" d="M819.7,150c0,0,0.2,0.2,0.5,0.4c0,0,0,0,0,0C820,150.3,819.8,150.2,819.7,150z"/>
	</g>
	<path class="st2" d="M835.7,116.7c-2.4,10.9-10.8,20.3-21.4,23.9c9.6,3.1,17.4,11.2,20.2,20.9c-0.6-5.8,2.9-11.4,7.5-15
		s10.3-5.4,15.9-7.2c-5.3-1.5-10.5-3.7-14.7-7.3c-4.2-3.6-7.2-8.8-7.4-14.3"/>
	<path class="st1" d="M859.5,227.8c-1.8-2.5-4-3.9-6.9-4.9c-0.7-0.2-1.4-0.5-2.1-0.7c-0.1-0.1-0.3-0.2-0.4-0.2
		c-0.1-0.1-0.2-0.1-0.3-0.2c-0.3-0.3-0.6-0.6-0.9-0.9c-0.3-0.3-0.9-0.8-1-1.2c0.5,0.6,0.6,0.8,0.3,0.4c-0.1-0.2-0.2-0.3-0.4-0.5
		c-0.3-0.4-0.6-0.9-0.9-1.3c-0.3-0.5-0.6-0.9-0.9-1.4c-0.1-0.1-0.2-0.3-0.3-0.5c0-0.1-0.1-0.2-0.1-0.3c0-0.1-0.1-0.3-0.1-0.4
		c0,0,0,0,0,0c0-0.3,0-0.5,0.1-0.8c0-0.2,0-0.4,0-0.6c0.6-3.1-0.9-6.6-4.2-7.4c-3-0.7-6.7,0.9-7.4,4.2c-0.2,0.9-0.5,1.9-0.8,2.8
		c0,0.1-0.1,0.2-0.1,0.3c-0.2,0.3-0.3,0.6-0.5,0.9c-0.5,0.9-1,1.7-1.5,2.5c0,0,0,0,0,0c-0.3,0.3-0.6,0.7-0.9,1
		c-0.6,0.6-1.2,1.2-1.8,1.8c-0.1,0.1-0.1,0.1-0.2,0.2c-0.4,0.3-0.8,0.5-1.2,0.8c-0.7,0.4-1.4,0.8-2.1,1.1c-0.1,0-0.2,0.1-0.3,0.1
		c-0.5,0.2-0.9,0.3-1.4,0.4c-2.3,0.7-4,2.6-4.3,5c-0.3,2.2,0.7,4.9,2.9,6c0.8,0.4,1.5,0.8,2.3,1.2c0.4,0.3,0.8,0.5,1.2,0.8
		c0.1,0.3,0.9,0.8,1.1,0.9c0.3,0.2,0.5,0.5,0.8,0.8c0.6,0.6,1.2,1.3,1.8,1.9c0,0,0,0,0,0c0.3,0.4,0.6,0.8,0.8,1.2
		c0.5,0.7,0.9,1.5,1.3,2.3c0.1,0.3,0.3,0.6,0.4,0.8c0.1,0.2,0.1,0.3,0.2,0.5c0.3,0.8,0.5,1.7,0.7,2.5c1,3,4.2,5.2,7.4,4.2
		c2.9-1,4.7-3.7,4.3-6.7c0-0.1,0.1-0.1,0.1-0.1c0.2-0.2,0.4-0.3,0.4-0.4c0.6-0.6,1.2-1.1,1.8-1.6c0.3-0.3,0.7-0.5,1-0.8
		c0.1-0.1,0.3-0.2,0.4-0.3c1.4-1,2.8-2,4.3-2.9c0.5-0.3,1.6-1.2,2.2-1.1c-0.8,0.3-0.9,0.4-0.3,0.1c0.1,0,0.3-0.1,0.4-0.1
		c0.5-0.2,1.1-0.4,1.6-0.5C859.3,235.6,861.8,231,859.5,227.8z M843.7,244.7c0,0,0-0.1,0.1-0.2c0,0,0,0,0,0
		C843.8,244.6,843.8,244.6,843.7,244.7C843.7,244.7,843.7,244.7,843.7,244.7z M839.3,232.6c-0.2,0.1-0.3,0.3-0.5,0.4
		c-0.9-1.2-1.9-2.4-2.9-3.4c0.9-0.7,1.8-1.5,2.6-2.4c0.6,0.7,1.2,1.4,1.8,2.1c0.5,0.5,1,1,1.5,1.5
		C841,231.3,840.1,231.9,839.3,232.6z M845.4,215.8C845.4,215.8,845.4,215.8,845.4,215.8C845.4,215.8,845.4,215.8,845.4,215.8
		C845.4,215.8,845.4,215.8,845.4,215.8z M845.6,216.3c-0.1-0.1-0.1-0.2-0.2-0.3c0,0,0-0.1,0-0.1
		C845.5,216.1,845.6,216.2,845.6,216.3z M844,244.3C844,244.3,844,244.3,844,244.3C844,244.3,844,244.3,844,244.3
		C844,244.3,844,244.3,844,244.3z"/>
	<path class="st5" d="M839.7,212.6c-1.5,7.6-7.6,14.1-15.1,16.1c6.6,3.1,11.7,9.4,13.4,16.5c-0.9-2.5,1.3-5,3.3-6.7
		c3.9-3.2,8-6.4,12.9-7.7c-1.4-2.1-4.3-2.2-6.6-3.3c-2.4-1.1-4-3.4-5.5-5.5c-1.5-2.1-3.1-4.6-2.7-7.2"/>
	<g>
		<path class="st1" d="M921,638.1c4.9,0.6,9.3-2.4,12.2-6.1c2.8-3.7,3.7-8.4,3-12.9c-0.7-4.8-3.4-9-6.4-12.7c-2.6-3.2-5.5-6.1-8.4-9
			c-6-6-12.6-11.8-20-15.9c-7.4-4.1-17.1-7.6-25.6-5.3c-5.5,1.5-9.8,5.8-11.1,11.4c-1.2,4.9-0.4,10,0.7,14.9
			c0.7,3.1,4.4,5.2,7.4,4.2c3.2-1,4.9-4.1,4.2-7.4c-0.2-0.8-0.3-1.6-0.5-2.4c-0.1-0.4-0.1-0.7-0.2-1.1c-0.2-1.4,0.1,0.9,0-0.1
			c-0.1-0.8-0.2-1.6-0.2-2.4c0-0.4,0-0.7,0-1.1c0-0.3,0.2-1.9,0-0.8c-0.1,1,0.1-0.2,0.1-0.4c0.1-0.3,0.2-0.7,0.3-1
			c0.4-1.2-0.5,0.9,0,0c0.2-0.4,0.4-0.7,0.6-1.1c0.3-0.5-0.4,0.5-0.4,0.5c0.1-0.1,0.2-0.3,0.4-0.4c0.2-0.2,0.8-0.6,0.9-0.9
			c0,0-1,0.7-0.5,0.4c0.2-0.1,0.3-0.2,0.4-0.3c0.2-0.1,1.5-0.7,0.5-0.3c-0.9,0.4,0.3-0.1,0.6-0.2c0.3-0.1,0.7-0.2,1-0.2
			c1.1-0.2-1.3,0.1-0.2,0c0.5,0,1-0.1,1.5-0.1c0.7,0,1.5,0,2.2,0.1c1.1,0.1-1.4-0.2,0,0c0.4,0.1,0.8,0.2,1.2,0.2
			c1.7,0.4,3.4,0.9,5,1.5c0.4,0.2,0.9,0.3,1.3,0.5c0.2,0.1,0.4,0.2,0.6,0.2c0,0-1.1-0.5-0.5-0.2c0.9,0.4,1.7,0.8,2.5,1.2
			c3.1,1.6,6.1,3.5,8.9,5.6c0.2,0.1,0.3,0.3,0.5,0.4c-0.1-0.1-1.1-0.8-0.2-0.2c0.3,0.3,0.6,0.5,1,0.8c0.7,0.6,1.5,1.2,2.2,1.9
			c1.4,1.2,2.7,2.4,4,3.6c2.6,2.5,5.1,5,7.5,7.6c1.3,1.3,2.5,2.7,3.7,4.1c0.1,0.1,0.2,0.4,0.4,0.5c0,0-0.7-0.9-0.3-0.4
			c0.2,0.3,0.5,0.7,0.7,1c0.5,0.8,1,1.6,1.5,2.4c0.2,0.4,0.4,0.9,0.6,1.3c-0.7-1.1-0.3-0.7-0.2-0.3c0.1,0.3,0.2,0.5,0.3,0.8
			c0.1,0.4,0.2,0.9,0.3,1.4c0,0.2,0,0.4,0.1,0.6c-0.1-0.4-0.1-1.3-0.1-0.4c0,0.4,0,0.8,0,1.1c0,0.9,0.3-1.4,0-0.1
			c-0.1,0.4-0.2,0.9-0.3,1.3c-0.1,0.2-0.1,0.3-0.2,0.5c-0.3,0.8,0.1-0.4,0.2-0.5c-0.2,0.2-0.4,0.7-0.5,1c-0.1,0.2-1,1.5-0.4,0.6
			c0.6-0.8-0.2,0.1-0.4,0.3c-0.1,0.1-0.3,0.2-0.3,0.3c-0.4,0.4,1.2-0.8,0.4-0.3c-0.3,0.2-0.6,0.3-0.9,0.5c-0.4,0.3,0.7-0.3,0.7-0.3
			c-0.2,0-0.4,0.1-0.6,0.2c-0.1,0-0.3,0.1-0.4,0.1c-0.6,0.2,1.5,0,0.5-0.1c-0.4,0-0.8,0-1.3-0.1c-1.4-0.2-3.3,0.8-4.2,1.8
			c-1,1-1.8,2.7-1.8,4.2c0.1,1.6,0.6,3.2,1.8,4.2C918,637.4,919.3,637.8,921,638.1L921,638.1z"/>
	</g>
	<g>
		<path class="st1" d="M877.5,596.9c-6.6-0.2-13.2-0.5-19.7-0.5c-6.7,0-13.4,0.8-19.2,4.4c-5.1,3.2-9.2,7.7-13.2,12.1
			c-2.2,2.4-4.4,4.8-6.7,7.2c-2.2,2.3-4.3,4.8-5.7,7.7c-3,6.8-2.7,15.1,1.6,21.3c1.8,2.6,5.3,4,8.2,2.2c2.5-1.6,4.1-5.5,2.2-8.2
			c-0.4-0.5-0.7-1-1-1.6c-0.1-0.2-0.2-0.5-0.3-0.7c-0.5-1,0.2,0.3,0.2,0.4c0,0-0.5-1.5-0.5-1.6c-0.1-0.3-0.2-0.6-0.2-0.9
			c0-0.1,0-0.2-0.1-0.4c-0.1-0.7-0.1-0.5,0.1,0.5c0.2-0.3-0.1-1.2-0.1-1.5c0-0.3,0.2-1.6,0.1-1.9c0.1,0.1-0.3,1.5-0.1,0.5
			c0.1-0.2,0.1-0.5,0.2-0.7c0.2-0.7,0.4-1.3,0.6-2c0.3-0.8-0.7,1.3-0.1,0.2c0.1-0.2,0.2-0.5,0.4-0.7c0.3-0.5,0.6-0.9,0.9-1.4
			c0.8-1.2-0.6,0.6,0,0c0.2-0.3,0.5-0.6,0.7-0.8c0.5-0.6,1-1.1,1.5-1.6c2.1-2.2,4.1-4.4,6.2-6.6c1.9-2,3.7-4,5.6-6
			c0.9-0.9,1.8-1.7,2.7-2.5c0.5-0.4,0.9-0.8,1.4-1.2c0.7-0.6-1.2,0.8-0.1,0.1c0.3-0.2,0.7-0.5,1-0.7c0.5-0.3,0.9-0.6,1.4-0.9
			c0.2-0.1,1.5-1,1.8-0.9c0,0-1.5,0.5-0.3,0.1c0.3-0.1,0.6-0.2,0.8-0.3c0.7-0.2,1.4-0.4,2.1-0.6c0.6-0.1,1.5-0.4,2.2-0.4
			c-0.2,0-1.4,0.2-0.3,0c0.3,0,0.6-0.1,0.9-0.1c1.5-0.1,3-0.2,4.5-0.2c6.8,0,13.6,0.3,20.4,0.5c3.1,0.1,6.1-2.8,6-6
			C883.3,599.6,880.8,597,877.5,596.9L877.5,596.9z"/>
	</g>
	<g>
		<g>
			<path class="st1" d="M907,627.9c0.8,0.8,1.6,1.5,2.4,2.4c0.4,0.4,0.7,0.8,1.1,1.3c0.5,0.7,0,0.6-0.1-0.2c0.1,0.3,0.5,0.7,0.6,0.9
				c1.3,1.9,2.4,3.8,3.3,5.9c0.1,0.2,0.5,1,0.1,0.1c-0.4-1,0.1,0.2,0.1,0.3c0.2,0.5,0.3,0.9,0.5,1.4c0.4,1.2,0.8,2.4,1,3.6
				c0.3,1.1,0.5,2.2,0.7,3.3c0,0.2,0.1,0.5,0.1,0.7c0.2,1-0.1-0.4-0.1-0.5c-0.1,0.6,0.2,1.4,0.2,2.1c0.2,2.3,0.2,4.6,0,6.9
				c0,0.6-0.1,1.1-0.2,1.7c0,0.3-0.1,0.6-0.1,0.9c0-0.1,0.2-1.5,0.1-0.5c-0.2,1.2-0.4,2.5-0.7,3.7c-0.6,2.4-1.3,4.7-2.2,7
				c-0.1,0.3-0.3,0.6-0.4,0.9c-0.3,0.8,0.6-1.4,0-0.1c-0.2,0.5-0.4,1-0.7,1.5c-0.6,1.2-1.2,2.5-1.9,3.7c-1.2,2.2-2.5,4.3-3.9,6.3
				c-0.7,1-1.3,2.2-2.2,3c1-1,0.3-0.4,0.1-0.1c-0.2,0.3-0.4,0.5-0.6,0.8c-0.4,0.5-0.9,1.1-1.3,1.6c-3.3,3.9-6.9,7.6-10.8,11
				c-0.5,0.4-1,0.8-1.5,1.2c-0.3,0.2-0.5,0.5-0.8,0.7c0.1-0.1,1.1-0.8,0.2-0.2c-1.1,0.8-2.2,1.5-3.3,2.2c-1.1,0.7-2.2,1.3-3.3,1.8
				c-0.5,0.2-0.9,0.7,0.1,0c-0.2,0.1-0.6,0.2-0.8,0.3c-0.6,0.2-1.3,0.4-1.9,0.6c-0.6,0.2-1.3,0.3-1.9,0.5c-0.3,0.1-0.5,0.1-0.8,0.1
				c-0.5,0.1-0.8-0.1,0.4-0.1c-1.3,0-2.6,0.2-3.9,0.1c-0.2,0-0.5-0.1-0.8-0.1c1.2-0.1,0.9,0.2,0.4,0.1c-0.6-0.1-1.3-0.2-1.9-0.4
				c-0.5-0.1-1-0.3-1.5-0.5c-1-0.3,0.4,0.1,0.4,0.2c0-0.1-0.9-0.4-1-0.5c-0.3-0.2-0.6-0.3-0.8-0.5c-0.2-0.1-0.3-0.2-0.5-0.3
				c-0.4-0.3-0.4-0.3,0,0c0.1,0.1,0.2,0.2,0.3,0.2c-0.2-0.2-0.4-0.3-0.6-0.5c-0.3-0.3-0.6-0.5-0.9-0.8c-2.1-1.7-4.1-2.7-6.7-3
				c-1.9-0.2-3.9,0.3-5.8,0.8c-0.4,0.1-0.7,0.2-1.1,0.3c-0.1,0-0.3,0.1-0.4,0.1c-0.6,0.1-0.5,0.1,0.6-0.1c-0.4-0.1-1.2,0-1.7,0
				c1.4,0,1.1,0.2,0.6,0.1c-0.3-0.1-0.7-0.1-1-0.2c-0.2-0.1-0.4-0.1-0.6-0.2c-1.1-0.4,1.1,0.6,0.2,0.1c-0.5-0.3-1.1-0.6-1.6-1
				c-0.7-0.4,1.1,1,0.3,0.2c-0.2-0.2-0.5-0.5-0.7-0.7c-0.2-0.2-0.3-0.3-0.5-0.5c-0.8-0.9,0.7,1.2,0.1,0.1c-0.3-0.5-0.5-1-0.8-1.5
				c0.7,1.2,0.4,1,0.2,0.5c-0.1-0.3-0.2-0.6-0.3-1c0-0.2-0.3-1.3-0.1-0.2c0.2,1.1,0-0.3,0-0.6c0-4.4-5.2-7.7-9-5.2
				c-0.3,0.2-0.6,0.3-0.8,0.5c-0.5,0.4,1.4-0.4,0.2-0.1c-0.2,0.1-0.5,0.1-0.7,0.2c-1.2,0.4,1,0,0.3,0c-0.3,0-0.6,0-0.9,0
				c-0.2,0-1.4-0.1-0.3,0c1,0.1-0.1-0.1-0.3-0.1c-0.2-0.1-0.5-0.2-0.7-0.2c1.1,0.1,0.8,0.4,0.3,0c-1-0.6,0.1-0.1,0.2,0.2
				c0-0.2-0.5-0.5-0.7-0.6c-0.5-0.5-0.3-0.7,0.1,0.2c-0.1-0.2-0.3-0.4-0.4-0.6c-0.1-0.2-0.5-1.2-0.2-0.2c0.4,0.9,0-0.1-0.1-0.3
				c-0.1-0.3-0.1-0.6-0.2-0.9c-0.2-0.7,0,1.2,0.1,0.5c0-0.3,0-0.6,0-0.9c0-1.1-0.2,1.1-0.1,0.3c0.2-1.2,0.3-2.2,0-3.4
				c-0.1-0.4-0.3-0.8-0.4-1.2c-0.2-0.7-0.4-1.4-0.6-2.1c0-0.2-0.1-0.4-0.2-0.5c0,0.1-0.1,3.3,0.2,2c-0.1,0.4-0.2,0.7-0.5,1
				c-0.3,0.4-0.3,0.4,0.1,0.1c3.3-2.9,1.6-9.2-2.6-10c-1-0.2-1.9-0.5-2.9-0.8c-0.8-0.3,0.3-0.1,0.4,0.2c0,0-0.7-0.3-0.7-0.3
				c-0.5-0.3-1-0.5-1.5-0.8c-0.4-0.2-0.7-0.5-1.1-0.7c1.1,0.6,0.7,0.5,0.3,0.2c-0.2-0.2-0.4-0.3-0.6-0.5c-0.4-0.3-0.7-0.7-1.1-1.1
				c-0.2-0.2-0.3-0.4-0.5-0.6c-0.9-0.9,0.5,0.8,0.1,0.2c-0.6-0.9-1.1-1.7-1.6-2.6c-0.4-0.7,0.4,1.1,0.1,0.3
				c-0.1-0.3-0.2-0.5-0.3-0.8c-0.2-0.6-0.4-1.2-0.5-1.8c-0.1-0.3-0.1-0.5-0.2-0.8c-0.2-0.9,0,0.3,0,0.4c-0.2-0.1-0.1-1.4-0.1-1.7
				c0-0.5,0-1,0-1.5c0-0.2,0-1.1,0-0.2c0,0.9,0-0.2,0.1-0.4c0.1-0.5,0.2-1.1,0.4-1.6c0.1-0.3,0.2-0.5,0.3-0.8c0.2-0.7,0.3,0-0.1,0.3
				c0.2-0.1,0.5-1,0.6-1.2c0.2-0.4,0.5-0.9,0.8-1.3c0.2-0.3,0.4-0.6,0.7-1c0.5-0.8-0.3,0.3-0.3,0.4c0.1-0.2,0.3-0.4,0.4-0.5
				c0.6-0.7,1.3-1.4,1.9-2.1c2.7-2.6,5.7-4.9,8.6-7.2c3.6-2.9,6.9-6.2,9.2-10.2c1.6-2.7,0.7-6.7-2.2-8.2c-2.9-1.5-6.5-0.7-8.2,2.2
				c-0.3,0.4-0.5,0.9-0.8,1.3c-0.1,0.2-0.3,0.4-0.4,0.6c-0.3,0.4-0.8,0.7,0.2-0.3c-0.7,0.7-1.3,1.6-2,2.3c-1.4,1.4-2.9,2.8-4.5,4
				c-3.1,2.5-6.4,4.9-9.2,7.9c-3.5,3.7-6.3,8.2-7.1,13.2c-0.9,5.9-0.1,12.1,3.3,17.1c3.5,5.1,8.8,9,14.9,10.2
				c-0.9-3.3-1.8-6.7-2.6-10c-2.6,2.2-3.6,6-2.6,9.2c0.3,1.1,0.7,2.1,1,3.2c0-1.1,0-2.1,0-3.2c-1.2,5.9,0.9,11.9,5.9,15.4
				c4.6,3.2,11.2,3.2,15.9,0.2c-3-1.7-6-3.5-9-5.2c0,6.2,3.8,12.2,9.3,15c2.7,1.4,5.9,2.3,9,2c1.8-0.2,3.6-0.6,5.4-1.1
				c1.3-0.4-0.9-0.1-0.1,0c0.5,0.1,1.3,0.3-0.1,0c-1.2-0.3-0.7-0.4-0.3-0.1c0.2,0.1,0.5,0.3,0.7,0.4c-0.6-0.5-0.8-0.6-0.4-0.3
				c4.8,4.3,11,6.5,17.5,6.2c6.3-0.3,12.2-2.6,17.4-6.1c4.9-3.4,9.3-7.5,13.4-11.8c4.1-4.3,7.8-9,11-14c6.1-9.6,10.1-20.7,10.1-32.2
				c0-12.3-4.4-24.9-13.6-33.3c-2.3-2.1-6.2-2.5-8.5,0C904.9,621.7,904.5,625.6,907,627.9L907,627.9z"/>
		</g>
	</g>
</g>
</svg>
